<svg width="24" height="24" viewBox="0 0 24 24" fill="none" xmlns="http://www.w3.org/2000/svg">
<path d="M12 4.8418C12.4971 4.8418 12.9004 5.24513 12.9004 5.74219V11.1045H16.374L16.4658 11.1094C16.9197 11.1554 17.2744 11.5389 17.2744 12.0049C17.2744 12.4709 16.9197 12.8543 16.4658 12.9004L16.374 12.9053H12.0088C11.9256 12.9053 11.845 12.8932 11.7686 12.8721C11.7608 12.87 11.7528 12.8685 11.7451 12.8662C11.7392 12.8644 11.7334 12.8623 11.7275 12.8604C11.7042 12.853 11.6816 12.8442 11.6592 12.835C11.6255 12.8207 11.593 12.8042 11.5615 12.7861C11.3122 12.6464 11.1348 12.3939 11.1045 12.0957L11.0996 12.0039V5.74219C11.0996 5.24513 11.5029 4.8418 12 4.8418Z" fill="#3C3C43" fill-opacity="0.7"/>
<path fill-rule="evenodd" clip-rule="evenodd" d="M12.0088 1C18.0839 1 23.0088 5.92487 23.0088 12C23.0088 18.0751 18.0839 23 12.0088 23C5.93366 23 1.00879 18.0751 1.00879 12C1.00879 5.92487 5.93366 1 12.0088 1ZM12.0088 2.7998C6.92777 2.7998 2.80859 6.91898 2.80859 12C2.80859 17.081 6.92777 21.2002 12.0088 21.2002C17.0898 21.2002 21.209 17.081 21.209 12C21.209 6.91898 17.0898 2.7998 12.0088 2.7998Z" fill="#3C3C43" fill-opacity="0.7"/>
</svg>
