<svg width="16" height="16" viewBox="0 0 16 16" fill="none" xmlns="http://www.w3.org/2000/svg">
<path d="M7.76499 3.40234C9.20094 3.40234 10.3653 4.56732 10.3653 6.00326V9.9974C10.3651 11.4332 9.20083 12.5977 7.76499 12.5977H3.26499C1.82916 12.5977 0.66491 11.4332 0.664734 9.9974V6.00326C0.664735 4.56732 1.82905 3.40234 3.26499 3.40234H7.76499Z" fill="#3C3C43" fill-opacity="0.7"/>
<path d="M14.1725 4.6263C14.7518 4.47275 15.3422 4.90831 15.3425 5.5293V10.4577C15.3425 11.0774 14.7545 11.5132 14.1758 11.362L14.0599 11.3236L11.8093 10.4173C11.3299 10.2242 11.0156 9.75902 11.0156 9.24219V6.75586C11.0157 6.24093 11.3278 5.77698 11.8047 5.58268L14.0567 4.66536L14.1725 4.6263Z" fill="#3C3C43" fill-opacity="0.7"/>
</svg>
