<svg width="16" height="16" viewBox="0 0 16 16" fill="none" xmlns="http://www.w3.org/2000/svg">
<path d="M7.76496 3.40234C9.2009 3.40234 10.3652 4.56732 10.3652 6.00326V9.9974C10.365 11.4332 9.2008 12.5977 7.76496 12.5977H3.26496C1.82913 12.5977 0.664879 11.4332 0.664703 9.9974V6.00326C0.664704 4.56732 1.82902 3.40234 3.26496 3.40234H7.76496Z" fill="#020203"/>
<path d="M14.1725 4.6263C14.7518 4.47275 15.3422 4.90831 15.3424 5.5293V10.4577C15.3424 11.0774 14.7545 11.5132 14.1758 11.362L14.0599 11.3236L11.8092 10.4173C11.3298 10.2242 11.0156 9.75902 11.0156 9.24219V6.75586C11.0157 6.24093 11.3278 5.77698 11.8047 5.58268L14.0566 4.66536L14.1725 4.6263Z" fill="#020203"/>
</svg>
