<svg width="14" height="16" viewBox="0 0 14 16" fill="none" xmlns="http://www.w3.org/2000/svg">
<path fill-rule="evenodd" clip-rule="evenodd" d="M7.18172 0.671244C8.93935 0.762768 10.3368 2.21561 10.3393 3.99546V4.69208C11.0661 4.72775 11.5667 4.81446 11.9897 5.02997C12.6169 5.34955 13.1265 5.8598 13.446 6.487C13.8093 7.20003 13.81 8.13327 13.81 10C13.81 11.8668 13.8093 12.8 13.446 13.513C13.1265 14.1402 12.6169 14.6505 11.9897 14.9701C11.2767 15.3334 10.3433 15.3334 8.47664 15.3334H5.52417C3.65733 15.3334 2.72354 15.3334 2.0105 14.9701C1.3833 14.6505 0.873692 14.1402 0.554118 13.513C0.190859 12.8 0.190186 11.8668 0.190186 10C0.190186 8.13327 0.190859 7.20003 0.554118 6.487C0.873692 5.8598 1.3833 5.34955 2.0105 5.02997C2.43358 4.8144 2.93434 4.72773 3.66154 4.69208V3.99546C3.66397 2.2155 5.06131 0.762606 6.81909 0.671244L6.99032 0.666687H7.0105L7.18172 0.671244ZM6.99227 1.86656C5.85309 1.86804 4.92322 2.76244 4.86466 3.88739L4.86141 3.99742V4.66929C5.06827 4.66857 5.28849 4.66669 5.52352 4.66669H8.47599C8.71139 4.66669 8.93226 4.66856 9.1394 4.66929V3.99742C9.13792 2.85834 8.24337 1.92852 7.11857 1.86981L7.00854 1.86656H6.99227Z" fill="#007AFF"/>
</svg>
