<svg width="16" height="16" viewBox="0 0 16 16" fill="none" xmlns="http://www.w3.org/2000/svg">
<path fill-rule="evenodd" clip-rule="evenodd" d="M8.18164 0.671214C9.93927 0.762738 11.3368 2.21558 11.3392 3.99543V4.69205C12.066 4.72772 12.5666 4.81443 12.9896 5.02994C13.6168 5.34952 14.1264 5.85977 14.446 6.48697C14.8092 7.19999 14.8099 8.13324 14.8099 9.99999C14.8099 11.8667 14.8092 12.8 14.446 13.513C14.1264 14.1402 13.6168 14.6505 12.9896 14.97C12.2766 15.3333 11.3432 15.3333 9.47656 15.3333H6.52409C4.65725 15.3333 3.72345 15.3334 3.01042 14.97C2.38322 14.6505 1.87361 14.1402 1.55404 13.513C1.19078 12.8 1.1901 11.8667 1.1901 9.99999C1.1901 8.13324 1.19078 7.19999 1.55404 6.48697C1.87361 5.85977 2.38322 5.34952 3.01042 5.02994C3.4335 4.81437 3.93425 4.72769 4.66146 4.69205V3.99543C4.66389 2.21547 6.06123 0.762576 7.81901 0.671214L7.99023 0.666656H8.01042L8.18164 0.671214ZM7.99219 1.86653C6.853 1.86801 5.92313 2.76241 5.86458 3.88736L5.86133 3.99739V4.66926C6.06819 4.66853 6.28841 4.66666 6.52344 4.66666H9.47591C9.71131 4.66666 9.93218 4.66853 10.1393 4.66926V3.99739C10.1378 2.85831 9.24329 1.92849 8.11849 1.86978L8.00846 1.86653H7.99219Z" fill="#3C3C43" fill-opacity="0.7"/>
</svg>
