<svg width="16" height="16" viewBox="0 0 16 16" fill="none" xmlns="http://www.w3.org/2000/svg">
<path d="M6.27281 3.62162C5.18522 3.09425 3.66506 2.83592 1.62984 2.82675C1.4379 2.8241 1.24973 2.88094 1.09041 2.9897C0.959642 3.07946 0.852598 3.20049 0.778692 3.34213C0.704786 3.48378 0.666283 3.64169 0.66657 3.80199L0.666589 12.1773C0.666589 12.7685 1.0808 13.2146 1.62986 13.2146C3.76923 13.2146 5.91522 13.4176 7.20059 14.6514C7.21817 14.6684 7.24027 14.6797 7.26415 14.684C7.28802 14.6883 7.31261 14.6854 7.33487 14.6757C7.35713 14.6659 7.37607 14.6497 7.38933 14.6291C7.4026 14.6085 7.40961 14.5844 7.4095 14.5597L7.40947 4.62499C7.40953 4.55545 7.39488 4.48672 7.36652 4.42343C7.33817 4.36014 7.29677 4.30377 7.24512 4.25812C6.95069 4.00249 6.62364 3.78839 6.27281 3.62162Z" fill="#3C3C43" fill-opacity="0.7"/>
<path d="M14.3714 2.82677C14.5633 2.8238 14.7515 2.88032 14.9109 2.9888C15.042 3.07855 15.1494 3.19971 15.2235 3.34159C15.2977 3.48347 15.3363 3.64171 15.3359 3.80232L15.3359 12.2357C15.3359 12.4951 15.2344 12.744 15.0538 12.9274C14.8732 13.1109 14.6281 13.214 14.3727 13.214C10.9217 13.2137 9.56564 13.8655 8.79292 14.645C8.77627 14.6616 8.75518 14.6728 8.7323 14.6772C8.70941 14.6817 8.68574 14.6791 8.66427 14.67C8.64279 14.6608 8.62446 14.6454 8.61157 14.6257C8.59869 14.6059 8.59182 14.5828 8.59184 14.5591L8.59181 4.62379C8.5918 4.55429 8.60643 4.4856 8.63473 4.42232C8.66303 4.35904 8.70433 4.30265 8.75587 4.25693C9.05053 4.00179 9.37767 3.78811 9.72847 3.62164C10.8161 3.09305 12.3362 2.83594 14.3714 2.82677Z" fill="#3C3C43" fill-opacity="0.7"/>
</svg>
