<svg width="16" height="16" viewBox="0 0 16 16" fill="none" xmlns="http://www.w3.org/2000/svg">
<path d="M6.27287 3.62162C5.18528 3.09425 3.66511 2.83592 1.6299 2.82675C1.43796 2.8241 1.24978 2.88094 1.09047 2.9897C0.959699 3.07946 0.852655 3.20049 0.778749 3.34213C0.704843 3.48378 0.66634 3.64169 0.666628 3.80199L0.666647 12.1773C0.666647 12.7685 1.08085 13.2146 1.62992 13.2146C3.76929 13.2146 5.91528 13.4176 7.20064 14.6514C7.21823 14.6684 7.24033 14.6797 7.2642 14.684C7.28808 14.6883 7.31267 14.6854 7.33493 14.6757C7.35718 14.6659 7.37612 14.6497 7.38939 14.6291C7.40266 14.6085 7.40967 14.5844 7.40955 14.5597L7.40953 4.62499C7.40958 4.55545 7.39494 4.48672 7.36658 4.42343C7.33823 4.36014 7.29682 4.30377 7.24517 4.25812C6.95075 4.00249 6.62369 3.78839 6.27287 3.62162Z" fill="#007AFF"/>
<path d="M14.3715 2.82677C14.5633 2.8238 14.7515 2.88032 14.9109 2.9888C15.0421 3.07855 15.1495 3.19971 15.2236 3.34159C15.2977 3.48347 15.3363 3.64171 15.336 3.80232L15.336 12.2357C15.336 12.4951 15.2345 12.744 15.0539 12.9274C14.8732 13.1109 14.6282 13.214 14.3727 13.214C10.9218 13.2137 9.5657 13.8655 8.79298 14.645C8.77633 14.6616 8.75524 14.6728 8.73235 14.6772C8.70947 14.6817 8.6858 14.6791 8.66432 14.67C8.64285 14.6608 8.62452 14.6454 8.61163 14.6257C8.59874 14.6059 8.59188 14.5828 8.59189 14.5591L8.59187 4.62379C8.59186 4.55429 8.60649 4.4856 8.63479 4.42232C8.66308 4.35904 8.70439 4.30265 8.75593 4.25693C9.05059 4.00179 9.37773 3.78811 9.72853 3.62164C10.8161 3.09305 12.3363 2.83594 14.3715 2.82677Z" fill="#007AFF"/>
</svg>
