<svg width="16" height="16" viewBox="0 0 16 16" fill="none" xmlns="http://www.w3.org/2000/svg">
<path d="M10.5827 1.36395C11.1369 1.36395 11.6699 1.58146 12.0638 1.97007C12.4579 2.35895 12.6803 2.88793 12.6803 3.44078V12.0391C12.6803 12.4559 12.6812 12.8025 12.6582 13.0664C12.6369 13.3101 12.5891 13.6115 12.3913 13.8373C12.1403 14.1234 11.7651 14.2694 11.3867 14.2279C11.0882 14.1951 10.849 14.0046 10.6686 13.8392C10.4735 13.6602 10.2397 13.4048 9.95833 13.0977L8.4082 11.4043C8.26713 11.2503 8.18175 11.1576 8.11328 11.0944C8.04909 11.0352 8.03457 11.0358 8.04753 11.0404C8.01263 11.0283 7.97445 11.0279 7.93945 11.0397C7.95271 11.0353 7.93805 11.0342 7.87305 11.0931C7.80401 11.1557 7.71799 11.2477 7.57552 11.4004L6.05013 13.0358C5.76929 13.3369 5.53557 13.5875 5.3405 13.763C5.15977 13.9256 4.92129 14.112 4.62435 14.1426C4.24726 14.1815 3.87485 14.0344 3.62565 13.7487C3.42952 13.5238 3.38191 13.2252 3.36068 12.9831C3.33778 12.7216 3.33788 12.3787 3.33789 11.9668V3.44078C3.33789 2.90788 3.52379 2.37208 3.93099 1.97007C4.32861 1.57774 4.88027 1.36399 5.42904 1.36395H10.5827Z" fill="#007AFF"/>
</svg>
