<svg width="16" height="16" viewBox="0 0 16 16" fill="none" xmlns="http://www.w3.org/2000/svg">
<g clip-path="url(#clip0_983_3006)">
<path d="M7.81909 7.10156C7.99679 7.06623 8.181 7.08432 8.34839 7.15364C8.51578 7.22298 8.65917 7.34025 8.75985 7.49088C8.86048 7.64149 8.91409 7.81886 8.91414 8C8.91414 8.24302 8.81775 8.47659 8.64591 8.64843C8.47407 8.82027 8.24049 8.91666 7.99748 8.91666C7.81635 8.91661 7.63897 8.863 7.48836 8.76237C7.33774 8.66169 7.22046 8.5183 7.15112 8.35091C7.0818 8.18352 7.06371 7.99931 7.09904 7.82161C7.13439 7.64387 7.22155 7.48036 7.34969 7.35221C7.47784 7.22406 7.64135 7.13692 7.81909 7.10156Z" fill="#3C3C43" fill-opacity="0.7"/>
<path fill-rule="evenodd" clip-rule="evenodd" d="M8.00008 0.666664C12.0502 0.666664 15.3334 3.94991 15.3334 8C15.3334 12.0501 12.0502 15.3333 8.00008 15.3333C3.94999 15.3333 0.666748 12.0501 0.666748 8C0.666748 3.94991 3.94999 0.666664 8.00008 0.666664ZM11.0684 4.52799C10.8462 4.4508 10.5058 4.57261 9.82495 4.8164L7.13745 5.77864C6.83018 5.90154 6.55114 6.08565 6.31714 6.31966C6.08313 6.55367 5.89902 6.8327 5.77612 7.13997L4.82039 9.81966C4.57836 10.4984 4.45738 10.8381 4.53459 11.0599C4.60172 11.2528 4.75367 11.404 4.9467 11.4707C5.16867 11.5474 5.50769 11.4259 6.18563 11.1823L8.85815 10.222C9.1654 10.0991 9.44447 9.91498 9.67847 9.68099C9.91246 9.44699 10.0966 9.16792 10.2195 8.86067L11.1876 6.18359C11.4335 5.50348 11.5564 5.16321 11.4799 4.94075C11.4133 4.74735 11.2616 4.59517 11.0684 4.52799Z" fill="#3C3C43" fill-opacity="0.7"/>
</g>
<defs>
<clipPath id="clip0_983_3006">
<rect width="16" height="16" fill="white"/>
</clipPath>
</defs>
</svg>
