<svg width="16" height="16" viewBox="0 0 16 16" fill="none" xmlns="http://www.w3.org/2000/svg">
<path d="M5.29739 9.32747C6.3109 9.32749 7.29606 9.64604 8.10013 10.2337C8.54302 10.5574 8.91746 10.9527 9.2082 11.3984C9.6222 12.0332 9.26346 12.829 8.59166 13.1797C6.52766 14.2571 4.06714 14.257 2.00312 13.1797C1.33132 12.829 0.972572 12.0332 1.38659 11.3984C1.67734 10.9527 2.05174 10.5574 2.49466 10.2337C3.29875 9.64603 4.28386 9.32747 5.29739 9.32747Z" fill="#3C3C43" fill-opacity="0.7"/>
<path d="M11.5227 9.597C12.3144 9.597 13.0845 9.88329 13.7128 10.4108C14.1249 10.757 14.4613 11.1949 14.7017 11.6914C14.9291 12.1611 14.6928 12.6989 14.2453 12.9674C12.9174 13.764 11.3273 13.9289 9.89049 13.4629C10.4366 12.8022 10.7013 11.8579 10.1789 10.9414L10.1021 10.8151C9.95904 10.5958 9.79924 10.3874 9.62552 10.1901C10.1931 9.80432 10.8499 9.59713 11.5227 9.597Z" fill="#3C3C43" fill-opacity="0.7"/>
<path d="M11.5233 3.99805C12.8853 3.99805 13.9895 5.10216 13.9895 6.46419C13.9894 7.82617 12.8853 8.93034 11.5233 8.93034C10.1613 8.93033 9.05723 7.82617 9.05716 6.46419C9.05716 5.10216 10.1613 3.99805 11.5233 3.99805Z" fill="#3C3C43" fill-opacity="0.7"/>
<path d="M5.29739 1.70508C7.11718 1.70511 8.59232 3.18021 8.59232 5C8.59226 6.81974 7.11714 8.29489 5.29739 8.29492C3.47762 8.29492 2.00253 6.81976 2.00247 5C2.00247 3.18019 3.47758 1.70508 5.29739 1.70508Z" fill="#3C3C43" fill-opacity="0.7"/>
</svg>
