<svg width="24" height="24" viewBox="0 0 24 24" fill="none" xmlns="http://www.w3.org/2000/svg">
<path d="M12.0049 5.09473C12.5019 5.09473 12.9053 5.49806 12.9053 5.99512V11.1035H18.0137L18.1055 11.1084C18.5593 11.1545 18.9141 11.5379 18.9141 12.0039C18.9138 12.4697 18.5592 12.8534 18.1055 12.8994L18.0137 12.9043H12.9053V18.0215L12.9004 18.1133C12.8545 18.5673 12.471 18.9219 12.0049 18.9219C11.5387 18.9219 11.1552 18.5673 11.1094 18.1133L11.1045 18.0215V12.9043H5.9873C5.49041 12.9043 5.0862 12.5007 5.08594 12.0039C5.08594 11.5068 5.49025 11.1035 5.9873 11.1035H11.1045V5.99512C11.1045 5.49806 11.5078 5.09473 12.0049 5.09473Z" fill="#007AFF"/>
</svg>
