<svg width="16" height="16" viewBox="0 0 16 16" fill="none" xmlns="http://www.w3.org/2000/svg">
<path d="M12.2242 9.80222C12.4102 9.70591 12.6331 9.71296 12.8121 9.82175C12.9909 9.93062 13.1005 10.1254 13.1005 10.3348V10.7156C13.1004 11.3737 12.7656 11.9834 12.2183 12.338L12.1057 12.4057L9.58683 13.8055C8.662 14.3193 7.54942 14.3513 6.60115 13.9018L6.41365 13.8055L3.89477 12.4057C3.28106 12.0648 2.90004 11.4177 2.89998 10.7156V10.3348L2.90519 10.2573C2.92847 10.0782 3.03168 9.91704 3.18839 9.82175C3.36736 9.713 3.59034 9.70586 3.77628 9.80222L6.43579 11.1805C7.4167 11.6887 8.58381 11.6888 9.56469 11.1805L12.2242 9.80222Z" fill="#3C3C43" fill-opacity="0.7"/>
<path d="M6.66886 2.02488C7.57636 1.61979 8.62378 1.64845 9.51131 2.11146L14.8114 4.87709C15.2367 5.09905 15.4625 5.50225 15.4892 5.9168C15.493 5.94407 15.4957 5.97183 15.4957 6.00014V11.5001C15.4956 11.8314 15.2266 12.1003 14.8954 12.1004C14.5642 12.1002 14.2959 11.8313 14.2958 11.5001V7.39206L9.51131 9.88881C8.62381 10.3518 7.57633 10.3804 6.66886 9.9754L6.48917 9.88881L1.18904 7.12318C0.281376 6.64962 0.281377 5.35065 1.18904 4.87709L6.48917 2.11146L6.66886 2.02488Z" fill="#3C3C43" fill-opacity="0.7"/>
</svg>
