<svg width="16" height="14" viewBox="0 0 16 14" fill="none" xmlns="http://www.w3.org/2000/svg">
<path d="M12.2242 8.80224C12.4102 8.70592 12.6331 8.71298 12.8121 8.82177C12.991 8.93064 13.1005 9.12539 13.1005 9.33479V9.71565C13.1004 10.3737 12.7657 10.9834 12.2183 11.338L12.1057 11.4058L9.58684 12.8055C8.66201 13.3193 7.54943 13.3513 6.60116 12.9018L6.41366 12.8055L3.89478 11.4058C3.28106 11.0648 2.90005 10.4177 2.89999 9.71565V9.33479L2.9052 9.25731C2.92848 9.07817 3.03169 8.91706 3.1884 8.82177C3.36737 8.71302 3.59035 8.70587 3.77629 8.80224L6.4358 10.1805C7.41671 10.6887 8.58382 10.6888 9.5647 10.1805L12.2242 8.80224Z" fill="#007AFF"/>
<path d="M6.66887 1.02489C7.57637 0.619801 8.62379 0.648463 9.51132 1.11148L14.8114 3.8771C15.2367 4.09907 15.4625 4.50227 15.4892 4.91682C15.493 4.94409 15.4957 4.97184 15.4957 5.00015V10.5002C15.4956 10.8314 15.2266 11.1003 14.8954 11.1004C14.5642 11.1003 14.2959 10.8314 14.2958 10.5002V6.39208L9.51132 8.88882C8.62382 9.35182 7.57634 9.38045 6.66887 8.97541L6.48918 8.88882L1.18905 6.1232C0.281384 5.64963 0.281385 4.35067 1.18905 3.8771L6.48918 1.11148L6.66887 1.02489Z" fill="#007AFF"/>
</svg>
