<svg width="82" height="32" viewBox="0 0 82 32" fill="none" xmlns="http://www.w3.org/2000/svg">
<path d="M14.9772 0.130869C14.7616 0.210939 14.2737 0.474027 13.8993 0.702799C13.5249 0.94301 12.7533 1.61789 12.1973 2.18982C11.6414 2.77319 10.7904 3.75691 10.3138 4.38603C9.83729 5.00371 8.96362 6.26196 8.36226 7.17705C7.77225 8.09214 6.78512 9.73929 6.17242 10.8374C5.55971 11.9355 4.74278 13.5369 4.33431 14.3834C3.93719 15.2298 3.30179 16.6253 2.92736 17.4718C2.55293 18.3182 2.06504 19.485 1.84946 20.0455C1.63388 20.606 1.22541 21.7384 0.941747 22.562C0.669435 23.3741 0.340391 24.4608 0.226927 24.9641C0.102117 25.4674 0 26.1194 0 26.4282C0 26.7256 0.0680781 27.1031 0.158849 27.2861C0.24962 27.4577 0.442508 27.7093 0.59001 27.858C0.726167 27.9953 1.05521 28.144 1.30483 28.1783C1.55445 28.2241 1.8608 28.2012 1.98561 28.1326C2.16715 28.0411 2.24658 27.8123 2.36004 27.0688C2.45081 26.5426 2.6437 25.6161 2.80255 25.0213C2.9614 24.4265 3.32448 23.2597 3.63083 22.4476C3.92584 21.624 4.49316 20.1942 4.89028 19.2448C5.2874 18.3068 6.14972 16.4194 6.80781 15.0697C7.47725 13.7199 8.30553 12.1185 8.64592 11.5237C8.98631 10.9289 9.48555 10.071 9.75786 9.63635C10.0188 9.20168 10.4954 8.44673 10.8131 7.97775C11.1308 7.50877 11.7094 6.68519 12.1179 6.14757C12.5264 5.60996 13.1731 4.8207 13.5475 4.38603C13.9333 3.9628 14.5347 3.37943 14.8978 3.10491C15.2495 2.83038 15.6126 2.60161 15.692 2.60161C15.7941 2.60161 15.8055 2.81894 15.7487 3.53957C15.7034 4.06575 15.5445 5.10666 15.3857 5.86161C15.2268 6.61656 14.841 8.11501 14.5347 9.1788C14.2283 10.2426 13.5929 12.4159 13.1277 13.983C12.6512 15.5615 12.1633 17.2545 12.0271 17.7578C11.9023 18.261 11.6867 19.1647 11.5619 19.7595C11.4485 20.3543 11.3464 21.1436 11.3464 21.5096C11.3464 21.8642 11.4144 22.3332 11.5052 22.5391C11.5846 22.7335 11.7662 23.0081 11.9137 23.1339C12.0839 23.2826 12.3675 23.3741 12.7533 23.397C13.1618 23.4199 13.4341 23.3741 13.6724 23.2254C13.8652 23.0996 14.251 22.6992 14.5347 22.3218C14.8183 21.9557 15.7374 20.5716 16.5657 19.2448C17.394 17.9179 18.3357 16.4309 18.6648 15.9276C18.8051 15.7129 19.0033 15.4045 19.2223 15.0638L19.2229 15.0628C19.5171 14.6051 19.8489 14.0887 20.1284 13.6627C20.605 12.9307 21.0134 12.3359 21.0475 12.3587C21.0815 12.3702 20.9794 12.9421 20.8206 13.6399C20.6731 14.3376 20.4461 15.5158 20.3213 16.2707C20.1965 17.0257 20.015 18.3411 19.9129 19.1876C19.8221 20.034 19.7086 21.5096 19.6632 22.4476C19.6292 23.4199 19.6519 24.9984 19.7313 26.1079C19.8107 27.1832 19.9469 28.5444 20.0377 29.1392C20.1284 29.734 20.2759 30.4889 20.3667 30.7978C20.4461 31.118 20.6617 31.5184 20.8433 31.69C21.0929 31.9416 21.2631 32.0103 21.6488 31.9988C21.9892 31.9988 22.2275 31.9187 22.4658 31.7128C22.6473 31.5527 22.8402 31.2896 22.8743 31.118C22.9083 30.935 22.8629 30.5118 22.7721 30.1686C22.67 29.8255 22.5452 29.1506 22.4771 28.6816C22.4204 28.2126 22.341 27.492 22.3069 27.0802C22.2729 26.6684 22.2162 25.5932 22.1708 24.6781C22.1367 23.7287 22.1594 22.276 22.2389 21.3037C22.3069 20.3658 22.4658 18.8673 22.5906 17.9865C22.7154 17.1058 23.0218 15.4357 23.26 14.269C23.3592 13.8055 23.4709 13.2807 23.5794 12.7706C23.7442 11.9963 23.9018 11.2558 23.9975 10.8145C24.1564 10.071 24.2812 9.15592 24.2812 8.77845C24.2812 8.40098 24.2018 7.94343 24.111 7.74898C24.0202 7.55452 23.7706 7.30287 23.5777 7.17705C23.3735 7.05122 23.0671 6.94828 22.8969 6.94828C22.7154 6.94828 22.4091 7.01691 22.2162 7.09698C22.0119 7.18849 21.6715 7.40582 21.456 7.58884C21.2404 7.77185 20.7298 8.38954 20.31 8.95003C19.8902 9.51052 18.8349 11.0547 17.9613 12.3816C17.0876 13.7085 16.0437 15.3099 15.6466 15.9619C15.2495 16.6139 14.9091 17.1058 14.8864 17.0486C14.8637 17.0028 15.3062 15.4128 15.8735 13.5255C16.4295 11.6381 17.0649 9.43045 17.2918 8.60687C17.5074 7.78329 17.8024 6.58224 17.9386 5.9188C18.1201 5.06091 18.1996 4.3174 18.1996 3.28792C18.2109 1.98392 18.1882 1.81234 17.9272 1.29761C17.7684 0.977326 17.4507 0.565536 17.2124 0.382518C16.838 0.0851148 16.6564 0.0279218 16.0778 0.00504456C15.692 -0.0178326 15.1928 0.0393604 14.9772 0.130869Z" fill="#020203"/>
<path d="M62.8588 4.48898C62.4503 4.56905 61.7922 4.75206 61.3838 4.88933C60.9753 5.02659 60.1924 5.38119 59.6251 5.66715C59.0578 5.96456 58.2295 6.50217 57.787 6.85677C57.3331 7.2228 56.7658 7.79473 56.5162 8.11501C56.2779 8.44673 55.9716 8.93859 55.8354 9.20168C55.7106 9.47621 55.5971 9.89943 55.5971 10.1511C55.5971 10.5057 55.6766 10.6887 55.9375 10.9518C56.1191 11.1462 56.3914 11.3064 56.5389 11.3064C56.675 11.3178 56.8906 11.3064 57.0154 11.2949C57.1402 11.2835 57.3558 11.2034 57.5033 11.1119C57.6395 11.0204 57.8324 10.7573 57.9345 10.5171C58.0366 10.2883 58.2976 9.86512 58.5358 9.59059C58.7628 9.31607 59.2507 8.86996 59.6251 8.59543C59.9995 8.33235 60.6916 7.93199 61.1568 7.70322C61.622 7.47445 62.439 7.18849 62.9723 7.05122C63.7211 6.85677 64.1409 6.82245 64.8444 6.86821C65.3437 6.90252 66.0358 6.99403 66.3762 7.0741C66.8414 7.17705 67.125 7.33719 67.4881 7.68035C67.7604 7.94343 68.0327 8.33235 68.1008 8.54968C68.1689 8.76701 68.2256 9.25887 68.2143 9.63635C68.2143 10.0138 68.1008 10.6544 67.976 11.0662C67.8512 11.478 67.6016 12.1414 67.42 12.5532C67.2385 12.965 66.8414 13.6627 66.5464 14.0974C66.24 14.5321 65.7294 15.2069 65.4004 15.5844C65.0827 15.9619 64.4927 16.591 64.0956 16.9799C63.6984 17.3688 63.1879 17.8264 62.9723 17.9751C62.7567 18.1352 62.5638 18.2611 62.5411 18.2382C62.5298 18.2267 62.734 17.5519 63.0177 16.7283C63.29 15.9047 63.7779 14.5321 64.0956 13.6627C64.4133 12.8048 64.8558 11.6495 65.0827 11.1005C65.3096 10.54 65.6387 9.79649 65.8202 9.43045C66.0017 9.07586 66.1492 8.65263 66.1492 8.49249C66.1492 8.33235 66.0925 8.10357 66.0358 7.97775C65.9601 7.82523 65.7256 7.70704 65.3323 7.62315C64.8104 7.50877 64.6742 7.52021 64.2884 7.70322C64.0388 7.82905 63.7779 8.0235 63.6984 8.14933C63.6077 8.27515 63.2786 8.99578 62.9609 9.75073C62.6432 10.5057 62.0872 11.9241 61.7242 12.8963C61.3611 13.8686 60.703 15.7217 60.2718 17.0142C59.8407 18.3068 59.2166 20.1827 58.9103 21.1893C58.6242 22.0957 58.2461 23.3546 58.008 24.1474L57.9345 24.3921C57.7189 25.1471 57.4352 26.188 57.3104 26.7027C57.1743 27.2289 57.0722 27.8352 57.0722 28.0525C57.0722 28.2698 57.1289 28.5787 57.1856 28.7388C57.2424 28.8989 57.4693 29.1277 57.6735 29.2535C57.8664 29.3794 58.1274 29.4823 58.2408 29.4823C58.343 29.4823 58.6153 29.3908 58.8422 29.2764C59.1372 29.1392 59.2847 28.9676 59.3982 28.6244C59.4776 28.3728 59.7499 27.3662 59.9995 26.3939C60.2491 25.4216 60.6463 23.9918 60.8845 23.214C61.1342 22.4476 61.3611 21.8185 61.4178 21.8185C61.4632 21.8185 61.5313 21.9557 61.5653 22.1273C61.6107 22.3103 61.8603 22.9166 62.1099 23.4771C62.3709 24.0375 62.8134 24.8382 63.0857 25.25C63.3694 25.6618 63.9254 26.3481 64.3338 26.7828C64.7423 27.2175 65.3777 27.7894 65.7521 28.0639C66.1266 28.327 66.8187 28.7274 67.2839 28.9447C67.7491 29.162 68.4866 29.4251 68.9291 29.5395C69.3716 29.6425 70.1772 29.7797 70.7445 29.8369C71.3118 29.8941 72.0947 29.917 72.5032 29.8827C72.9117 29.8369 73.6492 29.734 74.1484 29.6425C74.6477 29.5509 75.6688 29.2764 76.4177 29.0248C77.1666 28.7731 78.2104 28.3499 78.7324 28.0754C79.2543 27.8123 79.9124 27.3891 80.196 27.1374C80.4797 26.8858 80.7747 26.5197 80.8541 26.3367C80.9562 26.0851 80.9676 25.8677 80.8995 25.5589C80.8314 25.3187 80.6499 25.0327 80.4797 24.9069C80.2981 24.7696 79.9918 24.6667 79.7989 24.6781C79.5947 24.6781 79.2883 24.7467 79.1181 24.8382C78.9366 24.9183 78.721 25.0785 78.6302 25.1928C78.5395 25.3072 78.1083 25.5703 77.6658 25.7991C77.2233 26.0164 76.5652 26.3138 76.1908 26.4511C75.8163 26.5998 74.9767 26.8629 74.3186 27.0345C73.3542 27.2861 72.8776 27.3433 71.8224 27.3433C70.9601 27.3547 70.2453 27.2861 69.7234 27.1488C69.2808 27.0459 68.5547 26.7599 68.0895 26.5312C67.5789 26.2795 66.9321 25.8105 66.4556 25.3644C66.0244 24.9526 65.4344 24.2663 65.1394 23.8202C64.8558 23.3741 64.4246 22.5391 64.1977 21.9557C63.9594 21.3838 63.7665 20.8119 63.7779 20.6975C63.7779 20.5945 64.1296 20.2514 64.5721 19.9311C65.0146 19.6108 65.7862 18.9245 66.2854 18.3869C66.7846 17.8493 67.5448 16.9456 67.9647 16.3851C68.3958 15.8246 69.0085 14.8638 69.3262 14.269C69.6439 13.6742 70.0524 12.7476 70.2339 12.21C70.4155 11.6724 70.6084 10.8488 70.6764 10.3799C70.7559 9.80793 70.7559 9.24743 70.6764 8.72126C70.6197 8.24084 70.4268 7.62315 70.2112 7.17705C70.007 6.76526 69.5985 6.19333 69.3035 5.88449C68.9858 5.57564 68.4072 5.17529 67.942 4.94652C67.4881 4.72919 66.83 4.48898 66.4896 4.43178C66.1492 4.36315 65.355 4.3174 64.731 4.32884C64.1069 4.32884 63.2673 4.40891 62.8588 4.48898Z" fill="#020203"/>
<path fill-rule="evenodd" clip-rule="evenodd" d="M51.4784 9.86512C51.8188 9.11017 52.2046 8.40098 52.3407 8.28659C52.4996 8.14933 52.6773 8.10357 52.874 8.14933C53.0329 8.18364 53.3619 8.43529 53.6002 8.69838C54.02 9.14449 54.0427 9.21312 53.986 9.69354C53.9406 9.9795 53.7704 10.5514 53.5888 10.9861C53.4186 11.4093 53.3165 11.7982 53.3619 11.844C53.4186 11.8898 54.281 11.9355 55.2908 11.9584C56.5389 11.9698 57.2764 12.0385 57.5827 12.1528C57.8324 12.2329 58.2522 12.5418 58.5131 12.8277C58.8082 13.148 59.0464 13.5483 59.1259 13.8343C59.2053 14.1317 59.228 14.6922 59.1826 15.2413C59.1372 15.8475 58.9557 16.6139 58.6607 17.529C58.411 18.2839 57.9231 19.4621 57.5941 20.1599C57.2537 20.8576 56.675 21.8871 56.312 22.4476C55.9375 23.0081 55.3929 23.6944 55.0752 23.9575C54.7689 24.232 54.2583 24.5294 53.9519 24.6324C53.4867 24.7811 53.2938 24.7925 52.9307 24.6895C52.6811 24.6209 52.3407 24.415 52.1705 24.2434C52.0003 24.0719 51.7848 23.7287 51.6826 23.4771C51.5578 23.1682 51.4898 22.6992 51.5011 22.0472C51.5011 21.3838 51.5919 20.7089 51.7961 19.9311C51.955 19.302 52.318 18.2496 52.6017 17.5862C52.8854 16.9227 53.3733 15.9619 53.6796 15.4357C53.986 14.921 54.2242 14.4634 54.2129 14.4291C54.1902 14.3948 53.7704 14.4062 53.2711 14.4406C52.7719 14.4749 52.3067 14.5435 52.2273 14.5893C52.1592 14.635 51.8415 15.3785 51.5238 16.2479C51.2061 17.1058 50.7409 18.5241 50.5026 19.382C50.253 20.2514 49.9807 21.4982 49.8786 22.1616C49.7765 22.8251 49.697 23.6944 49.697 24.1062C49.697 24.518 49.7424 25.0327 49.8105 25.25C49.8861 25.5169 49.8861 25.7724 49.8105 26.0164C49.7424 26.2223 49.5609 26.4968 49.3907 26.6227C49.2091 26.7599 48.9028 26.8629 48.6759 26.8629C48.4489 26.8629 48.1426 26.7599 47.961 26.6227C47.7908 26.4968 47.5753 26.2223 47.4731 26.0164C47.337 25.7648 47.2689 25.2157 47.2235 24.2778C47.1895 23.4999 47.2235 22.4819 47.303 21.9328C47.371 21.3952 47.4164 20.9491 47.4051 20.9377C47.3824 20.9377 46.9399 21.2122 46.4066 21.5782C45.8733 21.9328 44.8862 22.4705 44.194 22.7793C43.5019 23.0767 42.5148 23.4771 41.9815 23.6601C41.4482 23.8431 40.7107 24.0147 40.3363 24.0604C39.7349 24.1176 39.5874 24.0833 39.0428 23.7973C38.7024 23.6258 38.328 23.3512 38.2032 23.1911C38.0897 23.0309 37.9649 22.642 37.9309 22.3332C37.8855 21.9214 37.9422 21.5554 38.1238 21.0178C38.2599 20.606 38.7024 19.5765 39.0995 18.73C39.508 17.8836 39.8257 17.1515 39.803 17.1058C39.7803 17.06 39.3832 17.3002 38.918 17.6548C38.4528 17.998 37.6132 18.7186 37.0572 19.2791C36.5012 19.8281 35.6843 20.7432 35.2304 21.3037C34.7766 21.8642 34.1752 22.7107 33.8802 23.1568C33.4831 23.7973 33.2562 24.0375 32.9385 24.1748C32.7002 24.2663 32.3825 24.3235 32.2236 24.2892C32.0648 24.2549 31.8038 24.0833 31.645 23.9117C31.4748 23.7287 31.3159 23.4656 31.2706 23.3055C31.2365 23.1453 31.2592 22.8479 31.3159 22.642C31.384 22.4476 31.4067 22.276 31.3727 22.276C31.3386 22.276 30.8734 22.6077 30.3288 23.0195C29.7728 23.4313 29.1034 23.8888 28.8197 24.0375C28.5361 24.1977 27.9801 24.4036 27.5716 24.5065C27.0951 24.6324 26.6753 24.6667 26.3803 24.6209C26.1307 24.5752 25.7449 24.4493 25.5293 24.3349C25.3137 24.2206 24.962 23.946 24.7691 23.7173C24.5649 23.4885 24.3266 23.0881 24.2585 22.8136C24.1791 22.5505 24.111 21.8985 24.111 21.3609C24.111 20.8233 24.1337 20.2171 24.1677 19.9997C24.2245 19.6451 24.1904 19.5994 23.8841 19.5079C23.7025 19.4621 23.4302 19.302 23.2941 19.1533C23.1466 19.016 23.0104 18.7758 22.9764 18.6156C22.9423 18.4555 22.965 18.1581 23.0331 17.9522C23.0898 17.7578 23.2827 17.4832 23.4529 17.3574C23.7025 17.1744 23.9408 17.1172 25.2456 17.1286L25.7562 16.2593C26.0399 15.7789 26.6526 14.9095 27.1178 14.3376C27.5943 13.7657 28.3092 13.0222 28.7063 12.7019C29.1147 12.3702 29.7728 11.9241 30.1813 11.7296C30.7486 11.4322 31.055 11.3521 31.5542 11.3521C32.0421 11.3521 32.2917 11.4093 32.53 11.5923C32.7002 11.7182 32.9612 12.0041 33.1087 12.2215C33.2562 12.4388 33.3583 12.782 33.3583 13.0107C33.3583 13.2281 33.2335 13.8 33.0746 14.269C32.9158 14.738 32.5981 15.4014 32.3598 15.7446C32.1329 16.0877 31.6336 16.6482 31.2479 17.0028C30.8621 17.3574 30.2494 17.8035 29.8863 17.998C29.6596 18.1265 29.3754 18.2774 29.1331 18.406L29.1327 18.4062C28.9871 18.4835 28.8567 18.5527 28.763 18.6042C28.5134 18.73 28.0142 18.9702 27.6624 19.1304C27.1291 19.3592 26.9703 19.4964 26.8228 19.8396C26.7207 20.0798 26.6072 20.6174 26.5732 21.0292C26.5164 21.5668 26.5391 21.8413 26.6412 21.9786C26.7547 22.1273 26.8341 22.1387 27.1518 22.0358C27.3447 21.9557 27.8666 21.6583 28.3092 21.3724C28.7403 21.0864 29.7615 20.2056 30.5671 19.4163C31.3613 18.6271 32.5413 17.3803 33.1767 16.6253C33.8008 15.8818 34.7539 14.7036 35.2645 13.9945C35.7864 13.2967 36.3197 12.6104 36.4558 12.4617C36.592 12.3244 36.887 12.1757 37.1026 12.1414C37.3295 12.1071 37.6359 12.1414 37.8287 12.2329C38.0216 12.313 38.2599 12.5303 38.3734 12.7248C38.4868 12.9192 38.5776 13.1823 38.5776 13.3196C38.5776 13.4683 38.3734 13.9716 38.1238 14.4406C37.8741 14.9095 37.6699 15.3213 37.6699 15.3556C37.6699 15.39 37.9989 15.2069 38.4074 14.9553C38.8159 14.7036 39.4059 14.3948 39.7122 14.269C40.0526 14.1317 40.5405 14.0402 40.9376 14.0402C41.3802 14.0402 41.6978 14.1088 41.9588 14.269C42.1517 14.3948 42.4354 14.7151 42.5602 14.9782C42.7531 15.3671 42.7871 15.5959 42.7417 16.0992C42.7077 16.4423 42.5942 16.9799 42.4921 17.3002C42.39 17.609 41.9361 18.6156 41.4936 19.5079C40.8128 20.8805 40.6994 21.1665 40.8469 21.258C40.9376 21.3152 41.0851 21.3609 41.1646 21.3609C41.2327 21.3609 41.6411 21.2236 42.0723 21.0635C42.4921 20.8919 43.3885 20.4801 44.0806 20.137C44.7727 19.7938 45.6804 19.2448 46.1116 18.9245C46.5427 18.5928 47.2349 17.9636 47.6433 17.5175C48.0518 17.0829 48.5624 16.4652 48.7666 16.1449C48.9709 15.8361 49.1297 15.5501 49.1297 15.4929C49.1297 15.4472 48.551 15.6187 47.8589 15.8818C47.1554 16.1449 46.2931 16.4309 45.9527 16.5338C45.4081 16.694 45.2833 16.694 44.9429 16.5453C44.7273 16.4538 44.455 16.2364 44.3416 16.042C44.2281 15.8475 44.1373 15.4929 44.1373 15.2413C44.1449 14.9362 44.2394 14.6579 44.421 14.4062C44.5798 14.2003 44.9543 13.9144 45.272 13.7542C45.5783 13.5941 46.5654 13.2624 47.4618 13.0107C48.3468 12.7591 49.368 12.5074 49.7311 12.4388C50.3551 12.3244 50.3892 12.313 50.6161 11.7754C50.7176 11.5536 50.958 11.02 51.2148 10.45L51.226 10.4253C51.31 10.2388 51.3955 10.0489 51.4784 9.86512ZM30.0905 14.269C29.8296 14.4634 29.353 14.9553 29.0353 15.39C28.7176 15.8132 28.502 16.1678 28.5588 16.1907C28.6042 16.2135 28.8311 16.1563 29.0467 16.0648C29.2623 15.9733 29.7615 15.6645 30.1586 15.3671C30.5444 15.0811 30.9188 14.7265 30.9869 14.5778C31.055 14.4406 31.089 14.2347 31.0436 14.1203C31.0096 14.0173 30.8848 13.9258 30.7713 13.9258C30.6579 13.9258 30.3515 14.0745 30.0905 14.269ZM55.7787 16.305C55.5064 16.7283 55.0185 17.5862 54.7121 18.2153C54.3944 18.8444 54.054 19.6909 53.9519 20.1027C53.8498 20.5145 53.7931 20.9834 53.8271 21.1665C53.8611 21.338 53.986 21.4982 54.0994 21.5325C54.2129 21.5668 54.4058 21.4867 54.5533 21.338C54.7008 21.1893 55.0639 20.6403 55.3589 20.1027C55.6652 19.5651 56.0964 18.6843 56.3233 18.1238C56.5502 17.5747 56.7885 16.8884 56.8566 16.591C56.9133 16.2822 56.9474 15.9276 56.9133 15.7903C56.8679 15.6073 56.7658 15.5272 56.5616 15.5272C56.3347 15.5272 56.1758 15.6874 55.7787 16.305Z" fill="#020203"/>
<path d="M78.0062 10.7116C77.5637 10.826 76.8262 11.089 76.361 11.2835C75.8958 11.478 74.9767 11.9469 74.3186 12.3244C73.6605 12.7019 72.6961 13.3425 72.1628 13.7428C71.6295 14.1432 70.8239 14.8638 70.3814 15.3442C69.9162 15.8361 69.4056 16.5109 69.2128 16.8999C68.9405 17.4489 68.8724 17.7349 68.8724 18.3297C68.8724 18.7529 68.9405 19.2105 69.0312 19.382C69.122 19.5651 69.417 19.9196 69.6893 20.1713C69.9616 20.4344 70.4382 20.7775 70.7445 20.9377C71.0622 21.0978 71.5955 21.3266 71.9359 21.4524C72.2763 21.5897 72.6847 21.7956 72.8436 21.9214L73.1273 22.1616C72.6053 22.5848 72.4011 22.6306 71.6863 22.6192C71.187 22.6192 70.563 22.5391 70.268 22.4361C69.9616 22.3332 69.3149 21.9786 68.8156 21.6469C68.4573 21.4005 68.0287 21.107 67.7105 20.8891L67.3973 20.6746C66.9775 20.3772 66.8187 20.32 66.4896 20.3772C66.2741 20.4229 65.979 20.5259 65.8429 20.6174C65.6954 20.7089 65.5252 20.9262 65.4571 21.1093C65.389 21.2808 65.3777 21.6126 65.4231 21.8756C65.4685 22.1387 65.6614 22.4933 65.8542 22.7221C66.0471 22.9394 66.5123 23.3284 66.8868 23.6029C67.2612 23.866 67.9193 24.2663 68.3618 24.4951C68.8043 24.7124 69.417 24.9755 69.7234 25.0785C70.041 25.17 70.6424 25.2729 71.0849 25.3187C71.5955 25.353 72.1855 25.3187 72.7301 25.2157C73.1953 25.1242 73.808 24.9412 74.0917 24.8039C74.3754 24.6781 74.8065 24.3807 75.0448 24.1405C75.2944 23.9003 75.6121 23.4427 75.7596 23.1339C75.8958 22.8251 76.0206 22.4361 76.0206 22.276C76.0206 22.1159 75.9638 21.7841 75.8958 21.5325C75.805 21.2351 75.544 20.8576 75.1242 20.4344C74.625 19.9311 74.3073 19.7366 73.6378 19.485C73.1726 19.3134 72.5145 19.0618 72.1742 18.9245C71.8451 18.7872 71.5161 18.6042 71.4707 18.5356C71.414 18.4555 71.4026 18.2496 71.4366 18.078C71.4707 17.895 71.8678 17.3917 72.3671 16.8884C72.8549 16.408 73.7286 15.6988 74.3186 15.2985C74.9086 14.9095 75.8504 14.3605 76.4177 14.0745C76.985 13.7886 77.7225 13.4568 78.0629 13.331C78.4033 13.2166 78.6983 13.1251 78.721 13.1251C78.7324 13.1251 78.6756 13.2738 78.6075 13.4454C78.5281 13.6284 77.7225 14.5778 76.8148 15.573C75.9071 16.5567 75.0788 17.529 74.9654 17.7349C74.8633 17.9408 74.7725 18.2496 74.7725 18.4441C74.7725 18.6385 74.8746 18.9588 74.9994 19.1647C75.1242 19.3592 75.3852 19.6108 75.5667 19.7023C75.7483 19.7938 76.0433 19.8739 76.2248 19.8739C76.395 19.8739 76.7581 19.7366 77.0417 19.5536C77.3254 19.3706 77.802 18.9474 78.1083 18.6042C78.4147 18.2611 79.0954 17.3116 79.6401 16.4995C80.1733 15.6759 80.7974 14.6465 81.013 14.2118C81.2512 13.7314 81.4214 13.1823 81.4555 12.8392C81.4782 12.5189 81.4668 12.13 81.4214 11.9469C81.3874 11.7754 81.2172 11.478 81.047 11.2721C80.8655 11.0776 80.5251 10.8145 80.2755 10.7116C80.0258 10.5972 79.5947 10.5057 79.311 10.5057C79.0274 10.5057 78.4487 10.5972 78.0062 10.7116Z" fill="#020203"/>
</svg>
