<svg width="16" height="16" viewBox="0 0 16 16" fill="none" xmlns="http://www.w3.org/2000/svg">
<path d="M8.11084 3.76392C8.3305 3.54442 8.67797 3.5308 8.91357 3.7229L8.95915 3.76392L12.019 6.82381C12.144 6.94875 12.2639 7.06803 12.3556 7.17603C12.4518 7.28935 12.5519 7.42974 12.6108 7.61092C12.6934 7.86526 12.6935 8.13981 12.6108 8.39413L12.5594 8.52238C12.5018 8.64359 12.4278 8.74401 12.3556 8.82902C12.2639 8.93706 12.144 9.05625 12.019 9.18124L8.95915 12.2411L8.91357 12.2821C8.67804 12.4742 8.3305 12.4604 8.11084 12.2411C7.87653 12.0068 7.87655 11.6265 8.11084 11.3922L10.9025 8.59986H3.93896L3.87777 8.59725C3.57536 8.56651 3.33954 8.31072 3.33936 8.00025C3.33936 7.68961 3.57525 7.434 3.87777 7.40324L3.93896 7.39999L10.8979 7.39999L8.11084 4.61288L8.06982 4.5673C7.87738 4.33164 7.89111 3.98368 8.11084 3.76392Z" fill="#101012"/>
</svg>
