<svg width="16" height="16" viewBox="0 0 16 16" fill="none" xmlns="http://www.w3.org/2000/svg">
<path d="M5.96938 3.62598C6.26229 3.33322 6.72553 3.31503 7.03969 3.57129L7.10024 3.62598L10.1601 6.68588C10.2828 6.80853 10.4096 6.93409 10.5078 7.04981C10.6121 7.17263 10.7304 7.33599 10.8008 7.55241C10.8964 7.84696 10.8965 8.16477 10.8008 8.45931L10.7728 8.53809C10.7015 8.71593 10.599 8.85448 10.5078 8.96192C10.4096 9.07758 10.2827 9.20326 10.1601 9.32585L7.10024 12.3857L7.03969 12.4404C6.72554 12.6966 6.26224 12.6784 5.96938 12.3857C5.65704 12.0734 5.65714 11.5667 5.96938 11.2542L9.02928 8.19434C9.09637 8.12725 9.14908 8.07401 9.19399 8.02767C9.20112 8.02032 9.20782 8.01283 9.21417 8.00619C9.20768 7.99939 9.2013 7.9916 9.19399 7.98405C9.14904 7.93767 9.09645 7.88456 9.02928 7.81739L5.96938 4.75749L5.91404 4.69694C5.65772 4.38278 5.67662 3.91892 5.96938 3.62598Z" fill="#3C3C43" fill-opacity="0.72"/>
</svg>
