<svg width="16" height="16" viewBox="0 0 16 16" fill="none" xmlns="http://www.w3.org/2000/svg">
<path d="M8.90849 3.62894C9.22092 3.31679 9.72766 3.31666 10.04 3.62894C10.3523 3.94127 10.3522 4.44801 10.04 4.76045L6.98336 7.81644C6.91632 7.88348 6.86354 7.93679 6.81865 7.9831C6.81138 7.9906 6.80428 7.99847 6.79782 8.00524C6.80436 8.01208 6.81129 8.01977 6.81865 8.02737C6.86359 8.07375 6.91621 8.12688 6.98336 8.19404L10.04 11.25L10.0947 11.3112C10.3508 11.6253 10.3326 12.0886 10.04 12.3815C9.74713 12.6744 9.28391 12.6925 8.96969 12.4362L8.90849 12.3815L5.8525 9.3249C5.72985 9.20225 5.60307 9.07667 5.50485 8.96097C5.40059 8.83812 5.2822 8.67478 5.21188 8.45836C5.11625 8.16386 5.1162 7.8466 5.21188 7.55211L5.23987 7.47334C5.31111 7.2955 5.41364 7.15696 5.50485 7.04951C5.60306 6.93386 5.72993 6.80815 5.8525 6.68558L8.90849 3.62894Z" fill="#3C3C43" fill-opacity="0.72"/>
</svg>
