<svg width="16" height="16" viewBox="0 0 16 16" fill="none" xmlns="http://www.w3.org/2000/svg">
<path fill-rule="evenodd" clip-rule="evenodd" d="M10.9206 6.17879L11.4785 6.18205C11.6495 6.18493 11.8055 6.1901 11.946 6.20158L12.166 6.22632C12.3844 6.25795 12.5975 6.31415 12.8034 6.41903L12.9551 6.50366C13.3 6.7152 13.5809 7.01875 13.7656 7.38127L13.8145 7.48478C13.9185 7.72763 13.9613 7.98007 13.9824 8.23869L13.9961 8.46069C13.9993 8.53868 14.0012 8.62053 14.0026 8.70614L14.0052 9.26473V10.5401L14.0026 11.0981C14.0012 11.1834 13.9993 11.2651 13.9961 11.3429L13.9824 11.5655C13.9613 11.8243 13.9186 12.0771 13.8145 12.3201L13.7656 12.4236C13.5809 12.786 13.2999 13.0891 12.9551 13.3005L12.8034 13.3858C12.5976 13.4906 12.3843 13.5463 12.166 13.5779L11.946 13.6026C11.8055 13.6141 11.6495 13.6199 11.4785 13.6228L10.9206 13.6254H9.64453C9.34294 13.6254 9.07477 13.626 8.84115 13.6163L8.61914 13.6026C8.36039 13.5815 8.10755 13.5388 7.86458 13.4347L7.76107 13.3858C7.39876 13.2012 7.09561 12.92 6.88412 12.5753L6.79883 12.4236C6.69395 12.2177 6.63776 12.0046 6.60612 11.7862L6.58203 11.5655C6.57056 11.425 6.56473 11.269 6.56185 11.0981L6.55859 10.5401V9.26473C6.55858 8.86262 6.55909 8.51963 6.58203 8.23869L6.60612 8.01864C6.63774 7.8003 6.694 7.5871 6.79883 7.38127L6.88412 7.22892C7.09558 6.88432 7.39886 6.60366 7.76107 6.41903L7.86458 6.3702C8.10757 6.26604 8.36037 6.22272 8.61914 6.20158L8.84115 6.18856C9.07477 6.17886 9.34294 6.17878 9.64453 6.17879H10.9206ZM9.67383 7.53882C9.34586 7.53882 9.10212 7.53956 8.9082 7.54728L8.72982 7.55705C8.57115 7.57001 8.48144 7.59023 8.42513 7.61043L8.37891 7.63062C8.24043 7.70117 8.12384 7.80815 8.04297 7.93986L8.01107 7.99845C7.99161 8.0367 7.96941 8.09616 7.95248 8.21265L7.93685 8.34937C7.91891 8.56898 7.91862 8.85622 7.91862 9.29338V10.5108C7.91862 10.9478 7.91893 11.2353 7.93685 11.4548L7.95248 11.5922C7.96941 11.7085 7.99162 11.7675 8.01107 11.8057L8.04297 11.8637C8.12384 11.9956 8.24029 12.1029 8.37891 12.1736L8.42513 12.1938C8.48144 12.214 8.57109 12.2342 8.72982 12.2472L8.9082 12.2576C9.10212 12.2653 9.34587 12.2654 9.67383 12.2654H10.8913C11.3284 12.2654 11.6157 12.2651 11.8353 12.2472L11.972 12.2315C12.0884 12.2146 12.148 12.193 12.1862 12.1736L12.2441 12.1417C12.3761 12.0608 12.4834 11.9444 12.554 11.8057L12.5736 11.7589C12.5937 11.7026 12.614 11.6131 12.627 11.4548L12.6374 11.2758C12.6451 11.082 12.6458 10.8384 12.6458 10.5108V9.29338C12.6458 8.96534 12.6451 8.72169 12.6374 8.52775L12.627 8.34937C12.614 8.19047 12.5938 8.10096 12.5736 8.04468L12.554 7.99845C12.4834 7.85996 12.3759 7.74401 12.2441 7.66317L12.1862 7.63062C12.148 7.61114 12.0885 7.58897 11.972 7.57202L11.8353 7.55705C11.6157 7.53911 11.3284 7.53882 10.8913 7.53882H9.67383Z" fill="#007AFF"/>
<path d="M7.61914 2.37476L7.80534 2.38387C8.72367 2.47708 9.44061 3.25283 9.44076 4.19572C9.44066 4.57117 9.13589 4.87606 8.76042 4.87606C8.38505 4.87593 8.08083 4.57109 8.08073 4.19572C8.08058 3.94107 7.87382 3.73478 7.61914 3.73478H5.10873C4.78075 3.73478 4.53703 3.73487 4.3431 3.74259L4.16471 3.75301C4.00602 3.76598 3.91633 3.78619 3.86003 3.8064L3.81315 3.82593C3.67475 3.89646 3.55936 4.00419 3.47852 4.13582L3.44531 4.19377C3.42586 4.23196 3.40431 4.29161 3.38737 4.40796L3.3724 4.54468C3.35445 4.76431 3.35352 5.05212 3.35352 5.48934V7.23934C3.35352 7.62443 3.35754 7.71937 3.37044 7.78426L3.40365 7.90535C3.50262 8.17989 3.73915 8.38688 4.03125 8.44507L4.08984 8.45353C4.16188 8.45988 4.28749 8.46134 4.57617 8.46134C4.95151 8.46145 5.25569 8.76571 5.25586 9.14103C5.25586 9.5165 4.95162 9.82127 4.57617 9.82137H4.51237C4.29353 9.82154 4.10303 9.82171 3.93164 9.80379L3.76563 9.77905C2.94705 9.61608 2.29622 9.0058 2.07487 8.21069L2.03581 8.04924C2.01461 7.94262 2.00466 7.82872 1.99935 7.70548L1.99414 7.30314V5.46004C1.99413 5.05788 1.99397 4.71496 2.01693 4.434L2.04102 4.2146C2.07264 3.99607 2.12941 3.78258 2.23438 3.57658L2.31901 3.42489C2.53054 3.08012 2.83357 2.79899 3.19596 2.61434L3.30013 2.56616C3.5429 2.46215 3.79486 2.41869 4.05339 2.39754L4.27604 2.38452C4.50957 2.37483 4.77734 2.37475 5.07878 2.37476H7.61914Z" fill="#007AFF"/>
</svg>
