<svg width="20" height="20" viewBox="0 0 20 20" fill="none" xmlns="http://www.w3.org/2000/svg">
<g clip-path="url(#clip0_1030_5485)">
<path fill-rule="evenodd" clip-rule="evenodd" d="M5.11165 10.6249C5.98289 10.6249 6.41851 10.6254 6.77913 10.7063C8.03668 10.9887 9.01871 11.9707 9.30111 13.2283C9.38204 13.5889 9.38249 14.0245 9.38249 14.8958C9.38249 15.767 9.38204 16.2026 9.30111 16.5632L9.24007 16.796C8.89488 17.9411 7.95807 18.8205 6.77913 19.0852L6.63997 19.1121C6.30303 19.1663 5.87416 19.1666 5.11165 19.1666C4.34914 19.1666 3.92027 19.1663 3.58333 19.1121L3.44417 19.0852C2.26524 18.8205 1.32843 17.9411 0.983236 16.796L0.922201 16.5632C0.841265 16.2026 0.84082 15.767 0.84082 14.8958C0.84082 14.1332 0.841086 13.7044 0.895345 13.3674L0.922201 13.2283C1.18694 12.0493 2.06633 11.1125 3.21143 10.7673L3.44417 10.7063C3.8048 10.6254 4.24042 10.6249 5.11165 10.6249ZM5.11165 12.1248C4.15913 12.1248 3.92959 12.1342 3.77214 12.1695C3.08075 12.3249 2.5408 12.8648 2.38542 13.5562C2.35006 13.7137 2.34066 13.9432 2.34066 14.8958C2.34066 15.8483 2.35006 16.0778 2.38542 16.2353C2.5408 16.9267 3.08075 17.4666 3.77214 17.622C3.92959 17.6573 4.15913 17.6667 5.11165 17.6667C6.06418 17.6667 6.29371 17.6573 6.45117 17.622C7.14256 17.4666 7.6825 16.9267 7.83789 16.2353C7.87325 16.0778 7.88265 15.8483 7.88265 14.8958C7.88265 13.9432 7.87325 13.7137 7.83789 13.5562C7.6825 12.8648 7.14256 12.3249 6.45117 12.1695C6.29371 12.1342 6.06418 12.1248 5.11165 12.1248Z" fill="#007AFF"/>
<path d="M12.3 16.6666C12.9903 16.6666 13.55 17.2262 13.55 17.9166C13.55 18.6069 12.9903 19.1666 12.3 19.1666C11.6096 19.1666 11.05 18.6069 11.05 17.9166C11.05 17.2262 11.6096 16.6666 12.3 16.6666Z" fill="#007AFF"/>
<path d="M17.5083 16.6666C18.1987 16.6666 18.7583 17.2262 18.7583 17.9166C18.7583 18.6069 18.1987 19.1666 17.5083 19.1666C16.8179 19.1666 16.2583 18.6069 16.2583 17.9166C16.2583 17.2262 16.8179 16.6666 17.5083 16.6666Z" fill="#007AFF"/>
<path d="M14.9033 13.6458C15.5937 13.6458 16.1533 14.2054 16.1533 14.8958C16.1533 15.5861 15.5937 16.1458 14.9033 16.1458C14.213 16.1458 13.6533 15.5861 13.6533 14.8958C13.6533 14.2054 14.213 13.6458 14.9033 13.6458Z" fill="#007AFF"/>
<path d="M12.3 11.0416C12.9903 11.0416 13.55 11.6012 13.55 12.2916C13.55 12.9819 12.9903 13.5416 12.3 13.5416C11.6096 13.5416 11.05 12.9819 11.05 12.2916C11.05 11.6012 11.6096 11.0416 12.3 11.0416Z" fill="#007AFF"/>
<path d="M17.5083 11.0416C18.1987 11.0416 18.7583 11.6012 18.7583 12.2916C18.7583 12.9819 18.1987 13.5416 17.5083 13.5416C16.8179 13.5416 16.2583 12.9819 16.2583 12.2916C16.2583 11.6012 16.8179 11.0416 17.5083 11.0416Z" fill="#007AFF"/>
<path fill-rule="evenodd" clip-rule="evenodd" d="M5.11165 0.833252C5.98289 0.833252 6.41851 0.833697 6.77913 0.914632C8.03668 1.19702 9.01871 2.17906 9.30111 3.4366C9.38204 3.79723 9.38249 4.23285 9.38249 5.10408C9.38249 5.97532 9.38204 6.41094 9.30111 6.77156L9.24007 7.00431C8.89488 8.14941 7.95807 9.0288 6.77913 9.29354L6.63997 9.32039C6.30303 9.37465 5.87416 9.37492 5.11165 9.37492C4.34914 9.37492 3.92027 9.37465 3.58333 9.32039L3.44417 9.29354C2.26524 9.0288 1.32843 8.14941 0.983236 7.00431L0.922201 6.77156C0.841265 6.41094 0.84082 5.97532 0.84082 5.10408C0.84082 4.34157 0.841086 3.9127 0.895345 3.57576L0.922201 3.4366C1.18694 2.25767 2.06633 1.32086 3.21143 0.975667L3.44417 0.914632C3.8048 0.833697 4.24042 0.833252 5.11165 0.833252ZM5.11165 2.33309C4.15913 2.33309 3.92959 2.34249 3.77214 2.37785C3.08075 2.53324 2.5408 3.07318 2.38542 3.76457C2.35006 3.92203 2.34066 4.15156 2.34066 5.10408C2.34066 6.05661 2.35006 6.28614 2.38542 6.4436C2.5408 7.13499 3.08075 7.67493 3.77214 7.83032C3.92959 7.86568 4.15913 7.87508 5.11165 7.87508C6.06418 7.87508 6.29371 7.86568 6.45117 7.83032C7.14256 7.67493 7.6825 7.13499 7.83789 6.4436C7.87325 6.28614 7.88265 6.05661 7.88265 5.10408C7.88265 4.15156 7.87325 3.92203 7.83789 3.76457C7.6825 3.07318 7.14256 2.53324 6.45117 2.37785C6.29371 2.34249 6.06418 2.33309 5.11165 2.33309Z" fill="#007AFF"/>
<path fill-rule="evenodd" clip-rule="evenodd" d="M14.9033 0.833252C15.7746 0.833252 16.2102 0.833697 16.5708 0.914632C17.8283 1.19702 18.8104 2.17906 19.0928 3.4366C19.1737 3.79723 19.1742 4.23285 19.1742 5.10408C19.1742 5.97532 19.1737 6.41094 19.0928 6.77156L19.0317 7.00431C18.6865 8.14941 17.7497 9.0288 16.5708 9.29354L16.4316 9.32039C16.0947 9.37465 15.6658 9.37492 14.9033 9.37492C14.1408 9.37492 13.7119 9.37465 13.375 9.32039L13.2358 9.29354C12.0569 9.0288 11.1201 8.14941 10.7749 7.00431L10.7139 6.77156C10.6329 6.41094 10.6325 5.97532 10.6325 5.10408C10.6325 4.34157 10.6328 3.9127 10.687 3.57576L10.7139 3.4366C10.9786 2.25767 11.858 1.32086 13.0031 0.975667L13.2358 0.914632C13.5965 0.833697 14.0321 0.833252 14.9033 0.833252ZM14.9033 2.33309C13.9508 2.33309 13.7213 2.34249 13.5638 2.37785C12.8724 2.53324 12.3325 3.07318 12.1771 3.76457C12.1417 3.92203 12.1323 4.15156 12.1323 5.10408C12.1323 6.05661 12.1417 6.28614 12.1771 6.4436C12.3325 7.13499 12.8724 7.67493 13.5638 7.83032C13.7213 7.86568 13.9508 7.87508 14.9033 7.87508C15.8558 7.87508 16.0854 7.86568 16.2428 7.83032C16.9342 7.67493 17.4742 7.13499 17.6296 6.4436C17.6649 6.28614 17.6743 6.05661 17.6743 5.10408C17.6743 4.15156 17.6649 3.92203 17.6296 3.76457C17.4742 3.07318 16.9342 2.53324 16.2428 2.37785C16.0854 2.34249 15.8558 2.33309 14.9033 2.33309Z" fill="#007AFF"/>
</g>
<defs>
<clipPath id="clip0_1030_5485">
<rect width="20" height="20" fill="white"/>
</clipPath>
</defs>
</svg>
