<svg width="24" height="24" viewBox="0 0 24 24" fill="none" xmlns="http://www.w3.org/2000/svg">
<path d="M20.5635 8.39941C20.9829 8.39968 21.3231 8.73971 21.3232 9.15918V16.3008C21.323 18.9238 19.1962 21.0505 16.5732 21.0508H7.42773C4.8045 21.0508 2.67793 18.924 2.67773 16.3008V9.15918C2.67786 8.73966 3.01792 8.39954 3.4375 8.39941H20.5635Z" fill="white"/>
<path d="M16.1709 1C16.5849 1.00013 16.9207 1.33606 16.9209 1.75V2.40332H17.5811C19.6475 2.40357 21.3223 4.07901 21.3223 6.14551C21.3219 6.56345 20.9834 6.90217 20.5654 6.90234H3.43457C3.01672 6.90215 2.67711 6.56353 2.67676 6.14551C2.67676 4.07898 4.35246 2.40352 6.41895 2.40332H7.09863V1.75C7.09886 1.33606 7.43467 1.00013 7.84863 1C8.26271 1 8.59841 1.33598 8.59863 1.75V2.40332H15.4209V1.75C15.4211 1.33598 15.7568 1 16.1709 1Z" fill="white"/>
</svg>
