<svg width="15" height="9" viewBox="0 0 15 9" fill="none" xmlns="http://www.w3.org/2000/svg">
<path d="M1.23992 1.12296C1.5914 0.771522 2.1619 0.771502 2.51336 1.12296L7.48211 6.09171C7.69021 6.29981 7.80912 6.41811 7.90203 6.49699C7.92984 6.52056 7.94932 6.53489 7.96063 6.54289C7.97093 6.54453 7.98156 6.54449 7.99188 6.54289C8.0032 6.53491 8.02302 6.52111 8.05145 6.49699C8.14441 6.41805 8.26304 6.30004 8.47137 6.09171L13.4401 1.12296L13.5085 1.06144C13.8619 0.773044 14.383 0.793597 14.7126 1.12296C15.0417 1.4524 15.063 1.9737 14.7751 2.32707L14.7126 2.39542L9.74481 7.36417C9.55732 7.55166 9.37855 7.73147 9.21649 7.86906C9.04652 8.01334 8.83595 8.16342 8.56414 8.25187C8.18268 8.37581 7.77082 8.37572 7.38934 8.25187L7.19695 8.17472C7.01523 8.08846 6.86448 7.97723 6.73699 7.86906C6.57501 7.73155 6.39605 7.55156 6.20867 7.36417L1.23992 2.39542C0.888808 2.04399 0.888743 1.47435 1.23992 1.12296Z" fill="#3C3C43" fill-opacity="0.72"/>
</svg>
