<svg width="23" height="22" viewBox="0 0 23 22" fill="none" xmlns="http://www.w3.org/2000/svg">
<path d="M11.5 3.8418C11.9971 3.8418 12.4004 4.24513 12.4004 4.74219V10.1045H15.874L15.9658 10.1094C16.4197 10.1554 16.7744 10.5389 16.7744 11.0049C16.7744 11.4709 16.4197 11.8543 15.9658 11.9004L15.874 11.9053H11.5088C11.4256 11.9053 11.345 11.8932 11.2686 11.8721C11.2608 11.87 11.2528 11.8685 11.2451 11.8662C11.2392 11.8644 11.2334 11.8623 11.2275 11.8604C11.2042 11.853 11.1816 11.8442 11.1592 11.835C11.1255 11.8207 11.093 11.8042 11.0615 11.7861C10.8122 11.6464 10.6348 11.3939 10.6045 11.0957L10.5996 11.0039V4.74219C10.5996 4.24513 11.0029 3.8418 11.5 3.8418Z" fill="#3C3C43" fill-opacity="0.72"/>
<path fill-rule="evenodd" clip-rule="evenodd" d="M11.5088 0C17.5839 0 22.5088 4.92487 22.5088 11C22.5088 17.0751 17.5839 22 11.5088 22C5.43366 22 0.508789 17.0751 0.508789 11C0.508789 4.92487 5.43366 0 11.5088 0ZM11.5088 1.7998C6.42777 1.7998 2.30859 5.91898 2.30859 11C2.30859 16.081 6.42777 20.2002 11.5088 20.2002C16.5898 20.2002 20.709 16.081 20.709 11C20.709 5.91898 16.5898 1.7998 11.5088 1.7998Z" fill="#3C3C43" fill-opacity="0.72"/>
</svg>
