<svg width="20" height="19" viewBox="0 0 20 19" fill="none" xmlns="http://www.w3.org/2000/svg">
<path d="M14.5908 10.4367C14.8454 10.3861 15.1098 10.4116 15.3496 10.5109C15.5893 10.6103 15.7943 10.7786 15.9385 10.9943C16.0826 11.2101 16.1592 11.4643 16.1592 11.7238C16.1591 12.0717 16.0213 12.4056 15.7754 12.6516C15.5293 12.8977 15.1947 13.0354 14.8467 13.0354C14.5873 13.0353 14.3338 12.9587 14.1182 12.8147C13.9024 12.6705 13.7341 12.4655 13.6348 12.2258C13.5354 11.986 13.5089 11.7216 13.5596 11.467C13.6102 11.2125 13.7355 10.9786 13.9189 10.7951C14.1024 10.6117 14.3364 10.4874 14.5908 10.4367Z" fill="#3C3C43" fill-opacity="0.72"/>
<path fill-rule="evenodd" clip-rule="evenodd" d="M13.1797 0.341021C15.6158 -0.201761 17.9286 1.65182 17.9287 4.14766V5.91426C18.998 6.81322 19.6787 8.16009 19.6787 9.66622V13.7805C19.6787 16.4865 17.4843 18.6806 14.7783 18.6809H5.27832C2.57214 18.6809 0.376972 16.4867 0.376953 13.7805V7.12325C0.376953 4.82791 1.9716 2.83954 4.21191 2.34004L13.1797 0.341021ZM5.27832 6.56661C3.56624 6.56661 2.17871 7.95413 2.17871 9.66622V13.7805C2.17873 15.4925 3.56625 16.8811 5.27832 16.8811H14.7783C16.4902 16.8808 17.8779 15.4924 17.8779 13.7805V9.66622C17.8779 7.9543 16.4902 6.56687 14.7783 6.56661H5.27832ZM16.1289 4.14766C16.1288 2.80386 14.8829 1.80573 13.5713 2.09786L4.60352 4.09688C3.73719 4.29006 3.02419 4.83539 2.60059 5.56172C3.37025 5.05863 4.29029 4.76583 5.27832 4.76583H14.7783C15.2469 4.76587 15.6998 4.83242 16.1289 4.95528V4.14766Z" fill="#3C3C43" fill-opacity="0.72"/>
</svg>
