<svg width="70" height="24" viewBox="0 0 70 24" fill="none" xmlns="http://www.w3.org/2000/svg">
<rect y="2" width="20" height="20" rx="10" fill="url(#paint0_linear_1343_4597)"/>
<path d="M14.4099 10.5753C14.6089 9.2445 13.5957 8.52915 12.2103 8.05195L12.6597 6.24928L11.5624 5.97585L11.1249 7.73105C10.8364 7.6591 10.5401 7.59131 10.2457 7.5241L10.6864 5.75732L9.58974 5.48389L9.14005 7.28596C8.90132 7.23161 8.66685 7.17789 8.43937 7.12129L8.44064 7.11562L6.92739 6.73773L6.63549 7.90976C6.63549 7.90976 7.44962 8.09638 7.43246 8.10786C7.87682 8.21877 7.95718 8.51292 7.94383 8.74608L7.43187 10.7997C7.46247 10.8075 7.50216 10.8187 7.54596 10.8363C7.50935 10.8273 7.47039 10.8173 7.42997 10.8077L6.71237 13.6845C6.65807 13.8195 6.52023 14.0221 6.20955 13.9452C6.22055 13.9611 5.41199 13.7462 5.41199 13.7462L4.86719 15.0023L6.29519 15.3582C6.56085 15.4249 6.82118 15.4946 7.07755 15.5601L6.62346 17.3835L7.71953 17.6569L8.16921 15.8529C8.46865 15.9342 8.75923 16.0092 9.04371 16.0798L8.59554 17.8753L9.69292 18.1488L10.147 16.3288C12.0181 16.683 13.4251 16.5402 14.0174 14.8477C14.4946 13.4851 13.9936 12.6991 13.0092 12.1865C13.7262 12.0212 14.2662 11.5496 14.4102 10.5754L14.4099 10.5752L14.4099 10.5753ZM11.9027 14.091C11.5636 15.4536 9.26929 14.717 8.52544 14.5323L9.12803 12.1167C9.87182 12.3024 12.2571 12.6698 11.9027 14.091H11.9027ZM12.2421 10.5555C11.9327 11.795 10.0231 11.1653 9.4037 11.0109L9.95003 8.82008C10.5695 8.97449 12.5643 9.26268 12.2422 10.5555H12.2421Z" fill="white"/>
<circle cx="42" cy="12" r="12" fill="white"/>
<circle cx="26" cy="12" r="12" fill="white"/>
<rect x="16" y="2" width="20" height="20" rx="10" fill="url(#paint1_linear_1343_4597)"/>
<g clip-path="url(#clip0_1343_4597)" filter="url(#filter0_d_1343_4597)">
<path d="M25.8929 5.3532V5.35977C25.8994 5.39261 25.8994 5.43202 25.8994 5.47143V10.2071C25.8929 10.2333 25.8732 10.2399 25.8535 10.253C25.7155 10.3187 25.5842 10.3778 25.4462 10.4369C25.2558 10.5223 25.0587 10.6143 24.8682 10.6997L24.1786 11.0149C23.9881 11.1003 23.7976 11.1857 23.6137 11.2711C23.3904 11.3762 23.1605 11.4747 22.9372 11.5798C22.7467 11.6652 22.5563 11.7571 22.3592 11.8425C22.2016 11.9148 22.0439 11.9805 21.8929 12.0527C21.8797 12.0593 21.8666 12.0658 21.8535 12.0658C21.8469 12.0658 21.8469 12.0658 21.8403 12.0593L22.0177 11.7637C22.3592 11.1989 22.6942 10.6406 23.0357 10.0757C23.397 9.47143 23.7648 8.86716 24.126 8.26289C24.461 7.7046 24.8026 7.1463 25.1375 6.58801C25.3806 6.18079 25.6302 5.77356 25.8732 5.36634C25.8797 5.3532 25.8863 5.34663 25.8863 5.3335H25.8929C25.8863 5.34006 25.8929 5.34663 25.8929 5.3532Z" fill="white"/>
<path d="M29.9254 12.0596L29.9319 12.0661L28.9664 12.6376L25.9319 14.4307C25.9188 14.4372 25.9057 14.4438 25.8991 14.4504C25.8794 14.4504 25.8794 14.4307 25.8794 14.4241V14.365V10.3059C25.8794 10.2862 25.8794 10.2599 25.886 10.2402C25.8925 10.2139 25.9122 10.2205 25.9319 10.2271C26.0173 10.2665 26.1093 10.3059 26.1947 10.3453C26.4508 10.4635 26.707 10.5817 26.9631 10.6934C27.1865 10.7919 27.4032 10.897 27.6265 10.9955C27.8498 11.0941 28.0732 11.1992 28.2965 11.2977C28.4869 11.3831 28.684 11.475 28.8745 11.5604C29.0649 11.6458 29.262 11.7377 29.4525 11.8231C29.6035 11.8888 29.7546 11.9611 29.9057 12.0267C29.9057 12.0464 29.9122 12.053 29.9254 12.0596Z" fill="white" fill-opacity="0.4"/>
<path d="M25.8929 18.5291C25.8929 18.5357 25.8863 18.5422 25.8863 18.5488H25.8797C25.8797 18.5357 25.8666 18.5291 25.86 18.516C25.4528 17.9445 25.0456 17.3665 24.6384 16.7951C24.2246 16.2106 23.8042 15.6194 23.3904 15.0349C22.9898 14.47 22.5825 13.8986 22.1819 13.3337C22.0768 13.1826 21.9717 13.0381 21.8666 12.8871C21.86 12.8739 21.8535 12.8674 21.8403 12.8477C21.86 12.8477 21.8732 12.8608 21.8797 12.8674C22.4512 13.2023 23.016 13.5373 23.5875 13.8723C24.2443 14.2598 24.8945 14.6473 25.5513 15.0349L25.8863 15.2319C25.8994 15.245 25.8994 15.2582 25.8994 15.2713V18.4372C25.8994 18.47 25.8994 18.5028 25.8929 18.5291Z" fill="white"/>
<path d="M21.8335 12.0724V12.0659C22.0437 11.9739 22.2473 11.8754 22.4575 11.7834C22.7268 11.6586 22.9961 11.5404 23.2653 11.4156C23.469 11.3237 23.6791 11.2251 23.8828 11.1332C24.1849 10.9953 24.4804 10.8639 24.7826 10.726C24.9862 10.634 25.1898 10.5421 25.4 10.4435C25.5445 10.3779 25.6956 10.3122 25.8401 10.2465C25.8532 10.2399 25.8729 10.2334 25.8795 10.2202C25.886 10.2202 25.886 10.2268 25.8795 10.2334V14.4041C25.8795 14.4238 25.8729 14.4435 25.886 14.4567C25.8729 14.4764 25.8598 14.4567 25.8532 14.4501C25.7941 14.4173 25.735 14.3844 25.6758 14.345C24.4082 13.5962 23.134 12.8409 21.8663 12.0921C21.8598 12.0856 21.8466 12.079 21.8335 12.0724Z" fill="white" fill-opacity="0.8"/>
<path d="M29.9125 12.8477H29.9191C29.9191 12.8608 29.9059 12.8739 29.8994 12.8871C28.6908 14.5882 27.4823 16.2959 26.2738 17.9971C26.149 18.1744 26.0176 18.3518 25.8928 18.5291C25.8862 18.5225 25.8862 18.516 25.8862 18.5094V18.47V15.2844V15.2253C26.1621 15.0611 26.4314 14.9035 26.7072 14.7393C27.7713 14.1087 28.8353 13.4848 29.8928 12.8542C29.8994 12.8608 29.9059 12.8542 29.9125 12.8477Z" fill="white" fill-opacity="0.8"/>
<path d="M25.8862 10.2334V10.2203V10.1809V5.41241C25.8862 5.3927 25.8796 5.37957 25.8928 5.35986C27.2261 7.57333 28.5594 9.78023 29.8862 11.9937C29.8993 12.0134 29.919 12.0397 29.9256 12.0659C29.8336 12.0331 29.7483 11.9871 29.6629 11.9477C29.5578 11.9017 29.4461 11.8492 29.341 11.8032C29.2753 11.7704 29.2031 11.7441 29.1374 11.7113C29.0258 11.6587 28.9141 11.6127 28.8024 11.5602C28.7368 11.5339 28.6711 11.5011 28.6054 11.4682L28.1719 11.2712C28.0996 11.2384 28.0274 11.2055 27.9486 11.1727L27.6333 11.0347C27.5676 11.0085 27.5019 10.9756 27.4363 10.9428L27.0028 10.7457C26.9305 10.7129 26.8583 10.6801 26.7795 10.6472L26.4642 10.5093C26.3919 10.4765 26.3262 10.4436 26.254 10.4108C26.1292 10.3517 26.0044 10.2925 25.873 10.24C25.8928 10.2334 25.8862 10.2334 25.8862 10.2334Z" fill="white" fill-opacity="0.8"/>
</g>
<circle cx="42" cy="12" r="12" fill="white"/>
<rect x="32" y="2" width="20" height="20" rx="10" fill="url(#paint2_linear_1343_4597)"/>
<g clip-path="url(#clip1_1343_4597)">
<path d="M46.7017 7.06396H37.2798V9.33859H40.8534V12.6819H43.128V9.33859H46.7017V7.06396Z" fill="white"/>
<path d="M42.0125 13.0377C39.0563 13.0377 36.6596 12.5699 36.6596 11.9927C36.6596 11.4156 39.0562 10.9476 42.0125 10.9476C44.9687 10.9476 47.3653 11.4156 47.3653 11.9927C47.3653 12.5699 44.9687 13.0377 42.0125 13.0377ZM48.0229 12.1669C48.0229 11.4226 45.332 10.8193 42.0125 10.8193C38.6931 10.8193 36.002 11.4226 36.002 12.1669C36.002 12.8223 38.0886 13.3684 40.8537 13.4894V18.2888H43.1281V13.4913C45.9145 13.3741 48.0229 12.8257 48.0229 12.1669Z" fill="white"/>
</g>
<circle cx="58" cy="12" r="12" fill="white"/>
<rect x="48" y="2" width="20" height="20" rx="10" fill="url(#paint3_linear_1343_4597)"/>
<path fill-rule="evenodd" clip-rule="evenodd" d="M56.1254 18.9527C56.1254 19.188 55.9412 19.3216 55.7137 19.2506C52.6902 18.286 50.498 15.4509 50.498 12.1057C50.498 8.76056 52.6902 5.92534 55.7137 4.96079C55.9412 4.89022 56.1254 5.0234 56.1254 5.25863V5.83931C56.1254 5.9959 56.0041 6.18022 55.8549 6.23125C53.4627 7.10965 51.7491 9.40772 51.7491 12.1017C51.7491 14.7957 53.4627 17.0942 55.8549 17.9722C56.0041 18.0272 56.1254 18.2074 56.1254 18.3645V18.9527Z" fill="white"/>
<path fill-rule="evenodd" clip-rule="evenodd" d="M58.6233 16.7919C58.6233 16.9646 58.4821 17.1057 58.3096 17.1057H57.686C57.5135 17.1057 57.3724 16.9646 57.3724 16.7919V15.8038C56.0076 15.6196 55.3411 14.8547 55.1607 13.8156C55.1292 13.6389 55.2703 13.4782 55.4508 13.4782H56.1645C56.3135 13.4782 56.4391 13.5842 56.4704 13.733C56.6038 14.3527 56.9607 14.8272 58.0546 14.8272C58.8625 14.8272 59.4352 14.3762 59.4352 13.702C59.4352 13.0272 59.0978 12.7724 57.9135 12.5762C56.1645 12.341 55.3371 11.8114 55.3371 10.4389C55.3371 9.38016 56.1373 8.55675 57.3763 8.38016V7.41152C57.3763 7.23891 57.5176 7.09766 57.69 7.09766H58.3136C58.4861 7.09766 58.6273 7.23891 58.6273 7.41152V8.40766C59.6351 8.58834 60.2743 9.1605 60.4823 10.1095C60.5213 10.2902 60.3802 10.4585 60.196 10.4585H59.537C59.3959 10.4585 59.2783 10.3642 59.2352 10.2271C59.0587 9.62345 58.6273 9.3647 57.8782 9.3647C57.0508 9.3647 56.6233 9.76459 56.6233 10.3253C56.6233 10.9174 56.8666 11.2153 58.1373 11.3999C59.8546 11.6352 60.7411 12.1253 60.7411 13.5883C60.7411 14.698 59.9175 15.5961 58.6273 15.8038V16.7919H58.6233Z" fill="white"/>
<path fill-rule="evenodd" clip-rule="evenodd" d="M60.2862 19.2507C60.0589 19.3217 59.8745 19.188 59.8745 18.9528V18.3726C59.8745 18.2 59.9804 18.0393 60.1451 17.9802C62.5372 17.1018 64.2509 14.8037 64.2509 12.1098C64.2509 9.41577 62.5372 7.11771 60.1451 6.2393C59.9961 6.1843 59.8745 6.00407 59.8745 5.84691V5.26668C59.8745 5.03146 60.0589 4.8943 60.2862 4.96839C63.3097 5.9335 65.5019 8.76862 65.5019 12.1137C65.4981 15.4509 63.3097 18.2821 60.2862 19.2507Z" fill="white"/>
<defs>
<filter id="filter0_d_1343_4597" x="18.6192" y="5.3335" width="14.7621" height="14.7621" filterUnits="userSpaceOnUse" color-interpolation-filters="sRGB">
<feFlood flood-opacity="0" result="BackgroundImageFix"/>
<feColorMatrix in="SourceAlpha" type="matrix" values="0 0 0 0 0 0 0 0 0 0 0 0 0 0 0 0 0 0 127 0" result="hardAlpha"/>
<feOffset dy="0.714286"/>
<feGaussianBlur stdDeviation="0.357143"/>
<feComposite in2="hardAlpha" operator="out"/>
<feColorMatrix type="matrix" values="0 0 0 0 0 0 0 0 0 0 0 0 0 0 0 0 0 0 0.08 0"/>
<feBlend mode="normal" in2="BackgroundImageFix" result="effect1_dropShadow_1343_4597"/>
<feBlend mode="normal" in="SourceGraphic" in2="effect1_dropShadow_1343_4597" result="shape"/>
</filter>
<linearGradient id="paint0_linear_1343_4597" x1="10" y1="2" x2="10" y2="22" gradientUnits="userSpaceOnUse">
<stop stop-color="#FFA34F"/>
<stop offset="1" stop-color="#FF800B"/>
</linearGradient>
<linearGradient id="paint1_linear_1343_4597" x1="26" y1="2" x2="26" y2="22" gradientUnits="userSpaceOnUse">
<stop stop-color="#88B0FF"/>
<stop offset="1" stop-color="#5E93FB"/>
</linearGradient>
<linearGradient id="paint2_linear_1343_4597" x1="42" y1="2" x2="42" y2="22" gradientUnits="userSpaceOnUse">
<stop stop-color="#00E7A2"/>
<stop offset="1" stop-color="#00996C"/>
</linearGradient>
<linearGradient id="paint3_linear_1343_4597" x1="58" y1="2" x2="58" y2="22" gradientUnits="userSpaceOnUse">
<stop stop-color="#17BAFF"/>
<stop offset="1" stop-color="#047CFF"/>
</linearGradient>
<clipPath id="clip0_1343_4597">
<rect width="13.3333" height="13.3333" fill="white" transform="translate(19.3335 5.3335)"/>
</clipPath>
<clipPath id="clip1_1343_4597">
<rect width="12.021" height="11.2251" fill="white" transform="translate(36.002 7.06396)"/>
</clipPath>
</defs>
</svg>
