<svg width="76" height="20" viewBox="0 0 76 20" fill="none" xmlns="http://www.w3.org/2000/svg">
<g clip-path="url(#clip0_1343_4993)">
<path d="M24.1229 3.99932C23.9677 3.99932 23.8358 4.11203 23.8115 4.26551L22.0143 15.6627C22.0078 15.7044 22.0104 15.7469 22.0219 15.7875C22.0333 15.828 22.0535 15.8656 22.0809 15.8976C22.1082 15.9296 22.1422 15.9553 22.1805 15.973C22.2188 15.9906 22.2604 15.9997 22.3026 15.9997H24.4339C24.5889 15.9997 24.721 15.8868 24.7453 15.7336L25.2732 12.3867C25.2973 12.2334 25.4294 12.1205 25.5846 12.1205H27.5224C29.7864 12.1205 31.7084 10.4685 32.0594 8.23009C32.4134 5.9727 30.6498 4.00422 28.1503 3.99932H24.1229ZM26.1948 6.54362H27.7451C29.0215 6.54362 29.4372 7.29675 29.3057 8.12962C29.1743 8.96428 28.5288 9.57908 27.2941 9.57908H25.7161L26.1948 6.54362ZM36.3942 7.31835C35.856 7.32036 35.2368 7.43062 34.5416 7.7202C32.9469 8.3849 32.1811 9.75863 31.8558 10.7601C31.8558 10.7601 30.8207 13.8156 33.1594 15.4943C33.1594 15.4943 35.3283 17.1104 37.77 15.3947L37.7278 15.6627C37.7213 15.7043 37.7239 15.7468 37.7353 15.7873C37.7468 15.8279 37.7669 15.8654 37.7942 15.8974C37.8216 15.9295 37.8555 15.9552 37.8937 15.9728C37.9319 15.9905 37.9735 15.9997 38.0156 15.9997H40.0389C40.1942 15.9997 40.3261 15.8868 40.3503 15.7336L41.5811 7.9287C41.5877 7.88707 41.5852 7.84451 41.5737 7.80394C41.5623 7.76337 41.5422 7.72576 41.5149 7.69369C41.4875 7.66162 41.4536 7.63585 41.4153 7.61816C41.377 7.60048 41.3354 7.59129 41.2933 7.59123H39.27C39.1147 7.59123 38.9826 7.70416 38.9586 7.85742L38.8924 8.27753C38.8924 8.27753 38.009 7.31234 36.3942 7.31835ZM36.4604 9.78357C36.6927 9.78357 36.9052 9.81565 37.0959 9.87691C37.9689 10.1571 38.4638 10.9958 38.3206 11.9049C38.144 13.0242 37.226 13.8484 36.0487 13.8484C35.8166 13.8484 35.6041 13.8165 35.4132 13.7553C34.5405 13.4751 34.0424 12.6364 34.1856 11.7273C34.3623 10.608 35.2831 9.78357 36.4604 9.78357Z" fill="#003087"/>
<path d="M53.2592 3.99932C53.1039 3.99932 52.9721 4.11203 52.9478 4.26551L51.1506 15.6627C51.1441 15.7044 51.1466 15.7469 51.1581 15.7875C51.1696 15.828 51.1897 15.8656 51.2171 15.8976C51.2445 15.9296 51.2785 15.9553 51.3168 15.973C51.3551 15.9906 51.3967 15.9997 51.4388 15.9997H53.5702C53.7252 15.9997 53.8573 15.8868 53.8816 15.7336L54.4095 12.3867C54.4335 12.2334 54.5656 12.1205 54.7209 12.1205H56.6586C58.9227 12.1205 60.8444 10.4685 61.1953 8.23009C61.5494 5.9727 59.7861 4.00422 57.2866 3.99932H53.2592ZM55.331 6.54362H56.8814C58.1578 6.54362 58.5734 7.29675 58.442 8.12962C58.3106 8.96428 57.6653 9.57908 56.4303 9.57908H54.8523L55.331 6.54362ZM65.5303 7.31835C64.9921 7.32036 64.3728 7.43062 63.6776 7.7202C62.0829 8.3849 61.3171 9.75863 60.9919 10.7601C60.9919 10.7601 59.9572 13.8156 62.2959 15.4943C62.2959 15.4943 64.4644 17.1104 66.9062 15.3947L66.8641 15.6627C66.8576 15.7044 66.8601 15.7469 66.8716 15.7875C66.8831 15.828 66.9032 15.8656 66.9306 15.8976C66.958 15.9296 66.992 15.9553 67.0303 15.973C67.0686 15.9906 67.1102 15.9997 67.1524 15.9997H69.1754C69.3307 15.9997 69.4626 15.8868 69.4868 15.7336L70.718 7.9287C70.7246 7.88703 70.7221 7.84443 70.7106 7.80383C70.6992 7.76323 70.6791 7.72559 70.6517 7.69352C70.6243 7.66144 70.5902 7.63568 70.5519 7.61802C70.5136 7.60037 70.4719 7.59122 70.4297 7.59123H68.4065C68.2512 7.59123 68.1191 7.70416 68.0951 7.85742L68.0289 8.27753C68.0289 8.27753 67.145 7.31234 65.5303 7.31835ZM65.5964 9.78357C65.8288 9.78357 66.0413 9.81565 66.2319 9.87691C67.1049 10.1571 67.5999 10.9958 67.4566 11.9049C67.28 13.0242 66.362 13.8484 65.1848 13.8484C64.9527 13.8484 64.7402 13.8165 64.5493 13.7553C63.6765 13.4751 63.1784 12.6364 63.3217 11.7273C63.4983 10.608 64.4192 9.78357 65.5964 9.78357Z" fill="#0070E0"/>
<path d="M42.5412 7.59124C42.3808 7.59124 42.2667 7.74783 42.3157 7.90042L44.5339 14.7837L42.5282 18.0275C42.4309 18.185 42.5441 18.3883 42.7292 18.3883H45.0997C45.1675 18.3883 45.2342 18.3708 45.2932 18.3374C45.3522 18.3041 45.4017 18.2561 45.4367 18.1981L51.6318 7.94987C51.7269 7.79238 51.6133 7.59101 51.4293 7.59101H49.059C48.9905 7.59107 48.9232 7.60895 48.8638 7.64289C48.8044 7.67683 48.7548 7.72567 48.7199 7.78459L46.2814 11.9015L45.0436 7.8151C45.0033 7.68212 44.8805 7.59101 44.7418 7.59101L42.5412 7.59124Z" fill="#003087"/>
<path d="M73.0168 3.99932C72.8618 3.99932 72.7297 4.11226 72.7054 4.26551L70.9078 15.6623C70.9012 15.7039 70.9037 15.7465 70.9151 15.7871C70.9266 15.8277 70.9467 15.8654 70.9741 15.8975C71.0015 15.9295 71.0355 15.9553 71.0738 15.973C71.1121 15.9906 71.1538 15.9998 71.196 15.9998H73.3273C73.4823 15.9998 73.6144 15.8868 73.6387 15.7336L75.4359 4.33635C75.4424 4.29475 75.4399 4.25224 75.4284 4.21172C75.417 4.17121 75.3969 4.13365 75.3695 4.10163C75.3422 4.06961 75.3082 4.04389 75.27 4.02623C75.2318 4.00857 75.1902 3.99939 75.1481 3.99932H73.0168Z" fill="#0070E0"/>
<path d="M6.35473 3.99932C6.21744 3.99943 6.08469 4.0485 5.98033 4.13771C5.87597 4.22693 5.80684 4.35043 5.78537 4.48604L4.83934 10.4861C4.88345 10.2059 5.12491 9.99942 5.40869 9.99942H8.18087C10.9709 9.99942 13.3383 7.96412 13.7709 5.20598C13.8031 5.00006 13.8213 4.7922 13.8255 4.58383C13.1164 4.21205 12.2836 3.99932 11.3709 3.99932H6.35473Z" fill="#001C64"/>
<path d="M13.8255 4.58383C13.8213 4.7922 13.8031 5.00006 13.7709 5.20598C13.3383 7.96412 10.9709 9.99942 8.18087 9.99942H5.40869C5.12491 9.99942 4.88345 10.2059 4.83934 10.4861L3.96948 16L3.42462 19.4589C3.41399 19.5257 3.41797 19.5941 3.43632 19.6592C3.45466 19.7243 3.48692 19.7847 3.53086 19.8362C3.5748 19.8876 3.62938 19.929 3.69084 19.9573C3.7523 19.9856 3.81917 20.0002 3.88684 20.0002H6.8958C7.03309 20.0001 7.16584 19.951 7.2702 19.8618C7.37456 19.7726 7.44368 19.6491 7.46515 19.5135L8.25771 14.4866C8.27919 14.3509 8.34838 14.2273 8.45284 14.1381C8.55729 14.0489 8.69015 13.9999 8.82752 13.9999H10.5991C13.3891 13.9999 15.7565 11.9646 16.1891 9.20643C16.4963 7.24886 15.5104 5.46727 13.8255 4.58383Z" fill="#0070E0"/>
<path d="M2.93637 0C2.6528 0 2.41112 0.20627 2.36701 0.486272L0.00581126 15.4589C-0.0389623 15.7431 0.180679 16.0002 0.468477 16.0002L3.96948 16L4.83934 10.4861L5.78537 4.48604C5.80684 4.35043 5.87597 4.22693 5.98033 4.13771C6.08469 4.0485 6.21744 3.99943 6.35473 3.99932H11.3709C12.2836 3.99932 13.1164 4.21205 13.8255 4.58383C13.874 2.07272 11.802 0 8.95317 0H2.93637Z" fill="#003087"/>
</g>
<defs>
<clipPath id="clip0_1343_4993">
<rect width="75.4394" height="20" fill="white"/>
</clipPath>
</defs>
</svg>
