<svg width="44" height="20" viewBox="0 0 44 20" fill="none" xmlns="http://www.w3.org/2000/svg">
<path fill-rule="evenodd" clip-rule="evenodd" d="M23.3838 1.00005C23.4189 0.99785 23.4211 1.0703 23.4211 2.22727C23.4211 2.90344 23.4167 3.45668 23.4101 3.45668C23.4036 3.45668 22.7318 3.59938 21.9173 3.77501C21.1028 3.95064 20.4244 4.09334 20.4134 4.09334C20.3981 4.09334 20.3915 3.66963 20.3915 2.86393C20.3915 2.18775 20.3937 1.63451 20.3981 1.63232C20.4003 1.63232 21.0655 1.48962 21.8734 1.31838C22.6813 1.14494 23.3618 1.00224 23.3838 1.00005ZM4.22249 4.80684C4.68572 4.81343 4.91843 4.8244 5.16651 4.85953C5.34872 4.88368 5.59022 4.9232 5.70438 4.94735C5.81854 4.97149 6.01612 5.0154 6.14345 5.04833C6.27079 5.08126 6.48813 5.14493 6.62644 5.19103C6.76475 5.23714 6.91623 5.29202 7.04356 5.34471V6.76073C7.04356 7.54009 7.04137 8.17676 7.03917 8.17676C7.03478 8.17676 6.90964 8.11968 6.75816 8.04723C6.60668 7.97697 6.38934 7.88477 6.27518 7.84086C6.16102 7.79915 5.94806 7.7289 5.80317 7.68719C5.65827 7.64547 5.42117 7.584 5.27628 7.55327C5.13138 7.52253 4.88989 7.48301 4.73841 7.46106C4.58693 7.4413 4.30592 7.42593 4.11272 7.42374C3.85367 7.42374 3.72194 7.43252 3.61218 7.45886C3.53095 7.47862 3.41898 7.52034 3.3619 7.54888C3.30263 7.57742 3.22359 7.63669 3.18627 7.6806C3.14675 7.72451 3.09846 7.81232 3.08089 7.87599C3.06333 7.93746 3.04796 8.0121 3.04796 8.04064C3.04796 8.06699 3.05894 8.13065 3.07211 8.18334C3.08309 8.23384 3.127 8.31946 3.16651 8.37434C3.20383 8.42922 3.30482 8.51924 3.38825 8.57632C3.47387 8.6334 3.63632 8.71902 3.75048 8.76951C3.86464 8.82 4.172 8.93416 4.43105 9.02417C4.69011 9.11418 5.03698 9.23932 5.19944 9.2986C5.3619 9.36007 5.63412 9.47862 5.80317 9.55985C5.97221 9.64327 6.21371 9.77939 6.34104 9.86281C6.46837 9.94623 6.65937 10.0977 6.76694 10.1987C6.87452 10.2997 7.01722 10.4578 7.08527 10.5478C7.15333 10.6378 7.25432 10.8002 7.3114 10.91C7.36628 11.0198 7.43873 11.1822 7.46947 11.2722C7.5024 11.3623 7.5485 11.5313 7.57265 11.6455C7.59899 11.7706 7.62095 11.9901 7.62973 12.1943C7.63851 12.4095 7.63192 12.618 7.61436 12.7651C7.60119 12.8924 7.56387 13.0944 7.53313 13.2152C7.5024 13.3359 7.43873 13.5291 7.39263 13.6433C7.34433 13.7574 7.25871 13.9287 7.20163 14.0231C7.14455 14.1197 7.02819 14.2821 6.94257 14.3853C6.85695 14.4907 6.70986 14.6444 6.61327 14.7256C6.51886 14.809 6.3608 14.9298 6.2642 14.9934C6.1676 15.0593 5.9788 15.1647 5.84708 15.2327C5.71535 15.2986 5.47167 15.3974 5.30921 15.4523C5.14675 15.5071 4.89428 15.5752 4.74938 15.6059C4.60449 15.6345 4.35202 15.6762 4.18956 15.6938C4.00734 15.7157 3.70658 15.7289 3.4102 15.7289C3.1226 15.7289 2.79549 15.7157 2.59791 15.6959C2.41789 15.6762 2.13468 15.6367 1.97222 15.6059C1.80977 15.5774 1.5573 15.5225 1.4124 15.4874C1.26751 15.4501 1.01065 15.3754 0.841601 15.3183C0.672556 15.2635 0.444236 15.1822 0.139078 15.0571L0.134687 13.6257C0.130296 12.6817 0.134687 12.1943 0.150055 12.1943C0.163227 12.1943 0.288364 12.2514 0.431064 12.3238C0.571568 12.3941 0.786716 12.4951 0.907462 12.5456C1.02821 12.5983 1.26531 12.6883 1.43435 12.7475C1.6034 12.8068 1.87124 12.8902 2.02711 12.9298C2.18298 12.9715 2.41569 13.0242 2.54302 13.0483C2.67036 13.0725 2.89648 13.1032 3.04796 13.1186C3.19944 13.1317 3.42996 13.1383 3.56388 13.1317C3.6978 13.123 3.8844 13.0966 3.981 13.0725C4.0776 13.0483 4.19615 13.0044 4.24445 12.9759C4.29274 12.9451 4.35861 12.8946 4.39154 12.8595C4.42447 12.8266 4.47277 12.7497 4.49911 12.6883C4.52545 12.629 4.5518 12.5346 4.55619 12.4797C4.56278 12.4226 4.554 12.3304 4.53424 12.2602C4.51667 12.1943 4.46179 12.0911 4.41569 12.0297C4.36739 11.9704 4.26201 11.8738 4.17858 11.8167C4.09296 11.7596 3.93051 11.6696 3.81635 11.6169C3.70219 11.5642 3.42996 11.4545 3.21262 11.3732C2.99527 11.292 2.65938 11.1669 2.46618 11.0944C2.27299 11.0198 1.96783 10.8881 1.78562 10.798C1.60559 10.7102 1.3663 10.5785 1.25872 10.5061C1.15115 10.4358 0.986496 10.3129 0.896485 10.236C0.806475 10.157 0.681338 10.0362 0.619867 9.9638C0.558396 9.89355 0.468386 9.77499 0.417892 9.70255C0.369593 9.6301 0.288364 9.4874 0.240066 9.38422C0.191767 9.28103 0.128101 9.10321 0.0973657 8.98905C0.0666303 8.87489 0.0293085 8.68169 0.0161362 8.56095C0.00076849 8.43142 -0.00362241 8.21408 0.00296374 8.03406C0.00954989 7.86282 0.0358948 7.61913 0.0622394 7.48521C0.088584 7.35129 0.145664 7.14493 0.187377 7.02418C0.229089 6.90343 0.308123 6.72122 0.363007 6.61803C0.415696 6.51485 0.516684 6.35239 0.58474 6.25799C0.652797 6.16139 0.793302 5.99893 0.898681 5.89575C1.00186 5.79257 1.17969 5.64109 1.29385 5.55986C1.40581 5.47863 1.61877 5.3513 1.76366 5.28104C1.90856 5.2086 2.15005 5.10761 2.30153 5.05712C2.45301 5.00662 2.68353 4.94296 2.81745 4.91661C2.95136 4.88807 3.15334 4.85514 3.2675 4.84197C3.38166 4.8288 3.5068 4.81343 3.54192 4.80904C3.57705 4.80465 3.8844 4.80245 4.22249 4.80684ZM29.7548 4.80684C30.0512 4.81343 30.2049 4.8266 30.3695 4.86173C30.4903 4.88807 30.6922 4.94296 30.8196 4.98467C30.9469 5.02638 31.1642 5.12078 31.3026 5.19323C31.4409 5.26568 31.6472 5.39081 31.7614 5.47204C31.8755 5.55327 32.0578 5.70475 32.1675 5.80794C32.2773 5.91112 32.442 6.08895 32.5342 6.20311C32.6264 6.31727 32.7581 6.4929 32.8261 6.59608C32.8942 6.69926 33.0149 6.91221 33.0962 7.06809C33.1752 7.22396 33.285 7.46765 33.3377 7.60596C33.3926 7.74427 33.4694 7.97698 33.5089 8.12187C33.5506 8.26677 33.6033 8.48411 33.6275 8.60486C33.6516 8.7256 33.6867 8.92758 33.7043 9.05491C33.7219 9.18224 33.7482 9.42373 33.7614 9.59278C33.7724 9.76182 33.7833 10.0428 33.7833 10.2185C33.7833 10.3941 33.7724 10.6795 33.7614 10.8551C33.7482 11.0308 33.7241 11.2876 33.7043 11.4259C33.6867 11.5642 33.6428 11.8211 33.6077 11.9967C33.5726 12.1724 33.5089 12.4336 33.465 12.5785C33.4211 12.7234 33.3399 12.9561 33.285 13.0944C33.2301 13.2327 33.1511 13.4149 33.1072 13.5006C33.0654 13.5862 32.9776 13.7421 32.9096 13.8518C32.8437 13.9616 32.7361 14.1241 32.6681 14.2141C32.6022 14.3041 32.4529 14.4753 32.3366 14.5961C32.2202 14.7146 32.0468 14.8727 31.9502 14.9495C31.8536 15.0242 31.7175 15.1208 31.6494 15.1647C31.5792 15.2108 31.4365 15.2898 31.3311 15.3425C31.2235 15.3952 31.0391 15.4742 30.9184 15.5159C30.7976 15.5576 30.6044 15.6125 30.4903 15.6367C30.3761 15.663 30.1719 15.6938 30.0402 15.7091C29.8975 15.7245 29.6868 15.7289 29.5243 15.7201C29.3728 15.7135 29.1621 15.6916 29.0523 15.674C28.9425 15.6542 28.7559 15.6059 28.6352 15.5664C28.5144 15.5247 28.3212 15.4457 28.2071 15.3886C28.0929 15.3315 27.8975 15.2152 27.5484 14.9824V16.6729C27.5484 18.2645 27.5463 18.3633 27.5111 18.3743C27.4892 18.3787 26.8174 18.5236 26.0183 18.6926C25.2169 18.8617 24.5517 19 24.5408 19C24.5254 19 24.5188 16.6465 24.5188 4.9715H27.1752L27.1862 5.02199C27.1928 5.04833 27.2257 5.21079 27.263 5.38423C27.2982 5.55547 27.3289 5.70036 27.3289 5.70695C27.3289 5.71353 27.3948 5.66085 27.4782 5.59279C27.5594 5.52473 27.7131 5.41057 27.8229 5.33812C27.9326 5.26787 28.0995 5.17128 28.1961 5.12517C28.2927 5.07907 28.4551 5.01321 28.5583 4.97589C28.6615 4.94076 28.8196 4.89466 28.9096 4.8749C28.9996 4.85514 29.1379 4.8288 29.2169 4.81782C29.296 4.80684 29.5375 4.80245 29.7548 4.80684ZM28.4046 7.54009C28.3498 7.55327 28.2422 7.59059 28.1632 7.62132C28.0841 7.65206 27.9656 7.71353 27.8997 7.75524C27.8338 7.79695 27.7263 7.88257 27.6626 7.94405L27.5463 8.05601L27.5484 12.5236C27.779 12.7124 27.9326 12.8112 28.0424 12.8661C28.1522 12.9188 28.2993 12.9781 28.3717 12.9956C28.4442 13.0154 28.6066 13.0395 28.734 13.0527C28.9052 13.0703 29.0084 13.0703 29.1401 13.0505C29.2367 13.0351 29.3706 13.0044 29.4365 12.9803C29.5023 12.9583 29.6011 12.9122 29.656 12.8815C29.7109 12.8507 29.8185 12.7739 29.8975 12.7102C29.9765 12.6488 30.1039 12.5148 30.1807 12.4117C30.2575 12.3107 30.3651 12.1394 30.42 12.0297C30.4727 11.9199 30.5495 11.7333 30.5912 11.6125C30.6308 11.4918 30.6835 11.2942 30.7076 11.1735C30.7318 11.0527 30.7647 10.8354 30.7779 10.6905C30.7932 10.5346 30.7976 10.2931 30.791 10.0977C30.7844 9.9177 30.7581 9.65425 30.7339 9.51594C30.7098 9.37763 30.6637 9.17566 30.633 9.06589C30.6022 8.95612 30.5364 8.78049 30.4903 8.67072C30.442 8.56095 30.3454 8.38532 30.2751 8.27555C30.1961 8.157 30.0709 8.00771 29.9612 7.90233C29.8251 7.77281 29.7263 7.70255 29.5902 7.6345C29.4826 7.58181 29.3311 7.52912 29.2345 7.50936C29.1401 7.4896 28.9974 7.47643 28.9162 7.47643C28.8327 7.47862 28.7076 7.48741 28.6352 7.49619C28.5627 7.50716 28.4595 7.52473 28.4046 7.54009ZM38.8657 4.79806C39.0588 4.79806 39.3069 4.80684 39.4145 4.81782C39.5221 4.83099 39.7065 4.85953 39.8206 4.88368C39.9348 4.90783 40.1236 4.95613 40.2378 4.99345C40.3519 5.02857 40.5846 5.12956 40.7537 5.21299C40.9227 5.29641 41.1532 5.43253 41.2674 5.51376C41.3816 5.59718 41.5813 5.76622 41.7087 5.89356C41.8382 6.02089 42.0248 6.23384 42.1214 6.36556C42.2202 6.49948 42.3629 6.71463 42.4375 6.84855C42.5144 6.98027 42.6263 7.20859 42.6878 7.35349C42.7493 7.49838 42.8327 7.71133 42.87 7.82549C42.9095 7.93965 42.9688 8.14383 43.0039 8.27555C43.0369 8.40727 43.0874 8.6312 43.1115 8.76951C43.1357 8.90782 43.173 9.15151 43.1906 9.30738C43.2081 9.46325 43.2301 9.7706 43.2389 9.98795C43.2454 10.2053 43.2454 10.607 43.2235 11.382H37.3508L37.3684 11.5181C37.3794 11.595 37.4123 11.7399 37.443 11.843C37.4716 11.9462 37.5352 12.1043 37.5835 12.1943C37.6297 12.2843 37.7131 12.4138 37.768 12.4797C37.8228 12.5456 37.9238 12.6488 37.9919 12.7058C38.0621 12.7651 38.218 12.8595 38.3388 12.9188C38.4595 12.9781 38.6527 13.0505 38.7669 13.0812C38.881 13.1098 39.094 13.1471 39.2389 13.1603C39.4101 13.18 39.6516 13.1844 39.9304 13.1756C40.1653 13.1669 40.4727 13.1471 40.611 13.1273C40.7493 13.1098 40.9622 13.0747 41.083 13.0483C41.2037 13.0242 41.4101 12.9737 41.544 12.9363C41.6779 12.9012 41.9238 12.8156 42.0929 12.7497C42.2619 12.6817 42.4463 12.6048 42.5056 12.5763C42.5824 12.5368 42.611 12.5302 42.6198 12.5522C42.6263 12.5653 42.6285 13.112 42.6198 14.9495L42.3673 15.0747C42.229 15.1449 41.9941 15.2459 41.8448 15.3008C41.6977 15.3557 41.4716 15.4281 41.3398 15.4654C41.2103 15.5006 40.982 15.5532 40.8305 15.584C40.679 15.6147 40.4134 15.6564 40.2378 15.6762C40.0138 15.7047 39.7482 15.7157 39.3377 15.7157C38.9864 15.7157 38.6725 15.7047 38.5473 15.6894C38.4332 15.674 38.2114 15.6367 38.0534 15.6059C37.8953 15.5752 37.634 15.5049 37.4716 15.4523C37.3091 15.3974 37.061 15.2986 36.9227 15.2327C36.7844 15.1669 36.5956 15.0659 36.5056 15.011C36.4156 14.9561 36.2663 14.8551 36.1763 14.7871C36.0863 14.719 35.9194 14.5763 35.8075 14.4665C35.6933 14.3568 35.5396 14.1943 35.4672 14.1043C35.3947 14.0143 35.2674 13.8365 35.184 13.7091C35.1006 13.5818 34.9754 13.3601 34.903 13.2152C34.8327 13.0703 34.7295 12.8178 34.6725 12.6553C34.6176 12.4929 34.5429 12.2404 34.5078 12.0955C34.4727 11.9506 34.4288 11.7377 34.4112 11.6235C34.3915 11.5093 34.3673 11.3315 34.3541 11.2283C34.341 11.1252 34.3256 10.7958 34.319 10.4929C34.3102 10.1526 34.3146 9.83427 34.33 9.65864C34.3432 9.50277 34.3695 9.27006 34.3893 9.14272C34.4068 9.01539 34.4507 8.78927 34.4859 8.63779C34.5188 8.4863 34.5847 8.2492 34.6286 8.11089C34.6725 7.97258 34.7449 7.775 34.7866 7.67182C34.8283 7.56863 34.9184 7.37764 34.9842 7.24372C35.0501 7.1098 35.1862 6.87928 35.2872 6.7278C35.386 6.57632 35.5418 6.36995 35.6318 6.26677C35.7219 6.16359 35.8733 6.00552 35.9699 5.91551C36.0665 5.8255 36.2202 5.69597 36.3102 5.62791C36.398 5.55986 36.5473 5.45887 36.6373 5.40399C36.7273 5.3491 36.9052 5.2547 37.0325 5.19323C37.1598 5.13395 37.3508 5.05492 37.4606 5.01979C37.5704 4.98247 37.7724 4.92978 37.9107 4.89685C38.049 4.86612 38.2422 4.83319 38.3388 4.82221C38.4354 4.81123 38.6725 4.80026 38.8657 4.79806ZM38.1851 7.42593C38.0797 7.48082 37.9721 7.56644 37.8448 7.69377C37.7043 7.83208 37.634 7.92429 37.566 8.05601C37.5155 8.15261 37.454 8.29531 37.4299 8.37434C37.4035 8.45337 37.3684 8.60486 37.3508 8.71462C37.3333 8.82439 37.3179 8.9649 37.3179 9.02856V9.14272H40.3914C40.3914 8.98027 40.3761 8.83976 40.3585 8.7256C40.3431 8.61144 40.3058 8.44898 40.2817 8.36336C40.2553 8.27774 40.1961 8.13504 40.1478 8.04503C40.1017 7.95502 40.0204 7.82988 39.9699 7.76622C39.9172 7.70475 39.825 7.61254 39.7658 7.56205C39.7043 7.51375 39.5857 7.43911 39.5023 7.39739C39.4189 7.35568 39.2894 7.30519 39.2169 7.28763C39.1423 7.26787 38.9952 7.25469 38.8766 7.25689C38.7427 7.25689 38.6088 7.27226 38.5034 7.3008C38.4134 7.32495 38.2685 7.37983 38.1851 7.42593ZM11.1731 2.4029L11.1599 4.99345H13.4321V7.56205H11.1489V9.65425C11.1489 10.8156 11.1577 11.8518 11.1709 11.9857C11.1819 12.1175 11.2104 12.2821 11.2324 12.348C11.2565 12.4138 11.2982 12.5126 11.3246 12.5675C11.3531 12.6224 11.4255 12.7168 11.487 12.7783C11.5529 12.8419 11.6583 12.9166 11.7417 12.9561C11.8207 12.9934 11.9393 13.0373 12.0051 13.0527C12.0776 13.0703 12.2378 13.0812 12.4113 13.0812C12.6111 13.079 12.7625 13.0659 12.9162 13.0329C13.037 13.0066 13.195 12.9649 13.2675 12.9407C13.3399 12.9166 13.4058 12.8968 13.4168 12.8968C13.4255 12.8968 13.4321 13.4479 13.4343 15.3447L13.307 15.404C13.2367 15.4347 13.1006 15.4874 13.004 15.5181C12.9074 15.5511 12.7055 15.5993 12.554 15.6279C12.4025 15.6586 12.172 15.6916 12.0381 15.7047C11.9063 15.7179 11.6187 15.7289 11.4014 15.7289C11.1643 15.7289 10.9228 15.7157 10.7977 15.6981C10.6835 15.6806 10.5013 15.6389 10.3915 15.6081C10.2839 15.5752 10.1259 15.5203 10.0403 15.4852C9.95683 15.4501 9.80755 15.3776 9.71095 15.3227C9.61436 15.2678 9.46287 15.1647 9.37286 15.0966C9.28285 15.0286 9.13137 14.888 9.03258 14.7849C8.93379 14.6817 8.80206 14.517 8.7384 14.4226C8.67473 14.326 8.57813 14.1592 8.52544 14.0494C8.47276 13.9396 8.4047 13.7772 8.37396 13.6872C8.34323 13.5972 8.29712 13.4237 8.22029 13.0834L8.2137 9.57082C8.20931 7.63889 8.2159 5.37325 8.24883 3.01102L9.64948 2.70805C10.4201 2.5434 11.0787 2.40729 11.1731 2.4029ZM18.9974 4.87709C19.1072 4.88148 19.2499 4.89466 19.3158 4.90783C19.3816 4.91881 19.4892 4.94296 19.667 4.99345V6.37654C19.667 7.28323 19.6604 7.75963 19.6451 7.75963C19.6341 7.75963 19.5507 7.74207 19.465 7.72231C19.3531 7.69816 19.2016 7.68499 18.9645 7.68499C18.6835 7.68499 18.5913 7.69377 18.4266 7.73548C18.3191 7.76183 18.1544 7.81891 18.0644 7.86062C17.9744 7.90453 17.8405 7.98137 17.768 8.03186C17.6956 8.08455 17.5792 8.18773 17.3838 8.39629V15.5313H14.3761V4.99345H16.9777L17.0501 5.32715C17.0918 5.51156 17.1357 5.70695 17.1753 5.86063L17.2345 5.76183C17.2675 5.70695 17.3465 5.59937 17.4102 5.52034C17.476 5.44131 17.5968 5.32495 17.6802 5.26129C17.7658 5.19762 17.9041 5.112 17.9876 5.07029C18.0732 5.02857 18.2159 4.97589 18.3059 4.95174C18.3959 4.92539 18.5452 4.89685 18.6352 4.88588C18.7252 4.8749 18.8899 4.87051 18.9974 4.87709ZM20.3915 4.99345H23.4211V15.5313H20.3915V4.99345Z" fill="#4940FF"/>
</svg>
