<svg width="70" height="20" viewBox="0 0 70 20" fill="none" xmlns="http://www.w3.org/2000/svg">
<path fill-rule="evenodd" clip-rule="evenodd" d="M6.94244 9.9615C6.96325 5.26058 10.7515 1.43066 15.5118 1.43066C20.2305 1.43066 24.1351 5.28139 24.0812 10.0001C24.0812 14.7187 20.2305 18.5695 15.5118 18.5695C10.806 18.5695 6.96325 14.7934 6.94244 10.0386V16.4002H3.9052L0 3.92558H6.94244V9.9615ZM12.3118 10.0001C12.3118 11.7354 13.7759 13.2001 15.5118 13.2001C17.3016 13.2001 18.7119 11.7354 18.7119 10.0001C18.7119 8.26476 17.2471 6.80001 15.5118 6.80001C13.7759 6.80001 12.3118 8.26476 12.3118 10.0001Z" fill="#0070F0"/>
<path fill-rule="evenodd" clip-rule="evenodd" d="M29.6255 4.28623H31.797V10.5114H32.6606L34.2991 7.62116L35.4391 7.60634C36.0708 7.6014 36.5841 7.61128 36.5841 7.63598C36.589 7.65574 36.1103 8.51048 35.523 9.53813C34.9407 10.5608 34.462 11.4205 34.462 11.4502C34.462 11.4798 35.0838 12.3938 35.8438 13.4906C36.6088 14.5825 37.2306 15.4916 37.2257 15.5163C37.2257 15.5361 36.6877 15.5509 34.8321 15.5509L33.8747 14.1823C33.3466 13.4264 32.8482 12.7248 32.636 12.4383L31.8217 12.463L31.797 15.5509H29.6255V4.28623ZM41.2379 7.45318C41.4748 7.44824 41.8302 7.48282 42.0226 7.52729C42.22 7.57175 42.5161 7.67057 42.679 7.74468C42.8419 7.81385 43.1232 7.99171 43.3058 8.13005C43.4933 8.27332 43.6512 8.38696 43.666 8.38696C43.6808 8.38696 43.6907 8.21898 43.6907 7.64586H46.0102V15.5509L43.7154 15.5262L43.6907 14.8098L43.4538 14.9778C43.3255 15.0717 43.0343 15.2396 42.8024 15.3483C42.5704 15.462 42.2151 15.5855 42.0128 15.6299C41.7512 15.6843 41.4798 15.7041 41.0751 15.6843C40.6161 15.6695 40.4236 15.6349 40.0881 15.5212C39.8561 15.4422 39.5156 15.2792 39.3231 15.1507C39.1306 15.0272 38.8148 14.7505 38.6174 14.5331C38.3459 14.2416 38.193 14.0193 38.0104 13.6487C37.8771 13.377 37.7241 12.9669 37.6698 12.7347C37.6155 12.5025 37.5563 12.1122 37.5415 11.8701C37.5218 11.6132 37.5366 11.2278 37.5711 10.9561C37.6007 10.6992 37.6945 10.2842 37.7735 10.0421C37.8574 9.79998 38.0153 9.43932 38.1288 9.25157C38.2423 9.06383 38.4348 8.79209 38.5532 8.6587C38.6766 8.52036 38.874 8.32767 38.9974 8.22392C39.1208 8.12016 39.4218 7.93736 39.6686 7.81879C39.9153 7.70021 40.2657 7.56681 40.4582 7.52729C40.6507 7.48776 40.9961 7.45318 41.233 7.45318H41.2379ZM40.8086 9.40473C40.7 9.45414 40.5026 9.60236 40.3644 9.72587C40.2312 9.84939 40.0486 10.0865 39.9597 10.2446C39.8758 10.4027 39.7722 10.6695 39.7278 10.8326C39.6834 11.0006 39.6488 11.3365 39.6488 11.5984C39.6488 11.8701 39.6834 12.1913 39.7278 12.3642C39.7673 12.5272 39.8758 12.7891 39.9597 12.9521C40.0486 13.1102 40.2164 13.3375 40.3397 13.4511C40.4631 13.5648 40.6704 13.713 40.8086 13.7821C40.9418 13.8563 41.1985 13.9402 41.3761 13.9748C41.6229 14.0193 41.7759 14.0242 42.0424 13.9798C42.2348 13.9452 42.5063 13.8661 42.6445 13.797C42.7876 13.7278 43.0146 13.5598 43.1528 13.4264C43.286 13.2881 43.4637 13.041 43.5476 12.8681C43.6266 12.7001 43.7302 12.4037 43.7697 12.216C43.8092 12.0282 43.8437 11.7565 43.8437 11.6231C43.8437 11.4847 43.819 11.2328 43.7943 11.0549C43.7647 10.877 43.671 10.5757 43.5821 10.3879C43.4933 10.2002 43.3304 9.94326 43.2219 9.82963C43.1182 9.71105 42.9307 9.54801 42.8073 9.4739C42.6839 9.39485 42.4619 9.30098 42.3138 9.25651C42.1657 9.21205 41.9091 9.17746 41.7463 9.1824C41.5834 9.1824 41.3515 9.21205 41.2281 9.24663C41.1047 9.28122 40.9172 9.35039 40.8086 9.40473ZM51.049 7.47294C51.3353 7.48776 51.7005 7.53223 51.8633 7.57669C52.0262 7.61622 52.2927 7.71997 52.4555 7.79902C52.6184 7.87807 52.8454 8.02629 53.1761 8.31285L51.9867 9.67153L51.8238 9.56283C51.7399 9.50354 51.5475 9.41461 51.4044 9.36521C51.2612 9.3158 51.0095 9.27628 50.8368 9.27628C50.6394 9.27628 50.4568 9.31086 50.3186 9.37509C50.2051 9.42944 50.0867 9.51837 50.062 9.57271C50.0373 9.62706 50.0126 9.73081 50.0126 9.80986C50.0126 9.88398 50.0472 9.99267 50.0867 10.0569C50.1262 10.1162 50.2446 10.2199 50.3433 10.2842C50.4469 10.3484 50.8516 10.5361 51.2464 10.6992C51.6412 10.8672 52.1496 11.1142 52.3815 11.2525C52.6135 11.3909 52.9244 11.6231 53.0724 11.7713C53.2205 11.9146 53.3982 12.1418 53.4623 12.2752C53.5265 12.4037 53.6054 12.6458 53.6301 12.8088C53.6696 13.0312 53.6647 13.1991 53.6153 13.4758C53.5808 13.6784 53.4771 13.9897 53.3883 14.1675C53.2896 14.3701 53.102 14.6122 52.8898 14.8246C52.6727 15.042 52.4259 15.2248 52.1841 15.3533C51.9818 15.457 51.6709 15.5805 51.4932 15.625C51.2958 15.6794 50.9898 15.709 50.7036 15.709C50.4371 15.709 50.0768 15.6744 49.8646 15.625C49.6622 15.5756 49.3316 15.4768 49.1342 15.3977C48.9417 15.3187 48.6209 15.1606 48.4285 15.0469C48.2409 14.9284 47.9695 14.7357 47.8313 14.6122C47.6931 14.4887 47.5401 14.3306 47.397 14.1181L48.6802 12.7841L49.0108 13.1201C49.2329 13.3424 49.4648 13.5104 49.6919 13.624C50.0028 13.7821 50.0719 13.797 50.4568 13.797C50.7973 13.797 50.9158 13.7723 51.0836 13.6833C51.202 13.624 51.3402 13.5153 51.3945 13.4412C51.4537 13.3622 51.4981 13.2288 51.4932 13.1448C51.4932 13.0213 51.4537 12.9472 51.3303 12.8484C51.2464 12.7792 51.0392 12.6606 50.8763 12.5865C50.7134 12.5124 50.2594 12.3345 49.8646 12.1913C49.4698 12.048 49.07 11.8849 48.9763 11.8306C48.8825 11.7713 48.7196 11.6577 48.616 11.5786C48.5124 11.4946 48.3544 11.3168 48.2607 11.1784C48.1718 11.045 48.0633 10.8079 48.0188 10.6597C47.9744 10.5114 47.9399 10.2298 47.9399 10.0421C47.9399 9.85433 47.9744 9.56283 48.0188 9.39979C48.0583 9.23675 48.1521 8.99466 48.2261 8.85632C48.3001 8.72292 48.4976 8.47095 48.6653 8.30297C48.8924 8.0757 49.0848 7.93736 49.3809 7.79902C49.608 7.69033 49.9139 7.58163 50.062 7.55199C50.21 7.52235 50.3778 7.48776 50.4321 7.47788C50.4864 7.46306 50.7628 7.46306 51.049 7.47294ZM58.0076 7.47294C58.2938 7.48776 58.659 7.53223 58.8219 7.57669C58.9847 7.62116 59.2611 7.72985 59.4388 7.81879C59.6164 7.90772 59.8435 8.05594 60.1297 8.31285L58.9453 9.67153L58.7824 9.56283C58.6985 9.50354 58.506 9.41461 58.3629 9.36521C58.2198 9.3158 57.9681 9.27628 57.7954 9.27628C57.598 9.27628 57.4154 9.31086 57.2772 9.37509C57.1637 9.42944 57.0452 9.51837 57.0206 9.57271C56.9959 9.62706 56.9712 9.74564 56.9712 9.83457C56.9712 9.94326 57.0107 10.0322 57.1045 10.1211C57.1834 10.1903 57.2969 10.2792 57.366 10.3237C57.4351 10.3632 57.82 10.5411 58.2297 10.7189C58.6343 10.8919 59.1377 11.134 59.3401 11.2525C59.5424 11.3711 59.8435 11.5934 60.0014 11.7417C60.1889 11.9195 60.3419 12.127 60.4307 12.3148C60.5097 12.4778 60.5837 12.7248 60.6035 12.8582C60.6183 12.9966 60.6084 13.2634 60.5739 13.4511C60.5443 13.6389 60.4505 13.9402 60.3666 14.1181C60.258 14.3404 60.1001 14.5529 59.8385 14.8147C59.5424 15.1112 59.3746 15.2347 59.044 15.3928C58.812 15.5015 58.4912 15.6201 58.3284 15.6546C58.1655 15.6892 57.8447 15.7139 57.6128 15.7139C57.366 15.709 57.0156 15.6695 56.759 15.6052C56.5221 15.546 56.1668 15.4323 55.9694 15.3483C55.7769 15.2643 55.466 15.0964 55.2784 14.9778C55.0958 14.8592 54.854 14.6764 54.7454 14.5776C54.6319 14.4738 54.4987 14.3306 54.3556 14.1181L55.6634 12.7891L55.9842 13.1201C56.2062 13.3572 56.4086 13.5104 56.6504 13.629C56.9613 13.7821 57.0354 13.797 57.4154 13.797C57.7559 13.797 57.8743 13.7723 58.0421 13.6833C58.1606 13.624 58.2988 13.5153 58.353 13.4412C58.4123 13.3622 58.4567 13.2288 58.4517 13.1448C58.4517 13.0213 58.4123 12.9472 58.2889 12.8484C58.205 12.7792 57.9977 12.6557 57.8349 12.5865C57.672 12.5124 57.2377 12.3444 56.8725 12.216C56.5073 12.0875 56.0829 11.9096 55.9348 11.8256C55.7868 11.7417 55.5647 11.5737 55.4413 11.4502C55.3179 11.3266 55.1501 11.0944 55.0712 10.9314C54.9527 10.6844 54.9231 10.5559 54.9083 10.1656C54.8886 9.78516 54.9034 9.62706 54.9873 9.35039C55.0465 9.16264 55.1748 8.87114 55.2834 8.7081C55.387 8.54506 55.5795 8.31779 55.7177 8.19921C55.8509 8.08064 56.1372 7.90278 56.3543 7.79408C56.5715 7.69033 56.8725 7.58163 57.0206 7.55199C57.1686 7.52235 57.3364 7.48776 57.3907 7.47788C57.445 7.46306 57.7213 7.46306 58.0076 7.47294ZM65.2623 7.45318C65.4942 7.45318 65.8397 7.48282 66.0272 7.52235C66.2147 7.56187 66.5306 7.67057 66.7181 7.76444C66.9057 7.85337 67.1968 8.03123 67.3597 8.15475C67.5226 8.27827 67.6706 8.38202 67.6904 8.38696C67.715 8.38696 67.7298 8.21898 67.7298 7.64586H70V15.5509H67.7298L67.7052 14.8098L67.409 15.0124C67.2462 15.126 66.9797 15.2792 66.8168 15.3582C66.654 15.4373 66.3431 15.546 66.1259 15.6003C65.8594 15.6695 65.5732 15.6991 65.2376 15.6991C64.902 15.6991 64.6207 15.6695 64.3493 15.6003C64.1321 15.541 63.8113 15.4224 63.6337 15.3286C63.456 15.2347 63.1796 15.0519 63.0168 14.9234C62.8588 14.79 62.617 14.5529 62.4838 14.3898C62.3555 14.2268 62.1482 13.8908 62.0248 13.6487C61.9064 13.4067 61.7583 13.0262 61.6991 12.8088C61.6053 12.4729 61.5905 12.2851 61.5905 11.549C61.5905 10.8029 61.6053 10.63 61.704 10.2891C61.7632 10.0717 61.9064 9.70611 62.0199 9.47884C62.1334 9.25157 62.3505 8.91561 62.4986 8.73775C62.6516 8.55988 62.9279 8.29309 63.1155 8.14981C63.3079 8.01147 63.6287 7.82373 63.8311 7.73974C64.0334 7.65574 64.3443 7.55693 64.522 7.52235C64.6997 7.48776 65.0303 7.45812 65.2623 7.45318ZM64.6059 9.53319C64.4726 9.62212 64.2654 9.82963 64.1469 9.99267C64.0235 10.1557 63.8804 10.3978 63.8311 10.5361C63.7817 10.6695 63.7126 10.9413 63.683 11.129C63.6435 11.3365 63.6337 11.628 63.6534 11.8553C63.6682 12.0677 63.7373 12.3889 63.8064 12.5717C63.8705 12.7594 64.0137 13.0262 64.1124 13.1744C64.216 13.3177 64.4085 13.5203 64.5467 13.6191C64.6799 13.713 64.8921 13.8315 65.0155 13.876C65.1389 13.9254 65.3708 13.9748 65.5337 13.9946C65.7163 14.0144 65.9433 14.0045 66.1259 13.9699C66.2888 13.9353 66.5405 13.8513 66.6885 13.7772C66.8316 13.708 67.0587 13.5401 67.187 13.4017C67.3153 13.2634 67.4781 13.0361 67.5472 12.8928C67.6213 12.7545 67.715 12.5075 67.7545 12.3543C67.794 12.1962 67.8285 11.8553 67.8285 11.5984C67.8285 11.3415 67.794 11.0006 67.7545 10.8474C67.715 10.6893 67.6163 10.4324 67.5374 10.2792C67.4633 10.1211 67.2906 9.88397 67.1574 9.75058C67.0142 9.6073 66.7823 9.44426 66.5947 9.36027C66.3332 9.23675 66.195 9.20711 65.8545 9.19229C65.5337 9.1824 65.3659 9.19723 65.1389 9.27628C64.976 9.33062 64.7342 9.44426 64.6059 9.53319Z" fill="#101012"/>
</svg>
