<svg width="24" height="24" viewBox="0 0 24 24" fill="none" xmlns="http://www.w3.org/2000/svg">
<path d="M19.4589 16.6553L19.5937 16.8057C20.2225 17.5768 20.1776 18.7139 19.4589 19.4326C18.6923 20.1989 17.4501 20.1988 16.6835 19.4326L10.9796 13.7471C10.7838 13.5519 10.7835 13.2349 10.979 13.0394L13.0483 10.9702C13.2433 10.7751 13.5595 10.7749 13.7548 10.9696L19.4589 16.6553ZM8.07803 8.07812C8.84453 7.3119 10.0868 7.31213 10.8534 8.07812L11.9841 9.20504C12.1799 9.40021 12.1801 9.71724 11.9846 9.91273L9.91538 11.982C9.72035 12.177 9.40421 12.1773 9.20886 11.9826L8.07803 10.8555L7.94327 10.7061C7.31424 9.93486 7.35926 8.79694 8.07803 8.07812Z" fill="white"/>
<path d="M5.10596 11.709C5.45946 11.4206 5.9815 11.442 6.31104 11.7715C6.66216 12.123 6.66232 12.6926 6.31104 13.0439L4.62744 14.7275L4.55908 14.7891C4.2057 15.0773 3.6845 15.0567 3.35498 14.7275C3.00351 14.3761 3.00351 13.8056 3.35498 13.4541L5.0376 11.7715L5.10596 11.709Z" fill="white"/>
<path d="M4.37158 8.14551C4.82546 8.19155 5.1792 8.57499 5.1792 9.04102C5.17904 9.50692 4.82538 9.89052 4.37158 9.93652L4.27979 9.94043H1.89893C1.40198 9.94043 0.99871 9.53792 0.998535 9.04102C0.998535 8.54396 1.40187 8.14062 1.89893 8.14062H4.27979L4.37158 8.14551Z" fill="white"/>
<path d="M3.35498 3.35449C3.68444 3.02504 4.20559 3.00381 4.55908 3.29199L4.62744 3.35449L6.31104 5.03711L6.37256 5.10547C6.66109 5.45897 6.64062 5.98096 6.31104 6.31055C5.98145 6.64013 5.45946 6.6606 5.10596 6.37207L5.0376 6.31055L3.35498 4.62695L3.29248 4.55859C3.0043 4.2051 3.02552 3.68395 3.35498 3.35449Z" fill="white"/>
<path d="M13.5229 3.29199C13.8764 3.00364 14.3985 3.02497 14.728 3.35449C15.0791 3.70595 15.0793 4.27558 14.728 4.62695L13.0444 6.31055L12.9761 6.37207C12.6227 6.66034 12.1015 6.63976 11.772 6.31055C11.4205 5.95907 11.4205 5.38858 11.772 5.03711L13.4546 3.35449L13.5229 3.29199Z" fill="white"/>
<path d="M9.0415 0.998047C9.53841 0.998222 9.94092 1.40149 9.94092 1.89844V4.2793C9.94086 4.7762 9.53837 5.17854 9.0415 5.17871C8.54448 5.17871 8.14117 4.7763 8.14111 4.2793V1.89844C8.14111 1.40138 8.54445 0.998047 9.0415 0.998047Z" fill="white"/>
</svg>
