<svg width="16" height="16" viewBox="0 0 16 16" fill="none" xmlns="http://www.w3.org/2000/svg">
<path d="M10.1615 2.24414C11.404 2.24414 12.0256 2.24428 12.5157 2.44727C13.169 2.71793 13.6884 3.23725 13.959 3.89062C14.1619 4.38063 14.1615 5.00192 14.1615 6.24414V9.75586C14.1615 10.9981 14.1619 11.6194 13.959 12.1094C13.6884 12.7628 13.169 13.2821 12.5157 13.5527C12.0256 13.7557 11.404 13.7559 10.1615 13.7559C8.91919 13.7559 8.298 13.7557 7.80798 13.5527C7.15459 13.2821 6.63527 12.7628 6.36462 12.1094C6.16177 11.6194 6.1615 10.9981 6.1615 9.75586V8.59961H9.89067L8.71684 9.77344C8.48254 10.0077 8.48257 10.3881 8.71684 10.6224C8.9511 10.8565 9.33086 10.8565 9.56515 10.6224L11.7637 8.42383C11.9976 8.18952 11.9978 7.80971 11.7637 7.57552L9.56515 5.3776L9.51957 5.33594C9.28399 5.14399 8.93645 5.15821 8.71684 5.3776C8.49727 5.5973 8.48359 5.94472 8.67582 6.18034L8.71684 6.22591L9.89067 7.39974H6.1615V6.24414C6.1615 5.0019 6.16177 4.38063 6.36462 3.89062C6.63527 3.23723 7.15459 2.71792 7.80798 2.44727C8.298 2.24429 8.91919 2.24414 10.1615 2.24414ZM6.1615 8.59961H2.88676L2.82491 8.59635C2.52255 8.56553 2.28663 8.31047 2.2865 8C2.28663 7.68953 2.52254 7.43381 2.82491 7.403L2.88676 7.39974H6.1615V8.59961Z" fill="#FF3030"/>
</svg>
