<svg width="44" height="45" viewBox="0 0 44 45" fill="none" xmlns="http://www.w3.org/2000/svg">
<path d="M20 1C30.4934 1 39 9.50659 39 20C39 30.4934 30.4934 39 20 39C9.50659 39 1 30.4934 1 20C1 9.50659 9.50659 1 20 1Z" stroke="#007AFF" stroke-width="2"/>
<path d="M26.3525 16.2344C28.1403 15.355 30.2595 15.418 32 16.4229L38.3926 20.1133C40.2489 21.1851 41.3926 23.1661 41.3926 25.3096V32.6904C41.3926 34.8339 40.2489 36.8149 38.3926 37.8867L32 41.5771C30.2595 42.582 28.1403 42.645 26.3525 41.7656L26 41.5771L19.6074 37.8867C17.7511 36.8149 16.6074 34.8339 16.6074 32.6904V25.3096C16.6074 23.1661 17.7511 21.1851 19.6074 20.1133L26 16.4229L26.3525 16.2344Z" fill="#007AFF"/>
<path d="M26.3525 16.2344C28.1403 15.355 30.2595 15.418 32 16.4229L38.3926 20.1133C40.2489 21.1851 41.3926 23.1661 41.3926 25.3096V32.6904C41.3926 34.8339 40.2489 36.8149 38.3926 37.8867L32 41.5771C30.2595 42.582 28.1403 42.645 26.3525 41.7656L26 41.5771L19.6074 37.8867C17.7511 36.8149 16.6074 34.8339 16.6074 32.6904V25.3096C16.6074 23.1661 17.7511 21.1851 19.6074 20.1133L26 16.4229L26.3525 16.2344Z" fill="url(#paint0_linear_145_6333)"/>
<path d="M26.3525 16.2344C28.1403 15.355 30.2595 15.418 32 16.4229L38.3926 20.1133C40.2489 21.1851 41.3926 23.1661 41.3926 25.3096V32.6904C41.3926 34.8339 40.2489 36.8149 38.3926 37.8867L32 41.5771C30.2595 42.582 28.1403 42.645 26.3525 41.7656L26 41.5771L19.6074 37.8867C17.7511 36.8149 16.6074 34.8339 16.6074 32.6904V25.3096C16.6074 23.1661 17.7511 21.1851 19.6074 20.1133L26 16.4229L26.3525 16.2344Z" stroke="#007AFF" stroke-width="4"/>
<circle cx="20" cy="20" r="18" fill="white"/>
<defs>
<linearGradient id="paint0_linear_145_6333" x1="28.0816" y1="17" x2="28.0816" y2="41" gradientUnits="userSpaceOnUse">
<stop stop-color="white" stop-opacity="0.2"/>
<stop offset="1" stop-color="white" stop-opacity="0"/>
</linearGradient>
</defs>
</svg>
