<svg width="16" height="16" viewBox="0 0 16 16" fill="none" xmlns="http://www.w3.org/2000/svg">
<path fill-rule="evenodd" clip-rule="evenodd" d="M10.3242 1.06839C10.4382 1.07425 10.5562 1.12251 10.7916 1.21943C11.3976 1.46895 11.963 1.79759 12.4746 2.19208C12.6765 2.3478 12.7778 2.42585 12.8398 2.52151C12.9219 2.64812 12.9228 2.65217 12.9414 2.80211C12.9553 2.91543 12.8777 3.26984 12.7226 3.97854C12.637 4.3696 12.6917 4.79265 12.9075 5.16669C13.1236 5.54092 13.4633 5.79933 13.845 5.9206C14.5377 6.14064 14.8841 6.25084 14.9752 6.31969C15.0959 6.41088 15.0986 6.41418 15.1673 6.54885C15.2191 6.65063 15.2359 6.77768 15.2695 7.03063C15.3116 7.34781 15.3333 7.67139 15.3333 8.00003C15.3333 8.32838 15.3115 8.65191 15.2695 8.96878C15.2359 9.22149 15.219 9.34821 15.1673 9.4499C15.0986 9.58472 15.0958 9.58786 14.9752 9.67906C14.8842 9.74791 14.5378 9.85828 13.845 10.0788C13.4632 10.2003 13.1236 10.4592 12.9075 10.8334C12.6917 11.2073 12.6377 11.6301 12.7233 12.0209C12.8785 12.7296 12.956 13.0842 12.942 13.1973C12.9235 13.3473 12.922 13.351 12.8398 13.4779C12.7778 13.5735 12.677 13.6516 12.4752 13.8073C11.9635 14.2022 11.3978 14.5308 10.7916 14.7806C10.5564 14.8775 10.4388 14.9264 10.3248 14.9323C10.174 14.9401 10.1695 14.9391 10.0306 14.8802C9.92542 14.8357 9.65737 14.5907 9.1217 14.1016C8.82592 13.8316 8.4323 13.6667 7.99996 13.6667C7.56751 13.6668 7.17371 13.8321 6.87756 14.1022C6.34143 14.5913 6.07318 14.8358 5.96806 14.8802C5.82891 14.9391 5.8246 14.9395 5.67379 14.9317C5.55979 14.9257 5.44167 14.8776 5.20634 14.7806C4.60098 14.531 4.03643 14.2023 3.52535 13.808C3.32344 13.6522 3.22209 13.5742 3.16012 13.4785C3.07806 13.3519 3.07711 13.3479 3.05855 13.1979C3.04461 13.0847 3.12201 12.7302 3.2773 12.0215C3.36295 11.6306 3.30888 11.2074 3.09306 10.8334C2.87691 10.4591 2.5374 10.2003 2.15556 10.0788C1.46222 9.85831 1.11519 9.74797 1.02405 9.67906C0.90343 9.58787 0.900646 9.58478 0.831991 9.4499C0.780193 9.3481 0.763826 9.22159 0.730428 8.96878C0.68857 8.65193 0.666634 8.32831 0.666626 8.00003C0.666638 7.67146 0.688551 7.3478 0.730428 7.03063C0.763801 6.77786 0.780193 6.65134 0.831991 6.54951C0.900701 6.41456 0.903865 6.41096 1.0247 6.31969C1.11639 6.25076 1.46313 6.14095 2.15556 5.92125C2.53745 5.80005 2.87688 5.54108 3.09306 5.16669C3.30896 4.79257 3.36297 4.36971 3.2773 3.97854C3.12193 3.26912 3.04452 2.91401 3.05855 2.80081C3.07712 2.65101 3.07855 2.64703 3.16077 2.52021C3.22283 2.42457 3.32395 2.34653 3.526 2.19078C4.03702 1.79689 4.60179 1.46939 5.20699 1.22008C5.44224 1.12317 5.5599 1.07434 5.67379 1.06839C5.82475 1.06059 5.82952 1.06152 5.96871 1.12047C6.07397 1.16524 6.34214 1.40976 6.87756 1.89846C7.13442 2.13285 7.46472 2.28785 7.83004 2.3249L7.99996 2.33336C8.43238 2.33331 8.82589 2.16867 9.1217 1.89846C9.65687 1.40961 9.9247 1.16518 10.0299 1.12047C10.169 1.06151 10.1735 1.06064 10.3242 1.06839ZM8.00061 5.77672C6.77265 5.77672 5.77665 6.77272 5.77665 8.00068C5.77696 9.22837 6.77284 10.224 8.00061 10.224C9.2281 10.2237 10.2236 9.22817 10.2239 8.00068C10.2239 6.77292 9.22829 5.77705 8.00061 5.77672Z" fill="#3C3C43" fill-opacity="0.7"/>
</svg>
