<svg width="16" height="16" viewBox="0 0 16 16" fill="none" xmlns="http://www.w3.org/2000/svg">
<g clip-path="url(#clip0_983_473)">
<path d="M6.3656 5.71053C6.62011 5.02278 7.59287 5.02276 7.84737 5.71053L8.80896 8.30948C8.83494 8.37962 8.89053 8.43516 8.96065 8.46118L11.5603 9.42342C12.2263 9.67006 12.2471 10.5904 11.6228 10.8791L11.5603 10.9052L8.96065 11.8668C8.89046 11.8928 8.83496 11.9483 8.80896 12.0185L7.84737 14.6181C7.59289 15.3058 6.62018 15.3057 6.3656 14.6181L5.40336 12.0185C5.37735 11.9484 5.32176 11.8928 5.25167 11.8668L2.65271 10.9052C1.96493 10.6507 1.96493 9.67792 2.65271 9.42342L5.25167 8.46118C5.32184 8.43516 5.37738 8.37968 5.40336 8.30948L6.3656 5.71053Z" fill="#3C3C43" fill-opacity="0.7"/>
<path d="M11.4886 0.759353C11.7226 0.635744 12.0028 0.63569 12.2367 0.759353C12.4114 0.851825 12.5188 1.03513 12.6039 1.21573C12.6942 1.40755 12.7914 1.67126 12.9131 2.00024L13.1215 2.56339C13.1764 2.71199 13.1895 2.74088 13.2048 2.76261C13.2224 2.78761 13.2442 2.80945 13.2692 2.82706C13.291 2.84231 13.3201 2.85549 13.4685 2.91039L14.0316 3.11873C14.3605 3.24044 14.6243 3.33762 14.8161 3.42797C14.9967 3.51309 15.1801 3.62043 15.2725 3.79516C15.3961 4.02906 15.3961 4.3093 15.2725 4.54321C15.1801 4.71792 14.9967 4.82528 14.8161 4.91039C14.6243 5.00074 14.3605 5.09793 14.0316 5.21964L13.4685 5.42797C13.3202 5.48285 13.291 5.49607 13.2692 5.51131C13.2442 5.52891 13.2224 5.55077 13.2048 5.57576C13.1895 5.59748 13.1764 5.62643 13.1215 5.77498L12.9131 6.33813C12.7914 6.66709 12.6942 6.93082 12.6039 7.12263C12.5188 7.30323 12.4114 7.48654 12.2367 7.57901C12.0028 7.70268 11.7226 7.70263 11.4886 7.57901C11.3139 7.48657 11.2066 7.30327 11.1215 7.12263C11.0311 6.93082 10.934 6.66713 10.8122 6.33813L10.6039 5.77498C10.5489 5.6265 10.5358 5.59748 10.5205 5.57576C10.5029 5.55076 10.4811 5.52892 10.4561 5.51131C10.4344 5.49603 10.4054 5.48292 10.2569 5.42797L9.69372 5.21964C9.36479 5.09792 9.10103 5.00074 8.90922 4.91039C8.72858 4.82527 8.54529 4.71795 8.45284 4.54321C8.32914 4.30927 8.32915 4.0291 8.45284 3.79516C8.54531 3.62045 8.7286 3.51308 8.90922 3.42797C9.10103 3.33763 9.36481 3.24044 9.69372 3.11873L10.2569 2.91039C10.4053 2.85545 10.4344 2.84234 10.4561 2.82706C10.4811 2.80945 10.5029 2.78759 10.5205 2.76261C10.5358 2.74089 10.549 2.71175 10.6039 2.56339L10.8122 2.00024C10.9339 1.67128 11.0311 1.40754 11.1215 1.21573C11.2066 1.03511 11.3139 0.851784 11.4886 0.759353Z" fill="#3C3C43" fill-opacity="0.7"/>
<path d="M3.33174 0.754796C3.5266 0.651839 3.75993 0.651845 3.95479 0.754796C4.10702 0.835321 4.19543 0.991288 4.25948 1.12719C4.32876 1.27424 4.40237 1.47547 4.4932 1.72094L4.72627 2.3505C4.76871 2.46518 4.77565 2.47707 4.78096 2.48461C4.78969 2.49696 4.80052 2.50778 4.81286 2.51651C4.82041 2.52182 4.83235 2.52878 4.94698 2.5712L5.57654 2.80427C5.82197 2.89509 6.02325 2.96872 6.17029 3.038C6.30619 3.10205 6.46216 3.19046 6.54268 3.34269L6.57654 3.41756C6.64404 3.59536 6.63275 3.79527 6.54268 3.96573C6.46212 4.11775 6.30608 4.20642 6.17029 4.27042C6.02323 4.33969 5.82194 4.41399 5.57654 4.5048L4.94698 4.73722C4.8325 4.77958 4.8204 4.7866 4.81286 4.79191C4.80061 4.8006 4.78964 4.81154 4.78096 4.82381C4.77568 4.83138 4.76816 4.84472 4.72627 4.95792L4.4932 5.58748C4.40239 5.83289 4.32875 6.03422 4.25948 6.18123C4.20345 6.30009 4.12845 6.43417 4.00883 6.51977L3.95479 6.55362L3.87992 6.58748C3.70215 6.65492 3.50216 6.64369 3.33174 6.55362C3.1796 6.47308 3.09108 6.31709 3.02706 6.18123C2.95775 6.03414 2.88356 5.83307 2.79268 5.58748L2.56026 4.95792C2.51784 4.84329 2.51088 4.83136 2.50557 4.82381C2.49683 4.81144 2.48603 4.80065 2.47367 4.79191C2.46612 4.7866 2.45391 4.77953 2.33956 4.73722L1.71 4.5048C1.46443 4.41393 1.26332 4.33973 1.11625 4.27042C0.980387 4.20639 0.824373 4.11789 0.743853 3.96573C0.640888 3.77091 0.64096 3.53754 0.743853 3.34269C0.824328 3.19055 0.980407 3.10204 1.11625 3.038C1.26326 2.96873 1.4646 2.89508 1.71 2.80427L2.33956 2.5712C2.45271 2.52933 2.46609 2.5218 2.47367 2.51651C2.48594 2.50783 2.49687 2.49687 2.50557 2.48461C2.51088 2.47707 2.51789 2.465 2.56026 2.3505L2.79268 1.72094C2.88349 1.47552 2.95779 1.27425 3.02706 1.12719C3.09105 0.9914 3.17974 0.835361 3.33174 0.754796Z" fill="#3C3C43" fill-opacity="0.7"/>
</g>
<defs>
<clipPath id="clip0_983_473">
<rect width="16" height="16" fill="white"/>
</clipPath>
</defs>
</svg>
