<svg width="16" height="16" viewBox="0 0 16 16" fill="none" xmlns="http://www.w3.org/2000/svg">
<path d="M6.27538 3.44026C6.79897 1.82882 7.06076 1.02311 7.45398 0.806934C7.79397 0.620019 8.20595 0.620019 8.54595 0.806934C8.93917 1.02311 9.20096 1.82882 9.72455 3.44026L9.801 3.67557C9.94732 4.1259 10.0205 4.35106 10.1583 4.51764C10.28 4.66473 10.4368 4.7787 10.6143 4.84897C10.8153 4.92856 11.0521 4.92856 11.5256 4.92856H11.773C13.4674 4.92856 14.3146 4.92856 14.6417 5.23573C14.9245 5.50132 15.0518 5.89314 14.9791 6.27426C14.895 6.71503 14.2096 7.21299 12.8389 8.20891L12.6387 8.35434C12.2556 8.63266 12.0641 8.77181 11.9482 8.95435C11.846 9.11553 11.786 9.29994 11.7741 9.49046C11.7605 9.70623 11.8336 9.93139 11.98 10.3817L12.0564 10.617C12.58 12.2285 12.8418 13.0342 12.6507 13.4402C12.4855 13.7913 12.1522 14.0334 11.7673 14.082C11.3221 14.1383 10.6368 13.6403 9.26599 12.6444L9.06581 12.499C8.68275 12.2206 8.49121 12.0815 8.28181 12.0277C8.09691 11.9803 7.90301 11.9803 7.71811 12.0277C7.50871 12.0815 7.31718 12.2206 6.93411 12.499L6.73394 12.6444C5.36317 13.6403 4.67779 14.1383 4.23261 14.082C3.84768 14.0334 3.51438 13.7913 3.34918 13.4402C3.15813 13.0342 3.41992 12.2285 3.94351 10.617L4.01997 10.3817C4.16628 9.93139 4.23944 9.70623 4.22587 9.49046C4.21388 9.29994 4.15396 9.11553 4.05168 8.95435C3.93583 8.77181 3.7443 8.63266 3.36123 8.35434L3.16106 8.20891C1.79029 7.21299 1.10491 6.71503 1.02083 6.27426C0.948126 5.89314 1.07544 5.50132 1.35827 5.23573C1.68537 4.92856 2.53255 4.92856 4.22691 4.92856H4.47434C4.94783 4.92856 5.18458 4.92856 5.3856 4.84897C5.56309 4.7787 5.71995 4.66473 5.84164 4.51764C5.97944 4.35106 6.0526 4.1259 6.19892 3.67557L6.27538 3.44026Z" fill="#3C3C43" fill-opacity="0.7"/>
</svg>
