<svg width="25" height="24" viewBox="0 0 25 24" fill="none" xmlns="http://www.w3.org/2000/svg">
<path d="M-0.00195312 5.33657C-0.00195312 2.38926 2.38731 0 5.33462 0H18.7198C21.6671 0 24.0564 2.38926 24.0564 5.33657V7.52369H-0.00195312V5.33657Z" fill="url(#paint0_linear_35_3235)"/>
<path d="M24.0566 18.6634C24.0566 21.6107 21.6674 24 18.7201 24L5.3349 24C2.38759 24 -0.00167868 21.6107 -0.00167893 18.6634L-0.00167991 7.5237L24.0566 7.52369L24.0566 18.6634Z" fill="url(#paint1_linear_35_3235)"/>
<g filter="url(#filter0_i_35_3235)">
<path d="M8.95565 5.75071C8.71812 5.75071 8.51327 5.70687 8.3411 5.61919C8.16893 5.52992 8.03582 5.40477 7.94176 5.24376C7.8477 5.08275 7.79749 4.89464 7.79111 4.67943V4.6603H8.49175V4.67464C8.49653 4.76232 8.51646 4.84044 8.55153 4.90899C8.5882 4.97754 8.63921 5.03094 8.70457 5.0692C8.77153 5.10746 8.85203 5.12659 8.94609 5.12659C9.09913 5.12659 9.2147 5.08116 9.29282 4.99029C9.37253 4.89942 9.41238 4.7679 9.41238 4.59573V2.21165H10.1345V4.60051C10.1345 4.96398 10.0309 5.24695 9.82368 5.44941C9.61803 5.65028 9.32869 5.75071 8.95565 5.75071ZM12.4182 5.75071C12.1233 5.75071 11.8674 5.6973 11.6506 5.59049C11.4354 5.48368 11.268 5.33463 11.1484 5.14333C11.0305 4.95203 10.9715 4.72805 10.9715 4.47139V2.21165H11.6936V4.40682C11.6936 4.63001 11.7566 4.80776 11.8825 4.94007C12.0085 5.07239 12.187 5.13855 12.4182 5.13855C12.6509 5.13855 12.8295 5.07239 12.9538 4.94007C13.0782 4.80776 13.1403 4.63001 13.1403 4.40682V2.21165H13.8625V4.47139C13.8625 4.72645 13.8035 4.95043 13.6856 5.14333C13.5692 5.33463 13.4026 5.48368 13.1858 5.59049C12.9706 5.6973 12.7147 5.75071 12.4182 5.75071ZM14.6994 5.66223V2.21165H15.4216V5.06681H16.9568V5.66223H14.6994Z" fill="white"/>
</g>
<path d="M8.33372 21V11.9326H8.24944L5.62966 13.7517V12.7403L8.33372 10.865H9.28892V21H8.33372ZM12.8007 21L17.4854 11.7992V11.7219H11.8666V10.865H18.4616V11.757L13.8191 21H12.8007Z" fill="#1A1A1A"/>
<defs>
<filter id="filter0_i_35_3235" x="7.79114" y="2.21167" width="9.16565" height="3.59739" filterUnits="userSpaceOnUse" color-interpolation-filters="sRGB">
<feFlood flood-opacity="0" result="BackgroundImageFix"/>
<feBlend mode="normal" in="SourceGraphic" in2="BackgroundImageFix" result="shape"/>
<feColorMatrix in="SourceAlpha" type="matrix" values="0 0 0 0 0 0 0 0 0 0 0 0 0 0 0 0 0 0 127 0" result="hardAlpha"/>
<feOffset dy="0.0583232"/>
<feGaussianBlur stdDeviation="0.0583232"/>
<feComposite in2="hardAlpha" operator="arithmetic" k2="-1" k3="1"/>
<feColorMatrix type="matrix" values="0 0 0 0 0 0 0 0 0 0 0 0 0 0 0 0 0 0 0.25 0"/>
<feBlend mode="normal" in2="shape" result="effect1_innerShadow_35_3235"/>
</filter>
<linearGradient id="paint0_linear_35_3235" x1="10.8753" y1="-2.96662e-08" x2="10.8753" y2="7.52369" gradientUnits="userSpaceOnUse">
<stop stop-color="#FF5B53"/>
<stop offset="1" stop-color="#EA4F48"/>
</linearGradient>
<linearGradient id="paint1_linear_35_3235" x1="12.0275" y1="7.52369" x2="12.0275" y2="24" gradientUnits="userSpaceOnUse">
<stop stop-color="white"/>
<stop offset="1" stop-color="#F7F7F7"/>
</linearGradient>
</defs>
</svg>
