<svg width="24" height="24" viewBox="0 0 24 24" fill="none" xmlns="http://www.w3.org/2000/svg">
<path d="M18.3662 8.07798C18.8594 8.13911 19.2095 8.58864 19.1484 9.08189L18.2178 17.3319C18.099 18.2914 18.001 19.0863 17.8486 19.7206C17.6887 20.3866 17.4493 20.9718 16.9873 21.4618C16.8082 21.6517 16.6093 21.8224 16.3945 21.9715C15.8437 22.3538 15.2258 22.5122 14.5342 22.5858C13.871 22.6564 13.049 22.6561 12.0488 22.6561H11.9512C10.951 22.6561 10.129 22.6564 9.46582 22.5858C8.77414 22.5122 8.15637 22.3538 7.60547 21.9715C7.39065 21.8224 7.19179 21.6517 7.0127 21.4618C6.55067 20.9718 6.31134 20.3866 6.15137 19.7206C5.99905 19.0863 5.89999 18.2914 5.78125 17.3319L4.82617 9.08189C4.76512 8.58866 5.11521 8.13914 5.6084 8.07798C6.1016 8.01694 6.55112 8.36706 6.6123 8.86021L7.56152 17.0604C7.6882 18.0839 7.77559 18.777 7.90137 19.3006C8.02212 19.8033 8.15782 20.0519 8.32227 20.2264C8.41516 20.3249 8.51891 20.4146 8.63184 20.493C8.83608 20.6348 9.11729 20.7384 9.65625 20.7958C10.213 20.855 10.9385 20.8563 12 20.8563C13.0615 20.8563 13.787 20.855 14.3438 20.7958C14.8827 20.7384 15.1639 20.6348 15.3682 20.493C15.4811 20.4147 15.5849 20.3249 15.6777 20.2264C15.8422 20.0519 15.9779 19.8033 16.0986 19.3006C16.2244 18.777 16.3118 18.0839 16.4385 17.0604L17.3623 8.86021C17.4235 8.36706 17.873 8.01694 18.3662 8.07798Z" fill="#FF3B30"/>
<path fill-rule="evenodd" clip-rule="evenodd" d="M12.1299 2.0565C12.7525 2.05581 13.2706 2.05446 13.7158 2.20201C14.537 2.47414 15.1941 3.10436 15.4824 3.92173C15.5822 4.20468 15.6182 4.51715 15.6309 4.86119H19.7148C20.2117 4.86128 20.614 5.26379 20.6143 5.7606C20.6143 6.2576 20.2118 6.6609 19.7148 6.66099H4.28516C3.78814 6.66094 3.38477 6.25763 3.38477 5.7606C3.38498 5.26376 3.78828 4.86124 4.28516 4.86119H8.36914C8.38184 4.51715 8.41782 4.20468 8.51758 3.92173C8.80586 3.10436 9.46302 2.47413 10.2842 2.20201C10.7293 2.05451 11.2468 2.05581 11.8691 2.0565H12.1299ZM12 3.8563C11.1757 3.8563 10.9812 3.86774 10.8506 3.91099C10.5426 4.01307 10.3127 4.24302 10.2148 4.52037C10.1929 4.5827 10.1788 4.66377 10.1709 4.86119H13.8281C13.8202 4.66377 13.8071 4.5827 13.7852 4.52037C13.6873 4.24301 13.4575 4.01307 13.1494 3.91099C13.0188 3.86772 12.8244 3.8563 12 3.8563Z" fill="#FF3B30"/>
</svg>
