<svg width="41" height="40" viewBox="0 0 41 40" fill="none" xmlns="http://www.w3.org/2000/svg">
<path d="M26.5655 11.8206C27.0292 11.2186 27.8831 11.054 28.5431 11.4625C29.203 11.8717 29.4345 12.7095 29.1013 13.3928L29.0281 13.5279L20.698 26.9671C20.5427 27.2176 20.375 27.4934 20.2114 27.7109C20.0444 27.9328 19.7657 28.2592 19.3227 28.4661C18.7717 28.7232 18.1406 28.754 17.5665 28.554L17.4005 28.4889C17.0297 28.3215 16.7711 28.0714 16.6062 27.8932C16.4215 27.6935 16.226 27.4363 16.0463 27.2031L12.0375 21.9996C11.5326 21.3434 11.6551 20.4006 12.311 19.8951C12.9669 19.3905 13.9083 19.5133 14.4138 20.1686L18.2745 25.1832L26.4776 11.9475L26.5655 11.8206Z" fill="white"/>
</svg>
