<svg width="25" height="24" viewBox="0 0 25 24" fill="none" xmlns="http://www.w3.org/2000/svg">
<path d="M7.61519 7.11657C7.96666 6.76519 8.5362 6.76516 8.88765 7.11657L12.5068 10.7357L16.1191 7.12341C16.4706 6.77202 17.0411 6.77196 17.3925 7.12341C17.7438 7.47487 17.7439 8.04544 17.3925 8.39685L13.7802 12.0092L17.3916 15.6205L17.4531 15.6888C17.7417 16.0423 17.7212 16.5643 17.3916 16.8939C17.0621 17.223 16.5408 17.2435 16.1875 16.9554L16.1191 16.8939L12.5068 13.2816L8.88863 16.9008L8.82027 16.9623C8.46684 17.2509 7.94482 17.2302 7.61519 16.9008C7.28557 16.5711 7.26503 16.0492 7.55367 15.6957L7.61519 15.6273L11.2334 12.0082L7.61519 8.39001C7.26372 8.03854 7.26372 7.46805 7.61519 7.11657Z" fill="#101012"/>
</svg>
