<svg width="24" height="24" viewBox="0 0 24 24" fill="none" xmlns="http://www.w3.org/2000/svg">
<g clip-path="url(#clip0_35_3199)">
<path d="M8.2755 15.4831C7.80342 15.1641 7.47654 14.6984 7.2981 14.0826L8.39394 13.631C8.49342 14.01 8.66706 14.3036 8.91498 14.5121C9.16134 14.7205 9.46134 14.8231 9.81186 14.8231C10.1703 14.8231 10.4782 14.7141 10.7355 14.4962C10.9928 14.2783 11.1224 14.0004 11.1224 13.6641C11.1224 13.32 10.9865 13.0388 10.715 12.821C10.4434 12.6032 10.1024 12.4941 9.69498 12.4941H9.06186V11.4095H9.63018C9.9807 11.4095 10.276 11.3148 10.516 11.1253C10.756 10.9358 10.876 10.6769 10.876 10.3469C10.876 10.0532 10.7686 9.81946 10.5539 9.64426C10.3393 9.46906 10.0676 9.38062 9.73758 9.38062C9.4155 9.38062 9.15966 9.46594 8.97018 9.63802C8.7807 9.8101 8.6433 10.0217 8.55654 10.2711L7.47186 9.81958C7.6155 9.41218 7.87926 9.05218 8.26602 8.74114C8.6529 8.4301 9.14706 8.27374 9.74706 8.27374C10.1907 8.27374 10.5902 8.35906 10.9439 8.53114C11.2976 8.70322 11.5755 8.94166 11.776 9.24478C11.9765 9.54946 12.076 9.89062 12.076 10.2695C12.076 10.6563 11.9829 10.9831 11.7965 11.2515C11.6102 11.52 11.3812 11.7252 11.1097 11.8689V11.9336C11.4603 12.0782 11.7649 12.3157 11.9907 12.6205C12.2197 12.9284 12.3349 13.2963 12.3349 13.7258C12.3349 14.1553 12.2259 14.5389 12.008 14.8753C11.7901 15.2117 11.4885 15.4769 11.1064 15.6695C10.7228 15.8621 10.2917 15.96 9.8133 15.96C9.25914 15.9615 8.74758 15.8021 8.2755 15.4831ZM15.0002 10.0453L13.8033 10.9153L13.2017 10.0027L15.3602 8.44582H16.1876V15.7895H15.0002V10.0453Z" fill="#4285F4"/>
<path d="M18.3157 24L23.9999 18.3159L21.1578 17.0527L18.3157 18.3159L17.0526 21.1579L18.3157 24Z" fill="#EA4335"/>
<path d="M4.42102 21.1579L5.68414 24H18.3157V18.3158H5.68414L4.42102 21.1579Z" fill="#34A853"/>
<path d="M1.89468 0C0.84792 0 0 0.84792 0 1.89468V18.3157L2.84208 19.5788L5.68416 18.3157V5.68416H18.3157L19.5788 2.84208L18.3158 0H1.89468Z" fill="#4285F4"/>
<path d="M0 18.3158V22.1053C0 23.1522 0.84792 24 1.89468 24H5.68416V18.3158H0Z" fill="#188038"/>
<path d="M18.3158 5.6842V18.3158H24V5.6842L21.1579 4.42108L18.3158 5.6842Z" fill="#FBBC04"/>
<path d="M24 5.68416V1.89468C24 0.8478 23.152 0 22.1053 0H18.3158V5.68416H24Z" fill="#1967D2"/>
</g>
<defs>
<clipPath id="clip0_35_3199">
<rect width="24" height="24" fill="white"/>
</clipPath>
</defs>
</svg>
