<svg width="16" height="16" viewBox="0 0 16 16" fill="none" xmlns="http://www.w3.org/2000/svg">
<path d="M15.7886 7.48253L16 6.81881L15.3126 6.84053C14.9906 6.82869 14.6805 6.72005 14.4198 6.52845H14.5126C14.9314 6.52645 15.3146 6.28745 15.5002 5.91213L15.8025 5.26621C15.5654 5.26821 15.3284 5.25437 15.0933 5.22473C14.8682 5.17141 14.6667 5.04893 14.5146 4.87513C14.3091 4.65585 14.0247 4.53141 13.7244 4.52945C13.6079 4.52945 13.4914 4.54917 13.3788 4.58473C13.3946 4.53141 13.4084 4.47809 13.4183 4.42277C13.4657 4.03757 13.357 3.64844 13.118 3.34227L12.5966 2.7003L12.2766 3.45091C12.2252 3.55758 12.1482 3.65042 12.0494 3.71758C11.9941 3.44894 11.8637 3.204 11.6701 3.01042C11.3462 2.67857 10.9017 2.49289 10.4375 2.49684C10.3566 2.49684 10.2756 2.50276 10.1966 2.51462L9.57236 2.63708C9.62568 2.4277 9.7106 2.2282 9.8252 2.04449L10.1689 1.50918L9.30372 1.59017L9.02716 0.997581L8.49384 1.28795L8 0.800049L7.50616 1.28795L6.97284 1.01141L6.69628 1.59017L5.83112 1.4914L6.1748 2.02869C6.2894 2.21239 6.37432 2.4119 6.42764 2.62128L5.83508 2.50474H5.81532C5.73236 2.49289 5.6494 2.48696 5.5664 2.48696C5.10224 2.48301 4.65776 2.66869 4.33384 3.00054C4.13828 3.1961 4.00396 3.44499 3.95062 3.71758C3.8558 3.65239 3.77876 3.5635 3.72741 3.45881L3.40543 2.70227L2.88 3.34622C2.64494 3.65239 2.54025 4.03957 2.58568 4.42277C2.59556 4.47809 2.60938 4.53141 2.62518 4.58473C2.51259 4.54917 2.39605 4.52945 2.27951 4.52945C1.97926 4.53141 1.69482 4.65585 1.48938 4.87513C1.33926 5.04697 1.13975 5.16945 0.916544 5.22473C0.679508 5.26029 0.43852 5.27413 0.197531 5.26621L0.491852 5.92201C0.677532 6.29733 1.06074 6.53633 1.47951 6.53833H1.57234C1.31556 6.72597 1.00938 6.83461 0.69136 6.84845L0 6.81881L0.211358 7.48253C0.369383 8.00201 0.817776 8.38325 1.35704 8.45241C1.30173 8.80201 1.08049 9.10425 0.764444 9.26229L0.235062 9.47757L0.519508 9.97337C0.754568 10.3388 1.15951 10.5561 1.5921 10.5521C1.70469 10.5521 1.81728 10.5403 1.9279 10.5166C1.95556 10.6371 1.99111 10.7576 2.03062 10.8741C2.12938 11.1348 2.13531 11.4193 2.05037 11.684L1.79358 12.2232L2.3684 12.3754C2.49679 12.4089 2.63111 12.4247 2.76346 12.4247C2.85827 12.4247 2.95111 12.4148 3.04395 12.3931C3.11111 12.3773 3.17827 12.3576 3.24148 12.3319C3.31457 12.4642 3.40741 12.5867 3.5121 12.6954C3.87951 13.0726 4.401 13.2642 5.06272 13.2642H5.5348L4.561 13.6692L5.29976 14.0346C5.59804 14.1808 5.90224 14.3131 6.21236 14.4297L6.12344 14.6864L6.37828 14.803C6.801 14.9689 7.2494 15.0618 7.70372 15.0776H8.31012C8.76248 15.0618 9.20888 14.967 9.62964 14.801L9.87656 14.6864L9.78964 14.4297C10.1037 14.3092 10.4118 14.1729 10.7121 14.0208L11.437 13.6692L10.4652 13.2741H10.9392C11.601 13.2741 12.1244 13.0766 12.4899 12.7052C12.5966 12.5966 12.6874 12.4741 12.7605 12.3418C12.8237 12.3674 12.8909 12.3872 12.958 12.403C13.0509 12.4247 13.1437 12.4346 13.2385 12.4346C13.3709 12.4346 13.5052 12.4168 13.6336 12.3852L14.2104 12.2331L13.9595 11.7038C13.8647 11.4351 13.8686 11.1408 13.9694 10.8741C14.0109 10.7536 14.0444 10.6312 14.0721 10.5087C14.1827 10.5324 14.2973 10.5442 14.4099 10.5442C14.8464 10.5482 15.2533 10.323 15.4844 9.95165L15.7649 9.46177L15.2434 9.24845C14.9274 9.09041 14.7062 8.78821 14.6509 8.43857C15.1901 8.36745 15.6385 7.98821 15.7966 7.46673L15.7886 7.48253Z" fill="white"/>
<path d="M10.3744 9.58019H5.63364V11.358C5.63364 12.0888 6.16104 12.5432 6.94128 12.5432C7.59316 12.5432 7.765 12.5688 8.006 12.8098C8.15808 12.6459 8.3734 12.553 8.5986 12.557V12.5293L8.74872 12.0671L8.49388 11.7886C8.39116 11.8202 8.28452 11.832 8.17784 11.8261C8.01784 11.8241 7.8598 11.8083 7.70376 11.7767H7.6544C7.63264 11.7767 7.63264 11.7767 7.62672 11.7886L7.59712 11.838L7.54376 11.9268L7.44104 11.9032L6.98476 11.7965L6.92156 11.8992V11.911L6.97684 11.9723L6.95316 12.0513C6.91168 12.1481 6.8524 12.235 6.77736 12.3101L6.6628 12.4325L6.55808 12.3022L6.48104 12.2054C6.39808 12.0967 6.37832 11.9545 6.42576 11.8261L6.29736 11.8794L6.24008 11.753L6.20848 11.6641C6.12748 11.4765 6.18872 11.2592 6.35264 11.1407L6.72008 10.9432L7.06968 11.0123C7.06968 10.9787 7.09144 10.8582 7.10132 10.8286H7.08156L6.884 10.9036L6.68648 10.7693C6.64696 10.7298 6.645 10.6646 6.68648 10.6232L6.87412 10.3387L6.39808 9.74612L7.11116 10.0266L7.16056 9.96736L7.25932 9.84883L7.37192 9.95547C7.40156 9.98511 7.42128 10.0207 7.43116 10.0622C7.62872 10.1412 7.99412 10.3723 8.02376 10.7476L7.91116 10.793C7.925 10.8128 7.9428 10.8286 7.96452 10.8384L8.486 10.8898L8.5334 10.876C8.62228 10.8424 8.71712 10.8246 8.81192 10.8226C8.90672 10.8226 8.99956 10.8444 9.08452 10.8859C9.12204 10.872 9.16352 10.8641 9.20304 10.8622H9.22872C9.50724 10.8622 9.64748 11.0716 9.75808 11.2375L9.81536 11.3204C9.91216 11.4587 10.0406 11.6602 10.0465 11.6681L10.1038 11.757L10.0326 11.8399C9.96748 11.9268 9.86476 11.9762 9.75612 11.9762C9.72452 11.9782 9.69292 11.9782 9.66128 11.9762C9.63364 11.9703 9.606 11.9624 9.57832 11.9506C9.57832 11.9782 9.57832 12.0118 9.56252 12.0394L9.48156 12.5056C10.0188 12.397 10.3981 11.915 10.3764 11.3659L10.3744 9.58019ZM5.62772 9.43599H9.31956C9.16944 9.27799 9.11808 9.05084 9.18524 8.8434C9.13588 8.81972 9.08844 8.78812 9.04696 8.75256C8.90276 8.8592 8.4544 9.1792 8.34772 9.2602L8.324 9.276L6.87412 9.01919H6.84452C6.79708 9.02119 6.74968 9.02119 6.70228 9.01919C6.68844 9.08439 6.63116 9.12983 6.566 9.12983H6.54228C6.46524 9.11599 6.41192 9.04292 6.42376 8.96588V8.93428C6.23612 8.79996 6.14724 8.56687 6.1966 8.34167V8.316L6.21832 8.3002C6.21832 8.3002 6.246 8.28044 6.28352 8.25872L6.17884 8.24292C6.13932 8.235 6.11364 8.19947 6.11956 8.15995C6.12548 8.12043 6.16104 8.09476 6.20056 8.10068H6.20252L6.4534 8.14019L6.47708 7.25723L6.85044 6.86216L7.08352 7.35203L6.8386 8.20144L7.0598 8.23699C7.09932 8.24487 7.125 8.28043 7.11908 8.31995C7.11316 8.35551 7.08352 8.37919 7.04796 8.37919H7.03612L6.85636 8.34959V8.36339C6.87612 8.39895 6.90576 8.42663 6.94328 8.44439L8.04748 8.46216L8.32992 8.18367C8.11464 8.10859 7.96056 7.91896 7.93488 7.6918C7.7966 7.63848 7.684 7.53576 7.6208 7.4034C7.56748 7.27896 7.5576 7.13871 7.59512 7.00835C7.42128 6.93919 7.26328 6.83452 7.13488 6.7002H5.49536C5.5744 6.8938 5.6198 7.0992 5.62772 7.30664V9.43599Z" fill="#FCE527"/>
<path d="M7.14279 10.3564C7.11907 10.3564 7.09735 10.3742 7.09535 10.3979V10.3999C7.09339 10.4256 7.11315 10.4493 7.13883 10.4512H7.14079C7.16843 10.4512 7.18819 10.4295 7.18819 10.4038C7.18819 10.3762 7.16843 10.3564 7.14279 10.3564Z" fill="#222220"/>
<path d="M7.14069 10.3545C7.14265 10.3545 7.14265 10.3565 7.14265 10.3565C7.14465 10.3565 7.14465 10.3545 7.14661 10.3545H7.14069ZM10.3683 13.594L10.0957 13.4893L10.1708 13.2068L10.2537 12.8987C9.88041 13.0903 9.48929 13.2443 9.08633 13.3589C8.88881 13.4142 8.74657 13.4399 8.74657 13.4399V13.6394C8.50361 13.6789 8.25869 13.7007 8.01177 13.7026H7.99005C7.74313 13.7007 7.49817 13.6789 7.25521 13.6394V13.4419C7.25521 13.4419 7.11101 13.4142 6.91349 13.3589C6.51053 13.2443 6.11941 13.0903 5.74609 12.8987L5.82709 13.2068L5.90409 13.4893L5.62953 13.594L5.33325 13.7066C5.74017 13.9179 6.16485 14.0937 6.60337 14.232L6.49869 14.5165C6.97473 14.6982 7.48437 14.7871 7.99397 14.7752H8.00585C8.51545 14.7871 9.02509 14.6982 9.50113 14.5165L9.39841 14.232C9.83497 14.0937 10.2597 13.9179 10.6666 13.7066L10.3683 13.594ZM5.66313 13.7243L6.10557 13.5762L5.97325 13.1417C6.26361 13.2858 6.56385 13.4063 6.87397 13.5011L6.65669 14.0937C6.31497 14.0029 5.98113 13.8784 5.66313 13.7243ZM8.01177 14.635L8.00189 14.6271C7.56733 14.6251 7.13473 14.5658 6.71597 14.4513L6.98261 13.7283C7.31449 13.8113 7.65621 13.8567 7.99989 13.8587H8.02165C8.36533 13.8547 8.70705 13.8113 9.03893 13.7283L9.30557 14.4513C8.88485 14.5698 8.44829 14.631 8.01177 14.635ZM9.35893 14.1056V14.0997L9.14165 13.5071C9.45177 13.4123 9.75201 13.2918 10.0424 13.1476L9.91005 13.5821L10.3584 13.7323C10.0384 13.8883 9.70261 14.0147 9.35893 14.1056ZM7.99993 2.31893C8.44633 2.30708 8.88485 2.4414 9.24829 2.70017C9.30561 2.40782 9.41425 2.12733 9.57029 1.87251L9.12189 1.92387L8.88881 1.42411L8.43645 1.6572L7.99993 1.22461L7.56337 1.6572L7.11101 1.42411L6.87793 1.92387L6.42953 1.87251C6.58561 2.12733 6.69425 2.40782 6.75153 2.70017C7.11497 2.4414 7.55349 2.30708 7.99993 2.31893ZM6.85817 2.09769L6.98265 2.11152L7.03597 1.99893L7.19201 1.66313L7.48237 1.81325L7.59497 1.87053L7.68585 1.78757L7.99993 1.46955L8.31397 1.78757L8.40485 1.87646L8.51745 1.81918L8.80585 1.66905L8.96385 2.00485L9.01721 2.11745L9.14165 2.10362L9.26017 2.08979C9.21277 2.19844 9.17129 2.31103 9.13769 2.4256C8.42461 2.06017 7.57721 2.06017 6.86413 2.4256C6.83053 2.31103 6.78905 2.19844 6.74165 2.08979L6.85817 2.09769ZM13.8587 6.39594L13.8054 6.33078C13.438 5.86262 13.0883 5.41818 12.4642 5.2147C12.4899 5.19298 12.5155 5.17322 12.5432 5.15546C12.8395 4.98754 13.0489 4.69918 13.116 4.36534C13.1496 4.0631 13.0647 3.76089 12.879 3.51991L12.6815 3.27299L12.557 3.56731C12.557 3.58509 12.3377 4.05718 11.8953 4.05718H11.7649C11.7886 3.74707 11.676 3.44089 11.4567 3.21966C11.1901 2.94707 10.8227 2.79497 10.4415 2.79694C10.3703 2.79694 10.2992 2.80287 10.2301 2.81275L9.92785 2.87201L10.1155 3.11892C10.2617 3.31645 10.394 3.65818 10.238 3.84188C10.1629 3.90707 10.078 3.95843 9.98513 3.99398C9.78761 4.08682 9.50317 4.21918 9.50317 4.55102C9.50317 4.76634 9.67105 4.9915 9.97329 5.1831C10.8642 5.74806 11.4153 6.33078 11.6543 6.98658C12.0237 7.98606 11.5417 8.55498 11.0735 8.85522L10.8642 8.98954L11.0479 9.15742C11.2118 9.2977 11.4133 9.38458 11.6286 9.40634H11.8083C11.9921 9.40634 12.1738 9.38066 12.3496 9.3273C12.3061 9.40434 12.2528 9.47742 12.1955 9.54458C11.9289 9.8547 11.5338 10.0246 11.1249 10.0029H10.9491L10.9353 10.1787C10.9333 10.4256 11.0419 10.6587 11.2296 10.8187C11.279 10.8621 11.3343 10.8977 11.3935 10.9253C11.1012 11.2098 10.9353 11.5989 10.9293 12.0078C10.9293 12.231 10.878 12.4523 10.7812 12.6537L10.5837 12.95H10.9353C11.516 12.95 11.9605 12.79 12.2686 12.472C12.4286 12.3041 12.5471 12.1007 12.6163 11.8794C12.7308 11.9762 12.8651 12.0434 13.0113 12.0769C13.0805 12.0927 13.1516 12.1007 13.2227 12.1007C13.3293 12.1007 13.436 12.0868 13.5387 12.0631L13.7639 12.0039L13.6651 11.7945C13.5407 11.4607 13.5407 11.0913 13.6651 10.7574C13.7382 10.5401 13.7896 10.315 13.8173 10.0858C13.995 10.1767 14.1925 10.2221 14.3921 10.2201C14.72 10.2241 15.0261 10.0621 15.2039 9.78754L15.3125 9.59002L15.115 9.50706C14.4533 9.2325 14.3071 8.49374 14.2775 8.0947C14.3427 8.10854 14.4079 8.11646 14.475 8.11842L14.5303 8.15594C15.2493 8.15594 15.4903 7.4231 15.5002 7.3915L15.5812 7.13274H15.3106C14.7417 7.11298 14.2103 6.84434 13.8587 6.39594ZM14.5323 7.95646H14.5047C14.3605 7.95842 14.2182 7.9189 14.0958 7.84386C14.0958 7.84386 13.9911 9.27202 15.0558 9.71446V9.72038C14.9155 9.93374 14.6745 10.0601 14.4197 10.0562C14.1313 10.074 13.8528 9.9515 13.6711 9.7283C13.677 10.0641 13.6217 10.3999 13.5091 10.7159C13.3649 11.0972 13.3649 11.5199 13.5091 11.9011C13.4202 11.9229 13.3313 11.9347 13.2405 11.9347C13.1851 11.9347 13.1279 11.9288 13.0745 11.915C12.8118 11.8517 12.6024 11.6582 12.5175 11.4033C12.5175 11.4033 12.559 12.7742 10.9609 12.7742H10.9491C11.0696 12.5451 11.1328 12.2903 11.1308 12.0315C11.2 11.0182 11.8874 10.874 11.8874 10.874C11.6977 10.8503 11.518 10.7831 11.36 10.6765C11.2158 10.5559 11.1328 10.3782 11.1289 10.1905C11.5911 10.2103 12.0375 10.0187 12.3397 9.66706C12.5215 9.45966 12.6419 9.20682 12.6933 8.93618C12.4385 9.12782 12.1244 9.22458 11.8064 9.21078H11.6444C11.4725 9.19298 11.3086 9.12582 11.1763 9.01322C11.7847 8.61818 12.2113 7.94262 11.834 6.91742C11.5299 6.0957 10.8009 5.48138 10.0681 5.01918C9.82513 4.86902 9.67897 4.69918 9.67897 4.55298C9.67897 4.2093 10.1669 4.19942 10.3684 3.9604C10.5995 3.69176 10.4553 3.25719 10.2538 2.99645C10.3111 2.98657 10.3703 2.98262 10.4276 2.98262C10.7575 2.97867 11.0755 3.11102 11.3047 3.34805C11.5377 3.56929 11.6266 3.90311 11.5377 4.21126L11.6444 4.23298C11.7096 4.24486 11.7748 4.25078 11.8419 4.25274H11.8854C12.4642 4.25274 12.7249 3.64633 12.7249 3.64633C12.7249 3.64633 13.3412 4.40486 12.4345 4.99742C12.2785 5.09818 12.2093 5.19498 12.237 5.29374L12.2508 5.3589L12.316 5.37078C12.9738 5.54854 13.3037 6.00286 13.7125 6.51842C14.0997 7.01026 14.6844 7.30658 15.3106 7.3283H15.3224C15.3224 7.3283 15.1249 7.95646 14.5323 7.95646Z" fill="#222220"/>
<path d="M13.2641 5.30377C13.4853 5.43017 13.6769 5.60205 13.8271 5.80745C13.9396 5.98129 14.0996 6.11957 14.2893 6.20253C14.3604 6.22625 14.4374 6.23809 14.5125 6.23809C14.8147 6.23809 15.0912 6.06625 15.2295 5.79757L15.3441 5.54081L15.0656 5.52501C14.7653 5.46969 14.4947 5.31561 14.2952 5.08449C14.1471 4.92449 13.9396 4.83165 13.7204 4.82969C13.5505 4.83165 13.3866 4.88301 13.2444 4.97389L12.9876 5.15365L13.2641 5.30377ZM13.7263 5.02129L13.7204 5.02325C13.8883 5.02325 14.0463 5.09637 14.1589 5.22081C14.39 5.48549 14.7061 5.66129 15.0537 5.71857C14.9471 5.91809 14.7396 6.04253 14.5125 6.04449C14.4572 6.04449 14.4019 6.03461 14.3486 6.01685C14.0286 5.90821 13.916 5.42425 13.3609 5.13193C13.4695 5.06081 13.596 5.02325 13.7263 5.02129ZM13.3945 7.84993L13.3906 7.84597C13.2286 6.54225 12.2824 5.60005 11.2296 5.02917C11.1328 4.97585 11.0419 4.93241 10.955 4.89089C11.3896 4.97981 11.8419 4.87313 12.1915 4.60053C12.1915 4.60053 11.5812 5.04893 10.3328 4.64201C10.6784 4.86721 11.35 5.18325 11.9644 5.69685C13.4972 7.04401 12.4009 8.35957 12.4009 8.35957C12.8592 7.92497 13.0192 7.26129 12.8138 6.66473C13.1377 7.20401 13.2938 7.82821 13.2602 8.45633C13.2167 9.49141 12.6419 10.3961 12.0493 11.1171C11.8715 11.3442 11.7491 11.6109 11.6977 11.8954C11.7984 11.6129 11.9506 11.3521 12.1481 11.127C12.79 10.3744 13.3333 9.59413 13.4103 8.47017C13.4775 8.66769 13.75 9.24253 14.1846 9.45781C14.1846 9.45781 13.6394 9.12993 13.3945 7.84993ZM5.21673 12.6677C5.12193 12.4662 5.07057 12.245 5.06857 12.0218C5.06265 11.6129 4.89477 11.2238 4.60241 10.9393C4.66165 10.9117 4.71697 10.8761 4.76637 10.8327C4.95401 10.6727 5.06265 10.4396 5.06069 10.1927L5.04881 10.0168H4.87105C4.46413 10.0366 4.06909 9.86873 3.80241 9.55861C3.74512 9.49145 3.69376 9.41837 3.64833 9.34133C3.82413 9.39465 4.00585 9.42033 4.18957 9.42033H4.36933C4.58465 9.39861 4.78808 9.31169 4.95204 9.17145L5.13573 9.00353L4.92637 8.86921C4.45625 8.56897 3.97623 8.00009 4.34561 7.00057C4.58465 6.35069 5.13573 5.76401 6.03449 5.19909C6.33673 5.00157 6.50265 4.78229 6.50265 4.56701C6.50265 4.23513 6.22413 4.10281 6.02069 4.00997C5.92785 3.9744 5.84289 3.92304 5.76785 3.85785C5.60981 3.67415 5.74217 3.32452 5.89029 3.13489L6.08785 2.88798L5.78365 2.82872C5.71449 2.81687 5.6434 2.81292 5.57229 2.81292C5.18709 2.80106 4.81573 2.94921 4.54313 3.21983C4.31993 3.43909 4.20341 3.74724 4.22513 4.05933H4.10661C3.66216 4.05933 3.45277 3.58921 3.44487 3.56946L3.32043 3.27514L3.1229 3.52205C2.93919 3.76304 2.85426 4.06525 2.88784 4.36749C2.955 4.70133 3.16241 4.98969 3.4587 5.15761C3.48635 5.17537 3.51401 5.19513 3.53771 5.21685C2.91351 5.41441 2.56389 5.86477 2.19648 6.33293L2.14315 6.40009C1.79154 6.84849 1.25821 7.11713 0.689317 7.13685H0.418701L0.501661 7.39565C0.501661 7.42725 0.750553 8.16009 1.47154 8.16009H1.50709C1.57426 8.15809 1.63944 8.15021 1.70463 8.13637C1.675 8.53145 1.52882 9.27417 0.865121 9.54873L0.667589 9.63169L0.776229 9.82921C0.954009 10.1038 1.26018 10.2658 1.58808 10.2618C1.78759 10.2638 1.98315 10.2183 2.16092 10.1275C2.18858 10.3566 2.23993 10.5818 2.31302 10.7991C2.43747 11.1329 2.43747 11.5023 2.31302 11.8361L2.21426 12.0455L2.43944 12.1048C2.54216 12.1285 2.64882 12.1423 2.75549 12.1423C2.8266 12.1423 2.89771 12.1344 2.96685 12.1186C3.11302 12.085 3.24734 12.0178 3.36191 11.921C3.43105 12.1423 3.54957 12.3458 3.70957 12.5136C4.01969 12.8317 4.46413 12.9897 5.04289 12.9917H5.39448L5.21673 12.6677ZM5.04685 12.7783C3.44882 12.7783 3.48833 11.4075 3.48833 11.4075C3.40339 11.6623 3.19401 11.8559 2.93129 11.9191C2.87796 11.9329 2.82067 11.9388 2.76537 11.9388C2.6745 11.9388 2.58561 11.927 2.4987 11.9052C2.6429 11.524 2.6429 11.1013 2.4987 10.7201C2.38611 10.404 2.33277 10.0682 2.3387 9.73241C2.15697 9.95565 1.87845 10.0781 1.59006 10.0603H1.58018C1.32339 10.0643 1.08241 9.93589 0.942157 9.72253C2.00685 9.28009 1.90216 7.85193 1.90216 7.85193C1.77969 7.92701 1.63747 7.96649 1.49327 7.96453H1.47154C0.878945 7.96453 0.681417 7.33637 0.681417 7.33637H0.693269C1.31944 7.31661 1.90611 7.02033 2.29327 6.52849C2.70018 6.01293 3.03203 5.55861 3.68981 5.38081L3.755 5.36897L3.76882 5.30377C3.7866 5.20305 3.71747 5.10625 3.57129 5.00749C2.66463 4.41489 3.28092 3.65637 3.28092 3.65637C3.28092 3.65637 3.53771 4.26281 4.12045 4.26281H4.14809C4.21525 4.26081 4.28045 4.25489 4.34561 4.24305L4.45229 4.22133C4.36141 3.91316 4.45229 3.57934 4.68537 3.3581C4.91449 3.12106 5.23253 2.98872 5.56241 2.99267C5.61969 2.99267 5.67897 2.99662 5.73625 3.0065C5.53869 3.26921 5.39253 3.70378 5.62365 3.97045C5.82117 4.20157 6.31105 4.21145 6.31105 4.56305C6.31105 4.70921 6.17477 4.87909 5.93181 5.03117C5.19697 5.49341 4.46809 6.10773 4.16585 6.92945C3.78858 7.95465 4.21525 8.63613 4.82365 9.02525C4.69129 9.13589 4.52733 9.20501 4.35549 9.22281H4.19153C3.87351 9.23661 3.55944 9.13985 3.30463 8.94821C3.35599 9.21885 3.47648 9.47169 3.65623 9.67909C3.95845 10.0287 4.40685 10.2223 4.86909 10.2025C4.86513 10.3902 4.78217 10.568 4.63797 10.6885C4.47993 10.7951 4.30017 10.8623 4.11057 10.886C4.11057 10.886 4.79993 11.0262 4.87501 12.0435C4.87301 12.3023 4.93625 12.5571 5.05673 12.7862L5.04685 12.7783Z" fill="#222220"/>
<path d="M1.48537 6.23604H1.48734C1.56241 6.23604 1.63944 6.2242 1.71055 6.20052C1.90018 6.11752 2.06018 5.97928 2.17277 5.80544C2.32092 5.6 2.51253 5.42816 2.73376 5.30172L3.01031 5.1536L2.75352 4.97384C2.61129 4.88296 2.44734 4.8316 2.27944 4.82964C2.06018 4.8316 1.85277 4.92444 1.70463 5.08644C1.5071 5.31556 1.2345 5.4716 0.936235 5.52692L0.657715 5.54076L0.770307 5.79752C0.908579 6.0662 1.18315 6.23408 1.48537 6.23604ZM1.84092 5.22076C1.95154 5.09632 2.10957 5.0232 2.27747 5.0232C2.40586 5.0252 2.53228 5.06472 2.64092 5.13384C2.08191 5.43212 1.96537 5.91012 1.65327 6.01876C1.60191 6.03656 1.5466 6.04644 1.49129 6.04644C1.26216 6.04644 1.05277 5.92 0.946111 5.71852C1.29376 5.66124 1.60981 5.48544 1.84092 5.22076ZM2.74366 8.4642C2.71008 7.83604 2.86415 7.21184 3.19008 6.6726C2.98465 7.26912 3.14465 7.93284 3.60292 8.3674C3.60292 8.3674 2.50465 7.05184 4.03946 5.70468C4.65378 5.19112 5.32342 4.87508 5.6691 4.64988C4.4207 5.0568 3.81033 4.6084 3.81033 4.6084C4.15994 4.881 4.61034 4.98764 5.0449 4.89876C4.95798 4.94024 4.8671 4.98568 4.77034 5.03704C3.71749 5.60988 2.76539 6.55212 2.60934 7.8558V7.84592C2.3644 9.12592 1.81921 9.45384 1.81921 9.45384C2.25181 9.24048 2.52637 8.66372 2.59156 8.46616C2.66465 9.59212 3.21378 10.3724 3.85576 11.123C4.0513 11.3482 4.20538 11.6089 4.30614 11.8914C4.25278 11.6089 4.13034 11.3422 3.95057 11.117C3.35798 10.396 2.78514 9.49136 2.74366 8.4642ZM7.63846 6.08592C7.70758 6.01876 7.80438 5.98716 7.90118 5.999V6.37232C7.89922 6.46516 7.8755 6.55408 7.83006 6.63504H8.20338C8.15798 6.55408 8.13426 6.46516 8.1323 6.37232V5.999C8.2271 5.98716 8.3239 6.01876 8.39302 6.08592V5.82716H7.63846V6.08592ZM7.48242 4.29432H7.47846C7.53574 4.34372 7.6029 4.3832 7.67602 4.40692L7.72342 4.42864V4.18372L7.2849 4C7.30662 4.12248 7.37774 4.22912 7.48242 4.29432ZM8.52342 4.29236L8.52142 4.29432C8.62614 4.22912 8.69722 4.12248 8.71898 4L8.28046 4.18372V4.42668L8.32586 4.40492C8.39898 4.38124 8.46614 4.34172 8.52342 4.29236Z" fill="#222220"/>
<path d="M9.30974 3.3028C9.30974 2.93341 8.6875 2.60156 8.00206 2.60156C7.31662 2.60156 6.69442 2.93341 6.69442 3.3028L6.70822 3.39366L6.98282 4.9739L6.70822 5.1339L5.99122 5.54082C5.99122 5.54082 5.83122 5.62378 5.75614 5.67318C5.48554 5.8707 5.42822 6.13538 5.5843 6.24998C5.62378 5.9813 5.85886 5.78378 6.13146 5.7917C6.35862 5.79762 6.56998 5.91218 6.69838 6.09982C6.73786 6.14726 6.77342 6.19862 6.80502 6.24998C6.8465 6.31714 6.88798 6.37638 6.92946 6.43366H5.10034C5.25442 6.69834 5.3433 6.99662 5.36306 7.30278V11.366C5.36306 12.3537 6.11958 12.8179 6.9433 12.8179C7.57542 12.8179 7.66034 12.7882 8.00798 13.1359C8.35566 12.7882 8.44058 12.8179 9.0727 12.8179C9.89046 12.8179 10.6529 12.3497 10.6529 11.366V7.30674C10.6727 7.00058 10.7616 6.7023 10.9157 6.43762H9.06674C9.10822 6.38034 9.14974 6.32106 9.19122 6.2539C9.22478 6.20254 9.26034 6.15118 9.29786 6.10378C9.42822 5.91614 9.63958 5.80158 9.86674 5.79562C10.1393 5.78774 10.3744 5.98526 10.4139 6.2539C10.5719 6.1413 10.5147 5.85886 10.2421 5.67714C10.169 5.62578 10.009 5.54478 10.009 5.54478L9.29786 5.12602L9.0233 4.96602L9.29786 3.38576L9.30974 3.3028ZM6.9591 3.48453L7.92306 3.81045V5.32354L7.2139 4.94822L6.9591 3.48453ZM5.49538 6.70034H7.15662C7.28502 6.83466 7.44306 6.9413 7.6169 7.00846C7.57934 7.13886 7.58922 7.2791 7.64258 7.40354C7.70578 7.5359 7.81838 7.63862 7.95662 7.69194C7.9823 7.9191 8.13638 8.10874 8.3517 8.18378C8.23318 8.3043 8.11662 8.41686 8.06922 8.4623L6.96502 8.44454C6.9275 8.42674 6.89786 8.3991 6.8781 8.36354V8.3497L7.05786 8.37934H7.06974C7.10526 8.37934 7.1349 8.35562 7.14082 8.3201C7.14674 8.28058 7.12106 8.24502 7.08158 8.23714L6.86034 8.20158L7.10526 7.35218L6.87218 6.8623L6.49886 7.25738L6.47514 8.14034L6.2243 8.10082C6.18478 8.09294 6.14922 8.11862 6.14134 8.1581V8.1601C6.13538 8.19958 6.16106 8.23514 6.20058 8.24306L6.30526 8.25886C6.26774 8.28058 6.24206 8.29638 6.2401 8.30034L6.21838 8.31614V8.34182C6.16898 8.56698 6.25986 8.8001 6.44554 8.93442V8.96602C6.43366 9.04306 6.48702 9.11614 6.56406 9.12994H6.58774C6.65294 9.12994 6.71022 9.08454 6.72406 9.01934C6.77146 9.0213 6.8169 9.0213 6.8643 9.01934H6.8939L8.34182 9.28206L8.36554 9.26626C8.4801 9.18526 8.92058 8.87118 9.06478 8.75862C9.10626 8.79414 9.15366 8.82578 9.20306 8.84946C9.1359 9.05686 9.18726 9.28402 9.33738 9.44206H5.62774V7.30674C5.61986 7.09934 5.57442 6.8939 5.49538 6.70034ZM8.94034 8.6539C8.79022 8.76454 8.42082 9.03318 8.2865 9.12798L6.97294 8.89886V8.8633C6.99466 8.77442 7.0065 8.68354 7.0085 8.59266L8.11466 8.61046L8.13638 8.58874C8.15418 8.57094 8.50378 8.23318 8.68158 8.03762C8.72898 8.09686 8.7843 8.14626 8.8475 8.18578C8.8159 8.34774 8.84946 8.51562 8.94034 8.6539ZM6.74578 8.41686V8.42278C6.77542 8.4781 6.81886 8.5255 6.87218 8.55714C6.87022 8.6381 6.8623 8.71714 6.8485 8.79614C6.8485 8.8139 6.8485 8.8317 6.83466 8.84946V8.87714C6.74378 8.87714 6.6549 8.8633 6.56798 8.83562C6.40998 8.7507 6.32106 8.57686 6.34674 8.3991C6.41786 8.3497 6.49886 8.3181 6.58378 8.30626C6.6569 8.3043 6.72206 8.34774 6.74578 8.41686ZM6.60946 8.15414L6.63122 7.31862L6.82874 7.12106L6.94922 7.37194L6.71418 8.18578L6.60946 8.15414ZM8.93046 12.5551H8.74082L8.88898 12.0712C8.9127 12.004 8.79022 11.9171 8.73886 11.8401C8.85934 11.9132 8.98378 11.9783 9.11218 12.0376C9.11218 12.0534 8.93046 12.5551 8.93046 12.5551ZM9.4381 12.0139L9.4223 12.0001L9.31958 12.5334C9.25442 12.5334 9.18526 12.5473 9.12206 12.5512L9.2307 12.0376C9.2623 11.8855 8.85342 11.8401 8.65194 11.5379C8.51958 11.6485 8.34974 11.6998 8.17986 11.6821C8.02974 11.6801 7.88158 11.6643 7.73538 11.6347C7.70974 11.6327 7.68406 11.6327 7.65838 11.6347C7.59714 11.6307 7.53786 11.6623 7.50626 11.7156L7.47662 11.765L6.91366 11.6287L6.77934 11.8618C6.75762 11.8934 6.76158 11.9369 6.78922 11.9645L6.82674 12.006C6.78922 12.0791 6.74182 12.1463 6.68454 12.2035L6.60158 12.1008C6.53838 11.9981 6.5443 11.8658 6.61542 11.769L6.83662 11.3956L7.30874 11.4667L7.23566 11.2989C7.1369 11.0776 7.28702 10.7951 7.30282 10.6332C7.30282 10.6825 7.25146 10.6924 7.2001 10.6924H7.06378C7.0539 10.6905 7.04206 10.6905 7.03218 10.6924L6.90378 10.7695L6.80306 10.6766C6.78726 10.647 6.79318 10.6115 6.8169 10.5897L7.04998 10.327L6.77342 10.005L7.1685 10.2025L7.28702 10.0603C7.31862 10.0919 7.30478 10.1749 7.30478 10.1749C7.59122 10.246 7.7907 10.5067 7.78282 10.8031V10.8603C7.8223 10.9235 7.88554 10.967 7.95662 10.9848L8.49194 11.0381C8.59862 11.0045 8.70726 10.9828 8.81786 10.969C8.9127 10.969 9.0075 10.9986 9.0865 11.0499C9.12406 11.0243 9.16946 11.0085 9.2149 11.0065H9.2327C9.4717 11.0065 9.57242 11.2238 9.70082 11.4016C9.79762 11.5379 9.92798 11.7433 9.92798 11.7433C9.89046 11.7986 9.82922 11.8322 9.76206 11.8322C9.73838 11.8341 9.71662 11.8341 9.69294 11.8322C9.43614 11.7848 9.39862 11.2554 9.25242 11.2139H9.22874C9.20106 11.2139 9.17542 11.2297 9.16158 11.2554C9.22874 11.4351 9.18922 11.5082 9.2623 11.6505C9.31566 11.7354 9.38282 11.8124 9.45986 11.8776C9.45986 11.8776 9.44998 11.9566 9.4381 12.0139ZM6.5601 11.4964H6.55614L6.57986 11.5576C6.56406 11.6109 6.3823 11.688 6.3823 11.688L6.34282 11.6011C6.29146 11.4766 6.32898 11.3344 6.43762 11.2534L6.7359 11.0717L7.0539 11.1389C7.05194 11.2021 7.0717 11.2633 7.10922 11.3147L6.77538 11.2515L6.57786 11.3897C6.54626 11.4174 6.54034 11.4608 6.5601 11.4964ZM10.3803 11.368C10.4021 11.9171 10.0208 12.3991 9.48158 12.5058L9.57242 12.0277C9.57242 12.0001 9.5823 11.9665 9.58626 11.9389C9.6139 11.9507 9.64158 11.9586 9.66922 11.9645C9.70082 11.9665 9.73242 11.9665 9.76406 11.9645C9.8727 11.9645 9.97542 11.9151 10.0406 11.8282L10.1117 11.7453L10.0524 11.6643C10.0524 11.6643 9.9201 11.4549 9.82134 11.3166L9.76602 11.2337C9.65538 11.0677 9.51514 10.8583 9.23662 10.8583H9.21094C9.17146 10.8603 9.12998 10.8682 9.09242 10.8821C9.0075 10.8406 8.91466 10.8189 8.81986 10.8189C8.72502 10.8208 8.63022 10.8386 8.54134 10.8722L8.4939 10.886L7.97242 10.8347C7.9507 10.8248 7.93294 10.809 7.9191 10.7892L8.0317 10.7438C8.0001 10.3665 7.63662 10.1354 7.4391 10.0583C7.42922 10.0169 7.40946 9.9813 7.37986 9.9517L7.26726 9.84502L7.1685 9.96354L7.1191 10.0228L6.38822 9.72254L6.8643 10.3151L6.67662 10.5996C6.63714 10.6391 6.63514 10.7043 6.67662 10.7458L6.87418 10.8801L7.0717 10.805H7.09146C7.09146 10.8347 7.06974 10.9551 7.05986 10.9887L6.71614 10.9295L6.34874 11.127C6.17886 11.2495 6.11958 11.4747 6.2085 11.6643L6.24998 11.7532L6.30726 11.8796L6.43566 11.8263C6.38822 11.9547 6.40798 12.0969 6.49094 12.2055L6.56798 12.3043L6.6707 12.4347L6.78526 12.3122C6.86034 12.2371 6.91958 12.1502 6.96106 12.0534L6.98478 11.9744L6.92946 11.9132V11.9013L6.9927 11.7986L7.44898 11.9053L7.5517 11.929L7.60702 11.8381L7.63662 11.7887C7.63662 11.7789 7.63662 11.7769 7.6643 11.7769H7.71366C7.86974 11.8085 8.02774 11.8243 8.18578 11.8263C8.29242 11.8322 8.3991 11.8203 8.50182 11.7887L8.75466 12.0771L8.60454 12.5393V12.567C8.37934 12.5631 8.16406 12.6559 8.01194 12.8198C7.76898 12.5789 7.59714 12.5532 6.94726 12.5532C6.16702 12.5532 5.63958 12.0969 5.63958 11.368V9.59022H10.3803V11.368ZM10.5087 6.70034C10.4277 6.89194 10.3843 7.09738 10.3764 7.30674V8.6381C10.2045 8.60058 10.0761 8.45442 10.0643 8.27862V8.21738H10.005C9.9023 8.20946 9.8075 8.16206 9.73638 8.08898C9.64946 7.98822 9.60206 7.86182 9.6001 7.72946C9.51514 7.86774 9.52306 8.0455 9.62182 8.1759C9.69886 8.27266 9.81146 8.33786 9.9339 8.35366C9.96946 8.58278 10.1532 8.76058 10.3823 8.79022V9.44206H9.5527C9.33542 9.33146 9.24454 9.07266 9.34134 8.84946L9.37294 8.77834L9.29986 8.7507C9.06282 8.66774 8.93242 8.41294 9.0075 8.17194L9.0233 8.11266L8.96798 8.08698C8.76058 7.9665 8.64602 7.73146 8.67958 7.49442C8.57094 7.60502 8.5433 7.77294 8.61242 7.91118C8.57294 7.95662 8.52158 8.00994 8.4643 8.06922C8.2569 8.02578 8.10674 7.84602 8.09886 7.63466V7.58526L8.05342 7.5675C7.93294 7.53194 7.83418 7.44898 7.7769 7.33834C7.73934 7.2475 7.73146 7.14478 7.75714 7.04994C7.79662 7.05786 7.83614 7.06378 7.87566 7.06774C7.91514 7.0697 7.95662 7.0697 7.99614 7.06774C8.31614 7.06774 8.62034 6.92946 8.83366 6.69242L10.5087 6.70034ZM9.22874 5.35318L9.5527 5.5507L9.63366 5.5981C9.46578 5.64354 9.31366 5.73442 9.19318 5.86082L9.17934 5.87266C9.1517 5.9023 9.12602 5.93194 9.10034 5.96354L9.08454 5.9833C9.05886 6.0149 9.03514 6.04846 9.01342 6.08402L9.00158 6.10182C8.9739 6.1413 8.94822 6.18478 8.92258 6.22822C8.74282 6.58578 8.39318 6.82478 7.99614 6.8643C7.5991 6.82478 7.24946 6.58578 7.06974 6.22822C7.04406 6.18478 7.01838 6.1433 6.9927 6.10182L6.9769 6.0801L6.91366 5.97738L6.8959 5.95562C6.87022 5.92402 6.84454 5.89442 6.81886 5.86674L6.80502 5.85294C6.68454 5.7265 6.53242 5.63562 6.36454 5.59022L6.4475 5.54278L6.77342 5.34526L7.10726 5.14774L7.9981 5.6317L8.88898 5.16354L9.22874 5.35318ZM8.79022 4.9581L8.08106 5.33146V3.81243L9.04306 3.4865L8.79022 4.9581ZM8.0001 3.65243L6.94526 3.22971C7.03418 3.01638 7.44898 2.83465 8.0001 2.83465C8.55122 2.83465 8.96602 3.01638 9.0549 3.22971L8.0001 3.65243Z" fill="#222220"/>
</svg>
