<svg width="24" height="24" viewBox="0 0 24 24" fill="none" xmlns="http://www.w3.org/2000/svg">
<g clip-path="url(#clip0_35_3180)">
<path d="M12 23.9755C18.6139 23.9755 23.9755 18.6139 23.9755 12C23.9755 5.38606 18.6139 0.0244141 12 0.0244141C5.38605 0.0244141 0.0244141 5.38606 0.0244141 12C0.0244141 18.6139 5.38605 23.9755 12 23.9755Z" fill="#FC3F1D"/>
<path d="M16.3333 19.5182H13.7044V6.51602H12.5333C10.3867 6.51602 9.26221 7.58936 9.26221 9.19158C9.26221 11.0094 10.0378 11.8516 11.6422 12.9249L12.9644 13.816L9.16443 19.516H6.33777L9.75777 14.4271C7.7911 13.0227 6.68443 11.6516 6.68443 9.33824C6.68443 6.44713 8.69999 4.48047 12.5155 4.48047H16.3155V19.5138H16.3333V19.5182Z" fill="white"/>
</g>
<defs>
<clipPath id="clip0_35_3180">
<rect width="24" height="24" fill="white"/>
</clipPath>
</defs>
</svg>
