<svg width="12" height="12" viewBox="0 0 12 12" fill="none" xmlns="http://www.w3.org/2000/svg">
<path d="M10.6054 2.33203C10.8867 2.70053 11.1248 3.10088 11.3149 3.52504L5.92186 7.55404L3.66797 6.12215V4.39953L5.92186 5.83141L10.6054 2.33203Z" fill="#21A038"/>
<path d="M1.36778 6.00139C1.36778 5.92409 1.36964 5.8473 1.37336 5.77096L0.00743904 5.70312C0.00278989 5.80207 1.65065e-06 5.90197 1.65065e-06 6.00278C-0.000579511 6.79052 0.152306 7.57059 0.449893 8.29827C0.747477 9.02599 1.1839 9.68697 1.73413 10.2433L2.70302 9.26188C2.27947 8.83437 1.94346 8.32623 1.71432 7.76668C1.48517 7.20713 1.36741 6.6072 1.36778 6.00139Z" fill="url(#paint0_linear_664_389)"/>
<path d="M5.92095 1.38525C5.99719 1.38525 6.07294 1.38808 6.14826 1.39184L6.21661 0.00707173C6.11869 0.00236002 6.02011 4.45006e-06 5.92095 4.45006e-06C5.1433 -0.000956625 4.37317 0.153763 3.65472 0.45528C2.93627 0.756797 2.28366 1.19917 1.73438 1.75701L2.70326 2.73893C3.12511 2.30954 3.62656 1.96889 4.17877 1.73658C4.73098 1.50427 5.32303 1.38487 5.92095 1.38525Z" fill="url(#paint1_linear_664_389)"/>
<path d="M5.92114 10.6149C5.8449 10.6149 5.76911 10.6149 5.69335 10.6088L5.625 11.9931C5.72325 11.9981 5.82197 12.0006 5.92114 12.0006C6.69845 12.0014 7.46821 11.8466 8.18628 11.545C8.90435 11.2434 9.55653 10.801 10.1054 10.2432L9.13838 9.26172C8.71644 9.69088 8.21505 10.0313 7.66295 10.2636C7.11085 10.4958 6.51891 10.6152 5.92114 10.6149Z" fill="url(#paint2_linear_664_389)"/>
<path d="M8.48716 2.19096L9.63828 1.33107C8.58614 0.467627 7.2728 -0.00239682 5.91895 9.19136e-06V1.38572C6.83571 1.38457 7.7312 1.66535 8.48716 2.19096Z" fill="url(#paint3_linear_664_389)"/>
<path d="M11.8408 6.001C11.8415 5.64051 11.8104 5.28065 11.7478 4.92578L10.4735 5.87754C10.4735 5.91856 10.4735 5.95954 10.4735 6.001C10.4738 6.64569 10.3404 7.28327 10.0821 7.87239C9.8237 8.4615 9.44605 8.98902 8.97363 9.42075L9.89278 10.4503C10.507 9.88836 10.9977 9.20191 11.3333 8.43545C11.6689 7.66896 11.8418 6.83954 11.8408 6.001Z" fill="#21A038"/>
<path d="M5.92047 10.6138C5.28429 10.614 4.65515 10.4788 4.07377 10.217C3.49243 9.95512 2.97181 9.57244 2.54564 9.09375L1.53027 10.0248C2.08466 10.6473 2.76198 11.1448 3.51829 11.485C4.27459 11.8251 5.093 12.0004 5.92047 11.9994V10.6138Z" fill="url(#paint4_linear_664_389)"/>
<path d="M2.8676 2.58029L1.94893 1.55078C1.33458 2.11259 0.843604 2.799 0.507854 3.56549C0.172109 4.33197 -0.00091536 5.16142 3.64175e-06 6.00005H1.36778C1.3675 5.35539 1.50087 4.71781 1.75924 4.12869C2.01761 3.53959 2.39521 3.01206 2.8676 2.58029Z" fill="url(#paint5_linear_664_389)"/>
<defs>
<linearGradient id="paint0_linear_664_389" x1="2.01076" y1="10.0704" x2="0.480463" y2="5.7054" gradientUnits="userSpaceOnUse">
<stop offset="0.14" stop-color="#F1E813"/>
<stop offset="0.3" stop-color="#E6E418"/>
<stop offset="0.58" stop-color="#C9DA26"/>
<stop offset="0.89" stop-color="#A2CC39"/>
</linearGradient>
<linearGradient id="paint1_linear_664_389" x1="2.1249" y1="2.00201" x2="5.98684" y2="0.549825" gradientUnits="userSpaceOnUse">
<stop offset="0.06" stop-color="#0FA7DF"/>
<stop offset="0.54" stop-color="#0098F8"/>
<stop offset="0.92" stop-color="#0290EA"/>
</linearGradient>
<linearGradient id="paint2_linear_664_389" x1="5.53482" y1="11.1643" x2="9.89291" y2="10.1928" gradientUnits="userSpaceOnUse">
<stop offset="0.12" stop-color="#A2CC39"/>
<stop offset="0.28" stop-color="#86C239"/>
<stop offset="0.87" stop-color="#219F38"/>
</linearGradient>
<linearGradient id="paint3_linear_664_389" x1="5.63444" y1="0.464113" x2="9.36416" y2="1.59981" gradientUnits="userSpaceOnUse">
<stop offset="0.06" stop-color="#0290EA"/>
<stop offset="0.79" stop-color="#0C89CA"/>
</linearGradient>
<linearGradient id="paint4_linear_664_389" x1="1.87338" y1="9.8561" x2="5.93687" y2="11.3546" gradientUnits="userSpaceOnUse">
<stop offset="0.13" stop-color="#F1E813"/>
<stop offset="0.3" stop-color="#EAE616"/>
<stop offset="0.53" stop-color="#D8DF1F"/>
<stop offset="0.8" stop-color="#BAD52D"/>
<stop offset="0.98" stop-color="#A2CC39"/>
</linearGradient>
<linearGradient id="paint5_linear_664_389" x1="0.509549" y1="6.16778" x2="2.17361" y2="1.89645" gradientUnits="userSpaceOnUse">
<stop offset="0.07" stop-color="#A2CC39"/>
<stop offset="0.26" stop-color="#81C45E"/>
<stop offset="0.92" stop-color="#0FA7DF"/>
</linearGradient>
</defs>
</svg>
