<svg width="12" height="12" viewBox="0 0 12 12" fill="none" xmlns="http://www.w3.org/2000/svg">
<path d="M7.19567 0.128906V3.24011H5.9896C4.46573 3.24011 3.23828 4.46753 3.23828 5.99132C3.23828 7.51462 4.46573 8.74204 5.98911 8.74204H7.19567V11.8532C9.9465 11.3241 12 8.91168 12 5.99083C12 3.09167 9.94748 0.679247 7.19567 0.128906Z" fill="#003791"/>
<path d="M5.98954 9.71382C3.9365 9.71382 2.26393 8.04208 2.26393 5.98964C2.26393 3.93721 3.93601 2.26498 5.98857 2.26498H6.22181V0H5.98905C2.68815 0 0 2.68809 0 5.98915C0 9.31191 2.68815 12 5.98954 12H6.2223V9.7148H5.98954V9.71382Z" fill="#FF4B5F"/>
</svg>
