<svg width="12" height="12" viewBox="0 0 12 12" fill="none" xmlns="http://www.w3.org/2000/svg">
<path d="M0 5.76C0 3.0447 0 1.68705 0.8436 0.8436C1.68705 0 3.0447 0 5.76 0H6.24C8.9553 0 10.313 0 11.1564 0.8436C12 1.68705 12 3.0447 12 5.76V6.24C12 8.9553 12 10.313 11.1564 11.1564C10.313 12 8.9553 12 6.24 12H5.76C3.0447 12 1.68705 12 0.8436 11.1564C0 10.313 0 8.9553 0 6.24V5.76Z" fill="#0077FF"/>
<path d="M6.38544 8.64344C3.65034 8.64344 2.09049 6.76844 2.02539 3.64844H3.39534C3.44034 5.93849 4.45044 6.90869 5.25039 7.10849V3.64859H6.54039V5.62349C7.33044 5.53844 8.16039 4.63844 8.44029 3.64859H9.73029C9.51534 4.86854 8.61534 5.76854 7.97529 6.13859C8.61534 6.43859 9.64029 7.22354 10.0303 8.64359H8.61039C8.30544 7.69349 7.54539 6.95849 6.54039 6.85859V8.64359H6.38544V8.64344Z" fill="white"/>
</svg>
