<svg width="16" height="16" viewBox="0 0 16 16" fill="none" xmlns="http://www.w3.org/2000/svg">
<path d="M9.84407 0.908813C9.89117 0.913674 9.93771 0.92347 9.98274 0.93811L10.0492 0.963501L10.113 0.996053C10.1538 1.01982 10.1919 1.04824 10.2269 1.08004L10.277 1.13082L10.3213 1.18681C10.3487 1.22524 10.3722 1.26654 10.3909 1.30986L10.4157 1.37691L10.4333 1.44592C10.4425 1.49237 10.447 1.53986 10.4463 1.5872L10.4411 1.65816C10.4397 1.66957 10.4379 1.68136 10.4359 1.69267L9.66178 5.92965C9.65447 5.97049 9.68601 6.00776 9.72754 6.00777H12.639C12.8701 6.00779 13.081 6.14101 13.1807 6.34957C13.2802 6.55819 13.2505 6.80589 13.1051 6.98564L6.74772 14.8444L6.74642 14.8431C6.68647 14.9178 6.61223 14.9802 6.52636 15.0234C6.43348 15.0701 6.33084 15.0942 6.22689 15.0944L6.22623 15.0937C6.12889 15.0937 6.0325 15.0728 5.94433 15.0319C5.85585 14.9907 5.77733 14.9308 5.71452 14.8561C5.65166 14.7813 5.60574 14.6933 5.5804 14.5989C5.55518 14.5047 5.55109 14.4059 5.56803 14.3099V14.3066L6.33886 10.0703C6.34615 10.0294 6.31463 9.9915 6.27311 9.9915H3.361C3.12976 9.99149 2.91893 9.85839 2.81933 9.6497C2.71996 9.44109 2.7495 9.19394 2.89485 9.01428L9.25228 1.15686C9.31136 1.08294 9.38531 1.02242 9.46972 0.979126L9.54134 0.947225C9.61507 0.919776 9.69337 0.905237 9.77246 0.904907L9.84407 0.908813Z" fill="#3C3C43" fill-opacity="0.7"/>
</svg>
