<svg width="16" height="16" viewBox="0 0 16 16" fill="none" xmlns="http://www.w3.org/2000/svg">
<g clip-path="url(#clip0_5_648)">
<path d="M6.36563 5.71059C6.62014 5.02284 7.5929 5.02282 7.8474 5.71059L8.80899 8.30954C8.83497 8.37968 8.89056 8.43522 8.96068 8.46124L11.5603 9.42348C12.2263 9.67012 12.2472 10.5905 11.6228 10.8792L11.5603 10.9052L8.96068 11.8668C8.89049 11.8928 8.83499 11.9483 8.80899 12.0185L7.8474 14.6181C7.59292 15.3059 6.62021 15.3058 6.36563 14.6181L5.40339 12.0185C5.37738 11.9484 5.32179 11.8928 5.2517 11.8668L2.65274 10.9052C1.96496 10.6507 1.96496 9.67798 2.65274 9.42348L5.2517 8.46124C5.32187 8.43522 5.37741 8.37974 5.40339 8.30954L6.36563 5.71059Z" fill="#3C3C43" fill-opacity="0.7"/>
<path d="M11.4887 0.759414C11.7226 0.635805 12.0028 0.635751 12.2367 0.759414C12.4114 0.851886 12.5188 1.03519 12.6039 1.21579C12.6943 1.40761 12.7914 1.67132 12.9132 2.0003L13.1215 2.56345C13.1765 2.71206 13.1895 2.74094 13.2048 2.76267C13.2224 2.78768 13.2443 2.80951 13.2693 2.82712C13.291 2.84237 13.3201 2.85555 13.4685 2.91046L14.0316 3.11879C14.3606 3.24051 14.6244 3.33768 14.8161 3.42803C14.9968 3.51315 15.1801 3.6205 15.2725 3.79522C15.3962 4.02912 15.3962 4.30936 15.2725 4.54327C15.1801 4.71798 14.9967 4.82534 14.8161 4.91046C14.6244 5.0008 14.3606 5.09799 14.0316 5.2197L13.4685 5.42803C13.3202 5.48291 13.291 5.49613 13.2693 5.51137C13.2443 5.52897 13.2224 5.55083 13.2048 5.57582C13.1895 5.59754 13.1765 5.62649 13.1215 5.77504L12.9132 6.33819C12.7914 6.66715 12.6943 6.93088 12.6039 7.1227C12.5188 7.30329 12.4114 7.4866 12.2367 7.57908C12.0028 7.70274 11.7226 7.7027 11.4887 7.57908C11.3139 7.48663 11.2066 7.30334 11.1215 7.1227C11.0311 6.93088 10.934 6.66719 10.8122 6.33819L10.6039 5.77504C10.549 5.62656 10.5358 5.59754 10.5206 5.57582C10.503 5.55082 10.4811 5.52899 10.4561 5.51137C10.4344 5.49609 10.4054 5.48298 10.2569 5.42803L9.69375 5.2197C9.36482 5.09799 9.10106 5.0008 8.90925 4.91046C8.72861 4.82534 8.54533 4.71801 8.45287 4.54327C8.32918 4.30933 8.32918 4.02916 8.45287 3.79522C8.54534 3.62051 8.72863 3.51314 8.90925 3.42803C9.10106 3.33769 9.36484 3.2405 9.69375 3.11879L10.2569 2.91046C10.4054 2.85551 10.4344 2.8424 10.4561 2.82712C10.4811 2.80951 10.503 2.78765 10.5206 2.76267C10.5358 2.74095 10.549 2.71181 10.6039 2.56345L10.8122 2.0003C10.934 1.67134 11.0311 1.4076 11.1215 1.21579C11.2066 1.03517 11.3139 0.851845 11.4887 0.759414Z" fill="#3C3C43" fill-opacity="0.7"/>
<path d="M3.33177 0.754857C3.52663 0.6519 3.75996 0.651906 3.95482 0.754857C4.10705 0.835382 4.19546 0.991349 4.25951 1.12725C4.32879 1.2743 4.4024 1.47553 4.49323 1.721L4.72631 2.35056C4.76874 2.46524 4.77569 2.47713 4.78099 2.48467C4.78972 2.49702 4.80055 2.50784 4.81289 2.51658C4.82044 2.52188 4.83238 2.52884 4.94701 2.57126L5.57657 2.80434C5.822 2.89516 6.02328 2.96879 6.17032 3.03806C6.30622 3.10211 6.46219 3.19052 6.54271 3.34275L6.57657 3.41762C6.64407 3.59542 6.63278 3.79534 6.54271 3.96579C6.46215 4.11781 6.30611 4.20648 6.17032 4.27048C6.02326 4.33975 5.82197 4.41405 5.57657 4.50486L4.94701 4.73728C4.83253 4.77964 4.82043 4.78666 4.81289 4.79197C4.80065 4.80066 4.78967 4.81161 4.78099 4.82387C4.77571 4.83144 4.76819 4.84478 4.72631 4.95798L4.49323 5.58754C4.40242 5.83295 4.32878 6.03428 4.25951 6.18129C4.20348 6.30015 4.12848 6.43423 4.00886 6.51983L3.95482 6.55369L3.87995 6.58754C3.70218 6.65498 3.50219 6.64375 3.33177 6.55369C3.17963 6.47315 3.09111 6.31715 3.02709 6.18129C2.95778 6.0342 2.88359 5.83313 2.79271 5.58754L2.56029 4.95798C2.51787 4.84335 2.51091 4.83142 2.5056 4.82387C2.49686 4.8115 2.48606 4.80071 2.4737 4.79197C2.46615 4.78666 2.45395 4.7796 2.33959 4.73728L1.71003 4.50486C1.46446 4.41399 1.26335 4.33979 1.11628 4.27048C0.980418 4.20645 0.824403 4.11795 0.743884 3.96579C0.640919 3.77097 0.64099 3.5376 0.743884 3.34275C0.824359 3.19061 0.980437 3.1021 1.11628 3.03806C1.26329 2.96879 1.46463 2.89514 1.71003 2.80434L2.33959 2.57126C2.45274 2.52939 2.46612 2.52186 2.4737 2.51658C2.48597 2.50789 2.4969 2.49693 2.5056 2.48467C2.51091 2.47713 2.51792 2.46506 2.56029 2.35056L2.79271 1.721C2.88352 1.47559 2.95782 1.27431 3.02709 1.12725C3.09108 0.991461 3.17977 0.835422 3.33177 0.754857Z" fill="#3C3C43" fill-opacity="0.7"/>
</g>
<defs>
<clipPath id="clip0_5_648">
<rect width="16" height="16" fill="white"/>
</clipPath>
</defs>
</svg>
