<svg width="16" height="16" viewBox="0 0 16 16" fill="none" xmlns="http://www.w3.org/2000/svg">
<g clip-path="url(#clip0_4_37445)">
<path fill-rule="evenodd" clip-rule="evenodd" d="M8.0057 0.666687C12.0558 0.666687 15.339 3.94993 15.339 8.00002C15.339 12.0501 12.0558 15.3334 8.0057 15.3334C3.95561 15.3334 0.672363 12.0501 0.672363 8.00002C0.672363 3.94993 3.95561 0.666687 8.0057 0.666687ZM7.99984 3.33791C7.63174 3.33799 7.33321 3.63647 7.33317 4.00458V8.00197L7.33643 8.07033C7.36673 8.36933 7.59496 8.6093 7.88786 8.65887C7.92614 8.66571 7.96545 8.66994 8.0057 8.66994H10.7459L10.8136 8.66669C11.1499 8.63264 11.4126 8.34852 11.4126 8.00327C11.4126 7.65806 11.1499 7.3739 10.8136 7.33986L10.7459 7.33661H8.6665V4.00458C8.66646 3.63642 8.368 3.33791 7.99984 3.33791Z" fill="#3C3C43" fill-opacity="0.7"/>
</g>
<defs>
<clipPath id="clip0_4_37445">
<rect width="16" height="16" fill="white"/>
</clipPath>
</defs>
</svg>
