<svg width="24" height="25" viewBox="0 0 24 25" fill="none" xmlns="http://www.w3.org/2000/svg">
<path fill-rule="evenodd" clip-rule="evenodd" d="M12.2656 1.27649C13.0953 1.27652 13.8934 1.59411 14.4971 2.16321L19.2324 6.62708C20.062 7.41471 20.5332 8.50753 20.5371 9.65149V17.075C20.5371 18.0042 20.5374 18.7487 20.4883 19.3503C20.4378 19.9682 20.3319 20.5035 20.0811 20.9958C19.6794 21.7842 19.0383 22.4252 18.25 22.8269C17.7576 23.0778 17.2224 23.1836 16.6045 23.2341C16.0028 23.2833 15.2584 23.2839 14.3291 23.2839H10.6709C9.74156 23.2839 7.99721 23.2833 7.39551 23.2341C6.77759 23.1836 6.24238 23.0778 5.75 22.8269C4.96167 22.4252 4.32062 21.7842 3.91895 20.9958C3.6681 20.5035 3.5622 19.9682 3.51172 19.3503C3.46258 18.7486 3.46288 18.0043 3.46289 17.075L3.46289 7.48547C3.46288 6.55614 3.46258 5.81179 3.51172 5.21008C3.5622 4.5922 3.6681 4.05693 3.91895 3.56458C4.32062 2.77624 4.96167 2.13521 5.75 1.73352C6.24238 1.48264 6.77759 1.37678 7.39551 1.32629C7.99721 1.27715 9.74156 1.27648 10.6709 1.27649H12.2656ZM6.80762 18.9529C6.35397 18.9991 6 19.3825 6 19.8484C6.0002 20.3141 6.35406 20.6977 6.80762 20.7439L6.89941 20.7488H14.4678C14.9647 20.7488 15.368 20.3453 15.3682 19.8484C15.3682 19.3513 14.9648 18.948 14.4678 18.948H6.89941L6.80762 18.9529ZM6.90039 15.4451L6.80859 15.45C6.35478 15.4959 6.00022 15.8796 6 16.3455C6 16.8115 6.35464 17.195 6.80859 17.241L6.90039 17.2459H10.5449C11.0418 17.2457 11.4453 16.8424 11.4453 16.3455C11.4451 15.8487 11.0417 15.4453 10.5449 15.4451H6.90039ZM11.4961 6.9718C11.4961 7.42466 11.4956 7.81042 11.5215 8.12708C11.5487 8.45983 11.6089 8.7844 11.7666 9.09387C12.0043 9.56012 12.3833 9.93922 12.8496 10.1769C13.159 10.3345 13.4828 10.3948 13.8154 10.422C14.1322 10.4479 14.5186 10.4474 14.9717 10.4474H18.998V9.76477C18.998 9.44816 18.998 9.28984 18.9639 9.10754C18.9382 8.97032 18.8729 8.76565 18.8145 8.63879C18.7368 8.47025 18.6699 8.37533 18.5361 8.18665C18.4143 8.0148 18.2855 7.85033 18.1729 7.74329L13.9717 3.70813C13.6286 3.37861 13.4571 3.21352 13.2588 3.09583C13.0831 2.99154 12.8923 2.91481 12.6934 2.86829C12.4688 2.81581 12.2306 2.81555 11.7549 2.81555H11.4961V6.9718Z" fill="white"/>
</svg>
