<svg width="1080" height="1080" viewBox="0 0 1080 1080" fill="none" xmlns="http://www.w3.org/2000/svg">
<g clip-path="url(#clip0_2_41351)">
<path d="M540 -673L-673.395 540.395M548.485 -664.515L-664.91 548.88M556.971 -656.029L-656.425 557.366M565.456 -647.544L-647.939 565.851M573.941 -639.059L-639.454 574.336M582.426 -630.574L-630.969 582.822M590.912 -622.088L-622.484 591.307M599.397 -613.603L-613.998 599.792M607.882 -605.118L-605.513 608.277M616.368 -596.632L-597.028 616.763M624.853 -588.147L-588.542 625.248M633.338 -579.662L-580.057 633.733M641.823 -571.177L-571.572 642.219M650.309 -562.691L-563.087 650.704M658.794 -554.206L-554.601 659.189M667.279 -545.721L-546.116 667.674M675.764 -537.236L-537.631 676.16M684.25 -528.75L-529.145 684.645M692.735 -520.265L-520.66 693.13M701.22 -511.78L-512.175 701.616M709.706 -503.294L-503.69 710.101M718.191 -494.809L-495.204 718.586M726.676 -486.324L-486.719 727.071M735.161 -477.839L-478.234 735.557M743.647 -469.353L-469.748 744.042M752.132 -460.868L-461.263 752.527M760.617 -452.383L-452.778 761.013M769.103 -443.897L-444.293 769.498M777.588 -435.412L-435.807 777.983M786.073 -426.927L-427.322 786.468M794.558 -418.442L-418.837 794.954M803.044 -409.956L-410.351 803.439M811.529 -401.471L-401.866 811.924M820.014 -392.986L-393.381 820.409M828.5 -384.5L-384.896 828.895M836.985 -376.015L-376.41 837.38M845.47 -367.53L-367.925 845.865M853.955 -359.045L-359.44 854.351M862.441 -350.559L-350.955 862.836M870.926 -342.074L-342.469 871.321M879.411 -333.589L-333.984 879.806M887.897 -325.103L-325.499 888.292M896.382 -316.618L-317.013 896.777M904.867 -308.133L-308.528 905.262M913.352 -299.648L-300.043 913.748M921.838 -291.162L-291.558 922.233M930.323 -282.677L-283.072 930.718M938.808 -274.192L-274.587 939.203M947.293 -265.707L-266.102 947.689M955.779 -257.221L-257.616 956.174M964.264 -248.736L-249.131 964.659M972.749 -240.251L-240.646 973.145M981.235 -231.765L-232.161 981.63M989.72 -223.28L-223.675 990.115M998.205 -214.795L-215.19 998.6M1006.69 -206.31L-206.705 1007.09M1015.18 -197.824L-198.219 1015.57M1023.66 -189.339L-189.734 1024.06M1032.15 -180.854L-181.249 1032.54M1040.63 -172.368L-172.764 1041.03M1049.12 -163.883L-164.278 1049.51M1057.6 -155.398L-155.793 1058M1066.09 -146.913L-147.308 1066.48M1074.57 -138.427L-138.822 1074.97M1083.06 -129.942L-130.337 1083.45M1091.54 -121.457L-121.852 1091.94M1100.03 -112.971L-113.367 1100.42M1108.51 -104.486L-104.881 1108.91M1117 -96.0009L-96.3961 1117.39M1125.48 -87.5156L-87.9108 1125.88M1133.97 -79.0303L-79.4255 1134.36M1142.45 -70.545L-70.9402 1142.85M1150.94 -62.0598L-62.455 1151.34M1159.43 -53.5745L-53.9697 1159.82M1167.91 -45.0892L-45.4844 1168.31M1176.4 -36.6039L-36.9991 1176.79M1184.88 -28.1186L-28.5138 1185.28M1193.37 -19.6333L-20.0286 1193.76M1201.85 -11.1481L-11.5433 1202.25M1210.34 -2.66278L-3.058 1210.73M1218.82 5.8225L5.42728 1219.22M1227.31 14.3078L13.9126 1227.7M1235.79 22.7931L22.3978 1236.19M1244.28 31.2783L30.8831 1244.67M1252.76 39.7636L39.3684 1253.16M1261.25 48.2489L47.8537 1261.64M1269.73 56.7342L56.339 1270.13M1278.22 65.2195L64.8243 1278.61M1286.7 73.7047L73.3095 1287.1M1295.19 82.19L81.7948 1295.59M1303.68 90.6753L90.2801 1304.07M1312.16 99.1606L98.7654 1312.56M1320.65 107.646L107.251 1321.04M1329.13 116.131L115.736 1329.53M1337.62 124.616L124.221 1338.01M1346.1 133.102L132.707 1346.5M1354.59 141.587L141.192 1354.98M1363.07 150.072L149.677 1363.47M1371.56 158.558L158.162 1371.95M1380.04 167.043L166.648 1380.44M1388.53 175.528L175.133 1388.92M1397.01 184.013L183.618 1397.41M1405.5 192.499L192.103 1405.89M1413.98 200.984L200.589 1414.38M1422.47 209.469L209.074 1422.86M1430.95 217.955L217.559 1431.35M1439.44 226.44L226.045 1439.84M1447.93 234.925L234.53 1448.32M1456.41 243.41L243.015 1456.81M1464.9 251.896L251.5 1465.29M1473.38 260.381L259.986 1473.78M1481.87 268.866L268.471 1482.26M1490.35 277.351L276.956 1490.75M1498.84 285.837L285.442 1499.23M1507.32 294.322L293.927 1507.72M1515.81 302.807L302.412 1516.2M1524.29 311.293L310.897 1524.69M1532.78 319.778L319.383 1533.17M1541.26 328.263L327.868 1541.66M1549.75 336.748L336.353 1550.14M1558.23 345.234L344.839 1558.63M1566.72 353.719L353.324 1567.11M1575.2 362.204L361.809 1575.6M1583.69 370.69L370.294 1584.08M1592.17 379.175L378.78 1592.57M1600.66 387.66L387.265 1601.06M1609.15 396.145L395.75 1609.54M1617.63 404.631L404.236 1618.03M1626.12 413.116L412.721 1626.51M1634.6 421.601L421.206 1635M1643.09 430.087L429.691 1643.48M1651.57 438.572L438.177 1651.97M1660.06 447.057L446.662 1660.45M1668.54 455.542L455.147 1668.94M1677.03 464.028L463.632 1677.42M1685.51 472.513L472.118 1685.91M1694 480.998L480.603 1694.39M1702.48 489.484L489.088 1702.88M1710.97 497.969L497.574 1711.36M1719.45 506.454L506.059 1719.85M1727.94 514.939L514.544 1728.33M1736.42 523.425L523.029 1736.82M1744.91 531.91L531.515 1745.31M1753.4 540.395L540 1753.79" stroke="#787880" stroke-opacity="0.1"/>
</g>
<defs>
<clipPath id="clip0_2_41351">
<rect width="1080" height="1080" fill="white"/>
</clipPath>
</defs>
</svg>
