<svg width="938" height="202" viewBox="0 0 938 202" fill="none" xmlns="http://www.w3.org/2000/svg">
<g clip-path="url(#clip0_2_41352)">
<path d="M-400 348.273L647.606 -699.333M-391.98 356.293L655.626 -691.313M-383.96 364.313L663.646 -683.293M-375.94 372.333L671.666 -675.273M-367.92 380.353L679.687 -667.253M-359.899 388.373L687.707 -659.233M-351.879 396.393L695.727 -651.213M-343.859 404.414L703.747 -643.192M-335.839 412.434L711.767 -635.172M-327.819 420.454L719.787 -627.152M-319.799 428.474L727.807 -619.132M-311.779 436.494L735.827 -611.112M-303.759 444.514L743.847 -603.092M-295.738 452.534L751.868 -595.072M-287.718 460.554L759.888 -587.052M-279.698 468.575L767.908 -579.032M-271.678 476.595L775.928 -571.011M-263.658 484.615L783.948 -562.991M-255.638 492.635L791.968 -554.971M-247.618 500.655L799.988 -546.951M-239.598 508.675L808.008 -538.931M-231.578 516.695L816.028 -530.911M-223.557 524.715L824.049 -522.891M-215.537 532.736L832.069 -514.871M-207.517 540.756L840.089 -506.85M-199.497 548.776L848.109 -498.83M-191.477 556.796L856.129 -490.81M-183.457 564.816L864.149 -482.79M-175.437 572.836L872.169 -474.77M-167.417 580.856L880.189 -466.75M-159.397 588.876L888.209 -458.73M-151.376 596.896L896.23 -450.71M-143.356 604.917L904.25 -442.69M-135.336 612.937L912.27 -434.669M-127.316 620.957L920.29 -426.649M-119.296 628.977L928.31 -418.629M-111.276 636.997L936.33 -410.609M-103.256 645.017L944.35 -402.589M-95.2357 653.037L952.37 -394.569M-87.2155 661.057L960.39 -386.549M-79.1955 669.077L968.411 -378.529M-71.1753 677.098L976.431 -370.509M-63.1552 685.118L984.451 -362.488M-55.1351 693.138L992.471 -354.468M-47.115 701.158L1000.49 -346.448M-39.0949 709.178L1008.51 -338.428M-31.0748 717.198L1016.53 -330.408M-23.0546 725.218L1024.55 -322.388M-15.0345 733.238L1032.57 -314.368M-7.01441 741.258L1040.59 -306.348M1.00569 749.278L1048.61 -298.328M9.02579 757.299L1056.63 -290.307M17.0459 765.319L1064.65 -282.287M25.0659 773.339L1072.67 -274.267M33.0861 781.359L1080.69 -266.247M41.1063 789.379L1088.71 -258.227M49.1265 797.399L1096.73 -250.207M57.1465 805.419L1104.75 -242.187M65.1666 813.439L1112.77 -234.167M73.1867 821.46L1120.79 -226.147M81.2068 829.48L1128.81 -218.126M89.2269 837.5L1136.83 -210.106M97.247 845.52L1144.85 -202.086M105.267 853.54L1152.87 -194.066M113.287 861.56L1160.89 -186.046M121.307 869.58L1168.91 -178.026M129.327 877.6L1176.93 -170.006M137.348 885.621L1184.95 -161.986M145.368 893.641L1192.97 -153.965M153.388 901.661L1200.99 -145.945M161.408 909.681L1209.01 -137.925M169.428 917.701L1217.03 -129.905M177.448 925.721L1225.05 -121.885M185.468 933.741L1233.07 -113.865M193.488 941.761L1241.09 -105.845M201.509 949.781L1249.11 -97.8247M209.529 957.801L1257.13 -89.8046M217.549 965.822L1265.15 -81.7845M225.569 973.842L1273.17 -73.7645M233.589 981.862L1281.19 -65.7444M241.609 989.882L1289.22 -57.7241M249.629 997.902L1297.24 -49.704M257.649 1005.92L1305.26 -41.6838M265.669 1013.94L1313.28 -33.6638M273.69 1021.96L1321.3 -25.6437M281.71 1029.98L1329.32 -17.6236M289.73 1038L1337.34 -9.60353M297.75 1046.02L1345.36 -1.58336M305.77 1054.04L1353.38 6.43673M313.79 1062.06L1361.4 14.4568M321.81 1070.08L1369.42 22.4769M329.83 1078.1L1377.44 30.497M337.85 1086.12L1385.46 38.5171M345.87 1094.14L1393.48 46.5373M353.891 1102.16L1401.5 54.5575M361.911 1110.18L1409.52 62.5776M369.931 1118.2L1417.54 70.5976M377.951 1126.22L1425.56 78.6178M385.971 1134.24L1433.58 86.6379M393.991 1142.26L1441.6 94.658M402.011 1150.28L1449.62 102.678M410.031 1158.3L1457.64 110.698M418.052 1166.32L1465.66 118.718M426.072 1174.34L1473.68 126.738M434.092 1182.36L1481.7 134.759M442.112 1190.38L1489.72 142.779M450.132 1198.4L1497.74 150.799M458.152 1206.43L1505.76 158.819M466.172 1214.45L1513.78 166.839M474.192 1222.47L1521.8 174.859M482.213 1230.49L1529.82 182.879M490.233 1238.51L1537.84 190.9M498.253 1246.53L1545.86 198.92M506.273 1254.55L1553.88 206.94M514.293 1262.57L1561.9 214.96M522.314 1270.59L1569.92 222.98M530.334 1278.61L1577.94 231.001M538.354 1286.63L1585.96 239.021M546.374 1294.65L1593.98 247.041M554.394 1302.67L1602 255.061" stroke="#787880" stroke-opacity="0.1"/>
</g>
<path d="M1 39.4C1 25.9587 1 19.2381 3.61584 14.1042C5.9168 9.58834 9.58834 5.9168 14.1042 3.61584C19.2381 1 25.9587 1 39.4 1H898.6C912.041 1 918.762 1 923.896 3.61584C928.412 5.9168 932.083 9.58834 934.384 14.1042C937 19.2381 937 25.9587 937 39.4V162.6C937 176.041 937 182.762 934.384 187.896C932.083 192.412 928.412 196.083 923.896 198.384C918.762 201 912.041 201 898.6 201H39.4C25.9587 201 19.2381 201 14.1042 198.384C9.58834 196.083 5.9168 192.412 3.61584 187.896C1 182.762 1 176.041 1 162.6V39.4Z" stroke="#787880" stroke-opacity="0.1" stroke-linecap="round"/>
<defs>
<clipPath id="clip0_2_41352">
<path d="M1 39.4C1 25.9587 1 19.2381 3.61584 14.1042C5.9168 9.58834 9.58834 5.9168 14.1042 3.61584C19.2381 1 25.9587 1 39.4 1H898.6C912.041 1 918.762 1 923.896 3.61584C928.412 5.9168 932.083 9.58834 934.384 14.1042C937 19.2381 937 25.9587 937 39.4V162.6C937 176.041 937 182.762 934.384 187.896C932.083 192.412 928.412 196.083 923.896 198.384C918.762 201 912.041 201 898.6 201H39.4C25.9587 201 19.2381 201 14.1042 198.384C9.58834 196.083 5.9168 192.412 3.61584 187.896C1 182.762 1 176.041 1 162.6V39.4Z" fill="white"/>
</clipPath>
</defs>
</svg>
