<svg width="25" height="24" viewBox="0 0 25 24" fill="none" xmlns="http://www.w3.org/2000/svg">
<g clip-path="url(#clip0_5_6338)">
<path d="M12.25 9.81836V14.4656H18.7082C18.4246 15.9602 17.5736 17.2257 16.2972 18.0766L20.1917 21.0984C22.4608 19.0039 23.7699 15.9276 23.7699 12.273C23.7699 11.4221 23.6936 10.6039 23.5517 9.81849L12.25 9.81836Z" fill="#4285F4"/>
<path d="M5.52461 14.2842L4.64625 14.9566L1.53711 17.3783C3.51165 21.2947 7.55862 24.0002 12.2495 24.0002C15.4894 24.0002 18.2057 22.9311 20.1912 21.0984L16.2967 18.0765C15.2276 18.7965 13.864 19.2329 12.2495 19.2329C9.12951 19.2329 6.47868 17.1275 5.52952 14.2911L5.52461 14.2842Z" fill="#34A853"/>
<path d="M1.53718 6.62207C0.719042 8.23655 0.25 10.0584 0.25 12.0002C0.25 13.942 0.719042 15.7638 1.53718 17.3783C1.53718 17.3891 5.52997 14.2801 5.52997 14.2801C5.28998 13.5601 5.14812 12.7965 5.14812 12.0001C5.14812 11.2036 5.28998 10.44 5.52997 9.72L1.53718 6.62207Z" fill="#FBBC05"/>
<path d="M12.2497 4.77818C14.017 4.77818 15.5879 5.38907 16.8425 6.56727L20.2788 3.13095C18.1952 1.18917 15.4898 0 12.2497 0C7.55887 0 3.51165 2.69454 1.53711 6.62183L5.52978 9.72001C6.47882 6.88362 9.12976 4.77818 12.2497 4.77818Z" fill="#EA4335"/>
</g>
<defs>
<clipPath id="clip0_5_6338">
<rect width="24" height="24" fill="white" transform="translate(0.5)"/>
</clipPath>
</defs>
</svg>
