<svg width="24" height="24" viewBox="0 0 24 24" fill="none" xmlns="http://www.w3.org/2000/svg">
<path fill-rule="evenodd" clip-rule="evenodd" d="M16.8799 4.00879C18.5049 4.03435 19.4938 4.13623 20.2959 4.54492C21.2364 5.02431 22.0012 5.78988 22.4805 6.73047C23.0252 7.79997 23.0254 9.20015 23.0254 12L23.0166 13.8545C22.9911 15.4794 22.889 16.4675 22.4805 17.2695L22.3877 17.4443C21.9053 18.3051 21.1776 19.0056 20.2959 19.4551L20.0908 19.5508C19.3243 19.8801 18.3695 19.9678 16.8799 19.9912L15.0254 20H8.97559L7.12109 19.9912C5.63146 19.9678 4.6767 19.88 3.91016 19.5508L3.70605 19.4551C2.82407 19.0057 2.09575 18.3053 1.61328 17.4443L1.52051 17.2695C0.97572 16.2 0.974609 14.8 0.974609 12C0.974609 9.37459 0.975681 7.97996 1.4248 6.93457L1.52051 6.73047C1.53587 6.70033 1.55339 6.67138 1.56934 6.6416C1.57071 6.63732 1.57153 6.63294 1.57324 6.62891L1.5752 6.63086C2.02576 5.79413 2.70323 5.10165 3.53125 4.6377L3.70605 4.54492C4.50807 4.13652 5.49638 4.03433 7.12109 4.00879L8.97559 4H15.0254L16.8799 4.00879ZM4.56627 6.765C4.41757 6.65333 4.34322 6.5975 4.22801 6.5761C4.14416 6.56052 4.00567 6.57767 3.92815 6.61325C3.82165 6.66212 3.77553 6.71912 3.68331 6.83313C3.60078 6.93515 3.51904 7.04351 3.44286 7.14865C3.30354 7.34093 3.23388 7.43707 3.21465 7.55339C3.1985 7.65106 3.21514 7.76511 3.25853 7.85409C3.3102 7.96007 3.41097 8.03731 3.6125 8.19179L8.09668 11.6289L4.69727 14.1328C4.29676 14.4278 4.21144 14.9916 4.50684 15.3916C4.80232 15.7914 5.367 15.8769 5.76758 15.582L9.58691 12.7695L11.4668 14.207C11.7901 14.4541 12.2392 14.4541 12.5625 14.207L14.4414 12.7686L18.2617 15.582L18.3379 15.6328C18.731 15.865 19.2455 15.7665 19.5225 15.3916C19.799 15.0167 19.7413 14.4978 19.4033 14.1914L19.332 14.1328L15.9326 11.6289L20.4388 8.15725C20.6217 8.01634 20.7131 7.94589 20.7645 7.84121C20.8054 7.75774 20.824 7.63574 20.8096 7.54387C20.7916 7.42867 20.7345 7.34743 20.6202 7.18495C20.5326 7.06036 20.4379 6.93768 20.3396 6.82396C20.2383 6.70676 20.1876 6.64816 20.0823 6.60276C20.0038 6.56891 19.8718 6.55481 19.7879 6.57131C19.6754 6.59345 19.596 6.65313 19.4374 6.77251L12.0146 12.3584L4.56627 6.765Z" fill="white"/>
</svg>
