<svg width="20" height="20" viewBox="0 0 20 20" fill="none" xmlns="http://www.w3.org/2000/svg">
<g clip-path="url(#clip0_377_24)">
<path d="M10 20C15.5228 20 20 15.5228 20 10C20 4.47715 15.5228 0 10 0C4.47715 0 0 4.47715 0 10C0 15.5228 4.47715 20 10 20Z" fill="white"/>
<path d="M19.3782 13.4778C19.7802 12.3945 20.0002 11.2227 20.0002 9.99954C20.0002 8.77634 19.7802 7.60462 19.3782 6.5213H0.622206C0.220253 7.60462 0.000213623 8.77634 0.000213623 9.99954C0.000213623 11.2227 0.220253 12.3945 0.622206 13.4778L10.0002 14.3474L19.3782 13.4778Z" fill="#0052B4"/>
<path d="M10.0003 19.9996C14.2999 19.9996 17.9654 17.2858 19.3783 13.4778H0.622284C2.03521 17.2858 5.70064 19.9996 10.0003 19.9996Z" fill="#D80027"/>
</g>
<path d="M10 0.5C15.2467 0.5 19.5 4.7533 19.5 10C19.5 15.2467 15.2467 19.5 10 19.5C4.7533 19.5 0.5 15.2467 0.5 10C0.5 4.7533 4.7533 0.5 10 0.5Z" stroke="#787880" stroke-opacity="0.1"/>
<defs>
<clipPath id="clip0_377_24">
<path d="M0 10C0 4.47715 4.47715 0 10 0C15.5228 0 20 4.47715 20 10C20 15.5228 15.5228 20 10 20C4.47715 20 0 15.5228 0 10Z" fill="white"/>
</clipPath>
</defs>
</svg>
