<svg width="25" height="24" viewBox="0 0 25 24" fill="none" xmlns="http://www.w3.org/2000/svg">
<g clip-path="url(#clip0_5_6346)">
<path d="M0.5 1H24.5V12.2427C24.5 15.3369 22.8493 18.1963 20.1697 19.7436L12.5001 24.1724L4.83031 19.7436C2.15068 18.1963 0.500003 15.3369 0.500003 12.2427L0.5 1Z" fill="#FFDD2D"/>
<path fill-rule="evenodd" clip-rule="evenodd" d="M7.12109 6.79297V10.5235C7.63122 9.9474 8.55874 9.5576 9.61925 9.5576H10.7717V13.8942C10.7717 15.048 10.4582 16.1777 9.99307 16.7332H15.006C14.5419 16.1771 14.2291 15.0488 14.2291 13.8965V9.5576H15.3816C16.4421 9.5576 17.3696 9.9474 17.8797 10.5235V6.79297H7.12109Z" fill="#333333"/>
</g>
<defs>
<clipPath id="clip0_5_6346">
<rect width="24" height="24" fill="white" transform="translate(0.5)"/>
</clipPath>
</defs>
</svg>
