<svg width="24" height="24" viewBox="0 0 24 24" fill="none" xmlns="http://www.w3.org/2000/svg">
<path fill-rule="evenodd" clip-rule="evenodd" d="M12.0078 0.995422C14.8246 0.995725 17.1084 3.2801 17.1084 6.09698V6.22003C17.1082 6.71686 16.7049 7.12034 16.208 7.12042C15.7111 7.12034 15.3088 6.71686 15.3086 6.22003V6.09698C15.3086 4.27421 13.8305 2.79651 12.0078 2.7962C10.1849 2.7962 8.70703 4.27403 8.70703 6.09698V8.91925H16.7021L16.9082 8.92413C19.0217 9.03114 20.702 10.7792 20.7021 12.9193V17.1937L20.6973 17.3997C20.5933 19.4449 18.9534 21.0842 16.9082 21.1878L16.7021 21.1937H7.29688L7.09082 21.1878C5.0459 21.0839 3.40565 19.4446 3.30176 17.3997L3.29688 17.1937V12.9193C3.29703 10.8421 4.88062 9.13425 6.90625 8.93781V6.09698C6.90625 3.27991 9.19074 0.995422 12.0078 0.995422ZM7.29688 10.7191C6.08206 10.7192 5.09684 11.7044 5.09668 12.9193V17.1937C5.09682 18.4085 6.08205 19.3937 7.29688 19.3939H16.7021C17.9171 19.3939 18.9022 18.4086 18.9023 17.1937V12.9193C18.9022 11.7044 17.9171 10.7191 16.7021 10.7191H7.29688Z" fill="#3C3C43" fill-opacity="0.7"/>
<path d="M12.0049 13C12.8334 13.0002 13.5049 13.6717 13.5049 14.5C13.5049 14.8649 13.3735 15.1982 13.1565 15.4578C13.0911 15.536 13.0584 15.5751 13.0437 15.6029C13.028 15.6325 13.0223 15.6484 13.0153 15.6812C13.0088 15.7119 13.0088 15.7495 13.0088 15.8245V16.501C13.0087 17.053 12.5609 17.5008 12.0088 17.501C11.4566 17.501 11.0089 17.0531 11.0088 16.501V15.8345C11.0088 15.7587 11.0088 15.7208 11.0022 15.6898C10.9951 15.6567 10.9892 15.6407 10.9732 15.6109C10.9582 15.5829 10.925 15.5437 10.8584 15.4651C10.6378 15.2044 10.5039 14.8683 10.5039 14.5C10.5039 13.6716 11.1762 13 12.0049 13Z" fill="#3C3C43" fill-opacity="0.7"/>
</svg>
