<svg width="25" height="24" viewBox="0 0 25 24" fill="none" xmlns="http://www.w3.org/2000/svg">
<g clip-path="url(#clip0_5_6342)">
<path d="M12.25 24H13.25C18.69 24 21.4 24 23.08 22.32C24.75 20.64 24.75 17.92 24.75 12.5V11.48C24.75 6.08 24.75 3.36 23.08 1.68C21.4 0 18.68 0 13.25 0H12.25C6.81 0 4.1 0 2.42 1.68C0.75 3.36 0.75 6.08 0.75 11.5V12.52C0.75 17.92 0.75 20.64 2.43 22.32C4.11 24 6.83 24 12.25 24Z" fill="#0077FF"/>
<path d="M13.4646 17C7.99797 17 4.87992 13.6216 4.75 8H7.48829C7.57823 12.1261 9.59697 13.8739 11.196 14.2342V8H13.7744V11.5586C15.3534 11.4054 17.0123 9.78378 17.572 8H20.1504C19.9395 8.92512 19.5191 9.80106 18.9155 10.573C18.312 11.345 17.5382 11.9964 16.6426 12.4865C17.6423 12.9343 18.5253 13.5681 19.2333 14.3461C19.9413 15.1241 20.4582 16.0287 20.75 17H17.9118C17.6499 16.1563 17.1176 15.4011 16.3816 14.829C15.6456 14.2568 14.7386 13.8932 13.7744 13.7838V17H13.4646Z" fill="white"/>
</g>
<defs>
<clipPath id="clip0_5_6342">
<rect width="24" height="24" fill="white" transform="translate(0.5)"/>
</clipPath>
</defs>
</svg>
