<svg width="25" height="24" viewBox="0 0 25 24" fill="none" xmlns="http://www.w3.org/2000/svg">
<g clip-path="url(#clip0_5_6334)">
<path d="M12.5 23.9755C19.1139 23.9755 24.4755 18.6139 24.4755 12C24.4755 5.38606 19.1139 0.0244141 12.5 0.0244141C5.88605 0.0244141 0.524414 5.38606 0.524414 12C0.524414 18.6139 5.88605 23.9755 12.5 23.9755Z" fill="#FC3F1D"/>
<path d="M16.8333 19.5182H14.2044V6.51602H13.0333C10.8867 6.51602 9.76221 7.58936 9.76221 9.19158C9.76221 11.0094 10.5378 11.8516 12.1422 12.9249L13.4644 13.816L9.66443 19.516H6.83777L10.2578 14.4271C8.2911 13.0227 7.18443 11.6516 7.18443 9.33824C7.18443 6.44713 9.19999 4.48047 13.0155 4.48047H16.8155V19.5138H16.8333V19.5182Z" fill="white"/>
</g>
<defs>
<clipPath id="clip0_5_6334">
<rect width="24" height="24" fill="white" transform="translate(0.5)"/>
</clipPath>
</defs>
</svg>
