<svg width="17" height="16" viewBox="0 0 17 16" fill="none" xmlns="http://www.w3.org/2000/svg">
<path d="M8.50033 3.22917C8.8317 3.22917 9.10059 3.49806 9.10059 3.82943V7.4043H11.4163L11.4775 7.40755C11.7801 7.43824 12.0166 7.69391 12.0166 8.00456C12.0166 8.31524 11.7801 8.57087 11.4775 8.60156L11.4163 8.60482H8.50618C8.45073 8.60482 8.39702 8.59678 8.34603 8.58268C8.34083 8.5813 8.33555 8.58029 8.3304 8.57878C8.32646 8.57757 8.32259 8.57615 8.31868 8.57487C8.30315 8.56994 8.28807 8.56407 8.27311 8.55794C8.25064 8.54846 8.22899 8.53743 8.20801 8.52539C8.04179 8.43222 7.92354 8.26391 7.90332 8.0651L7.90006 8.00391V3.82943C7.90006 3.49806 8.16895 3.22917 8.50033 3.22917Z" fill="#3C3C43" fill-opacity="0.72"/>
<path fill-rule="evenodd" clip-rule="evenodd" d="M8.50618 0.667969C12.5563 0.667969 15.8395 3.95121 15.8395 8.0013C15.8395 12.0514 12.5563 15.3346 8.50618 15.3346C4.4561 15.3346 1.17285 12.0514 1.17285 8.0013C1.17285 3.95121 4.4561 0.667969 8.50618 0.667969ZM8.50618 1.86784C5.11884 1.86784 2.37272 4.61396 2.37272 8.0013C2.37272 11.3886 5.11884 14.1348 8.50618 14.1348C11.8935 14.1348 14.6396 11.3886 14.6396 8.0013C14.6396 4.61396 11.8935 1.86784 8.50618 1.86784Z" fill="#3C3C43" fill-opacity="0.72"/>
</svg>
