<svg width="16" height="16" viewBox="0 0 16 16" fill="none" xmlns="http://www.w3.org/2000/svg">
<g clip-path="url(#clip0_921_2163)">
<path fill-rule="evenodd" clip-rule="evenodd" d="M8.0057 0.666626C12.0557 0.666714 15.339 3.94993 15.339 7.99996C15.339 12.05 12.0557 15.3332 8.0057 15.3333C3.95561 15.3333 0.672363 12.05 0.672363 7.99996C0.672363 3.94987 3.95561 0.666626 8.0057 0.666626ZM7.99984 10.0631C7.63165 10.0631 7.33317 10.3616 7.33317 10.7298C7.3333 11.0979 7.63173 11.3964 7.99984 11.3964C8.36794 11.3964 8.66637 11.0979 8.6665 10.7298C8.6665 10.3616 8.36803 10.0631 7.99984 10.0631ZM7.99333 4.66663C7.72022 4.66663 7.56817 4.72592 7.40478 4.8359C7.26002 4.93348 7.17584 5.06756 7.1665 5.22066L7.16715 5.28772L7.34945 8.804C7.35476 8.93111 7.43387 9.04832 7.56364 9.13277L7.61572 9.16337C7.74156 9.23043 7.85979 9.26689 7.99333 9.26689C8.1268 9.26684 8.32189 9.20867 8.43864 9.13277L8.48551 9.09957C8.58738 9.01902 8.64888 8.91528 8.65348 8.804L8.83187 5.28772C8.8454 5.11532 8.75786 4.95731 8.59489 4.84436C8.43283 4.73212 8.2687 4.6667 7.99333 4.66663Z" fill="white"/>
</g>
<defs>
<clipPath id="clip0_921_2163">
<rect width="16" height="16" fill="white"/>
</clipPath>
</defs>
</svg>
