<svg width="16" height="16" viewBox="0 0 16 16" fill="none" xmlns="http://www.w3.org/2000/svg">
<g clip-path="url(#clip0_921_8055)">
<path fill-rule="evenodd" clip-rule="evenodd" d="M8.0057 0.666664C12.0557 0.666752 15.339 3.94996 15.339 8C15.339 12.05 12.0557 15.3332 8.0057 15.3333C3.95561 15.3333 0.672363 12.0501 0.672363 8C0.672363 3.94991 3.95561 0.666664 8.0057 0.666664ZM7.99984 10.0631C7.63165 10.0631 7.33317 10.3616 7.33317 10.7298C7.3333 11.0979 7.63173 11.3965 7.99984 11.3965C8.36794 11.3965 8.66637 11.0979 8.6665 10.7298C8.6665 10.3616 8.36803 10.0631 7.99984 10.0631ZM7.99333 4.66666C7.72022 4.66666 7.56817 4.72595 7.40478 4.83593C7.26002 4.93352 7.17584 5.0676 7.1665 5.2207L7.16715 5.28776L7.34945 8.80403C7.35476 8.93115 7.43387 9.04836 7.56364 9.13281L7.61572 9.16341C7.74156 9.23047 7.85979 9.26692 7.99333 9.26692C8.1268 9.26688 8.32189 9.20871 8.43864 9.13281L8.48551 9.09961C8.58738 9.01906 8.64888 8.91532 8.65348 8.80403L8.83187 5.28776C8.8454 5.11536 8.75786 4.95735 8.59489 4.8444C8.43283 4.73216 8.2687 4.66674 7.99333 4.66666Z" fill="#FF9500"/>
</g>
<defs>
<clipPath id="clip0_921_8055">
<rect width="16" height="16" fill="white"/>
</clipPath>
</defs>
</svg>
