<svg width="25" height="24" viewBox="0 0 25 24" fill="none" xmlns="http://www.w3.org/2000/svg">
<path d="M3.6792 9.44336C3.82979 9.23841 4.1599 9.30822 4.21436 9.55664C4.22128 9.58846 4.22119 9.65867 4.22119 9.79883C4.22137 13.9011 6.50945 17.469 9.87842 19.2969C11.1706 20.0566 12.5732 20.6476 14.0562 21.042C14.4624 21.15 14.6661 21.2043 14.729 21.2988C14.7879 21.3874 14.7949 21.5033 14.7476 21.5986C14.6969 21.7002 14.5155 21.7743 14.1528 21.9219C12.5469 22.5752 10.7912 22.9365 8.95068 22.9365C7.18641 22.9365 5.49946 22.6057 3.94775 22.0039C3.61019 21.873 3.5409 21.4309 3.771 21.1514C4.21998 20.6059 4.55336 19.9616 4.73291 19.2559C4.80297 18.9802 4.71768 18.6941 4.54932 18.4648C3.46809 16.9937 2.83545 15.1834 2.83545 13.2158C2.83551 11.9335 3.1073 10.7144 3.59619 9.61328C3.63867 9.51761 3.66002 9.46959 3.6792 9.44336Z" fill="white"/>
<path d="M15.021 1C19.9293 1.00022 23.9085 4.97939 23.9087 9.8877C23.9087 11.762 23.3343 13.4932 22.3452 14.9248C22.1793 15.1649 22.0966 15.2855 22.0522 15.4102C22.0128 15.5213 21.991 15.6663 21.9956 15.7842C22.0008 15.9164 22.0273 16.0038 22.0815 16.1777C22.226 16.6404 22.4377 17.0735 22.7046 17.4658C22.9693 17.8548 23.1018 18.0499 23.1108 18.1855C23.1202 18.3265 23.0849 18.4341 22.9937 18.542C22.9058 18.6455 22.7292 18.7076 22.3774 18.8311C20.9428 19.3345 19.4 19.6083 17.7935 19.6084C15.2373 19.6084 12.8436 18.9132 10.7886 17.7051C8.01579 16.2007 6.1333 13.264 6.1333 9.8877C6.13354 4.97925 10.1125 1 15.021 1Z" fill="white"/>
</svg>
