<svg width="16" height="16" viewBox="0 0 16 16" fill="none" xmlns="http://www.w3.org/2000/svg">
<g clip-path="url(#clip0_878_8039)">
<path fill-rule="evenodd" clip-rule="evenodd" d="M8.0057 0.666687C12.0557 0.666775 15.339 3.94999 15.339 8.00002C15.339 12.0501 12.0557 15.3333 8.0057 15.3334C3.95561 15.3334 0.672363 12.0501 0.672363 8.00002C0.672363 3.94993 3.95561 0.666687 8.0057 0.666687ZM10.1554 5.45445C9.86217 5.27253 9.48278 5.34571 9.27653 5.6133L9.23747 5.66929L6.89046 9.45119L6.11702 8.33335L6.07536 8.27932C5.85597 8.02248 5.47306 7.9684 5.18929 8.16473C4.90547 8.36121 4.82153 8.73867 4.98486 9.03452L5.02067 9.09247L5.90999 10.377C5.97987 10.4779 6.05746 10.5918 6.132 10.681C6.19779 10.7597 6.30659 10.8769 6.46989 10.9584L6.54281 10.9909C6.79218 11.088 7.07007 11.0808 7.31429 10.9714L7.3859 10.9356C7.54482 10.8461 7.6477 10.7238 7.70947 10.6419C7.77948 10.5491 7.85109 10.4312 7.91585 10.3268L10.3703 6.37242L10.4035 6.31252C10.5516 6.00891 10.4487 5.63644 10.1554 5.45445Z" fill="#34C759"/>
<path fill-rule="evenodd" clip-rule="evenodd" d="M8.0057 0.666687C12.0557 0.666775 15.339 3.94999 15.339 8.00002C15.339 12.0501 12.0557 15.3333 8.0057 15.3334C3.95561 15.3334 0.672363 12.0501 0.672363 8.00002C0.672363 3.94993 3.95561 0.666687 8.0057 0.666687ZM10.1554 5.45445C9.86217 5.27253 9.48278 5.34571 9.27653 5.6133L9.23747 5.66929L6.89046 9.45119L6.11702 8.33335L6.07536 8.27932C5.85597 8.02248 5.47306 7.9684 5.18929 8.16473C4.90547 8.36121 4.82153 8.73867 4.98486 9.03452L5.02067 9.09247L5.90999 10.377C5.97987 10.4779 6.05746 10.5918 6.132 10.681C6.19779 10.7597 6.30659 10.8769 6.46989 10.9584L6.54281 10.9909C6.79218 11.088 7.07007 11.0808 7.31429 10.9714L7.3859 10.9356C7.54482 10.8461 7.6477 10.7238 7.70947 10.6419C7.77948 10.5491 7.85109 10.4312 7.91585 10.3268L10.3703 6.37242L10.4035 6.31252C10.5516 6.00891 10.4487 5.63644 10.1554 5.45445Z" fill="#3C3C43" fill-opacity="0.25"/>
</g>
<defs>
<clipPath id="clip0_878_8039">
<rect width="16" height="16" fill="white"/>
</clipPath>
</defs>
</svg>
