<svg width="16" height="16" viewBox="0 0 16 16" fill="none" xmlns="http://www.w3.org/2000/svg">
<g clip-path="url(#clip0_878_3941)">
<path fill-rule="evenodd" clip-rule="evenodd" d="M8.0057 0.666656C12.0558 0.666656 15.339 3.9499 15.339 7.99999C15.339 12.0501 12.0558 15.3333 8.0057 15.3333C3.95561 15.3333 0.672363 12.0501 0.672363 7.99999C0.672363 3.9499 3.95561 0.666656 8.0057 0.666656ZM7.99984 3.33788C7.63174 3.33796 7.33321 3.63644 7.33317 4.00455V8.00194L7.33643 8.0703C7.36673 8.3693 7.59496 8.60927 7.88786 8.65884C7.92614 8.66568 7.96545 8.66991 8.0057 8.66991H10.7459L10.8136 8.66666C11.1499 8.63261 11.4126 8.34849 11.4126 8.00324C11.4126 7.65803 11.1499 7.37387 10.8136 7.33983L10.7459 7.33658H8.6665V4.00455C8.66646 3.63639 8.368 3.33788 7.99984 3.33788Z" fill="#3E87FF"/>
</g>
<defs>
<clipPath id="clip0_878_3941">
<rect width="16" height="16" fill="white"/>
</clipPath>
</defs>
</svg>
