<svg width="172" height="170" viewBox="0 0 172 170" fill="none" xmlns="http://www.w3.org/2000/svg">
<path d="M83.25 36.0061C84.8886 34.8108 87.1117 34.8108 88.7504 36.0061L95.7991 41.1479C96.6002 41.7323 97.5666 42.0463 98.5582 42.0444L107.283 42.0278C109.311 42.0239 111.11 43.3306 111.733 45.2608L114.413 53.5637C114.718 54.5073 115.315 55.3294 116.118 55.9107L123.187 61.0256C124.83 62.2147 125.517 64.3289 124.886 66.2567L122.174 74.5494C121.866 75.4919 121.866 76.508 122.174 77.4505L124.886 85.7431C125.517 87.6709 124.83 89.7852 123.187 90.9743L116.118 96.0892C115.315 96.6705 114.718 97.4925 114.413 98.4362L111.733 106.739C111.11 108.669 109.311 109.976 107.283 109.972L98.5582 109.956C97.5666 109.954 96.6002 110.268 95.7991 110.852L88.7504 115.994C87.1117 117.189 84.8886 117.189 83.25 115.994L76.2012 110.852C75.4001 110.268 74.4337 109.954 73.4422 109.956L64.7174 109.972C62.6891 109.976 60.8906 108.669 60.2675 106.739L57.5872 98.4362C57.2825 97.4925 56.6853 96.6705 55.882 96.0892L48.8137 90.9743C47.1705 89.7852 46.4835 87.6709 47.114 85.7431L49.8259 77.4505C50.1341 76.508 50.1341 75.4919 49.8259 74.5494L47.114 66.2567C46.4835 64.3289 47.1705 62.2147 48.8137 61.0256L55.882 55.9107C56.6853 55.3294 57.2825 54.5073 57.5872 53.5637L60.2675 45.2608C60.8906 43.3306 62.6891 42.0239 64.7174 42.0278L73.4422 42.0444C74.4338 42.0463 75.4001 41.7323 76.2012 41.1479L83.25 36.0061Z" fill="#332921"/>
<path d="M114.413 53.5644C114.718 54.508 115.316 55.3297 116.119 55.911L123.187 61.0263C124.83 62.2152 125.517 64.3291 124.887 66.2567L122.175 74.5497C121.867 75.4922 121.867 76.5086 122.175 77.4511L124.887 85.744C125.517 87.6717 124.83 89.7855 123.187 90.9745L116.119 96.0898C115.316 96.671 114.718 97.4928 114.413 98.4364L111.733 106.739C111.11 108.669 109.311 109.976 107.283 109.973L98.5586 109.956C97.5671 109.954 96.6008 110.268 95.7998 110.852L88.751 115.994C87.1123 117.189 84.8886 117.189 83.25 115.994L76.2012 110.852C75.4001 110.268 74.4339 109.954 73.4424 109.956L64.7178 109.973C62.6895 109.976 60.8907 108.669 60.2676 106.739L59.0459 102.955L112.954 49.0468L114.413 53.5644Z" fill="white" fill-opacity="0.1"/>
<path fill-rule="evenodd" clip-rule="evenodd" d="M112.955 49.0458L111.733 45.2609C111.13 43.3912 109.423 42.1065 107.473 42.0314L107.284 42.0275L98.5583 42.0441L98.1882 42.0304C97.328 41.9636 96.5005 41.6589 95.7995 41.1476L88.7507 36.006C87.1122 34.8109 84.8892 34.8109 83.2507 36.006L76.2019 41.1476L75.8943 41.3546C75.1591 41.8062 74.3106 42.0456 73.4431 42.0441L64.7175 42.0275C62.6894 42.0237 60.8914 43.3308 60.2683 45.2609L57.5876 53.5636L57.4597 53.9122C57.1303 54.7095 56.5853 55.4027 55.8825 55.9112L48.8142 61.0255L48.6628 61.1398C47.1292 62.3466 46.5033 64.3894 47.114 66.257L49.8259 74.5499L49.9275 74.9064C50.1296 75.745 50.0955 76.6258 49.8259 77.4503L47.114 85.7433L47.0593 85.9249C46.5282 87.8026 47.2225 89.8229 48.8142 90.9747L55.8825 96.089L56.1735 96.3185C56.8302 96.8782 57.3211 97.6109 57.5876 98.4366L59.0463 102.955L62.7534 99.2476L62.029 97.003C61.4579 95.2338 60.372 93.6778 58.9148 92.5323L58.6179 92.3087L51.5495 87.1935L54.2614 78.9015C54.8393 77.1344 54.8755 75.2375 54.3698 73.4542L54.2614 73.0988L51.5495 64.8068L58.6179 59.6915L58.9148 59.4679C60.372 58.3224 61.4579 56.7664 62.029 54.9972L64.7087 46.6945L73.4333 46.7111C75.4165 46.7148 77.3497 46.0868 78.9519 44.9181L86.0007 39.7765L93.0495 44.9181L93.3532 45.131C94.8929 46.163 96.708 46.7145 98.5671 46.7111L107.293 46.6945L109.248 52.7529L112.955 49.0458Z" fill="url(#paint0_linear_5_694)"/>
<path d="M114.414 53.5633C114.719 54.5068 115.316 55.3297 116.119 55.9109L123.188 61.0252C124.83 62.2143 125.517 64.329 124.887 66.2566L122.175 74.5496L122.074 74.9061C121.872 75.7446 121.905 76.6255 122.175 77.45L124.887 85.743C125.517 87.6706 124.83 89.7854 123.188 90.9744L116.119 96.0887L115.828 96.3182C115.171 96.8779 114.681 97.6106 114.414 98.4363L111.733 106.739L111.672 106.918C110.998 108.749 109.249 109.975 107.284 109.971L98.5586 109.955C97.5673 109.953 96.6007 110.267 95.7998 110.851L88.751 115.994L88.5957 116.102C87.0265 117.153 84.9755 117.152 83.4062 116.102L83.251 115.994L76.2021 110.851C75.5014 110.34 74.6734 110.036 73.8135 109.97L73.4434 109.955L64.7178 109.971L64.5283 109.969C62.6413 109.896 60.9822 108.69 60.3301 106.918L60.2686 106.739L59.0459 102.954L62.7529 99.2469L64.709 105.305L73.4336 105.289L73.8057 105.296C75.6576 105.366 77.4504 105.986 78.9521 107.082L86.001 112.223L93.0498 107.082L93.3535 106.869C94.8932 105.837 96.7083 105.285 98.5674 105.289L107.293 105.305L109.973 97.0027L110.094 96.6512C110.733 94.9113 111.878 93.3983 113.384 92.3084L120.451 87.1932L117.739 78.9012C117.123 77.0163 117.123 74.9833 117.739 73.0984L120.451 64.8064L113.384 59.6912C111.878 58.6014 110.733 57.0882 110.094 55.3484L109.973 54.9969L109.248 52.7518L112.955 49.0447L114.414 53.5633Z" fill="url(#paint1_linear_5_694)"/>
<g filter="url(#filter0_dddd_5_694)">
<path d="M85.4626 84.8361C85.7937 84.6389 86.2062 84.6389 86.5373 84.8361L94.253 89.4317C95.0498 89.9063 96.0255 89.1905 95.8122 88.2881L93.7745 79.6684C93.684 79.2856 93.8151 78.8844 94.1141 78.6288L100.888 72.8377C101.597 72.2317 101.223 71.0711 100.293 70.9933L91.3491 70.2445C90.9624 70.2121 90.6251 69.9691 90.4719 69.6125L86.9647 61.4464C86.6007 60.5989 85.3992 60.5989 85.0352 61.4464L81.528 69.6125C81.3748 69.9691 81.0375 70.2121 80.6508 70.2445L71.7066 70.9933C70.7772 71.0711 70.403 72.2317 71.112 72.8377L77.8858 78.6288C78.1848 78.8844 78.3159 79.2856 78.2254 79.6684L76.1877 88.2881C75.9744 89.1905 76.9502 89.9063 77.7469 89.4318L85.4626 84.8361Z" fill="white"/>
</g>
<defs>
<filter id="filter0_dddd_5_694" x="0.419312" y="0.279257" width="171.161" height="169.419" filterUnits="userSpaceOnUse" color-interpolation-filters="sRGB">
<feFlood flood-opacity="0" result="BackgroundImageFix"/>
<feColorMatrix in="SourceAlpha" type="matrix" values="0 0 0 0 0 0 0 0 0 0 0 0 0 0 0 0 0 0 127 0" result="hardAlpha"/>
<feOffset dy="0.921438"/>
<feGaussianBlur stdDeviation="3.3088"/>
<feColorMatrix type="matrix" values="0 0 0 0 1 0 0 0 0 1 0 0 0 0 1 0 0 0 0.16431 0"/>
<feBlend mode="normal" in2="BackgroundImageFix" result="effect1_dropShadow_5_694"/>
<feColorMatrix in="SourceAlpha" type="matrix" values="0 0 0 0 0 0 0 0 0 0 0 0 0 0 0 0 0 0 127 0" result="hardAlpha"/>
<feOffset dy="2.33038"/>
<feGaussianBlur stdDeviation="8.3682"/>
<feColorMatrix type="matrix" values="0 0 0 0 1 0 0 0 0 1 0 0 0 0 1 0 0 0 0.235166 0"/>
<feBlend mode="normal" in2="effect1_dropShadow_5_694" result="effect2_dropShadow_5_694"/>
<feColorMatrix in="SourceAlpha" type="matrix" values="0 0 0 0 0 0 0 0 0 0 0 0 0 0 0 0 0 0 127 0" result="hardAlpha"/>
<feOffset dy="4.75377"/>
<feGaussianBlur stdDeviation="17.0703"/>
<feColorMatrix type="matrix" values="0 0 0 0 1 0 0 0 0 1 0 0 0 0 1 0 0 0 0.294834 0"/>
<feBlend mode="normal" in2="effect2_dropShadow_5_694" result="effect3_dropShadow_5_694"/>
<feColorMatrix in="SourceAlpha" type="matrix" values="0 0 0 0 0 0 0 0 0 0 0 0 0 0 0 0 0 0 127 0" result="hardAlpha"/>
<feOffset dy="9.79186"/>
<feGaussianBlur stdDeviation="35.1617"/>
<feColorMatrix type="matrix" values="0 0 0 0 1 0 0 0 0 1 0 0 0 0 1 0 0 0 0.36569 0"/>
<feBlend mode="normal" in2="effect3_dropShadow_5_694" result="effect4_dropShadow_5_694"/>
<feBlend mode="normal" in="SourceGraphic" in2="effect4_dropShadow_5_694" result="shape"/>
</filter>
<linearGradient id="paint0_linear_5_694" x1="114" y1="44.5" x2="58.0003" y2="100.5" gradientUnits="userSpaceOnUse">
<stop stop-color="#CEB29B"/>
<stop offset="1" stop-color="#68523F"/>
</linearGradient>
<linearGradient id="paint1_linear_5_694" x1="126.163" y1="58.4351" x2="70.1631" y2="114.435" gradientUnits="userSpaceOnUse">
<stop stop-color="#68523F"/>
<stop offset="1" stop-color="#CEB29B"/>
</linearGradient>
</defs>
</svg>
