<svg width="126" height="126" viewBox="0 0 126 126" fill="none" xmlns="http://www.w3.org/2000/svg">
<path d="M64.5259 50.8899L69.2391 54.8757C69.2738 54.905 69.3261 54.8992 69.3534 54.8628L69.431 54.7598C71.2054 52.4008 72.338 49.6221 72.7182 46.6948C72.7272 46.6254 72.6454 46.5818 72.5917 46.6266C70.671 48.2297 68.4378 49.4572 66.0524 50.2111L64.5679 50.6802C64.4762 50.7092 64.4524 50.8278 64.5259 50.8899Z" fill="url(#paint0_linear_145_8947)"/>
<path d="M64.5136 53.9864L69.2535 57.9948C69.2815 58.0184 69.3229 58.0165 69.3486 57.9905C71.4602 55.8519 72.9065 53.1469 73.5125 50.2032L73.5906 49.8239C73.6052 49.753 73.5216 49.7041 73.4667 49.7511C71.2677 51.6325 68.6287 52.9395 65.7988 53.5452L64.5576 53.8108C64.4757 53.8284 64.4496 53.9323 64.5136 53.9864Z" fill="url(#paint1_linear_145_8947)"/>
<path d="M61.4257 50.8899L56.7124 54.8757C56.6777 54.905 56.6254 54.8992 56.5981 54.8628L56.5206 54.7598C54.7461 52.4008 53.6136 49.6221 53.2334 46.6948C53.2244 46.6254 53.3061 46.5818 53.3599 46.6266C55.2805 48.2297 57.5137 49.4572 59.8992 50.2111L61.3836 50.6802C61.4753 50.7092 61.4991 50.8278 61.4257 50.8899Z" fill="url(#paint2_linear_145_8947)"/>
<path d="M61.4378 53.9864L56.6979 57.9948C56.67 58.0184 56.6285 58.0165 56.6028 57.9905C54.4912 55.8519 53.0449 53.1469 52.4389 50.2032L52.3608 49.8239C52.3462 49.753 52.4298 49.7041 52.4847 49.7511C54.6837 51.6325 57.3227 52.9395 60.1526 53.5452L61.3938 53.8108C61.4757 53.8284 61.5018 53.9323 61.4378 53.9864Z" fill="url(#paint3_linear_145_8947)"/>
<path d="M62.4933 47.3294C62.8065 47.101 63.2313 47.101 63.5445 47.3294L64.8917 48.3121C65.0448 48.4238 65.2295 48.4838 65.419 48.4834L67.0865 48.4803C67.4741 48.4795 67.8178 48.7293 67.9369 49.0982L68.4492 50.685C68.5074 50.8654 68.6216 51.0225 68.7751 51.1336L70.126 52.1111C70.44 52.3384 70.5713 52.7425 70.4508 53.1109L69.9325 54.6958C69.8736 54.8759 69.8736 55.0701 69.9325 55.2503L70.4508 56.8352C70.5713 57.2036 70.44 57.6077 70.126 57.8349L68.7751 58.8125C68.6216 58.9236 68.5074 59.0807 68.4492 59.261L67.9369 60.8479C67.8178 61.2168 67.4741 61.4665 67.0865 61.4658L65.419 61.4626C65.2295 61.4623 65.0448 61.5223 64.8917 61.634L63.5445 62.6166C63.2313 62.8451 62.8065 62.8451 62.4933 62.6166L61.1461 61.634C60.993 61.5223 60.8083 61.4623 60.6188 61.4626L58.9513 61.4658C58.5637 61.4665 58.2199 61.2168 58.1009 60.8479L57.5886 59.261C57.5304 59.0807 57.4162 58.9236 57.2627 58.8125L55.9118 57.8349C55.5978 57.6077 55.4665 57.2036 55.587 56.8352L56.1053 55.2503C56.1642 55.0701 56.1642 54.8759 56.1053 54.6958L55.587 53.1109C55.4665 52.7425 55.5978 52.3384 55.9118 52.1111L57.2627 51.1336C57.4162 51.0225 57.5304 50.8654 57.5886 50.685L58.1009 49.0982C58.2199 48.7293 58.5637 48.4795 58.9513 48.4803L60.6188 48.4834C60.8083 48.4838 60.993 48.4238 61.1461 48.3121L62.4933 47.3294Z" fill="url(#paint4_linear_145_8947)"/>
<path opacity="0.35" d="M68.4493 50.6851C68.5076 50.8654 68.6218 51.0225 68.7753 51.1335L70.1261 52.1111C70.4401 52.3383 70.5715 52.7424 70.451 53.1108L69.9327 54.6958C69.8738 54.8759 69.8738 55.0701 69.9327 55.2502L70.451 56.8352C70.5715 57.2036 70.4401 57.6077 70.1261 57.835L68.7753 58.8125C68.6217 58.9236 68.5076 59.0807 68.4493 59.261L67.9371 60.8479C67.818 61.2168 67.4742 61.4666 67.0865 61.4658L65.4191 61.4626C65.2296 61.4623 65.0448 61.5224 64.8917 61.634L63.5446 62.6167C63.2314 62.8451 62.8064 62.8451 62.4933 62.6167L61.1464 61.634C60.9933 61.5224 60.8085 61.4623 60.619 61.4626L58.9515 61.4658C58.5639 61.4666 58.22 61.2168 58.101 60.8479L57.8673 60.1245L68.1705 49.8213L68.4493 50.6851Z" fill="#A05000"/>
<path fill-rule="evenodd" clip-rule="evenodd" d="M67.5979 50.394L67.4124 49.8198C67.3008 49.4739 66.9918 49.2327 66.6341 49.2046L66.5621 49.2019L65.1847 49.2043L65.1139 49.2016C64.9495 49.1889 64.7913 49.1309 64.6573 49.0332L63.5443 48.2212C63.2311 47.9928 62.8064 47.9928 62.4932 48.2212L61.3802 49.0332L61.3214 49.0725C61.1809 49.1588 61.0187 49.2046 60.8529 49.2043L59.4754 49.2019C59.0878 49.2011 58.7442 49.4509 58.6251 49.8198L58.2017 51.1306C58.1435 51.3109 58.0293 51.468 57.8758 51.5791L56.7598 52.3867C56.4458 52.6139 56.3146 53.018 56.4351 53.3864L56.8631 54.6958C56.922 54.8759 56.922 55.0701 56.8631 55.2502L56.4351 56.5595L56.4153 56.6289C56.3316 56.9777 56.4654 57.3462 56.7598 57.5593L57.8758 58.3669L57.9315 58.4106C58.057 58.5176 58.1508 58.6576 58.2017 58.8154L58.4397 59.5521L59.1482 58.8437L59.0506 58.5414C58.9342 58.1808 58.7058 57.8664 58.3987 57.6442L57.2828 56.8366L57.711 55.5275C57.8288 55.1673 57.8288 54.7787 57.711 54.4184L57.2828 53.1093L58.3987 52.3017C58.7058 52.0795 58.9342 51.7652 59.0506 51.4045L59.4737 50.0937L60.8511 50.0964C61.2302 50.0971 61.5996 49.977 61.9058 49.7536L63.0189 48.9419L64.1317 49.7536C64.4379 49.977 64.8073 50.0971 65.1864 50.0964L66.5638 50.0937L66.8894 51.1025L67.5979 50.394Z" fill="url(#paint5_linear_145_8947)"/>
<path d="M67.8359 51.1307C67.8942 51.311 68.0084 51.4682 68.1619 51.5792L69.2778 52.3868C69.5918 52.6141 69.723 53.0182 69.6025 53.3866L69.1746 54.6959L69.155 54.764C69.1164 54.9243 69.123 55.0928 69.1746 55.2504L69.6025 56.5597C69.7229 56.9281 69.5918 57.3322 69.2778 57.5594L68.1619 58.3671L68.1062 58.4108C67.9807 58.5177 67.8869 58.6577 67.8359 58.8156L67.4126 60.1263C67.2935 60.4952 66.9498 60.745 66.5623 60.7443L65.1848 60.7418C64.9953 60.7415 64.8106 60.8013 64.6575 60.913L63.5444 61.725L63.4846 61.765C63.1992 61.9399 62.8387 61.9399 62.5532 61.765L62.4934 61.725L61.3804 60.913C61.2464 60.8153 61.0882 60.7573 60.9238 60.7445L60.853 60.7418L59.4756 60.7443C59.1122 60.745 58.7875 60.5255 58.6501 60.1942L58.6252 60.1263L58.4397 59.5521L59.1482 58.8436L59.4739 59.8524L60.8513 59.8497C61.2303 59.849 61.5998 59.9692 61.906 60.1925L63.019 61.0043L64.1318 60.1925C64.438 59.9692 64.8075 59.849 65.1865 59.8497L66.564 59.8524L66.9871 58.5416C67.1035 58.1809 67.3319 57.8666 67.6389 57.6444L68.7549 56.8368L68.3267 55.5277C68.2089 55.1675 68.2089 54.7788 68.3267 54.4186L68.7549 53.1095L67.6389 52.3019C67.3319 52.0797 67.1035 51.7653 66.9871 51.4047L66.8894 51.1022L67.5979 50.3939L67.8359 51.1307Z" fill="url(#paint6_linear_145_8947)"/>
<path fill-rule="evenodd" clip-rule="evenodd" d="M68.1706 49.8215L67.9371 49.0981C67.818 48.7292 67.4741 48.4794 67.0865 48.4801L65.419 48.4833C65.2296 48.4837 65.045 48.4238 64.8919 48.3122L63.5447 47.3293C63.2316 47.1008 62.8066 47.1009 62.4935 47.3293L61.1463 48.3122L61.0875 48.3515C60.947 48.4378 60.7848 48.4836 60.619 48.4833L58.9515 48.4801C58.5638 48.4794 58.22 48.7292 58.1009 49.0981L57.5887 50.685C57.5305 50.8653 57.4163 51.0224 57.2628 51.1335L55.9119 52.111C55.5979 52.3382 55.4668 52.7423 55.5872 53.1108L56.1053 54.6957C56.1642 54.8758 56.1642 55.07 56.1053 55.2502L55.5872 56.8351L55.5674 56.9045C55.4837 57.2533 55.6175 57.6218 55.9119 57.8349L57.2628 58.8124C57.4163 58.9235 57.5305 59.0806 57.5887 59.2609L57.8675 60.1246L58.576 59.416L58.4376 58.987C58.3211 58.6263 58.0927 58.3122 57.7857 58.09L56.4349 57.1122L56.9532 55.5275C57.071 55.1673 57.071 54.7788 56.9532 54.4186L56.4349 52.8337L57.7857 51.8561C58.0928 51.6339 58.3211 51.3196 58.4376 50.9589L58.9498 49.3722L60.6173 49.3754C60.9963 49.3761 61.3657 49.256 61.6719 49.0326L63.0191 48.05L64.3663 49.0326C64.6724 49.256 65.0418 49.3761 65.4207 49.3754L67.0882 49.3722L67.4621 50.5299L68.1706 49.8215Z" fill="url(#paint7_linear_145_8947)"/>
<path d="M68.4492 50.6849C68.5074 50.8652 68.6217 51.0223 68.7751 51.1334L70.126 52.111C70.44 52.3382 70.5714 52.7423 70.4509 53.1107L69.9326 54.6957L69.9133 54.7638C69.8747 54.9241 69.8811 55.0925 69.9326 55.2501L70.4509 56.8351C70.5714 57.2035 70.44 57.6076 70.126 57.8348L68.7751 58.8124C68.6216 58.9235 68.5074 59.0806 68.4492 59.2609L67.937 60.8478L67.9121 60.9156C67.7748 61.247 67.4498 61.4664 67.0864 61.4657L65.4189 61.4625C65.2295 61.4622 65.0449 61.5223 64.8918 61.6339L63.5447 62.6166L63.4846 62.6566C63.1991 62.8316 62.8387 62.8316 62.5532 62.6566L62.4934 62.6166L61.1462 61.6339C61.0123 61.5362 60.8541 61.478 60.6897 61.4652L60.6189 61.4625L58.9514 61.4657L58.8794 61.463C58.5217 61.4349 58.2125 61.1936 58.1008 60.8478L57.8674 60.1244L58.5759 59.4156L58.9497 60.5739L60.6172 60.5707C60.9962 60.57 61.3657 60.6898 61.6719 60.9132L63.019 61.8961L64.3662 60.9132C64.6724 60.6899 65.0417 60.57 65.4207 60.5707L67.0881 60.5739L67.6006 58.9869C67.717 58.6263 67.9452 58.3121 68.2522 58.09L69.6033 57.1122L69.085 55.5275C68.9672 55.1672 68.9672 54.7788 69.085 54.4186L69.6033 52.8336L68.2522 51.8561C67.9452 51.6339 67.717 51.3195 67.6006 50.9589L67.4619 50.5297L68.1704 49.8212L68.4492 50.6849Z" fill="url(#paint8_linear_145_8947)"/>
<g filter="url(#filter0_dddd_145_8947)">
<path d="M62.9049 56.8493C62.9752 56.8075 63.0628 56.8075 63.1331 56.8493L64.7716 57.8253C64.9408 57.926 65.148 57.774 65.1027 57.5824L64.67 55.752C64.6507 55.6707 64.6786 55.5855 64.7421 55.5312L66.1805 54.3014C66.3311 54.1727 66.2516 53.9263 66.0542 53.9098L64.1549 53.7507C64.0728 53.7439 64.0012 53.6922 63.9686 53.6165L63.2239 51.8824C63.1466 51.7024 62.8914 51.7024 62.8141 51.8824L62.0693 53.6165C62.0368 53.6922 61.9652 53.7439 61.8831 53.7507L59.9837 53.9098C59.7864 53.9263 59.7069 54.1727 59.8574 54.3014L61.2959 55.5312C61.3594 55.5855 61.3872 55.6707 61.368 55.752L60.9353 57.5824C60.89 57.774 61.0972 57.926 61.2664 57.8253L62.9049 56.8493Z" fill="white"/>
</g>
<defs>
<filter id="filter0_dddd_145_8947" x="0.0449257" y="0.330719" width="125.948" height="125.578" filterUnits="userSpaceOnUse" color-interpolation-filters="sRGB">
<feFlood flood-opacity="0" result="BackgroundImageFix"/>
<feColorMatrix in="SourceAlpha" type="matrix" values="0 0 0 0 0 0 0 0 0 0 0 0 0 0 0 0 0 0 127 0" result="hardAlpha"/>
<feOffset dy="0.782688"/>
<feGaussianBlur stdDeviation="2.81056"/>
<feColorMatrix type="matrix" values="0 0 0 0 1 0 0 0 0 1 0 0 0 0 1 0 0 0 0.16431 0"/>
<feBlend mode="normal" in2="BackgroundImageFix" result="effect1_dropShadow_145_8947"/>
<feColorMatrix in="SourceAlpha" type="matrix" values="0 0 0 0 0 0 0 0 0 0 0 0 0 0 0 0 0 0 127 0" result="hardAlpha"/>
<feOffset dy="1.97948"/>
<feGaussianBlur stdDeviation="7.10812"/>
<feColorMatrix type="matrix" values="0 0 0 0 1 0 0 0 0 1 0 0 0 0 1 0 0 0 0.235166 0"/>
<feBlend mode="normal" in2="effect1_dropShadow_145_8947" result="effect2_dropShadow_145_8947"/>
<feColorMatrix in="SourceAlpha" type="matrix" values="0 0 0 0 0 0 0 0 0 0 0 0 0 0 0 0 0 0 127 0" result="hardAlpha"/>
<feOffset dy="4.03795"/>
<feGaussianBlur stdDeviation="14.4999"/>
<feColorMatrix type="matrix" values="0 0 0 0 1 0 0 0 0 1 0 0 0 0 1 0 0 0 0.294834 0"/>
<feBlend mode="normal" in2="effect2_dropShadow_145_8947" result="effect3_dropShadow_145_8947"/>
<feColorMatrix in="SourceAlpha" type="matrix" values="0 0 0 0 0 0 0 0 0 0 0 0 0 0 0 0 0 0 127 0" result="hardAlpha"/>
<feOffset dy="8.31741"/>
<feGaussianBlur stdDeviation="29.8671"/>
<feColorMatrix type="matrix" values="0 0 0 0 1 0 0 0 0 1 0 0 0 0 1 0 0 0 0.36569 0"/>
<feBlend mode="normal" in2="effect3_dropShadow_145_8947" result="effect4_dropShadow_145_8947"/>
<feBlend mode="normal" in="SourceGraphic" in2="effect4_dropShadow_145_8947" result="shape"/>
</filter>
<linearGradient id="paint0_linear_145_8947" x1="71.046" y1="47.6148" x2="72.1609" y2="50.0675" gradientUnits="userSpaceOnUse">
<stop stop-color="#FFF2A7"/>
<stop offset="0.349425" stop-color="#FFE860"/>
<stop offset="1" stop-color="#DEA517"/>
</linearGradient>
<linearGradient id="paint1_linear_145_8947" x1="71.0459" y1="50.7217" x2="73.0527" y2="56.3108" gradientUnits="userSpaceOnUse">
<stop stop-color="#FFF2A7"/>
<stop offset="0.160935" stop-color="#FFE860"/>
<stop offset="1" stop-color="#DEA517"/>
</linearGradient>
<linearGradient id="paint2_linear_145_8947" x1="54.9055" y1="47.6148" x2="53.7907" y2="50.0675" gradientUnits="userSpaceOnUse">
<stop stop-color="#FFF2A7"/>
<stop offset="0.349425" stop-color="#FFE860"/>
<stop offset="1" stop-color="#DEA517"/>
</linearGradient>
<linearGradient id="paint3_linear_145_8947" x1="54.9055" y1="50.7217" x2="52.8987" y2="56.3108" gradientUnits="userSpaceOnUse">
<stop stop-color="#FFF2A7"/>
<stop offset="0.160935" stop-color="#FFE860"/>
<stop offset="1" stop-color="#DEA517"/>
</linearGradient>
<linearGradient id="paint4_linear_145_8947" x1="57.0634" y1="49.0642" x2="64.5152" y2="64.1469" gradientUnits="userSpaceOnUse">
<stop stop-color="#E79500"/>
<stop offset="0.255208" stop-color="#EA9600"/>
<stop offset="0.46875" stop-color="#F3C500"/>
<stop offset="0.697917" stop-color="#FFC500"/>
<stop offset="0.838542" stop-color="#EAD51A"/>
<stop offset="1" stop-color="#E0B10D"/>
</linearGradient>
<linearGradient id="paint5_linear_145_8947" x1="68.3701" y1="48.9527" x2="57.6675" y2="59.6554" gradientUnits="userSpaceOnUse">
<stop stop-color="white"/>
<stop offset="1" stop-color="#FFEC64"/>
</linearGradient>
<linearGradient id="paint6_linear_145_8947" x1="70.4264" y1="50.9823" x2="59.4083" y2="61.7871" gradientUnits="userSpaceOnUse">
<stop stop-color="#FFED60"/>
<stop offset="1" stop-color="white"/>
</linearGradient>
<linearGradient id="paint7_linear_145_8947" x1="68.3703" y1="48.9526" x2="57.6675" y2="59.6554" gradientUnits="userSpaceOnUse">
<stop stop-color="#FFE860"/>
<stop offset="1" stop-color="#DAA914"/>
</linearGradient>
<linearGradient id="paint8_linear_145_8947" x1="70.6949" y1="51.6159" x2="59.992" y2="62.3186" gradientUnits="userSpaceOnUse">
<stop stop-color="#DEAD11"/>
<stop offset="1" stop-color="#FFED60"/>
</linearGradient>
</defs>
</svg>
