<svg width="128" height="126" viewBox="0 0 128 126" fill="none" xmlns="http://www.w3.org/2000/svg">
<path d="M65.9219 49.4928L70.6983 53.5319C70.73 53.5588 70.7779 53.5527 70.8021 53.5189L71.4288 52.6388C73.1334 50.245 73.9587 47.3358 73.7651 44.4034C73.7616 44.3504 73.6941 44.3302 73.662 44.3725C72.1764 46.3323 70.1556 47.8203 67.8432 48.6571L65.9488 49.3427C65.8851 49.3657 65.8701 49.449 65.9219 49.4928Z" fill="url(#paint0_linear_145_8972)"/>
<path d="M65.9781 52.6653L70.6839 56.6448C70.7236 56.6784 70.7835 56.6716 70.8148 56.63L71.2198 56.0903C73.0831 53.608 74.2567 50.677 74.6217 47.5947C74.6304 47.5208 74.5408 47.4776 74.4871 47.5291C72.5992 49.3412 70.3506 50.7747 67.9076 51.7125L66.0165 52.4384C65.9216 52.4748 65.9004 52.5997 65.9781 52.6653Z" fill="url(#paint1_linear_145_8972)"/>
<path d="M69.0132 54.179C68.8132 54.5821 66.9118 58.5129 69.0298 58.0893C70.0383 57.8876 71.1889 57.0354 72.1473 56.1616C73.5899 54.8464 74.3992 53.0137 74.8004 51.1033C74.8113 51.0516 74.7508 51.0152 74.7102 51.049L74.676 51.0775C73.3384 52.1918 71.8261 53.0774 70.1999 53.6988L69.0672 54.1315C69.0431 54.1408 69.0246 54.1559 69.0132 54.179Z" fill="url(#paint2_linear_145_8972)"/>
<path d="M62.0315 49.4928L57.2551 53.5319C57.2234 53.5588 57.1754 53.5527 57.1513 53.5189L56.5246 52.6388C54.8199 50.245 53.9946 47.3358 54.1883 44.4034C54.1918 44.3504 54.2592 44.3302 54.2913 44.3725C55.7769 46.3323 57.7978 47.8203 60.1102 48.6571L62.0046 49.3427C62.0683 49.3657 62.0832 49.449 62.0315 49.4928Z" fill="url(#paint3_linear_145_8972)"/>
<path d="M61.9753 52.6653L57.2695 56.6448C57.2297 56.6784 57.1699 56.6716 57.1386 56.63L56.7335 56.0903C54.8703 53.608 53.6967 50.677 53.3317 47.5947C53.3229 47.5208 53.4126 47.4776 53.4663 47.5291C55.3542 49.3412 57.6027 50.7747 60.0458 51.7125L61.9369 52.4384C62.0318 52.4748 62.0529 52.5997 61.9753 52.6653Z" fill="url(#paint4_linear_145_8972)"/>
<path d="M58.9402 54.179C59.1402 54.5821 61.0416 58.5129 58.9236 58.0893C57.9151 57.8876 56.7645 57.0354 55.8061 56.1616C54.3635 54.8464 53.5542 53.0137 53.1529 51.1033C53.1421 51.0516 53.2025 51.0152 53.2431 51.049L53.2774 51.0775C54.6149 52.1918 56.1273 53.0774 57.7535 53.6988L58.8861 54.1315C58.9102 54.1408 58.9287 54.1559 58.9402 54.179Z" fill="url(#paint5_linear_145_8972)"/>
<path d="M63.4924 47.3124C63.8059 47.0837 64.2312 47.0837 64.5448 47.3124L65.8934 48.2961C66.0466 48.408 66.2315 48.468 66.4213 48.4677L68.0905 48.4645C68.4786 48.4638 68.8227 48.7138 68.9419 49.0831L69.4547 50.6716C69.513 50.8522 69.6273 51.0095 69.781 51.1207L71.1333 52.0993C71.4477 52.3268 71.5792 52.7313 71.4585 53.1001L70.9397 54.6868C70.8807 54.8671 70.8807 55.0615 70.9397 55.2418L71.4585 56.8284C71.5792 57.1973 71.4477 57.6018 71.1333 57.8293L69.781 58.8079C69.6273 58.9191 69.513 59.0764 69.4547 59.2569L68.9419 60.8455C68.8227 61.2148 68.4786 61.4648 68.0905 61.4641L66.4213 61.4609C66.2315 61.4605 66.0466 61.5206 65.8934 61.6324L64.5448 62.6162C64.2312 62.8449 63.8059 62.8449 63.4924 62.6162L62.1438 61.6324C61.9905 61.5206 61.8056 61.4605 61.6159 61.4609L59.9466 61.4641C59.5585 61.4648 59.2144 61.2148 59.0952 60.8455L58.5824 59.2569C58.5241 59.0764 58.4098 58.9191 58.2561 58.8079L56.9038 57.8293C56.5894 57.6018 56.458 57.1973 56.5786 56.8284L57.0975 55.2418C57.1564 55.0615 57.1564 54.8671 57.0975 54.6868L56.5786 53.1001C56.458 52.7313 56.5894 52.3268 56.9038 52.0993L58.2561 51.1207C58.4098 51.0095 58.5241 50.8522 58.5824 50.6716L59.0952 49.0831C59.2144 48.7138 59.5585 48.4638 59.9466 48.4645L61.6159 48.4677C61.8056 48.468 61.9905 48.408 62.1438 48.2961L63.4924 47.3124Z" fill="url(#paint6_linear_145_8972)"/>
<path opacity="0.35" d="M69.4545 50.6716C69.5128 50.8522 69.6272 51.0096 69.7809 51.1209L71.1332 52.0994C71.4476 52.3269 71.579 52.7315 71.4584 53.1003L70.9396 54.6868C70.8806 54.8671 70.8806 55.0616 70.9396 55.242L71.4584 56.8284C71.579 57.1972 71.4476 57.6019 71.1332 57.8294L69.7809 58.8079C69.6272 58.9191 69.5128 59.0766 69.4545 59.2571L68.9418 60.8455C68.8226 61.2148 68.4785 61.4648 68.0905 61.4641L66.421 61.461C66.2313 61.4606 66.0465 61.5208 65.8932 61.6326L64.5446 62.6162C64.2311 62.8449 63.8058 62.8449 63.4923 62.6162L62.1437 61.6326C61.9904 61.5208 61.8053 61.4606 61.6156 61.461L59.9464 61.4641C59.5584 61.4649 59.2143 61.2148 59.0951 60.8455L58.8612 60.1214L69.1754 49.8071L69.4545 50.6716Z" fill="#0030A0"/>
<path fill-rule="evenodd" clip-rule="evenodd" d="M68.6025 50.3803L68.417 49.8054C68.3052 49.4592 67.9957 49.2179 67.6377 49.1897L67.5654 49.187L66.1865 49.1894L66.1157 49.1867C65.9511 49.174 65.7928 49.1159 65.6587 49.018L64.5444 48.2053C64.2309 47.9767 63.8056 47.9766 63.4922 48.2053L62.3782 49.018L62.3191 49.0576C62.1784 49.1439 62.016 49.1897 61.8501 49.1894L60.4712 49.187C60.0831 49.1862 59.7391 49.4361 59.6199 49.8054L59.196 51.1179L59.1716 51.1843C59.1086 51.3369 59.0043 51.4695 58.8699 51.5669L57.7527 52.3752C57.4383 52.6027 57.3068 53.0074 57.4275 53.3762L57.8562 54.6867L57.8755 54.7551C57.9142 54.9156 57.9078 55.0841 57.8562 55.2419L57.4275 56.5527L57.4079 56.622C57.3241 56.9712 57.4579 57.3401 57.7527 57.5534L58.8699 58.3618C59.0235 58.473 59.1377 58.6305 59.196 58.811L59.4342 59.5485L60.1436 58.8392L60.0459 58.5366C59.9293 58.1755 59.7007 57.8611 59.3933 57.6386L58.2761 56.83L58.7048 55.5195C58.8227 55.1589 58.8227 54.77 58.7048 54.4094L58.2761 53.0986L59.3933 52.2903C59.7007 52.0678 59.9293 51.7531 60.0459 51.3921L60.4695 50.0798L61.8484 50.0825C62.2278 50.0832 62.5977 49.9628 62.9043 49.7392L64.0183 48.9267L65.1323 49.7392C65.4388 49.9628 65.8088 50.0832 66.1882 50.0825L67.5671 50.0798L67.8932 51.0895L68.6025 50.3803Z" fill="url(#paint7_linear_145_8972)"/>
<path d="M68.8405 51.1178C68.8987 51.2983 69.013 51.4556 69.1666 51.5668L70.2838 52.3751C70.5982 52.6026 70.7296 53.0073 70.609 53.3761L70.1803 54.6866C70.1213 54.8669 70.1214 55.0615 70.1803 55.2418L70.609 56.5526C70.7296 56.9214 70.5982 57.3259 70.2838 57.5533L69.1666 58.3617C69.0129 58.4729 68.8987 58.6304 68.8405 58.8109L68.4169 60.1232L68.3917 60.191C68.2542 60.5227 67.9291 60.7425 67.5653 60.7418L66.1864 60.7391C65.9967 60.7388 65.8118 60.7988 65.6586 60.9105L64.5443 61.7233C64.2504 61.9376 63.8583 61.9511 63.5521 61.7635L63.4921 61.7233L62.3781 60.9105C62.244 60.8127 62.0855 60.7546 61.921 60.7418L61.85 60.7391L60.4711 60.7418L60.3988 60.7389C60.0647 60.7125 59.7729 60.5006 59.6447 60.191L59.6198 60.1232L59.4342 59.5485L60.1434 58.839L60.4694 59.8488L61.8483 59.8463C62.2277 59.8456 62.5976 59.9658 62.9042 60.1893L64.0182 61.0021L65.1322 60.1893C65.4387 59.9657 65.8087 59.8456 66.1881 59.8463L67.567 59.8488L67.9908 58.5365C68.1074 58.1755 68.3359 57.861 68.6432 57.6385L69.7604 56.83L69.3317 55.5194C69.2138 55.1588 69.2138 54.7699 69.3317 54.4093L69.7604 53.0985L68.6432 52.2902C68.3358 52.0677 68.1074 51.753 67.9908 51.392L67.8929 51.0895L68.6024 50.3802L68.8405 51.1178Z" fill="url(#paint8_linear_145_8972)"/>
<path d="M63.4923 47.3122C63.8058 47.0836 64.2313 47.0836 64.5448 47.3122L65.8931 48.2961C66.0272 48.3939 66.1856 48.452 66.3502 48.4648L66.4212 48.4675L68.0904 48.4643C68.4784 48.4636 68.8225 48.7137 68.9417 49.083L69.1754 49.8071L68.4664 50.5163L68.0921 49.3572L66.4229 49.3603C66.0435 49.361 65.6735 49.2409 65.367 49.0173L64.0184 48.0337L62.6698 49.0173C62.3632 49.2409 61.9935 49.361 61.6141 49.3603L59.9449 49.3572L59.432 50.9458C59.3154 51.3069 59.0868 51.6215 58.7794 51.844L57.4271 52.8225L57.9459 54.4092C58.0638 54.7698 58.0638 55.1587 57.9459 55.5193L57.4271 57.1059L58.7794 58.0845C59.0867 58.3069 59.3154 58.6214 59.432 58.9824L59.5706 59.4118L58.8612 60.1213L58.5823 59.2568C58.5313 59.0989 58.4374 58.9586 58.3118 58.8515L58.2559 58.8078L56.9036 57.8291C56.609 57.6158 56.4752 57.247 56.5589 56.8979L56.5784 56.8283L57.0972 55.2417C57.1488 55.0839 57.1555 54.9153 57.1168 54.7549L57.0972 54.6867L56.5784 53.1001C56.4579 52.7313 56.5893 52.3266 56.9036 52.0991L58.2559 51.1206C58.3904 51.0232 58.4949 50.8906 58.5579 50.738L58.5823 50.6716L59.095 49.083C59.2143 48.7138 59.5584 48.4637 59.9464 48.4643L61.6158 48.4675C61.7818 48.4678 61.9441 48.4218 62.0848 48.3354L62.1436 48.2961L63.4923 47.3122Z" fill="url(#paint9_linear_145_8972)"/>
<path d="M69.4547 50.6716C69.513 50.8521 69.6272 51.0094 69.7809 51.1206L71.1332 52.0991C71.4476 52.3266 71.579 52.7313 71.4584 53.1001L70.9396 54.6868L70.9203 54.7549C70.8816 54.9154 70.888 55.0839 70.9396 55.2417L71.4584 56.8284C71.579 57.1972 71.4475 57.6016 71.1332 57.8291L69.7809 58.8079L69.7252 58.8516C69.5996 58.9586 69.5057 59.0988 69.4547 59.2568L68.9418 60.8455L68.9169 60.9133C68.7794 61.245 68.4542 61.4646 68.0905 61.4639L66.4213 61.4607C66.2316 61.4603 66.0465 61.5205 65.8932 61.6323L64.5448 62.616L64.4847 62.6562C64.1785 62.8439 63.7863 62.8304 63.4923 62.616L62.1437 61.6323C62.0096 61.5345 61.8512 61.4762 61.6866 61.4634L61.6158 61.4607L59.9464 61.4639C59.5827 61.4645 59.2575 61.245 59.12 60.9133L59.0951 60.8455L58.8612 60.1211L59.5704 59.4119L59.9449 60.571L61.6141 60.5679C61.9935 60.5672 62.3633 60.6873 62.6698 60.9109L64.0184 61.8948L65.3671 60.9109C65.6736 60.6873 66.0435 60.5671 66.423 60.5679L68.0922 60.571L68.6051 58.9824C68.7217 58.6214 68.9501 58.3069 69.2574 58.0845L70.6097 57.106L70.0909 55.5193C69.973 55.1587 69.973 54.7698 70.0909 54.4092L70.6097 52.8225L69.2574 51.844C68.9501 51.6216 68.7217 51.3069 68.6051 50.9458L68.4662 50.5161L69.1754 49.8069L69.4547 50.6716Z" fill="url(#paint10_linear_145_8972)"/>
<g filter="url(#filter0_dddd_145_8972)">
<path d="M63.9042 56.8427C63.9746 56.8007 64.0623 56.8007 64.1327 56.8427L65.773 57.8196C65.9423 57.9205 66.1498 57.7683 66.1044 57.5765L65.6712 55.7441C65.652 55.6627 65.6798 55.5774 65.7434 55.5231L67.1834 54.292C67.3341 54.1631 67.2546 53.9164 67.057 53.8999L65.1556 53.7407C65.0734 53.7338 65.0017 53.6821 64.9691 53.6063L64.2236 51.8704C64.1462 51.6902 63.8908 51.6902 63.8134 51.8704L63.0678 53.6063C63.0352 53.6821 62.9635 53.7338 62.8813 53.7407L60.9799 53.8999C60.7823 53.9164 60.7028 54.1631 60.8535 54.292L62.2935 55.5231C62.3571 55.5774 62.3849 55.6627 62.3657 55.7441L61.9325 57.5765C61.8872 57.7683 62.0946 57.9205 62.264 57.8196L63.9042 56.8427Z" fill="white"/>
</g>
<defs>
<filter id="filter0_dddd_145_8972" x="0.976254" y="0.26287" width="126.084" height="125.714" filterUnits="userSpaceOnUse" color-interpolation-filters="sRGB">
<feFlood flood-opacity="0" result="BackgroundImageFix"/>
<feColorMatrix in="SourceAlpha" type="matrix" values="0 0 0 0 0 0 0 0 0 0 0 0 0 0 0 0 0 0 127 0" result="hardAlpha"/>
<feOffset dy="0.783535"/>
<feGaussianBlur stdDeviation="2.8136"/>
<feColorMatrix type="matrix" values="0 0 0 0 1 0 0 0 0 1 0 0 0 0 1 0 0 0 0.16431 0"/>
<feBlend mode="normal" in2="BackgroundImageFix" result="effect1_dropShadow_145_8972"/>
<feColorMatrix in="SourceAlpha" type="matrix" values="0 0 0 0 0 0 0 0 0 0 0 0 0 0 0 0 0 0 127 0" result="hardAlpha"/>
<feOffset dy="1.98162"/>
<feGaussianBlur stdDeviation="7.11582"/>
<feColorMatrix type="matrix" values="0 0 0 0 1 0 0 0 0 1 0 0 0 0 1 0 0 0 0.235166 0"/>
<feBlend mode="normal" in2="effect1_dropShadow_145_8972" result="effect2_dropShadow_145_8972"/>
<feColorMatrix in="SourceAlpha" type="matrix" values="0 0 0 0 0 0 0 0 0 0 0 0 0 0 0 0 0 0 127 0" result="hardAlpha"/>
<feOffset dy="4.04232"/>
<feGaussianBlur stdDeviation="14.5156"/>
<feColorMatrix type="matrix" values="0 0 0 0 1 0 0 0 0 1 0 0 0 0 1 0 0 0 0.294834 0"/>
<feBlend mode="normal" in2="effect2_dropShadow_145_8972" result="effect3_dropShadow_145_8972"/>
<feColorMatrix in="SourceAlpha" type="matrix" values="0 0 0 0 0 0 0 0 0 0 0 0 0 0 0 0 0 0 127 0" result="hardAlpha"/>
<feOffset dy="8.32641"/>
<feGaussianBlur stdDeviation="29.8994"/>
<feColorMatrix type="matrix" values="0 0 0 0 1 0 0 0 0 1 0 0 0 0 1 0 0 0 0.36569 0"/>
<feBlend mode="normal" in2="effect3_dropShadow_145_8972" result="effect4_dropShadow_145_8972"/>
<feBlend mode="normal" in="SourceGraphic" in2="effect4_dropShadow_145_8972" result="shape"/>
</filter>
<linearGradient id="paint0_linear_145_8972" x1="72.502" y1="46.2589" x2="73.6181" y2="48.7143" gradientUnits="userSpaceOnUse">
<stop stop-color="#A7C1FF"/>
<stop offset="0.349425" stop-color="#6090FF"/>
<stop offset="1" stop-color="#1753DE"/>
</linearGradient>
<linearGradient id="paint1_linear_145_8972" x1="72.502" y1="49.3839" x2="74.5109" y2="54.9791" gradientUnits="userSpaceOnUse">
<stop stop-color="#A7C1FF"/>
<stop offset="0.160935" stop-color="#6090FF"/>
<stop offset="1" stop-color="#1753DE"/>
</linearGradient>
<linearGradient id="paint2_linear_145_8972" x1="73.2137" y1="52.1958" x2="74.4586" y2="55.6792" gradientUnits="userSpaceOnUse">
<stop stop-color="#A7C1FF"/>
<stop offset="0.160935" stop-color="#6090FF"/>
<stop offset="1" stop-color="#1753DE"/>
</linearGradient>
<linearGradient id="paint3_linear_145_8972" x1="55.4513" y1="46.2589" x2="54.3353" y2="48.7143" gradientUnits="userSpaceOnUse">
<stop stop-color="#A7C1FF"/>
<stop offset="0.349425" stop-color="#6090FF"/>
<stop offset="1" stop-color="#1753DE"/>
</linearGradient>
<linearGradient id="paint4_linear_145_8972" x1="55.4514" y1="49.3839" x2="53.4425" y2="54.9791" gradientUnits="userSpaceOnUse">
<stop stop-color="#A7C1FF"/>
<stop offset="0.160935" stop-color="#6090FF"/>
<stop offset="1" stop-color="#1753DE"/>
</linearGradient>
<linearGradient id="paint5_linear_145_8972" x1="54.7396" y1="52.1958" x2="53.4947" y2="55.6792" gradientUnits="userSpaceOnUse">
<stop stop-color="#A7C1FF"/>
<stop offset="0.160935" stop-color="#6090FF"/>
<stop offset="1" stop-color="#1753DE"/>
</linearGradient>
<linearGradient id="paint6_linear_145_8972" x1="58.0566" y1="49.0491" x2="65.5165" y2="64.148" gradientUnits="userSpaceOnUse">
<stop stop-color="#0045E7"/>
<stop offset="0.255208" stop-color="#0046EA"/>
<stop offset="0.46875" stop-color="#0049F3"/>
<stop offset="0.697917" stop-color="#004DFF"/>
<stop offset="0.838542" stop-color="#1A58EA"/>
<stop offset="1" stop-color="#0D4CE0"/>
</linearGradient>
<linearGradient id="paint7_linear_145_8972" x1="69.3756" y1="48.9376" x2="58.6613" y2="59.6519" gradientUnits="userSpaceOnUse">
<stop stop-color="white"/>
<stop offset="1" stop-color="#6493FF"/>
</linearGradient>
<linearGradient id="paint8_linear_145_8972" x1="71.4338" y1="50.9693" x2="60.4039" y2="61.7856" gradientUnits="userSpaceOnUse">
<stop stop-color="#6090FF"/>
<stop offset="1" stop-color="white"/>
</linearGradient>
<linearGradient id="paint9_linear_145_8972" x1="69.3753" y1="48.9374" x2="58.661" y2="59.6515" gradientUnits="userSpaceOnUse">
<stop stop-color="#6090FF"/>
<stop offset="1" stop-color="#144FDA"/>
</linearGradient>
<linearGradient id="paint10_linear_145_8972" x1="71.7026" y1="51.6035" x2="60.9882" y2="62.3179" gradientUnits="userSpaceOnUse">
<stop stop-color="#114FDE"/>
<stop offset="1" stop-color="#6090FF"/>
</linearGradient>
</defs>
</svg>
