<svg width="126" height="126" viewBox="0 0 126 126" fill="none" xmlns="http://www.w3.org/2000/svg">
<path d="M62.4761 47.3821C62.7882 47.1544 63.2117 47.1544 63.5238 47.3821L64.8664 48.3614C65.019 48.4728 65.2031 48.5326 65.392 48.5322L67.0538 48.529C67.4402 48.5283 67.7827 48.7772 67.9014 49.1449L68.412 50.7264C68.47 50.9061 68.5838 51.0627 68.7368 51.1734L70.0831 52.1477C70.3961 52.3742 70.5269 52.7769 70.4069 53.1441L69.8903 54.7237C69.8316 54.9032 69.8316 55.0967 69.8903 55.2762L70.4069 56.8558C70.5269 57.223 70.3961 57.6257 70.0831 57.8522L68.7368 58.8265C68.5838 58.9372 68.47 59.0938 68.412 59.2735L67.9014 60.855C67.7827 61.2227 67.4402 61.4716 67.0538 61.4708L65.392 61.4677C65.2031 61.4673 65.019 61.5271 64.8664 61.6384L63.5238 62.6178C63.2117 62.8455 62.7882 62.8455 62.4761 62.6178L61.1335 61.6384C60.9809 61.5271 60.7968 61.4673 60.6079 61.4677L58.9461 61.4708C58.5597 61.4716 58.2172 61.2227 58.0985 60.855L57.5879 59.2735C57.5299 59.0938 57.4162 58.9372 57.2631 58.8265L55.9168 57.8522C55.6038 57.6257 55.473 57.223 55.593 56.8558L56.1096 55.2762C56.1683 55.0967 56.1683 54.9032 56.1096 54.7237L55.593 53.1441C55.473 52.7769 55.6038 52.3742 55.9168 52.1477L57.2631 51.1734C57.4162 51.0627 57.5299 50.9061 57.5879 50.7264L58.0985 49.1449C58.2172 48.7772 58.5597 48.5283 58.9461 48.529L60.6079 48.5322C60.7968 48.5326 60.9809 48.4728 61.1335 48.3614L62.4761 47.3821Z" fill="#2F2F31"/>
<path d="M68.4121 50.7266C68.4701 50.9063 68.5838 51.0629 68.7368 51.1736L70.0833 52.1477C70.3962 52.3742 70.5271 52.7771 70.407 53.1443L69.8904 54.7239C69.8317 54.9034 69.8317 55.0969 69.8904 55.2764L70.407 56.856C70.5271 57.2231 70.3962 57.6258 70.0833 57.8523L68.7368 58.8267C68.5838 58.9374 68.4701 59.094 68.4121 59.2737L67.9016 60.8552C67.7829 61.2229 67.4403 61.4717 67.054 61.4709L65.3921 61.4678C65.2032 61.4674 65.019 61.5274 64.8665 61.6387L63.5239 62.6179C63.2118 62.8456 62.7884 62.8456 62.4763 62.6179L61.1335 61.6387C60.981 61.5274 60.797 61.4674 60.6082 61.4678L58.9463 61.4709C58.56 61.4717 58.2173 61.2228 58.0986 60.8552L57.8657 60.134L68.134 49.8657L68.4121 50.7266Z" fill="white" fill-opacity="0.1"/>
<path fill-rule="evenodd" clip-rule="evenodd" d="M58.4362 59.5638L58.1991 58.8296C58.1483 58.6723 58.0549 58.5326 57.9298 58.426L57.8744 58.3826L56.7621 57.5776C56.4687 57.3653 56.3354 56.998 56.4189 56.6504L56.4384 56.5813L56.8651 55.2763C56.9165 55.1193 56.9229 54.9515 56.8844 54.7917L56.8651 54.7236L56.4384 53.4189C56.3183 53.0517 56.4491 52.6488 56.7621 52.4223L57.8744 51.6177C58.0083 51.5208 58.1122 51.3887 58.175 51.2368L58.1991 51.1706L58.621 49.864C58.7397 49.4964 59.0821 49.2476 59.4684 49.2483L60.8415 49.251C61.0303 49.2513 61.2143 49.1913 61.3668 49.0801L62.476 48.271C62.7881 48.0433 63.2117 48.0433 63.5238 48.271L64.633 49.0801C64.7664 49.1774 64.924 49.2355 65.0878 49.2483L65.1584 49.251L66.5314 49.2483L66.6032 49.251C66.9596 49.279 67.2675 49.5194 67.3788 49.864L67.5636 50.4364L66.8576 51.1425L66.5331 50.1372L65.1601 50.1396C64.7824 50.1403 64.4142 50.0209 64.109 49.7983L62.9999 48.9892L61.8908 49.7983C61.5856 50.0209 61.2175 50.1403 60.8397 50.1396L59.4669 50.1372L59.0451 51.4436C58.929 51.8031 58.7014 52.1162 58.3954 52.3376L57.2834 53.1426L57.7101 54.4475C57.8275 54.8065 57.8275 55.1935 57.7101 55.5525L57.2834 56.8574L58.3954 57.6623C58.7014 57.8838 58.929 58.1969 59.0451 58.5564L59.1424 58.8577L58.4362 59.5638Z" fill="url(#paint0_linear_145_9002)"/>
<path d="M67.8008 51.1708C67.8588 51.3504 67.9725 51.5071 68.1255 51.6178L69.2378 52.4225C69.5507 52.649 69.6816 53.0519 69.5615 53.4191L69.1348 54.7238C69.0761 54.9033 69.0761 55.097 69.1348 55.2765L69.5615 56.5814C69.6815 56.9486 69.5507 57.3513 69.2378 57.5778L68.1255 58.3827L68.0701 58.4261C67.945 58.5328 67.8516 58.6724 67.8008 58.8297L67.3789 60.1361C67.2602 60.5037 66.9178 60.7525 66.5315 60.7518L65.1584 60.7494C64.9696 60.7491 64.7856 60.8088 64.6331 60.92L63.5239 61.7291L63.4641 61.7692C63.1593 61.9559 62.7687 61.9425 62.4761 61.7291L61.3669 60.92C61.2335 60.8227 61.0759 60.7648 60.9121 60.7521L60.8416 60.7494L59.4685 60.7518C59.1064 60.7525 58.7826 60.5339 58.6458 60.2037L58.6211 60.1361L58.4363 59.5636L59.1423 58.8575L59.467 59.8629L60.8398 59.8605C61.2176 59.8598 61.5857 59.9794 61.8909 60.202L63 61.0111L64.1091 60.202C64.4143 59.9794 64.7824 59.8598 65.1602 59.8605L66.5332 59.8629L66.9548 58.5565C67.0709 58.197 67.2985 57.8839 67.6045 57.6625L68.7168 56.8575L68.29 55.5526C68.1727 55.1936 68.1727 54.8066 68.29 54.4476L68.7168 53.1427L67.6045 52.3378C67.2985 52.1163 67.0709 51.8032 66.9548 51.4437L66.8574 51.1425L67.5635 50.4364L67.8008 51.1708Z" fill="url(#paint1_linear_145_9002)"/>
<path fill-rule="evenodd" clip-rule="evenodd" d="M68.1342 49.8659L67.9014 49.1451C67.7901 48.8004 67.4821 48.5599 67.1257 48.5318L67.0539 48.5292L65.3921 48.5323L65.3215 48.5296C65.1577 48.5169 65 48.4591 64.8664 48.3617L63.5239 47.3822C63.2118 47.1545 62.7882 47.1545 62.4761 47.3822L61.1335 48.3617L61.0749 48.401C60.9349 48.487 60.7732 48.5326 60.6079 48.5323L58.946 48.5292C58.5597 48.5285 58.2173 48.7775 58.0986 49.1451L57.5879 50.7264C57.5299 50.9062 57.4162 51.063 57.2632 51.1737L55.9167 52.1478C55.6038 52.3743 55.473 52.777 55.593 53.1441L56.1096 54.7237C56.1683 54.9033 56.1683 55.097 56.1096 55.2765L55.593 56.8561L55.5735 56.9252C55.49 57.2728 55.6233 57.6401 55.9167 57.8524L57.2632 58.8265C57.4162 58.9372 57.5299 59.094 57.5879 59.2738L57.8658 60.1343L58.5719 59.4282L58.4338 59.0006C58.3178 58.6411 58.0902 58.328 57.7842 58.1066L56.438 57.1322L56.9546 55.5526C57.0719 55.1936 57.0719 54.8066 56.9546 54.4476L56.438 52.868L57.7842 51.8937C58.0902 51.6722 58.3178 51.3591 58.4338 50.9996L58.9443 49.4181L60.6062 49.4212C60.9839 49.422 61.3523 49.3023 61.6575 49.0797L63 48.1004L64.3425 49.0797C64.6477 49.3023 65.016 49.422 65.3938 49.4212L67.0557 49.4181L67.4281 50.572L68.1342 49.8659Z" fill="url(#paint2_linear_145_9002)"/>
<path d="M68.4124 50.7263C68.4704 50.906 68.5841 51.0629 68.7371 51.1736L70.0835 52.1477C70.3963 52.3742 70.5272 52.7769 70.4072 53.144L69.8906 54.7236L69.8713 54.7917C69.8329 54.9515 69.8393 55.1194 69.8906 55.2764L70.4072 56.856C70.5272 57.2231 70.3964 57.6258 70.0835 57.8523L68.7371 58.8264L68.6816 58.8701C68.5565 58.9767 68.4631 59.1164 68.4124 59.2737L67.9016 60.855C67.7829 61.2225 67.4404 61.4716 67.0542 61.4709L65.3923 61.4678C65.2035 61.4674 65.0193 61.5271 64.8667 61.6384L63.5242 62.6179L63.4644 62.658C63.1799 62.8323 62.8206 62.8322 62.5361 62.658L62.4763 62.6179L61.1338 61.6384C61.0003 61.5411 60.8425 61.4832 60.6787 61.4705L60.6082 61.4678L58.9463 61.4709L58.8745 61.4683C58.5419 61.4421 58.2513 61.2308 58.1235 60.9226L58.0989 60.855L57.866 60.1338L58.572 59.4277L58.9446 60.582L60.6064 60.5789C60.9842 60.5782 61.3526 60.6978 61.6577 60.9204L63.0002 61.8997L64.3428 60.9204C64.6479 60.6978 65.0163 60.5781 65.394 60.5789L67.0559 60.582L67.5664 59.0005C67.6825 58.641 67.91 58.3279 68.2161 58.1064L69.5623 57.1321L69.0457 55.5525C68.9283 55.1935 68.9283 54.8065 69.0457 54.4475L69.5623 52.8679L68.2161 51.8936C67.9101 51.6721 67.6825 51.3589 67.5664 50.9995L67.4282 50.5715L68.1343 49.8652L68.4124 50.7263Z" fill="url(#paint3_linear_145_9002)"/>
<g filter="url(#filter0_dddd_145_9002)">
<path d="M62.8863 56.8701C62.9564 56.8284 63.0437 56.8284 63.1137 56.8701L64.7467 57.8428C64.9153 57.9432 65.1218 57.7917 65.0767 57.6007L64.6454 55.7764C64.6263 55.6954 64.654 55.6105 64.7173 55.5564L66.1509 54.3308C66.301 54.2025 66.2218 53.9569 66.0251 53.9404L64.1321 53.782C64.0503 53.7751 63.9789 53.7237 63.9465 53.6482L63.2042 51.9199C63.1272 51.7406 62.8729 51.7406 62.7958 51.9199L62.0536 53.6482C62.0212 53.7237 61.9498 53.7751 61.8679 53.782L59.975 53.9404C59.7783 53.9569 59.6991 54.2025 59.8491 54.3308L61.2828 55.5564C61.346 55.6105 61.3738 55.6954 61.3546 55.7764L60.9234 57.6007C60.8782 57.7917 61.0847 57.9432 61.2533 57.8428L62.8863 56.8701Z" fill="white"/>
</g>
<defs>
<filter id="filter0_dddd_145_9002" x="0.237995" y="0.541804" width="125.524" height="125.155" filterUnits="userSpaceOnUse" color-interpolation-filters="sRGB">
<feFlood flood-opacity="0" result="BackgroundImageFix"/>
<feColorMatrix in="SourceAlpha" type="matrix" values="0 0 0 0 0 0 0 0 0 0 0 0 0 0 0 0 0 0 127 0" result="hardAlpha"/>
<feOffset dy="0.780053"/>
<feGaussianBlur stdDeviation="2.8011"/>
<feColorMatrix type="matrix" values="0 0 0 0 1 0 0 0 0 1 0 0 0 0 1 0 0 0 0.16431 0"/>
<feBlend mode="normal" in2="BackgroundImageFix" result="effect1_dropShadow_145_9002"/>
<feColorMatrix in="SourceAlpha" type="matrix" values="0 0 0 0 0 0 0 0 0 0 0 0 0 0 0 0 0 0 127 0" result="hardAlpha"/>
<feOffset dy="1.97281"/>
<feGaussianBlur stdDeviation="7.08419"/>
<feColorMatrix type="matrix" values="0 0 0 0 1 0 0 0 0 1 0 0 0 0 1 0 0 0 0.235166 0"/>
<feBlend mode="normal" in2="effect1_dropShadow_145_9002" result="effect2_dropShadow_145_9002"/>
<feColorMatrix in="SourceAlpha" type="matrix" values="0 0 0 0 0 0 0 0 0 0 0 0 0 0 0 0 0 0 127 0" result="hardAlpha"/>
<feOffset dy="4.02435"/>
<feGaussianBlur stdDeviation="14.4511"/>
<feColorMatrix type="matrix" values="0 0 0 0 1 0 0 0 0 1 0 0 0 0 1 0 0 0 0.294834 0"/>
<feBlend mode="normal" in2="effect2_dropShadow_145_9002" result="effect3_dropShadow_145_9002"/>
<feColorMatrix in="SourceAlpha" type="matrix" values="0 0 0 0 0 0 0 0 0 0 0 0 0 0 0 0 0 0 127 0" result="hardAlpha"/>
<feOffset dy="8.2894"/>
<feGaussianBlur stdDeviation="29.7665"/>
<feColorMatrix type="matrix" values="0 0 0 0 1 0 0 0 0 1 0 0 0 0 1 0 0 0 0.36569 0"/>
<feBlend mode="normal" in2="effect3_dropShadow_145_9002" result="effect4_dropShadow_145_9002"/>
<feBlend mode="normal" in="SourceGraphic" in2="effect4_dropShadow_145_9002" result="shape"/>
</filter>
<linearGradient id="paint0_linear_145_9002" x1="68.3333" y1="49" x2="57.6666" y2="59.6666" gradientUnits="userSpaceOnUse">
<stop stop-color="#858585"/>
<stop offset="1" stop-color="#363638"/>
</linearGradient>
<linearGradient id="paint1_linear_145_9002" x1="70.3827" y1="51.0228" x2="59.4017" y2="61.7912" gradientUnits="userSpaceOnUse">
<stop stop-color="#4F4F52"/>
<stop offset="1" stop-color="#9E9E9E"/>
</linearGradient>
<linearGradient id="paint2_linear_145_9002" x1="68.3333" y1="49.0001" x2="57.6666" y2="59.6667" gradientUnits="userSpaceOnUse">
<stop stop-color="#B3B3B3"/>
<stop offset="1" stop-color="#535355"/>
</linearGradient>
<linearGradient id="paint3_linear_145_9002" x1="70.6504" y1="51.6539" x2="59.9832" y2="62.3207" gradientUnits="userSpaceOnUse">
<stop stop-color="#535355"/>
<stop offset="1" stop-color="#B3B3B3"/>
</linearGradient>
</defs>
</svg>
