<svg width="16" height="16" viewBox="0 0 16 16" fill="none" xmlns="http://www.w3.org/2000/svg">
<path d="M7.56965 0.386882C7.88568 0.156358 8.31442 0.156358 8.63044 0.386883L9.98985 1.37851C10.1443 1.49121 10.3307 1.55176 10.522 1.5514L12.2046 1.5482C12.5958 1.54745 12.9426 1.79946 13.0628 2.17171L13.5797 3.77299C13.6385 3.95498 13.7536 4.11352 13.9086 4.22563L15.2717 5.21207C15.5886 5.44139 15.7211 5.84915 15.5995 6.22094L15.0765 7.82024C15.0171 8.002 15.0171 8.19797 15.0765 8.37973L15.5995 9.97903C15.7211 10.3508 15.5886 10.7586 15.2717 10.9879L13.9086 11.9743C13.7536 12.0864 13.6385 12.245 13.5797 12.427L13.0628 14.0283C12.9426 14.4005 12.5958 14.6525 12.2046 14.6518L10.522 14.6486C10.3307 14.6482 10.1443 14.7088 9.98985 14.8215L8.63044 15.8131C8.31442 16.0436 7.88568 16.0436 7.56965 15.8131L6.21025 14.8215C6.05575 14.7088 5.86937 14.6482 5.67814 14.6486L3.9955 14.6518C3.60433 14.6525 3.25747 14.4005 3.1373 14.0283L2.62038 12.427C2.56164 12.245 2.44645 12.0864 2.29152 11.9743L0.928351 10.9879C0.611453 10.7586 0.478966 10.3508 0.600551 9.97903L1.12356 8.37973C1.183 8.19797 1.183 8.002 1.12356 7.82024L0.600551 6.22094C0.478966 5.84915 0.611453 5.44139 0.928351 5.21207L2.29152 4.22563C2.44645 4.11352 2.56164 3.95498 2.62038 3.77299L3.1373 2.17171C3.25747 1.79946 3.60433 1.54745 3.9955 1.5482L5.67814 1.5514C5.86937 1.55176 6.05575 1.49121 6.21025 1.37851L7.56965 0.386882Z" fill="#787880" fill-opacity="0.12"/>
<g clip-path="url(#clip0_146_6359)">
<path fill-rule="evenodd" clip-rule="evenodd" d="M8.00195 5.24878C8.70613 5.24886 9.27706 5.81999 9.2771 6.52417V7.23462C9.78172 7.28542 10.1755 7.71174 10.1755 8.22974V9.29834L10.1743 9.34985C10.1483 9.86114 9.73836 10.271 9.22705 10.2969L9.17554 10.2983H6.82422L6.77271 10.2969C6.26148 10.2709 5.85141 9.86108 5.82544 9.34985L5.82422 9.29834V8.22974C5.8243 7.71049 6.22018 7.28348 6.72656 7.23438V6.52417C6.72661 5.81994 7.29771 5.24878 8.00195 5.24878ZM8.00122 8.25C7.79404 8.25 7.62598 8.41789 7.62598 8.625C7.62598 8.72433 7.66489 8.81433 7.72803 8.88135C7.74271 8.89693 7.7522 8.91707 7.7522 8.93848V9.12524C7.75223 9.26329 7.86415 9.37524 8.0022 9.37524C8.14022 9.37521 8.25216 9.26327 8.2522 9.12524V8.93604C8.25223 8.91487 8.26147 8.8949 8.27588 8.87939C8.33797 8.81257 8.37622 8.7234 8.37622 8.625C8.37622 8.41793 8.20835 8.25006 8.00122 8.25ZM8.00195 5.69897C7.54624 5.69897 7.1768 6.06847 7.17676 6.52417V7.22974H8.82715V6.52417C8.8271 6.06851 8.4576 5.69905 8.00195 5.69897Z" fill="#3C3C43" fill-opacity="0.25"/>
</g>
<defs>
<clipPath id="clip0_146_6359">
<rect width="6" height="6" fill="white" transform="translate(5 5)"/>
</clipPath>
</defs>
</svg>
