<svg width="16" height="16" viewBox="0 0 16 16" fill="none" xmlns="http://www.w3.org/2000/svg">
<path d="M8.96238 4.78319C9.13791 4.50218 9.50816 4.41629 9.78921 4.59179C10.07 4.76736 10.1553 5.13765 9.97996 5.41861L6.60822 10.8183C6.54655 10.9171 6.47937 11.0259 6.41421 11.112C6.34748 11.2001 6.23639 11.3293 6.06069 11.4114C5.84174 11.5137 5.59135 11.5269 5.36277 11.4486L5.29637 11.4225C5.14877 11.3569 5.04556 11.2586 4.97931 11.1881C4.90532 11.1094 4.82655 11.0084 4.7547 10.9167L3.10301 8.80793L3.06785 8.7578C2.90537 8.50064 2.96124 8.15707 3.20587 7.96548C3.46675 7.76134 3.84406 7.80687 4.04832 8.0677L5.64077 10.1022L8.96238 4.78319Z" fill="#3E87FF"/>
<path d="M11.9513 4.73567C12.1379 4.49572 12.4797 4.43097 12.743 4.59569C13.0063 4.7605 13.0974 5.0964 12.963 5.36913L12.9331 5.42317L9.31264 11.2064L9.27749 11.2565C9.09091 11.4967 8.74915 11.5613 8.48582 11.3965C8.22254 11.2316 8.13117 10.8958 8.26577 10.623L8.29572 10.5697L11.9162 4.78645L11.9513 4.73567Z" fill="#3E87FF"/>
</svg>
