<svg width="19" height="33" viewBox="0 0 19 33" fill="none" xmlns="http://www.w3.org/2000/svg">
<path d="M8 23.5C8 26.9837 6.02043 30.002 3.12598 31.498C9.63613 31.4445 15.1577 27.2446 17.1781 21.4094C18.0816 18.8 15.7614 16.5 13 16.5C10.2386 16.5 8 14.2614 8 11.5L8 1.5L8 23.5Z" fill="white"/>
<path d="M7 0.5L7 23.5C7 27.3612 4.26464 30.5837 0.625977 31.335C0.407498 31.3885 0.207031 31.5931 0.207031 31.8281C0.207031 32.0551 0.358286 32.2523 0.56543 32.3154C0.999561 32.4996 2.17241 32.5 3 32.5C7.15094 32.5 10.9319 30.9185 13.7754 28.3262C13.5094 28.1187 13.252 27.9013 13.001 27.6768C10.376 30.0267 6.91932 31.4668 3.12598 31.498C6.02043 30.002 8 26.9837 8 23.5L8 0.5L7 0.5Z" fill="white"/>
<path d="M7 0.5L7 23.5C7 27.3612 4.26464 30.5837 0.625977 31.335C0.407498 31.3885 0.207031 31.5931 0.207031 31.8281C0.207031 32.0551 0.358286 32.2523 0.56543 32.3154C0.999561 32.4996 2.17241 32.5 3 32.5C7.15094 32.5 10.9319 30.9185 13.7754 28.3262C13.5094 28.1187 13.252 27.9013 13.001 27.6768C10.376 30.0267 6.91932 31.4668 3.12598 31.498C6.02043 30.002 8 26.9837 8 23.5L8 0.5L7 0.5Z" fill="#787880" fill-opacity="0.1"/>
</svg>
