<svg width="24" height="24" viewBox="0 0 24 24" fill="none" xmlns="http://www.w3.org/2000/svg">
<path d="M6.01747 6.00502L5.78319 4.63902C5.64448 3.83023 5.57512 3.42584 5.67143 3.17126C5.81085 2.8027 6.15371 2.55038 6.54705 2.52686C6.81876 2.51061 7.18424 2.69708 7.91519 3.07002L19.8311 9.14959C21.6342 10.0696 22.5357 10.5295 22.827 11.1489C23.0806 11.688 23.0806 12.3121 22.827 12.8512C22.5357 13.4705 21.6342 13.9305 19.8311 14.8505L7.91519 20.93C7.18424 21.303 6.81876 21.4894 6.54705 21.4732C6.15371 21.4497 5.81085 21.1974 5.67143 20.8288C5.57512 20.5742 5.64448 20.1698 5.78319 19.361L6.01747 17.995C6.12315 17.3788 6.17599 17.0708 6.2504 16.7962C6.80801 14.7384 8.4157 13.131 10.4736 12.5739C10.7482 12.4995 11.0563 12.4468 11.6725 12.3412C11.871 12.3072 11.9703 12.2902 12.0004 12.278C12.25 12.1768 12.25 11.8233 12.0004 11.722C11.9703 11.7098 11.871 11.6928 11.6725 11.6588C11.0564 11.5533 10.7482 11.5005 10.4736 11.4262C8.4157 10.869 6.80801 9.26168 6.2504 7.2039C6.17599 6.9293 6.12315 6.62121 6.01747 6.00502Z" fill="white"/>
</svg>
