<svg width="25" height="25" viewBox="0 0 25 25" fill="none" xmlns="http://www.w3.org/2000/svg">
<path d="M12.8872 3.73929C13.2935 3.55774 13.7703 3.63064 14.103 3.92581L20.437 9.54984C20.8605 9.9258 21.2319 10.2557 21.5122 10.5508C21.8004 10.8543 22.0735 11.2023 22.23 11.6475C22.4568 12.2929 22.457 12.9973 22.23 13.6426C22.0733 14.0877 21.7996 14.436 21.5112 14.7393C21.2309 15.0341 20.8596 15.3637 20.436 15.7393L14.103 21.3565C13.7701 21.6517 13.2935 21.7229 12.8872 21.541C12.4809 21.3589 12.2194 20.9562 12.2192 20.5117V17.1719C10.2223 17.2677 8.84258 17.626 7.76416 18.1768C6.49503 18.8253 5.52689 19.7983 4.42432 21.2071C4.12706 21.5864 3.6209 21.7357 3.16455 21.5791C2.70817 21.4222 2.40006 20.9935 2.3999 20.5117C2.39996 17.6271 2.89031 14.5413 4.54834 12.1514C6.10296 9.91128 8.58315 8.4302 12.2192 8.17777V4.76956L12.231 4.6055C12.2867 4.22802 12.5316 3.89861 12.8872 3.73929ZM14.019 8.17777C14.019 9.12345 13.2867 9.90817 12.3433 9.97366C9.18812 10.1928 7.23621 11.4367 6.02783 13.1778C4.99346 14.6687 4.47266 16.5691 4.28467 18.6035C5.0655 17.7884 5.91307 17.101 6.9458 16.5733C8.31375 15.8746 9.96076 15.4783 12.1323 15.3741C12.6241 15.3505 13.105 15.5295 13.4614 15.8692C13.8175 16.2088 14.019 16.6798 14.019 17.1719V19.0235L19.2417 14.3926C19.6854 13.9992 19.9907 13.726 20.2065 13.4991L20.3423 13.3477C20.4551 13.2121 20.5054 13.1197 20.5317 13.045L20.562 12.9473C20.6216 12.7168 20.6114 12.4721 20.5317 12.2451L20.4956 12.1631C20.4491 12.0735 20.3661 11.958 20.2075 11.791C19.9916 11.5637 19.6854 11.2905 19.2417 10.8965L14.019 6.25784V8.17777Z" fill="#007AFF"/>
</svg>
