<svg width="25" height="25" viewBox="0 0 25 25" fill="none" xmlns="http://www.w3.org/2000/svg">
<path fill-rule="evenodd" clip-rule="evenodd" d="M17.1812 9.54871L18.0181 9.55359C18.2745 9.55791 18.5085 9.56567 18.7192 9.58289L19.0493 9.62C19.3769 9.66745 19.6966 9.75175 20.0054 9.90906L20.2329 10.036C20.7503 10.3533 21.1716 10.8086 21.4487 11.3524L21.522 11.5077C21.6781 11.872 21.7422 12.2506 21.7739 12.6386L21.7944 12.9716C21.7993 13.0885 21.802 13.2113 21.8042 13.3397L21.8081 14.1776V16.0907L21.8042 16.9276C21.802 17.0556 21.7993 17.1782 21.7944 17.2948L21.7739 17.6288C21.7422 18.017 21.6783 18.3961 21.522 18.7606L21.4487 18.9159C21.1717 19.4595 20.7501 19.9141 20.2329 20.2313L20.0054 20.3593C19.6967 20.5165 19.3767 20.5999 19.0493 20.6473L18.7192 20.6844C18.5085 20.7017 18.2745 20.7104 18.0181 20.7147L17.1812 20.7186H15.2671C14.8147 20.7186 14.4125 20.7195 14.062 20.705L13.729 20.6844C13.3409 20.6527 12.9616 20.5887 12.5972 20.4325L12.4419 20.3593C11.8984 20.0823 11.4437 19.6605 11.1265 19.1434L10.9985 18.9159C10.8412 18.6071 10.7569 18.2874 10.7095 17.9598L10.6733 17.6288C10.6561 17.4181 10.6474 17.184 10.6431 16.9276L10.6382 16.0907V14.1776C10.6382 13.5745 10.6389 13.06 10.6733 12.6386L10.7095 12.3085C10.7569 11.981 10.8413 11.6612 10.9985 11.3524L11.1265 11.1239C11.4437 10.607 11.8986 10.186 12.4419 9.90906L12.5972 9.83582C12.9616 9.67957 13.3409 9.6146 13.729 9.58289L14.062 9.56335C14.4125 9.54881 14.8147 9.54869 15.2671 9.54871H17.1812ZM15.311 11.5887C14.8191 11.5887 14.4535 11.5899 14.1626 11.6014L13.895 11.6161C13.657 11.6355 13.5225 11.6659 13.438 11.6962L13.3687 11.7264C13.1609 11.8323 12.986 11.9927 12.8647 12.1903L12.8169 12.2782C12.7877 12.3356 12.7544 12.4248 12.729 12.5995L12.7056 12.8046C12.6787 13.134 12.6782 13.5649 12.6782 14.2206V16.0468C12.6782 16.7022 12.6787 17.1334 12.7056 17.4628L12.729 17.6688C12.7544 17.8433 12.7877 17.9318 12.8169 17.9891L12.8647 18.0761C12.9861 18.2739 13.1607 18.4349 13.3687 18.5409L13.438 18.5712C13.5225 18.6015 13.6569 18.6318 13.895 18.6512L14.1626 18.6669C14.4535 18.6785 14.8191 18.6786 15.311 18.6786H17.1372C17.7929 18.6786 18.2238 18.6782 18.5532 18.6512L18.7583 18.6278C18.9329 18.6024 19.0223 18.5701 19.0796 18.5409L19.1665 18.493C19.3644 18.3717 19.5254 18.1971 19.6313 17.9891L19.6606 17.9188C19.6909 17.8343 19.7213 17.7002 19.7407 17.4628L19.7563 17.1942C19.7679 16.9035 19.769 16.5381 19.769 16.0468V14.2206C19.769 13.7285 19.7679 13.363 19.7563 13.0721L19.7407 12.8046C19.7212 12.5662 19.691 12.432 19.6606 12.3475L19.6313 12.2782C19.5254 12.0705 19.3642 11.8965 19.1665 11.7753L19.0796 11.7264C19.0223 11.6972 18.9331 11.664 18.7583 11.6386L18.5532 11.6161C18.2238 11.5892 17.7929 11.5887 17.1372 11.5887H15.311Z" fill="#3C3C43" fill-opacity="0.7"/>
<path d="M12.229 3.84265L12.5083 3.85632C13.8858 3.99613 14.9612 5.15976 14.9614 6.5741C14.9613 7.13727 14.5041 7.59461 13.9409 7.59461C13.3779 7.59441 12.9215 7.13715 12.9214 6.5741C12.9212 6.19213 12.611 5.88269 12.229 5.88269H8.46338C7.97142 5.88269 7.60583 5.88283 7.31494 5.89441L7.04736 5.91003C6.80932 5.92949 6.67479 5.9598 6.59033 5.99011L6.52002 6.01941C6.31242 6.12521 6.13934 6.28681 6.01807 6.48425L5.96826 6.57117C5.93908 6.62846 5.90676 6.71794 5.88135 6.89246L5.85889 7.09753C5.83197 7.42698 5.83057 7.85869 5.83057 8.51453V11.1395C5.83057 11.7172 5.8366 11.8596 5.85596 11.9569L5.90576 12.1386C6.05422 12.5504 6.40902 12.8608 6.84717 12.9481L6.93506 12.9608C7.04311 12.9703 7.23153 12.9725 7.66455 12.9725C8.22756 12.9727 8.68382 13.4291 8.68408 13.9921C8.68408 14.5553 8.22772 15.0124 7.66455 15.0126H7.56885C7.24059 15.0128 6.95483 15.0131 6.69776 14.9862L6.44873 14.9491C5.22087 14.7046 4.24463 13.7892 3.9126 12.5966L3.85401 12.3544C3.82221 12.1945 3.80728 12.0236 3.79932 11.8387L3.79151 11.2352V8.47058C3.79148 7.86734 3.79125 7.35296 3.82569 6.93152L3.86182 6.60242C3.90926 6.27462 3.99441 5.95439 4.15186 5.64539L4.27881 5.41785C4.5961 4.90069 5.05065 4.47901 5.59424 4.20203L5.75049 4.12976C6.11464 3.97375 6.49259 3.90855 6.88037 3.87683L7.21436 3.8573C7.56465 3.84277 7.9663 3.84264 8.41846 3.84265H12.229Z" fill="#3C3C43" fill-opacity="0.7"/>
</svg>
