<svg width="25" height="25" viewBox="0 0 25 25" fill="none" xmlns="http://www.w3.org/2000/svg">
<path fill-rule="evenodd" clip-rule="evenodd" d="M5.04377 9.90594C5.42672 9.59702 5.98822 9.62278 6.34076 9.98142C6.71665 10.364 6.71255 10.9804 6.33186 11.3581L6.33087 11.3591L5.63934 12.0305C3.63968 14.0121 3.63948 17.2532 5.63934 19.2346C7.60222 21.1794 10.7579 21.1793 12.7209 19.2346L12.7218 19.2336L13.5271 18.449C13.9084 18.0727 14.5216 18.0768 14.8973 18.4589C15.2734 18.8415 15.2691 19.4578 14.8884 19.8356L14.0821 20.6212C11.3638 23.3135 6.995 23.3131 4.27705 20.6202C1.50765 17.8761 1.50752 13.388 4.27705 10.6439L4.27804 10.6429L4.96957 9.97149L5.04377 9.90594Z" fill="#3C3C43" fill-opacity="0.7"/>
<path fill-rule="evenodd" clip-rule="evenodd" d="M14.0357 9.454C14.4169 9.07674 15.0318 9.08036 15.4078 9.46294C15.7835 9.84558 15.7786 10.462 15.3979 10.8396L10.3653 15.8268C9.98408 16.2045 9.36934 16.2005 8.99312 15.8178C8.61694 15.4351 8.62082 14.8179 9.00202 14.4402L14.0357 9.454Z" fill="#3C3C43" fill-opacity="0.7"/>
<path fill-rule="evenodd" clip-rule="evenodd" d="M10.577 4.4152C13.3071 1.96972 17.4897 2.05098 20.1229 4.65954C22.8924 7.40352 22.8922 11.8917 20.1229 14.6358L19.4304 15.3093C19.0492 15.6859 18.4361 15.6815 18.0602 15.2993C17.684 14.9166 17.6879 14.2994 18.0691 13.9217L18.7616 13.2492C20.7605 11.2675 20.7603 8.02736 18.7606 6.04613C16.7978 4.10149 13.643 4.10177 11.6801 6.04613L10.8738 6.82981C10.4926 7.20741 9.87879 7.20359 9.50261 6.82087C9.12681 6.43808 9.13141 5.82179 9.51251 5.44421L10.3178 4.65954L10.577 4.4152Z" fill="#3C3C43" fill-opacity="0.7"/>
</svg>
