<svg width="20" height="21" viewBox="0 0 20 21" fill="none" xmlns="http://www.w3.org/2000/svg">
<path d="M5.66984 2.34536C6.19822 2.29002 6.70903 2.45708 7.21851 2.69204C7.73162 2.92874 8.35733 3.29148 9.13176 3.73859L15.1628 7.22004L16.211 7.83283C16.5221 8.01966 16.7949 8.19146 17.0256 8.35448C17.4838 8.67823 17.8838 9.03694 18.0999 9.52229L18.1552 9.65656C18.4152 10.3352 18.397 11.0919 18.0999 11.7594L18.0103 11.936C17.7828 12.3341 17.4265 12.644 17.0256 12.9272C16.5641 13.2533 15.9374 13.6145 15.1628 14.0617L9.13176 17.5431C8.3572 17.9903 7.73166 18.353 7.21851 18.5897C6.7726 18.7953 6.3255 18.9489 5.86678 18.9469L5.66984 18.9355C4.94333 18.8592 4.27854 18.4972 3.82088 17.9329L3.73218 17.8174C3.41984 17.3875 3.30902 16.8617 3.25773 16.3029C3.20612 15.7402 3.20728 15.0171 3.20728 14.1227V7.159C3.20728 6.26466 3.20614 5.54157 3.25773 4.97883C3.3026 4.48974 3.39275 4.02585 3.62394 3.62954L3.73218 3.46434C4.16163 2.87326 4.80733 2.47902 5.52499 2.3649L5.66984 2.34536Z" fill="white"/>
</svg>
