<svg width="21" height="21" viewBox="0 0 21 21" fill="none" xmlns="http://www.w3.org/2000/svg">
<path d="M18.7759 12.8858C19.3281 12.8858 19.7759 13.3335 19.7759 13.8858L19.7749 14.4248C19.7723 14.9208 19.7596 15.2965 19.7017 15.6319L19.6646 15.8272C19.236 17.8363 17.6268 19.3942 15.5894 19.7461L15.4175 19.7705C15.009 19.8215 14.5298 19.8193 13.8511 19.8194C13.2988 19.8194 12.8502 19.3707 12.8501 18.8184C12.8505 18.2664 13.299 17.8184 13.8511 17.8184C14.4949 17.8183 14.8264 17.8161 15.0513 17.7979L15.2486 17.7744C16.4385 17.5689 17.3867 16.6823 17.6812 15.5264L17.732 15.292C17.7523 15.1742 17.7631 15.038 17.7691 14.8242L17.7759 13.8858L17.7818 13.7832C17.8331 13.2791 18.2583 12.8858 18.7759 12.8858ZM2.43215 12.8897C2.9843 12.8898 3.43309 13.3375 3.43313 13.8897C3.43318 14.5336 3.43448 14.865 3.45266 15.0899L3.47708 15.2871C3.68265 16.4771 4.56919 17.4253 5.72512 17.7198L5.9595 17.7705C6.07723 17.7909 6.21279 17.8016 6.4263 17.8076L7.36575 17.8145L7.46829 17.8203C7.97234 17.8717 8.36568 18.2969 8.36575 18.8145C8.36575 19.3668 7.91803 19.8145 7.36575 19.8145L6.82669 19.8135C6.33071 19.8109 5.95503 19.7981 5.61965 19.7403L5.42434 19.7031C3.41516 19.2746 1.8573 17.6654 1.5054 15.628L1.48001 15.4561C1.42903 15.0475 1.4322 14.5685 1.43215 13.8897C1.43212 13.3375 1.88009 12.89 2.43215 12.8897ZM7.36184 1.47171C7.91412 1.47168 8.36181 1.91943 8.36184 2.47171C8.36167 3.02381 7.91399 3.47166 7.36184 3.4717C6.71797 3.47175 6.38655 3.47404 6.16165 3.49221L5.9634 3.51565C4.77347 3.72132 3.82518 4.60873 3.53079 5.76467L3.48098 5.99905C3.46069 6.11679 3.4489 6.25228 3.4429 6.46585L3.43704 7.4053L3.43118 7.50784C3.37964 8.01164 2.9544 8.40513 2.43704 8.4053C1.88489 8.4053 1.43628 7.9574 1.43606 7.4053L1.43704 6.86526C1.43962 6.36928 1.4524 5.99361 1.51028 5.65823L1.54837 5.46292C1.97704 3.45385 3.58612 1.89679 5.62356 1.54495L5.79544 1.51956C6.20402 1.4686 6.68302 1.47175 7.36184 1.47171ZM14.3863 1.47659C14.8822 1.47917 15.2579 1.49195 15.5933 1.54983L15.7886 1.58694C17.7977 2.01558 19.3547 3.62563 19.7066 5.66311L19.732 5.83401C19.7829 6.24263 19.7798 6.72248 19.7798 7.40139C19.7796 7.95346 19.3319 8.40136 18.7798 8.40139C18.2278 8.40123 17.7801 7.95334 17.7798 7.40139C17.7798 6.75736 17.7775 6.42513 17.7593 6.20022L17.7359 6.00295C17.5303 4.81288 16.6429 3.86475 15.4868 3.57034L15.2525 3.51956C15.1347 3.49927 14.9992 3.48845 14.7857 3.48245L13.8462 3.47561L13.7437 3.47073C13.2397 3.41921 12.8462 2.99315 12.8462 2.47561C12.8463 1.92354 13.2942 1.47582 13.8462 1.47561L14.3863 1.47659Z" fill="white"/>
</svg>
