<svg width="20" height="20" viewBox="0 0 20 20" fill="none" xmlns="http://www.w3.org/2000/svg">
<g clip-path="url(#clip0_708_4984)">
<path fill-rule="evenodd" clip-rule="evenodd" d="M8.64665 0.833336C12.9575 0.833556 16.4518 4.32839 16.4518 8.63933L16.4421 9.04053C16.3544 10.7712 15.7015 12.3517 14.6663 13.6051L18.9486 17.8882C19.2415 18.1811 19.2415 18.6557 18.9486 18.9486C18.6557 19.2415 18.1811 19.2415 17.8882 18.9486L13.6043 14.6655C12.2557 15.7763 10.5292 16.4453 8.64583 16.4453L8.24463 16.4347C4.12028 16.2257 0.839897 12.8156 0.839844 8.63933L0.850423 8.23731C1.05286 4.24607 4.25336 1.04542 8.24463 0.843102L8.64665 0.833336ZM2.33968 8.63933C2.33974 12.1218 5.16345 14.9452 8.64583 14.9455C12.1284 14.9455 14.9519 12.1219 14.952 8.63933C14.952 5.15668 12.1285 2.33317 8.64583 2.33317C5.16342 2.33345 2.33968 5.15685 2.33968 8.63933Z" fill="#3C3C43" fill-opacity="0.7"/>
</g>
<defs>
<clipPath id="clip0_708_4984">
<rect width="20" height="20" fill="white"/>
</clipPath>
</defs>
</svg>
