<svg width="13" height="13" viewBox="0 0 13 13" fill="none" xmlns="http://www.w3.org/2000/svg">
<g clip-path="url(#clip0_670_9820)">
<path d="M5.30657 2.86089C5.69926 1.65232 5.89561 1.04803 6.19052 0.885901C6.44552 0.745715 6.7545 0.745715 7.0095 0.885901C7.30441 1.04803 7.50076 1.65232 7.89345 2.86089L7.95079 3.03738C8.06053 3.37512 8.1154 3.54399 8.21875 3.66893C8.31002 3.77925 8.42767 3.86472 8.56078 3.91743C8.71154 3.97712 8.8891 3.97712 9.24423 3.97712H9.4298C10.7006 3.97712 11.336 3.97712 11.5813 4.20749C11.7934 4.40669 11.8889 4.70056 11.8344 4.98639C11.7713 5.31697 11.2573 5.69044 10.2292 6.43738L10.0791 6.54646C9.79176 6.75519 9.64811 6.85956 9.56122 6.99646C9.48451 7.11735 9.43957 7.25565 9.43058 7.39855C9.4204 7.56037 9.47527 7.72924 9.58501 8.06698L9.64235 8.24347C10.035 9.45205 10.2314 10.0563 10.0881 10.3608C9.9642 10.6241 9.71422 10.8058 9.42553 10.8422C9.09164 10.8844 8.5776 10.5109 7.54953 9.764L7.3994 9.65492C7.1121 9.44619 6.96845 9.34182 6.8114 9.30149C6.67272 9.26589 6.5273 9.26589 6.38862 9.30149C6.23157 9.34182 6.08792 9.44619 5.80062 9.65492L5.65049 9.764C4.62242 10.5109 4.10838 10.8844 3.77449 10.8422C3.4858 10.8058 3.23582 10.6241 3.11192 10.3608C2.96863 10.0563 3.16498 9.45205 3.55767 8.24347L3.61501 8.06698C3.72475 7.72924 3.77962 7.56037 3.76944 7.39855C3.76045 7.25565 3.71551 7.11735 3.63879 6.99646C3.55191 6.85956 3.40826 6.75519 3.12096 6.54646L2.97083 6.43738C1.94276 5.69044 1.42872 5.31697 1.36566 4.98639C1.31113 4.70056 1.40661 4.40669 1.61874 4.20749C1.86406 3.97712 2.49945 3.97712 3.77022 3.97712H3.95579C4.31091 3.97712 4.48847 3.97712 4.63923 3.91743C4.77235 3.86472 4.89 3.77925 4.98126 3.66893C5.08462 3.54399 5.13949 3.37512 5.24923 3.03738L5.30657 2.86089Z" fill="#007AFF"/>
</g>
<defs>
<clipPath id="clip0_670_9820">
<rect width="12" height="12" fill="white" transform="translate(0.600098 0.280762)"/>
</clipPath>
</defs>
</svg>
