<svg width="20" height="21" viewBox="0 0 20 21" fill="none" xmlns="http://www.w3.org/2000/svg">
<path d="M15.817 2.62626C16.1106 2.37213 16.5455 2.38578 16.822 2.64661L16.8749 2.70194L17.0043 2.85657C17.6435 3.6517 18.175 4.75081 18.5522 6.05725C18.9544 7.45074 19.1666 9.03152 19.1666 10.6406C19.1666 12.2496 18.9544 13.8304 18.5522 15.2239C18.1499 16.6173 17.5716 17.7747 16.8749 18.5792L16.822 18.6346C16.5454 18.8954 16.1106 18.9091 15.817 18.6549C15.504 18.3837 15.4702 17.91 15.7413 17.597L15.9325 17.3585C16.3756 16.7646 16.7945 15.907 17.1117 14.8081C17.4709 13.5637 17.6667 12.1241 17.6667 10.6406C17.6667 9.15708 17.471 7.7175 17.1117 6.4731C16.7945 5.37415 16.3757 4.51659 15.9325 3.92265L15.7413 3.6842L15.6941 3.62317C15.4756 3.31218 15.5236 2.88048 15.817 2.62626Z" fill="white"/>
<path d="M13.7548 5.00745C14.0678 4.7369 14.5417 4.77061 14.8127 5.08313C15.3002 5.64614 15.7055 6.45675 15.9871 7.43176L16.0863 7.80367C16.3033 8.68417 16.4167 9.65522 16.4167 10.6406L16.4094 11.0613C16.3818 11.9009 16.2723 12.722 16.0863 13.4767L15.9871 13.8486C15.7056 14.8237 15.3002 15.6341 14.8127 16.1972C14.5417 16.51 14.0679 16.5442 13.7548 16.2737C13.4422 16.0026 13.4077 15.5288 13.6783 15.2158C13.982 14.8649 14.3039 14.2707 14.5458 13.4327L14.6296 13.1162C14.7882 12.4718 14.8859 11.7565 14.9104 11.0141L14.9169 10.6406C14.9169 9.76503 14.8148 8.91607 14.6296 8.16418L14.5458 7.84843C14.3039 7.01071 13.982 6.41617 13.6783 6.06539C13.4077 5.75233 13.442 5.27848 13.7548 5.00745Z" fill="white"/>
<path d="M7.9589 5.37854L8.13143 5.39644C8.52977 5.46049 8.89149 5.67529 9.13892 5.99947L9.21379 6.10933C9.37109 6.36906 9.41782 6.65623 9.43921 6.88977C9.46442 7.16537 9.46362 7.51472 9.46362 7.91028V13.3717C9.46362 13.767 9.4644 14.1159 9.43921 14.3914C9.4178 14.6251 9.37134 14.9128 9.21379 15.1726L9.13892 15.2825C8.8915 15.6066 8.5297 15.8207 8.13143 15.8847L7.9589 15.9034C7.59942 15.9213 7.28873 15.7774 7.05477 15.6463C6.81342 15.511 6.52619 15.312 6.20028 15.088L4.60116 13.9886C4.27521 13.7645 4.10519 13.6494 3.9729 13.5727L3.84839 13.5068C3.67112 13.4204 3.48438 13.3546 3.29256 13.3107L3.09888 13.274C2.92154 13.2475 2.73315 13.2456 2.20614 13.2456C2.12061 13.2456 2.01856 13.2458 1.93026 13.2399C1.85907 13.2351 1.76624 13.2245 1.66415 13.1951L1.55917 13.1585C1.30541 13.0548 1.09742 12.8654 0.969972 12.6254L0.92033 12.5197C0.861935 12.3766 0.845372 12.2435 0.83895 12.1486C0.833003 12.0603 0.833253 11.9583 0.833254 11.8727V9.40849C0.833253 9.32297 0.833022 9.22165 0.83895 9.13342C0.845348 9.03842 0.861866 8.90559 0.92033 8.76233L0.969972 8.65653C1.09743 8.41631 1.30513 8.22638 1.55917 8.12268L1.66415 8.08687C1.76631 8.0574 1.85902 8.04692 1.93026 8.04211C2.01857 8.03619 2.1206 8.03642 2.20614 8.03642C2.73311 8.03642 2.92155 8.03446 3.09888 8.00793L3.29256 7.97131C3.4844 7.92741 3.6711 7.8616 3.84839 7.77519L3.9729 7.70846C4.10519 7.63175 4.27526 7.5166 4.60116 7.2926L6.20028 6.19316L6.65926 5.88147C6.80192 5.78701 6.93408 5.70336 7.05477 5.6357C7.28876 5.50457 7.5993 5.3607 7.9589 5.37854Z" fill="white"/>
<path d="M11.6983 7.38293C11.9919 7.12878 12.4268 7.1425 12.7034 7.40328L12.7563 7.45862L12.8588 7.58557C13.0925 7.89787 13.2873 8.31444 13.4285 8.80302L13.4854 9.01623C13.6097 9.52038 13.675 10.0764 13.675 10.6406L13.671 10.8815C13.6525 11.4423 13.5695 11.9887 13.4285 12.4773C13.2672 13.0358 13.0355 13.5001 12.7563 13.8226L12.7034 13.8779C12.4268 14.1386 11.9918 14.1523 11.6983 13.8982C11.3854 13.627 11.3515 13.1533 11.6226 12.8403L11.7024 12.7312C11.79 12.5955 11.896 12.3772 11.9872 12.0615C12.0906 11.7032 12.1571 11.2812 12.172 10.8335L12.1752 10.6406C12.1752 10.1863 12.1219 9.75223 12.0295 9.37675L11.9872 9.21969C11.8961 8.90408 11.79 8.6857 11.7024 8.54993L11.6226 8.44088L11.5754 8.37984C11.3571 8.06889 11.405 7.63713 11.6983 7.38293Z" fill="white"/>
</svg>
