<svg width="26" height="28" viewBox="0 0 26 28" fill="none" xmlns="http://www.w3.org/2000/svg">
<path d="M10.7939 2.13184C12.2837 1.39907 14.0496 1.45169 15.5 2.28906L21.8926 5.97949C23.4394 6.8727 24.3926 8.52336 24.3926 10.3096V17.6904C24.3926 19.4766 23.4394 21.1273 21.8926 22.0205L15.5 25.7109C14.0496 26.5483 12.2837 26.6009 10.7939 25.8682L10.5 25.7109L4.10742 22.0205C2.56059 21.1273 1.60742 19.4766 1.60742 17.6904V10.3096C1.60742 8.52336 2.56059 6.8727 4.10742 5.97949L10.5 2.28906L10.7939 2.13184Z" fill="#007AFF"/>
<path d="M10.7939 2.13184C12.2837 1.39907 14.0496 1.45169 15.5 2.28906L21.8926 5.97949C23.4394 6.8727 24.3926 8.52336 24.3926 10.3096V17.6904C24.3926 19.4766 23.4394 21.1273 21.8926 22.0205L15.5 25.7109C14.0496 26.5483 12.2837 26.6009 10.7939 25.8682L10.5 25.7109L4.10742 22.0205C2.56059 21.1273 1.60742 19.4766 1.60742 17.6904V10.3096C1.60742 8.52336 2.56059 6.8727 4.10742 5.97949L10.5 2.28906L10.7939 2.13184Z" fill="url(#paint0_linear_438_687)"/>
<path d="M10.7939 2.13184C12.2837 1.39907 14.0496 1.45169 15.5 2.28906L21.8926 5.97949C23.4394 6.8727 24.3926 8.52336 24.3926 10.3096V17.6904C24.3926 19.4766 23.4394 21.1273 21.8926 22.0205L15.5 25.7109C14.0496 26.5483 12.2837 26.6009 10.7939 25.8682L10.5 25.7109L4.10742 22.0205C2.56059 21.1273 1.60742 19.4766 1.60742 17.6904V10.3096C1.60742 8.52336 2.56059 6.8727 4.10742 5.97949L10.5 2.28906L10.7939 2.13184Z" stroke="white" stroke-width="2"/>
<defs>
<linearGradient id="paint0_linear_438_687" x1="12.0816" y1="2" x2="12.0816" y2="26" gradientUnits="userSpaceOnUse">
<stop stop-color="white" stop-opacity="0.2"/>
<stop offset="1" stop-color="white" stop-opacity="0"/>
</linearGradient>
</defs>
</svg>
