<svg width="20" height="20" viewBox="0 0 20 20" fill="none" xmlns="http://www.w3.org/2000/svg">
<path fill-rule="evenodd" clip-rule="evenodd" d="M13.5114 2.30407C13.6722 2.28601 13.8348 2.28601 13.9956 2.30407C14.4338 2.35327 14.7862 2.55627 15.1024 2.80375C15.3983 3.03536 15.7256 3.35781 16.1017 3.72904L16.695 4.3223C16.8568 4.48979 17.0005 4.64713 17.1206 4.79675C17.3768 5.11607 17.588 5.47385 17.639 5.92061C17.6577 6.08413 17.6577 6.24943 17.639 6.41296C17.588 6.85955 17.3767 7.21677 17.1206 7.536C16.8805 7.83521 16.5458 8.16553 16.1603 8.54593L7.5568 17.0363C7.53598 17.0569 7.51547 17.0779 7.49495 17.0982C7.20025 17.3899 6.93241 17.6545 6.59163 17.8143C6.52745 17.8444 6.4615 17.8712 6.39469 17.8949C6.04005 18.0204 5.6641 18.02 5.24967 18.0194H5.07226C4.54823 18.0194 4.0929 18.0191 3.72298 17.9771C3.3283 17.9323 2.93805 17.8315 2.59342 17.5645C2.44911 17.4526 2.31952 17.3231 2.20768 17.1787C1.94071 16.8341 1.83989 16.4439 1.79508 16.0492C1.75309 15.6793 1.75274 15.2239 1.75276 14.6999V14.5738C1.75219 14.1686 1.75175 13.8012 1.87158 13.454C1.90163 13.3669 1.93732 13.2818 1.97819 13.1993C2.14119 12.87 2.403 12.6119 2.69189 12.3277C2.712 12.3079 2.73259 12.2883 2.75293 12.2683L11.4061 3.72904C11.7821 3.35795 12.1088 3.03531 12.4046 2.80375C12.7207 2.5563 13.0733 2.35332 13.5114 2.30407ZM3.8068 13.336C3.42119 13.7165 3.35938 13.7906 3.32259 13.8649C3.31002 13.8903 3.29847 13.9163 3.28922 13.9431C3.26217 14.0214 3.2526 14.1177 3.2526 14.6592C3.2526 15.2355 3.25392 15.6047 3.28515 15.8799C3.31465 16.1398 3.36319 16.221 3.39339 16.26C3.42785 16.3044 3.46775 16.3443 3.5122 16.3788C3.55119 16.409 3.63239 16.4575 3.89225 16.487C4.16743 16.5182 4.53669 16.5196 5.11295 16.5196H5.16178C5.71597 16.5196 5.81409 16.5089 5.8942 16.4805C5.91481 16.4732 5.93544 16.4654 5.95524 16.4561C6.03213 16.42 6.10873 16.3576 6.50293 15.9686L13.6237 8.94225L10.9406 6.29496L3.8068 13.336ZM13.679 3.79496C13.6288 3.8006 13.5362 3.82248 13.3291 3.98457C13.1094 4.15656 12.8437 4.41685 12.4298 4.82523L12.0091 5.2419L14.6914 7.88838L15.0771 7.50752C15.5008 7.08948 15.7715 6.82061 15.9504 6.59769C16.119 6.38755 16.1423 6.29353 16.1481 6.24287C16.1539 6.19243 16.1539 6.14113 16.1481 6.09069C16.1423 6.04007 16.1191 5.94624 15.9504 5.73587C15.7714 5.5129 15.5009 5.24344 15.0771 4.82523C14.6634 4.41692 14.3976 4.15654 14.1779 3.98457C13.9709 3.82258 13.8782 3.8006 13.828 3.79496C13.7784 3.78942 13.7285 3.7894 13.679 3.79496Z" fill="#3C3C43" fill-opacity="0.72"/>
</svg>
