<svg width="20" height="20" viewBox="0 0 20 20" fill="none" xmlns="http://www.w3.org/2000/svg">
<path d="M9.99981 11.5942C11.7882 11.5942 13.5273 12.0528 14.9461 12.8996C15.4602 13.2064 15.922 13.5586 16.3239 13.9461C17.4637 15.0456 16.718 16.7585 15.261 17.3796C11.9001 18.8122 8.10038 18.8122 4.73939 17.3796C3.28236 16.7585 2.53659 15.0456 3.67656 13.9461C4.07845 13.5586 4.54012 13.2065 5.05433 12.8996C6.47306 12.0529 8.21154 11.5943 9.99981 11.5942Z" fill="#3C3C43" fill-opacity="0.7"/>
<path d="M9.99981 0.833334C12.5311 0.833334 14.5831 2.88536 14.5831 5.41667C14.5831 7.94797 12.5311 10 9.99981 10C7.46859 9.9999 5.41647 7.94791 5.41647 5.41667C5.41647 2.88543 7.46859 0.833436 9.99981 0.833334Z" fill="#3C3C43" fill-opacity="0.7"/>
</svg>
