<svg width="24" height="24" viewBox="0 0 24 24" fill="none" xmlns="http://www.w3.org/2000/svg">
<path d="M11.7285 10.6523C11.9951 10.5994 12.2714 10.6265 12.5225 10.7305C12.7735 10.8345 12.9886 11.0104 13.1396 11.2363C13.2906 11.4622 13.371 11.7283 13.3711 12C13.3711 12.3645 13.2265 12.7149 12.9688 12.9727C12.711 13.2304 12.3606 13.375 11.9961 13.375C11.7244 13.3749 11.4583 13.2945 11.2324 13.1436C11.0065 12.9925 10.8306 12.7774 10.7266 12.5264C10.6226 12.2753 10.5955 11.999 10.6484 11.7324C10.7015 11.4658 10.8322 11.2205 11.0244 11.0283C11.2166 10.8361 11.4619 10.7054 11.7285 10.6523Z" fill="#3C3C43" fill-opacity="0.72"/>
<path fill-rule="evenodd" clip-rule="evenodd" d="M12 1C18.0751 1 23 5.92487 23 12C23 18.0751 18.0751 23 12 23C5.92487 23 1 18.0751 1 12C1 5.92487 5.92487 1 12 1ZM16.6025 6.79199C16.2692 6.6762 15.7586 6.85892 14.7373 7.22461L10.7061 8.66797C10.2452 8.85231 9.82659 9.12848 9.47559 9.47949C9.12458 9.8305 8.84841 10.2491 8.66406 10.71L7.23047 14.7295C6.86742 15.7476 6.68594 16.2571 6.80176 16.5898C6.90246 16.8791 7.13039 17.1061 7.41992 17.2061C7.75289 17.321 8.26141 17.1388 9.27832 16.7734L13.2871 15.333C13.748 15.1487 14.1666 14.8725 14.5176 14.5215C14.8686 14.1705 15.1448 13.7519 15.3291 13.291L16.7812 9.27539C17.1502 8.25522 17.3345 7.74482 17.2197 7.41113C17.1199 7.12103 16.8923 6.89276 16.6025 6.79199Z" fill="#3C3C43" fill-opacity="0.72"/>
</svg>
