<svg width="20" height="20" viewBox="0 0 20 20" fill="none" xmlns="http://www.w3.org/2000/svg">
<g clip-path="url(#clip0_1286_3148)">
<path fill-rule="evenodd" clip-rule="evenodd" d="M8.64665 0.833252C12.9575 0.833472 16.4518 4.3283 16.4518 8.63924L16.4421 9.04045C16.3544 10.7711 15.7015 12.3517 14.6663 13.6051L18.9486 17.8881C19.2415 18.181 19.2415 18.6556 18.9486 18.9485C18.6557 19.2414 18.1811 19.2414 17.8882 18.9485L13.6043 14.6654C12.2557 15.7762 10.5292 16.4452 8.64583 16.4452L8.24463 16.4347C4.12028 16.2256 0.839897 12.8155 0.839844 8.63924L0.850423 8.23722C1.05286 4.24598 4.25336 1.04534 8.24463 0.843018L8.64665 0.833252ZM2.33968 8.63924C2.33974 12.1217 5.16345 14.9451 8.64583 14.9454C12.1284 14.9454 14.9519 12.1218 14.952 8.63924C14.952 5.1566 12.1285 2.33309 8.64583 2.33309C5.16342 2.33336 2.33968 5.15676 2.33968 8.63924Z" fill="#3C3C43" fill-opacity="0.72"/>
</g>
<defs>
<clipPath id="clip0_1286_3148">
<rect width="20" height="20" fill="white"/>
</clipPath>
</defs>
</svg>
