<svg width="16" height="16" viewBox="0 0 16 16" fill="none" xmlns="http://www.w3.org/2000/svg">
<path d="M0 8C0 3.58172 3.58172 0 8 0C12.4183 0 16 3.58172 16 8C16 12.4183 12.4183 16 8 16C3.58172 16 0 12.4183 0 8Z" fill="#FFA100"/>
<path d="M8 0.5C12.1421 0.5 15.5 3.85787 15.5 8C15.5 12.1421 12.1421 15.5 8 15.5C3.85787 15.5 0.5 12.1421 0.5 8C0.5 3.85787 3.85787 0.5 8 0.5Z" stroke="#787880" stroke-opacity="0.16"/>
<g clip-path="url(#clip0_749_11433)">
<path fill-rule="evenodd" clip-rule="evenodd" d="M8.00651 1.58398C11.5503 1.58398 14.4232 4.45682 14.4232 8.00065C14.4232 11.5445 11.5503 14.4173 8.00651 14.4173C4.46268 14.4173 1.58984 11.5445 1.58984 8.00065C1.58984 4.45682 4.46268 1.58398 8.00651 1.58398ZM8.00138 3.92131C7.6793 3.92137 7.41809 4.18254 7.41805 4.50464V8.00236L7.4209 8.06217C7.44741 8.3238 7.64712 8.53377 7.9034 8.57715C7.9369 8.58313 7.97129 8.58683 8.00651 8.58683H10.4042L10.4635 8.58398C10.7577 8.55419 10.9875 8.30559 10.9875 8.0035C10.9875 7.70143 10.7577 7.4528 10.4635 7.42301L10.4042 7.42017H8.58472V4.50464C8.58468 4.1825 8.32353 3.92131 8.00138 3.92131Z" fill="white"/>
</g>
<defs>
<clipPath id="clip0_749_11433">
<rect width="14" height="14" fill="white" transform="translate(1 1)"/>
</clipPath>
</defs>
</svg>
