<svg width="16" height="16" viewBox="0 0 16 16" fill="none" xmlns="http://www.w3.org/2000/svg">
<path d="M0 8C0 3.58172 3.58172 0 8 0C12.4183 0 16 3.58172 16 8C16 12.4183 12.4183 16 8 16C3.58172 16 0 12.4183 0 8Z" fill="#007AFF"/>
<path d="M8 0.5C12.1421 0.5 15.5 3.85787 15.5 8C15.5 12.1421 12.1421 15.5 8 15.5C3.85787 15.5 0.5 12.1421 0.5 8C0.5 3.85787 3.85787 0.5 8 0.5Z" stroke="#787880" stroke-opacity="0.16"/>
<g clip-path="url(#clip0_749_11703)">
<path fill-rule="evenodd" clip-rule="evenodd" d="M8.00651 1.58398C11.5503 1.58406 14.4232 4.45687 14.4232 8.00065C14.4232 11.5444 11.5503 14.4172 8.00651 14.4173C4.46268 14.4173 1.58984 11.5445 1.58984 8.00065C1.58984 4.45682 4.46268 1.58398 8.00651 1.58398ZM9.88753 5.77327C9.63092 5.61409 9.29896 5.67813 9.11849 5.91227L9.08431 5.96126L7.03068 9.27043L6.35392 8.29232L6.31746 8.24504C6.1255 8.0203 5.79045 7.97298 5.54215 8.14478C5.29381 8.31669 5.22036 8.64697 5.36328 8.90584L5.39461 8.95654L6.17277 10.0805C6.23391 10.1688 6.3018 10.2685 6.36702 10.3465C6.42459 10.4154 6.51979 10.5179 6.66268 10.5892L6.72648 10.6177C6.94468 10.7026 7.18784 10.6963 7.40153 10.6006L7.46419 10.5693C7.60324 10.491 7.69327 10.384 7.74731 10.3123C7.80857 10.2311 7.87123 10.1279 7.9279 10.0366L10.0755 6.5765L10.1046 6.52409C10.2342 6.25843 10.1441 5.93251 9.88753 5.77327Z" fill="white"/>
</g>
<defs>
<clipPath id="clip0_749_11703">
<rect width="14" height="14" fill="white" transform="translate(1 1)"/>
</clipPath>
</defs>
</svg>
