<svg width="24" height="24" viewBox="0 0 24 24" fill="none" xmlns="http://www.w3.org/2000/svg">
<path d="M11.513 3.09866C11.1067 2.91711 10.6299 2.99002 10.2971 3.28519L3.96315 8.90921C3.53971 9.28517 3.16824 9.61512 2.88796 9.91019C2.59976 10.2137 2.3267 10.5617 2.17018 11.0069C1.94336 11.6523 1.94319 12.3566 2.17018 13.002C2.32689 13.4471 2.60059 13.7953 2.88893 14.0987C3.16928 14.3935 3.54061 14.7231 3.96413 15.0987L10.2971 20.7159C10.6301 21.0111 11.1066 21.0823 11.513 20.9004C11.9192 20.7183 12.1808 20.3156 12.1809 19.8711V16.5313C14.1779 16.6271 15.5576 16.9853 16.636 17.5362C17.9051 18.1847 18.8733 19.1576 19.9758 20.5664C20.2731 20.9458 20.7793 21.0951 21.2356 20.9385C21.692 20.7815 22.0001 20.3529 22.0003 19.8711C22.0002 16.9865 21.5099 13.9007 19.8518 11.5108C18.2972 9.27066 15.817 7.78958 12.1809 7.53714V4.12894L12.1692 3.96487C12.1135 3.58739 11.8686 3.25798 11.513 3.09866Z" fill="#007AFF"/>
</svg>
