<svg width="24" height="24" viewBox="0 0 24 24" fill="none" xmlns="http://www.w3.org/2000/svg">
<path d="M8.95576 4.41058C11.8865 1.48 16.6383 1.48 19.569 4.41058C22.4996 7.34131 22.4996 12.0932 19.569 15.0239L13.6638 20.9291C11.4904 23.1025 7.96607 23.1025 5.79268 20.9291C3.61945 18.7557 3.61934 15.2314 5.79268 13.058L11.6931 7.15863C13.1091 5.74268 15.4049 5.74276 16.821 7.15863C18.2368 8.57468 18.2369 10.8706 16.821 12.2866L11.7897 17.3178C11.4383 17.6689 10.8687 17.669 10.5173 17.3178C10.166 16.9664 10.1661 16.3968 10.5173 16.0454L15.5485 11.0141C16.2615 10.3011 16.2614 9.1442 15.5485 8.43109C14.8354 7.71817 13.6786 7.71808 12.9655 8.43109L7.06514 14.3315C5.59517 15.8019 5.595 18.1864 7.06514 19.6567C8.53558 21.1271 10.9209 21.1271 12.3913 19.6567L18.2966 13.7514C20.5243 11.5236 20.5234 7.91082 18.2956 5.68305C16.0679 3.45582 12.4569 3.45588 10.2292 5.68305L5.19209 10.7202C4.84059 11.0713 4.27099 11.0705 3.91963 10.7192C3.5684 10.3678 3.56754 9.79817 3.91865 9.44672L8.95576 4.41058Z" fill="#3C3C43" fill-opacity="0.7"/>
</svg>
