<svg width="16" height="16" viewBox="0 0 16 16" fill="none" xmlns="http://www.w3.org/2000/svg">
<path fill-rule="evenodd" clip-rule="evenodd" d="M8.17708 0.664063C8.73021 0.66408 9.26223 0.875788 9.66471 1.25521L12.8216 4.23047C13.3748 4.75558 13.6888 5.48465 13.6914 6.2474V11.193C13.6914 11.8126 13.6916 12.3088 13.6589 12.71C13.6252 13.1219 13.5546 13.4787 13.3874 13.807C13.1196 14.3325 12.6922 14.7599 12.1667 15.0277C11.8384 15.1949 11.4816 15.2655 11.0697 15.2992C10.6685 15.3319 10.1723 15.3324 9.55273 15.3324H7.11393C6.49437 15.3324 5.33147 15.3319 4.93034 15.2992C4.51839 15.2655 4.16159 15.1949 3.83333 15.0277C3.30777 14.7599 2.88042 14.3325 2.61263 13.807C2.44538 13.4787 2.3748 13.1219 2.34115 12.71C2.30838 12.3088 2.30859 11.8126 2.30859 11.193L2.30859 4.80339C2.30859 4.18387 2.30839 3.68758 2.34115 3.28646C2.3748 2.87456 2.44542 2.51767 2.61263 2.18945C2.88041 1.6639 3.30779 1.23655 3.83333 0.96875C4.16159 0.801496 4.51839 0.730923 4.93034 0.697266C5.33147 0.664501 6.49437 0.664058 7.11393 0.664063H8.17708ZM7.13607 1.6901C6.48918 1.6901 5.36813 1.69044 5.01367 1.7194C4.66539 1.74786 4.45894 1.80162 4.29948 1.88281C3.967 2.05222 3.69612 2.32247 3.52669 2.65495C3.44542 2.81445 3.39241 3.0213 3.36393 3.36979C3.33498 3.72426 3.33464 4.1786 3.33464 4.82552V11.1709C3.33464 11.8178 3.33497 12.2722 3.36393 12.6266C3.39239 12.9749 3.44552 13.1814 3.52669 13.3408C3.69611 13.6733 3.96697 13.9442 4.29948 14.1136C4.45892 14.1948 4.66545 14.2479 5.01367 14.2764C5.36813 14.3053 6.48918 14.3057 7.13607 14.3057H9.5306C10.1775 14.3057 10.6319 14.3053 10.9863 14.2764C11.3345 14.2479 11.5411 14.1948 11.7005 14.1136C12.033 13.9442 12.3039 13.6733 12.4733 13.3408C12.5545 13.1814 12.6076 12.9748 12.6361 12.6266C12.665 12.2722 12.6654 11.8178 12.6654 11.1709V6.778H9.98112C9.67907 6.778 9.42145 6.77767 9.21029 6.76042C8.98855 6.74228 8.77263 6.70273 8.56641 6.59766C8.25544 6.43916 8.00286 6.18599 7.8444 5.875C7.73933 5.66872 7.69911 5.45291 7.68099 5.23112C7.66376 5.02 7.66405 4.76287 7.66406 4.46094V1.6901H7.13607ZM8.6901 4.44076C8.6901 4.76847 8.69035 4.98342 8.70378 5.14779C8.71672 5.30617 8.73933 5.37195 8.75846 5.40951C8.81858 5.52746 8.91459 5.62349 9.03255 5.68359C9.07014 5.70272 9.13609 5.72536 9.29427 5.73828C9.45862 5.7517 9.6737 5.75195 10.0013 5.75195H12.5918C12.5043 5.45859 12.3414 5.19003 12.1152 4.97526L8.96094 2.0013C8.87964 1.9247 8.78825 1.86114 8.6901 1.81185V4.44076Z" fill="#020203"/>
</svg>
