<svg width="16" height="16" viewBox="0 0 16 16" fill="none" xmlns="http://www.w3.org/2000/svg">
<path d="M9.49996 10.1344C9.49996 9.75823 9.83856 9.4701 10.2024 9.56536C10.6908 9.69324 11.1402 9.863 11.5332 10.0699C12.4399 10.5474 13.2008 11.3115 13.2011 12.3134C13.2011 13.3154 12.4399 14.0793 11.5332 14.5569C10.5985 15.049 9.34808 15.3354 8.00061 15.3355C6.65306 15.3355 5.40281 15.0489 4.46806 14.5569C3.56102 14.0793 2.79944 13.3156 2.79944 12.3134C2.79973 11.3114 3.56113 10.5474 4.46806 10.0699C4.8607 9.86326 5.30908 9.69323 5.79683 9.56536C6.16067 9.47003 6.49996 9.75823 6.49996 10.1344C6.49985 10.4246 6.2932 10.6709 6.01363 10.7489C5.64355 10.8521 5.31116 10.9824 5.0273 11.1318C4.2699 11.5305 4.00092 11.9781 4.00061 12.3134C4.00061 12.6487 4.26952 13.0961 5.0273 13.495C5.75747 13.8794 6.80786 14.1357 8.00061 14.1357C9.19328 14.1356 10.2439 13.8794 10.9739 13.495C11.7312 13.0961 12.0006 12.6486 12.0006 12.3134C12.0003 11.9782 11.7311 11.5305 10.9739 11.1318C10.6898 10.9822 10.3564 10.8521 9.98564 10.7489C9.70605 10.671 9.50009 10.4246 9.49996 10.1344Z" fill="#020203"/>
<path fill-rule="evenodd" clip-rule="evenodd" d="M7.70569 0.81145C7.89101 0.704554 8.11983 0.704079 8.3053 0.810799L8.86845 1.13502C10.511 2.08016 12.3158 2.71146 14.1894 2.99569L14.2578 3.00611C14.8233 3.09217 15.0177 3.80865 14.5735 4.16887L13.9778 4.65129C12.4489 5.88857 10.5606 6.58366 8.60608 6.64478V12.0068C8.60608 12.338 8.33704 12.6068 8.00582 12.607C7.67445 12.607 7.40556 12.3381 7.40556 12.0068V1.33098L7.41077 1.25155C7.43522 1.0688 7.54351 0.90524 7.70569 0.81145ZM8.60608 5.44426C10.1472 5.38863 11.6382 4.87724 12.8893 3.97161C11.3948 3.6377 9.953 3.09653 8.60608 2.36288V5.44426Z" fill="#020203"/>
</svg>
