<svg width="16" height="16" viewBox="0 0 16 16" fill="none" xmlns="http://www.w3.org/2000/svg">
<path fill-rule="evenodd" clip-rule="evenodd" d="M10.6265 3.77277C11.51 3.77291 12.2266 4.48952 12.2268 5.37303C12.2268 6.25669 11.5102 6.97314 10.6265 6.97329C9.74285 6.97319 9.02627 6.25672 9.02627 5.37303C9.02645 4.48949 9.74297 3.77287 10.6265 3.77277ZM10.6265 4.97329C10.4057 4.97339 10.227 5.15223 10.2268 5.37303C10.2268 5.59398 10.4056 5.77332 10.6265 5.77342C10.8474 5.77327 11.0269 5.59395 11.0269 5.37303C11.0267 5.15226 10.8473 4.97344 10.6265 4.97329Z" fill="#020203"/>
<path fill-rule="evenodd" clip-rule="evenodd" d="M12.0621 1.33787C12.9285 1.35151 13.456 1.40574 13.8837 1.62368C14.3853 1.87933 14.7934 2.28744 15.0491 2.78904C15.3396 3.35946 15.3394 4.10686 15.3394 5.60024V10.3997L15.3349 11.3893C15.3339 11.4502 15.3317 11.5094 15.3303 11.567C15.3356 11.6198 15.3345 11.6726 15.3257 11.7252C15.3024 12.3977 15.2373 12.8415 15.0491 13.2109L14.9462 13.3945C14.69 13.8121 14.3226 14.1526 13.8837 14.3763L13.7743 14.4271C13.3655 14.6027 12.8564 14.6496 12.0621 14.6621L11.0725 14.6666H4.93968L3.95009 14.6621C3.15578 14.6496 2.64663 14.6026 2.23785 14.4271L2.12848 14.3763C1.68954 14.1526 1.32217 13.8121 1.06598 13.3945L0.963114 13.2109C0.745154 12.7831 0.690939 12.2559 0.677307 11.3893L0.676005 11.2272C0.66081 11.151 0.660876 11.0727 0.675353 10.9967L0.672749 10.3997V5.60024C0.672749 4.20002 0.6728 3.45596 0.912333 2.89842L0.963114 2.78904C1.18681 2.35011 1.52725 1.98271 1.94488 1.72654L2.12848 1.62368C2.55621 1.40581 3.08361 1.3515 3.95009 1.33787L4.93968 1.33331H11.0725L12.0621 1.33787ZM11.6714 10.0019C11.5899 10.0057 11.5113 10.032 11.4449 10.0775L11.3824 10.1295L8.04515 13.4668H11.0725C11.8389 13.4668 12.3424 13.4656 12.7268 13.4342C13.0968 13.4039 13.251 13.3514 13.3388 13.3066L13.4397 13.25C13.6692 13.1091 13.8564 12.9073 13.9794 12.666L14.0139 12.5853C14.0489 12.4876 14.0843 12.3317 14.107 12.054C14.1112 12.0023 14.1129 11.9483 14.1161 11.8919L11.9703 10.1022L11.9039 10.056C11.8336 10.0168 11.7529 9.99824 11.6714 10.0019ZM5.89866 7.9505C5.78764 7.94729 5.67966 7.9868 5.59658 8.06053L5.59593 8.05988L1.87587 11.3672C1.88007 11.6382 1.88941 11.8611 1.90517 12.054C1.93544 12.4242 1.98802 12.5782 2.03278 12.666C2.17337 12.9418 2.39762 13.1661 2.6734 13.3066L2.75413 13.3411C2.85179 13.3762 3.00785 13.4115 3.28538 13.4342C3.66982 13.4656 4.17332 13.4668 4.93968 13.4668H6.41103C6.44029 13.3972 6.48325 13.3321 6.53994 13.2754L8.96767 10.8463L6.19488 8.0781C6.11631 7.99958 6.00969 7.95386 5.89866 7.9505ZM4.93968 2.53318C4.17332 2.53318 3.66982 2.53434 3.28538 2.56573C2.91544 2.59598 2.76127 2.64861 2.6734 2.69334C2.39762 2.83391 2.17337 3.0582 2.03278 3.33396C1.98802 3.42179 1.93544 3.57571 1.90517 3.94594C1.87376 4.33042 1.87262 4.8337 1.87262 5.60024V9.7656L4.7997 7.16339L4.9208 7.06508C5.21314 6.85156 5.56968 6.74048 5.93447 6.75128C6.35131 6.76371 6.74827 6.9343 7.04319 7.22915L7.04254 7.2298L9.81598 9.99803L10.5334 9.28123C10.8218 8.99245 11.2078 8.82166 11.6155 8.80271C11.9722 8.78622 12.3237 8.88696 12.6161 9.08722L12.7379 9.17902L12.7385 9.17967L14.1395 10.3476V5.60024C14.1395 4.83372 14.1384 4.33041 14.107 3.94594C14.0843 3.66826 14.0489 3.51234 14.0139 3.41469L13.9794 3.33396C13.8564 3.0927 13.6692 2.89085 13.4397 2.74998L13.3388 2.69334C13.251 2.6486 13.0968 2.59601 12.7268 2.56573C12.3424 2.53433 11.8389 2.53318 11.0725 2.53318H4.93968Z" fill="#020203"/>
</svg>
