<svg width="24" height="24" viewBox="0 0 24 24" fill="none" xmlns="http://www.w3.org/2000/svg">
<path d="M19.5049 10.9951C20.0019 10.9951 20.4053 11.3985 20.4053 11.8955C20.4052 14.1245 19.5195 16.2627 17.9434 17.8389C16.5806 19.2015 14.7977 20.0467 12.8994 20.251V22.0938C12.8993 22.5907 12.4969 22.9941 12 22.9941C11.503 22.9941 11.0997 22.5907 11.0996 22.0938V20.251C9.20165 20.0465 7.41916 19.2013 6.05664 17.8389C4.48049 16.2627 3.59482 14.1245 3.59473 11.8955C3.59473 11.3985 3.99806 10.9951 4.49512 10.9951C4.99208 10.9952 5.39453 11.3985 5.39453 11.8955C5.39463 13.6469 6.09075 15.3269 7.3291 16.5654C8.56776 17.804 10.2483 18.5 12 18.5C13.7517 18.5 15.4313 17.804 16.6699 16.5654C17.9085 15.3268 18.6044 13.6471 18.6045 11.8955C18.6045 11.3985 19.0078 10.9951 19.5049 10.9951Z" fill="#3C3C43" fill-opacity="0.7"/>
<path fill-rule="evenodd" clip-rule="evenodd" d="M12.2607 0.994141C14.9297 1.12608 17.1055 3.27179 17.1055 5.9668V12.0215L17.0986 12.2803C16.9598 14.9381 14.7 16.9995 12.001 17L11.7402 16.9941C9.15727 16.8667 7.0367 14.8525 6.90234 12.2803L6.89551 12.0215V5.9668C6.89551 3.18453 9.21436 0.986328 12.001 0.986328L12.2607 0.994141ZM12.001 2.78711C10.1505 2.78711 8.69531 4.23568 8.69531 5.9668V12.0215C8.69569 13.7523 10.1507 15.2002 12.001 15.2002C13.8508 15.1997 15.3053 13.752 15.3057 12.0215V5.9668C15.3057 4.23598 13.851 2.7876 12.001 2.78711Z" fill="#3C3C43" fill-opacity="0.7"/>
</svg>
