<svg width="16" height="16" viewBox="0 0 16 16" fill="none" xmlns="http://www.w3.org/2000/svg">
<path fill-rule="evenodd" clip-rule="evenodd" d="M4.49263 1.84665C5.00123 1.77132 5.49685 1.90885 5.90083 2.28284L5.98026 2.36097L5.99328 2.37399L6.05448 2.44235L6.07531 2.46514L6.09419 2.49118L6.13391 2.54456L6.14562 2.56149L6.22635 2.68063L6.22961 2.68454L6.23221 2.68844L7.15148 4.08753L7.1632 4.10511L7.17362 4.12399C7.63568 4.94958 7.77296 5.88548 7.1593 6.69105L7.15409 6.69821L7.14823 6.70472L7.0981 6.76592L6.66776 7.36032C6.86568 7.63903 7.07969 7.90501 7.30969 8.15784L7.50956 8.36943L7.63781 8.49769L7.93664 8.77438C8.16106 8.97252 8.39617 9.15756 8.64042 9.33102L9.24458 8.89417C9.6216 8.58391 10.0566 8.42856 10.5219 8.42933C10.9305 8.43011 11.3326 8.54974 11.714 8.74053L11.8761 8.82646L11.895 8.83688L11.9126 8.8486L13.3116 9.76852L13.3247 9.77764L13.4978 9.89808L13.5297 9.92021L13.5584 9.94561L13.6261 10.0075L13.6326 10.0133L13.6398 10.0198C14.0722 10.4373 14.2338 10.965 14.1534 11.5075C14.078 12.0161 13.7984 12.4954 13.4412 12.9104L13.434 12.9189L13.4262 12.9274L13.4067 12.9482L13.3989 12.9567L13.3911 12.9645C12.3932 13.9623 11.1459 14.3801 9.70878 14.0758C8.31939 13.7815 6.80804 12.8247 5.17362 11.2275L5.17101 11.2249L5.02974 11.0849L5.02583 11.0817L5.02258 11.0778L4.96789 11.0224L4.92232 10.9782L4.91906 10.9743L4.91516 10.971L4.77518 10.8291L4.77258 10.8265C3.20034 9.21761 2.24967 7.72877 1.93924 6.35837C1.61875 4.94295 1.99422 3.70379 2.94445 2.70277L2.94966 2.69756L3.03039 2.61488L3.04081 2.60381L3.05187 2.59339L3.07336 2.57386L3.08117 2.5667L3.08963 2.55889C3.50468 2.20172 3.98392 1.92207 4.49263 1.84665ZM4.66841 3.0335C4.46839 3.0632 4.1952 3.19188 3.87544 3.46644L3.80969 3.5348C3.13108 4.25256 2.88043 5.08321 3.10917 6.09339C3.34861 7.15037 4.12504 8.44615 5.6287 9.98532L5.76151 10.1201L5.81685 10.1741L5.82596 10.1832L5.87284 10.2314L6.01216 10.3694L6.30318 10.6474C7.74132 11.9942 8.95805 12.6903 9.95747 12.902C10.9741 13.1172 11.8128 12.8431 12.5389 12.1188L12.5421 12.1155C12.8111 11.7998 12.9372 11.5297 12.9666 11.3317C12.9911 11.1664 12.9547 11.0296 12.8097 10.8877L12.7771 10.8584L12.6521 10.7711L11.2758 9.86553C10.9692 9.69612 10.7178 9.62966 10.52 9.6292C10.3332 9.62889 10.1599 9.68644 9.98742 9.83493L9.96854 9.85186L9.94836 9.86618L9.07466 10.4977L9.07531 10.4983C8.86133 10.6536 8.58246 10.6789 8.3468 10.5719L8.24914 10.5179C7.72957 10.1776 7.24661 9.79109 6.80122 9.35837L6.63521 9.19235L6.43599 8.98011L6.43273 8.97686L6.42948 8.97295C6.08166 8.59143 5.76569 8.1838 5.48221 7.75094C5.3166 7.49809 5.3249 7.16932 5.5024 6.92477L6.13391 6.05238L6.14367 6.0387L6.15409 6.02633L6.20422 5.96383C6.41744 5.6839 6.45739 5.30814 6.13456 4.72425L5.22896 3.34795L5.16516 3.25355L5.14432 3.2249L5.11242 3.1904C4.97061 3.04543 4.83356 3.00907 4.66841 3.0335Z" fill="#020203"/>
</svg>
