<svg width="24" height="24" viewBox="0 0 24 24" fill="none" xmlns="http://www.w3.org/2000/svg">
<path d="M10.8542 5.58446C11.2076 5.29632 11.7288 5.31676 12.0583 5.64598C12.4096 5.99747 12.4097 6.56801 12.0583 6.91942L7.87761 11.1001H18.1051L18.1979 11.105C18.6516 11.1512 19.0055 11.5346 19.0055 12.0005C19.0052 12.4661 18.6514 12.8498 18.1979 12.896L18.1051 12.8999H7.8698L12.0583 17.0884L12.1198 17.1567C12.4083 17.5102 12.3878 18.0322 12.0583 18.3618C11.7288 18.6908 11.2075 18.7113 10.8542 18.4233L10.7858 18.3618L6.19597 13.772C6.00855 13.5845 5.82866 13.4057 5.69109 13.2436C5.54682 13.0737 5.39671 12.8631 5.30827 12.5913C5.18432 12.2098 5.18438 11.798 5.30827 11.4165L5.38542 11.2241C5.47173 11.0423 5.58286 10.8917 5.69109 10.7641C5.82864 10.6021 6.00852 10.4233 6.19597 10.2358L10.7858 5.64598L10.8542 5.58446Z" fill="#3C3C43" fill-opacity="0.7"/>
</svg>
