<svg width="24" height="24" viewBox="0 0 24 24" fill="none" xmlns="http://www.w3.org/2000/svg">
<path d="M11.9995 13.4463C13.9618 13.4463 15.8871 13.9497 17.477 14.8984C18.9679 15.7882 20.1099 17.04 20.6997 18.5078L20.81 18.8037L20.8354 18.8926C20.9396 19.3366 20.6929 19.7965 20.2524 19.9482C19.8119 20.0999 19.3344 19.8895 19.143 19.4756L19.1088 19.3896L19.0297 19.1797C18.6081 18.1308 17.7625 17.165 16.5551 16.4443C15.2669 15.6756 13.6648 15.2471 11.9995 15.2471C10.3343 15.2472 8.73286 15.6756 7.44478 16.4443C6.15713 17.2129 5.2804 18.26 4.89107 19.3896C4.7292 19.8595 4.21739 20.11 3.74751 19.9482C3.27763 19.7863 3.02801 19.2736 3.1899 18.8037C3.73961 17.2084 4.93201 15.8474 6.52193 14.8984C8.11177 13.9496 10.0372 13.4464 11.9995 13.4463Z" fill="#3C3C43" fill-opacity="0.7"/>
<path fill-rule="evenodd" clip-rule="evenodd" d="M12.0004 1C15.0378 1.00025 17.5004 3.46259 17.5004 6.5C17.5004 9.53741 15.0378 11.9998 12.0004 12C8.96288 12 6.50044 9.53757 6.50044 6.5C6.50044 3.46243 8.96288 1 12.0004 1ZM12.0004 2.7998C9.95699 2.7998 8.30025 4.45655 8.30025 6.5C8.30025 8.54345 9.95699 10.2002 12.0004 10.2002C14.0437 10.1999 15.7006 8.5433 15.7006 6.5C15.7006 4.4567 14.0437 2.80005 12.0004 2.7998Z" fill="#3C3C43" fill-opacity="0.7"/>
</svg>
