<svg width="24" height="24" viewBox="0 0 24 24" fill="none" xmlns="http://www.w3.org/2000/svg">
<path d="M4.27656 7.17525C4.65794 7.0514 5.069 7.05143 5.45039 7.17525L5.64374 7.2524C5.82511 7.33858 5.97543 7.45005 6.10273 7.55806C6.2647 7.69556 6.44368 7.87557 6.63105 8.06294L8.45429 9.88619C8.80532 10.2376 8.80548 10.8073 8.45429 11.1586C8.10282 11.5101 7.53233 11.5101 7.18085 11.1586L5.76582 9.74263V11.0454C5.76582 13.2851 6.14487 14.4188 6.76972 15.354C7.42412 16.3333 8.35436 17.0966 9.44257 17.5473C10.5307 17.998 11.7279 18.1159 12.883 17.8862C13.3704 17.7893 13.8445 18.1059 13.9416 18.5932C14.0386 19.0806 13.7219 19.5547 13.2346 19.6518C11.7302 19.9511 10.1702 19.7974 8.75312 19.2104C7.33613 18.6234 6.12477 17.6292 5.27265 16.354C4.39103 15.0344 3.96601 13.5172 3.96601 11.0454V9.73775L2.54511 11.1586L1.90937 10.5219L1.27265 9.88619L3.09589 8.06294C3.28332 7.87552 3.46122 7.69561 3.62324 7.55806C3.79331 7.41368 4.00449 7.26368 4.27656 7.17525Z" fill="#3C3C43" fill-opacity="0.7"/>
<path d="M10.7873 4.394C12.2917 4.09475 13.8516 4.24841 15.2687 4.8354C16.6857 5.42242 17.8971 6.41657 18.7492 7.69185C19.6307 9.01134 20.0559 10.5287 20.0559 13.0004V14.3071L21.4768 12.8862L22.1125 13.5229L22.7492 14.1586L20.926 15.9819C20.7386 16.1693 20.5606 16.3492 20.3986 16.4868C20.2286 16.6312 20.0174 16.7811 19.7453 16.8696C19.3638 16.9935 18.9529 16.9935 18.5715 16.8696L18.3781 16.7924C18.1966 16.7062 18.0465 16.5949 17.9191 16.4868C17.7571 16.3492 17.5783 16.1694 17.3908 15.9819L15.5676 14.1586C15.2165 13.8072 15.2163 13.2375 15.5676 12.8862C15.9191 12.5349 16.4896 12.5348 16.841 12.8862L18.2561 14.3012V13.0004C18.2561 10.7609 17.8769 9.62697 17.2521 8.69185C16.5977 7.71249 15.6675 6.94924 14.5793 6.49849C13.4912 6.04782 12.294 5.92988 11.1389 6.15962C10.6517 6.25639 10.1775 5.93963 10.0803 5.45259C9.98333 4.96524 10.3 4.49117 10.7873 4.394Z" fill="#3C3C43" fill-opacity="0.7"/>
<path d="M21.4768 12.8862C21.8282 12.5351 22.3979 12.5349 22.7492 12.8862C23.1006 13.2375 23.1003 13.8071 22.7492 14.1586L21.4768 12.8862Z" fill="#3C3C43" fill-opacity="0.7"/>
<path d="M2.54511 11.1586C2.19366 11.5099 1.62406 11.51 1.27265 11.1586C0.921625 10.8072 0.92151 10.2375 1.27265 9.88619L2.54511 11.1586Z" fill="#3C3C43" fill-opacity="0.7"/>
</svg>
