<svg width="16" height="16" viewBox="0 0 16 16" fill="none" xmlns="http://www.w3.org/2000/svg">
<path d="M13.709 5.60024C13.9886 5.60042 14.2154 5.82711 14.2155 6.10675V10.8678C14.2154 12.6165 12.7975 14.0343 11.0488 14.0345H4.95183C3.20301 14.0345 1.78529 12.6166 1.78516 10.8678V6.10675C1.78524 5.82707 2.01195 5.60032 2.29167 5.60024H13.709Z" fill="#007AFF"/>
<path d="M10.7806 0.667297C11.0566 0.667385 11.2805 0.891335 11.2806 1.1673V1.60284H11.7207C13.0983 1.60301 14.2148 2.71997 14.2148 4.09764C14.2146 4.37627 13.9889 4.60208 13.7103 4.60219H2.28972C2.01115 4.60206 1.78475 4.37632 1.78451 4.09764C1.78451 2.71995 2.90164 1.60298 4.2793 1.60284H4.73242V1.1673C4.73257 0.891335 4.95645 0.667385 5.23242 0.667297C5.50848 0.667297 5.73228 0.891281 5.73242 1.1673V1.60284H10.2806V1.1673C10.2808 0.891281 10.5046 0.667297 10.7806 0.667297Z" fill="#007AFF"/>
</svg>
