<svg width="16" height="16" viewBox="0 0 16 16" fill="none" xmlns="http://www.w3.org/2000/svg">
<g clip-path="url(#clip0_121_3008)">
<path d="M12.2187 15C11.6087 15 10.7519 14.7794 9.46873 14.0625C7.90842 13.1875 6.70154 12.3797 5.14967 10.8319C3.65342 9.33658 2.9253 8.36845 1.90623 6.51408C0.754983 4.42033 0.951233 3.32283 1.17061 2.85377C1.43186 2.29314 1.81748 1.95783 2.31592 1.62502C2.59903 1.43953 2.89863 1.28052 3.21092 1.15002C3.24217 1.13658 3.27123 1.12377 3.29717 1.1122C3.45186 1.04252 3.68623 0.937203 3.98311 1.0497C4.18123 1.12408 4.35811 1.27627 4.63498 1.5497C5.2028 2.1097 5.97873 3.35689 6.26498 3.96939C6.45717 4.3822 6.58436 4.6547 6.58467 4.96033C6.58467 5.31814 6.40467 5.59408 6.18623 5.89189C6.1453 5.94783 6.10467 6.00127 6.06529 6.05314C5.82748 6.36564 5.7753 6.45595 5.80967 6.6172C5.87936 6.94127 6.39904 7.90595 7.25311 8.75814C8.10717 9.61033 9.04405 10.0972 9.36936 10.1666C9.53748 10.2025 9.62967 10.1481 9.95217 9.90189C9.99842 9.86658 10.0459 9.83002 10.0956 9.79345C10.4287 9.54564 10.6919 9.37033 11.0412 9.37033H11.0431C11.3472 9.37033 11.6075 9.5022 12.0387 9.7197C12.6012 10.0035 13.8859 10.7694 14.4494 11.3378C14.7234 11.6141 14.8762 11.7903 14.9509 11.9881C15.0634 12.286 14.9575 12.5194 14.8884 12.6756C14.8769 12.7016 14.864 12.73 14.8506 12.7616C14.7191 13.0733 14.5591 13.3723 14.3728 13.6547C14.0406 14.1516 13.704 14.5363 13.1422 14.7978C12.8536 14.9343 12.5379 15.0034 12.2187 15Z" fill="#007AFF"/>
<path d="M6.56312 4.84842C6.54396 4.66337 6.47903 4.48224 6.38197 4.262L6.25062 3.97586C6.1079 3.67051 5.84305 3.20622 5.54261 2.74832C5.27965 2.34754 4.99018 1.95243 4.73255 1.67313L4.62416 1.56082C4.3817 1.32138 4.21748 1.17684 4.04994 1.09549L3.97767 1.06424C3.75981 0.981684 3.57647 1.01898 3.43324 1.07205L3.30335 1.12625L3.21693 1.16434C2.90558 1.29445 2.60661 1.45257 2.32435 1.63748L2.32484 1.63797C1.85854 1.94932 1.49272 2.26185 1.235 2.75858L1.1847 2.86014C0.968172 3.32312 0.770234 4.41547 1.92005 6.50662L2.10755 6.84403C3.032 8.48259 3.75907 9.41976 5.16078 10.8206L5.4474 11.1023C6.86321 12.4685 8.01436 13.2288 9.47621 14.0486L9.71156 14.1775C10.864 14.7918 11.6505 14.9842 12.2189 14.9842C12.5357 14.9876 12.849 14.9189 13.1354 14.7835L13.2374 14.7337C13.6691 14.5101 13.9622 14.2062 14.235 13.8265L14.36 13.6458C14.5457 13.3643 14.705 13.0663 14.8361 12.7556L14.8742 12.6692L14.9284 12.5389C14.9769 12.4071 15.0127 12.2425 14.9547 12.0476L14.9362 11.9934C14.8812 11.8479 14.7831 11.7134 14.6217 11.5389L14.4381 11.3489C14.1577 11.066 13.6967 10.7332 13.235 10.4353C12.8888 10.212 12.5429 10.0085 12.2731 9.86112L12.0319 9.73368C11.5996 9.51565 11.3427 9.38602 11.0431 9.38602H11.0411C10.7405 9.38605 10.5044 9.51752 10.2267 9.71659L10.1051 9.80594L9.96156 9.91434C9.80073 10.0371 9.69566 10.1134 9.60951 10.1541C9.54366 10.1852 9.48861 10.1958 9.42835 10.1912L9.36634 10.1819C9.20097 10.1467 8.88315 10.0065 8.50111 9.76932C8.11864 9.53189 7.67021 9.19623 7.24232 8.76932C6.81437 8.34231 6.47018 7.88689 6.22425 7.49784C6.00946 7.15803 5.86872 6.86755 5.81312 6.68973L5.79457 6.62039C5.77672 6.53666 5.7814 6.47013 5.82142 6.38504C5.86076 6.3015 5.93434 6.19949 6.05287 6.04373L6.17347 5.8826L6.25355 5.77176C6.43372 5.51535 6.56898 5.26834 6.56898 4.96024L6.56312 4.84842ZM6.59828 5.02762C6.58012 5.31468 6.44733 5.5508 6.27894 5.79032L6.19886 5.90116L6.07777 6.06278C5.95865 6.21931 5.88737 6.31873 5.84974 6.39871C5.81286 6.47717 5.80832 6.53656 5.82484 6.61405L5.84291 6.68094C5.89714 6.85418 6.03604 7.14177 6.25062 7.48123C6.49546 7.86856 6.83822 8.32172 7.26429 8.74686C7.69035 9.17198 8.13699 9.50611 8.51771 9.74247C8.89895 9.97913 9.21275 10.117 9.37269 10.1512L9.43031 10.1599C9.48559 10.1642 9.53553 10.1545 9.59632 10.1258C9.67886 10.0867 9.78106 10.0127 9.94251 9.88944L10.0861 9.78104L10.2081 9.69168C10.4871 9.49156 10.7304 9.3548 11.0411 9.35477H11.0431C11.3516 9.35477 11.6154 9.48891 12.0455 9.70584L12.2882 9.83377C12.5588 9.98161 12.9054 10.1853 13.2521 10.409C13.7142 10.7071 14.1776 11.0414 14.4606 11.3269L14.6442 11.5174C14.8069 11.6934 14.9084 11.8317 14.9655 11.9827L14.9845 12.0389C15.067 12.3163 14.9677 12.5354 14.903 12.6819H14.9025L14.8649 12.7679C14.766 13.0023 14.6512 13.2296 14.5211 13.448L14.3859 13.6634C14.053 14.1613 13.7141 14.548 13.1486 14.8113L13.1491 14.8118C12.8585 14.9492 12.5403 15.0183 12.2189 15.0149V15.0154C11.6435 15.0154 10.8519 14.8205 9.69691 14.2049L9.46107 14.076C7.99742 13.2552 6.84409 12.4932 5.42591 11.1248L5.1388 10.8431C3.73514 9.44027 3.0065 8.50054 2.0807 6.85965L1.89271 6.52176C0.74003 4.42541 0.934163 3.3221 1.15638 2.84696L1.20716 2.74393C1.46834 2.24064 1.83899 1.92477 2.30726 1.61209L2.52357 1.47733C2.74242 1.34795 2.96996 1.23364 3.20472 1.13553L3.29066 1.09793L3.4225 1.04227C3.56939 0.987876 3.76108 0.948877 3.98841 1.03494L4.06361 1.06717C4.23672 1.15123 4.40416 1.2994 4.64613 1.53836L4.75501 1.65164C5.01457 1.93296 5.30518 2.32994 5.56849 2.73123C5.86943 3.1899 6.13538 3.65552 6.27894 3.96268L6.41029 4.24881C6.52749 4.51465 6.59998 4.72793 6.60023 4.96024L6.59828 5.02762Z" fill="#007AFF"/>
</g>
<defs>
<clipPath id="clip0_121_3008">
<rect width="16" height="16" fill="white"/>
</clipPath>
</defs>
</svg>
