<svg width="16" height="16" viewBox="0 0 16 16" fill="none" xmlns="http://www.w3.org/2000/svg">
<path d="M1.85287 6.29559C1.95326 6.15896 2.17333 6.2055 2.20964 6.37111C2.21426 6.39233 2.2142 6.43913 2.2142 6.53257C2.21432 9.2674 3.7397 11.646 5.98568 12.8646C6.84714 13.3711 7.78221 13.7651 8.77084 14.028C9.04167 14.1 9.17746 14.1362 9.2194 14.1992C9.25865 14.2583 9.26332 14.3356 9.23177 14.3991C9.19798 14.4668 9.07705 14.5163 8.83529 14.6146C7.7647 15.0501 6.59418 15.291 5.36719 15.291C4.19101 15.291 3.06637 15.0705 2.0319 14.6693C1.80686 14.582 1.76067 14.2873 1.91407 14.1009C2.21339 13.7373 2.43564 13.3078 2.55534 12.8373C2.60205 12.6535 2.54519 12.4627 2.43295 12.3099C1.71213 11.3291 1.29037 10.1223 1.29037 8.81057C1.29041 7.95567 1.4716 7.14292 1.79753 6.40887C1.82585 6.34509 1.84008 6.31308 1.85287 6.29559Z" fill="#3C3C43" fill-opacity="0.7"/>
<path d="M9.41407 0.666687C12.6863 0.666836 15.339 3.31961 15.3392 6.59182C15.3392 7.84134 14.9563 8.99549 14.2969 9.94989C14.1863 10.11 14.1311 10.1904 14.1016 10.2735C14.0752 10.3476 14.0607 10.4442 14.0638 10.5228C14.0673 10.6109 14.0849 10.6692 14.1211 10.7852C14.2174 11.0936 14.3585 11.3824 14.5365 11.6439C14.713 11.9032 14.8013 12.0333 14.8073 12.1237C14.8135 12.2177 14.79 12.2895 14.7292 12.3613C14.6706 12.4304 14.5529 12.4718 14.3184 12.5541C13.362 12.8897 12.3334 13.0722 11.2624 13.0723C9.55824 13.0723 7.96245 12.6088 6.59245 11.8034C4.74393 10.8005 3.48893 8.8427 3.48893 6.59182C3.48909 3.31952 6.14173 0.666687 9.41407 0.666687Z" fill="#3C3C43" fill-opacity="0.7"/>
</svg>
