<svg width="15" height="16" viewBox="0 0 15 16" fill="none" xmlns="http://www.w3.org/2000/svg">
<path d="M0.852875 6.29559C0.953268 6.15896 1.17334 6.2055 1.20965 6.37111C1.21426 6.39233 1.2142 6.43913 1.2142 6.53257C1.21432 9.2674 2.73971 11.646 4.98569 12.8646C5.84714 13.3711 6.78222 13.7651 7.77084 14.028C8.04168 14.1 8.17747 14.1362 8.21941 14.1992C8.25866 14.2583 8.26332 14.3356 8.23178 14.3991C8.19799 14.4668 8.07706 14.5163 7.8353 14.6146C6.7647 15.0501 5.59419 15.291 4.3672 15.291C3.19101 15.291 2.06638 15.0705 1.03191 14.6693C0.806865 14.582 0.760674 14.2873 0.914073 14.1009C1.2134 13.7373 1.43565 13.3078 1.55535 12.8373C1.60206 12.6535 1.5452 12.4627 1.43295 12.3099C0.712137 11.3291 0.290375 10.1223 0.290375 8.81057C0.290416 7.95567 0.47161 7.14292 0.797536 6.40887C0.825855 6.34509 0.840092 6.31308 0.852875 6.29559Z" fill="#007AFF"/>
<path d="M8.41407 0.666687C11.6863 0.666836 14.339 3.31961 14.3392 6.59182C14.3392 7.84134 13.9563 8.99549 13.2969 9.94989C13.1863 10.11 13.1311 10.1904 13.1016 10.2735C13.0752 10.3476 13.0607 10.4442 13.0638 10.5228C13.0673 10.6109 13.0849 10.6692 13.1211 10.7852C13.2174 11.0936 13.3585 11.3824 13.5365 11.6439C13.713 11.9032 13.8013 12.0333 13.8073 12.1237C13.8136 12.2177 13.79 12.2895 13.7292 12.3613C13.6706 12.4304 13.5529 12.4718 13.3184 12.5541C12.362 12.8897 11.3334 13.0722 10.2624 13.0723C8.55825 13.0723 6.96246 12.6088 5.59246 11.8034C3.74394 10.8005 2.48894 8.8427 2.48894 6.59182C2.4891 3.31952 5.14174 0.666687 8.41407 0.666687Z" fill="#007AFF"/>
</svg>
