<svg width="16" height="16" viewBox="0 0 16 16" fill="none" xmlns="http://www.w3.org/2000/svg">
<path d="M4.75799 10.044C4.4459 10.3562 3.9397 10.3564 3.62713 10.0447C3.31455 9.73252 3.31381 9.2258 3.62583 8.91315L4.75799 10.044Z" fill="#3C3C43" fill-opacity="0.7"/>
<path d="M7.5464 5.21393C7.8412 5.11807 8.15917 5.11805 8.45396 5.21393L8.53273 5.24257C8.71059 5.31392 8.84912 5.41624 8.95656 5.50755C9.07228 5.60595 9.19847 5.73301 9.32114 5.85586L12.3745 8.91315C12.6864 9.22582 12.6857 9.73258 12.3732 10.0447C12.0606 10.3566 11.5539 10.3564 11.2417 10.044L8.18898 6.98606C8.12182 6.91881 8.0687 6.86572 8.02232 6.8207C8.01475 6.81336 8.007 6.80638 8.00018 6.79987C7.99331 6.80644 7.98568 6.81329 7.97804 6.8207C7.93162 6.86576 7.87862 6.91873 7.81138 6.98606L4.75799 10.044L4.19224 9.47825L3.62583 8.91315L6.67922 5.85586C6.8019 5.733 6.92742 5.60595 7.04315 5.50755C7.16603 5.40309 7.32972 5.28443 7.5464 5.21393Z" fill="#3C3C43" fill-opacity="0.7"/>
</svg>
