<svg width="16" height="16" viewBox="0 0 16 16" fill="none" xmlns="http://www.w3.org/2000/svg">
<path d="M7.40592 12.0069C7.40593 12.3383 7.67482 12.6072 8.00618 12.6072C8.3374 12.607 8.60644 12.3382 8.60644 12.0069V9.31163C9.72018 9.38383 10.74 9.65265 11.5329 10.0701C12.4399 10.5477 13.2007 11.3115 13.2008 12.3136C13.2008 13.3158 12.4398 14.0795 11.5329 14.5571C10.5981 15.0492 9.34799 15.3357 8.00033 15.3357C6.65263 15.3357 5.40256 15.0492 4.46777 14.5571C3.56073 14.0795 2.7998 13.3158 2.7998 12.3136C2.79998 11.3115 3.56078 10.5477 4.46777 10.0701C5.26344 9.65122 6.28763 9.38139 7.40592 9.31033V12.0069ZM7.70605 0.811634C7.8914 0.704675 8.12016 0.704242 8.30566 0.810983L8.86881 1.1352L9.17871 1.30903C10.7372 2.15812 12.4333 2.72941 14.1898 2.99588L14.2581 3.0063L14.3597 3.02908C14.8134 3.16997 14.9699 3.74733 14.6494 4.09809L14.5739 4.16906L13.9782 4.65148C12.4493 5.88875 10.561 6.58385 8.60644 6.64497V9.31163C8.40715 9.29871 8.20488 9.29146 8.00033 9.29145C7.79979 9.29145 7.60142 9.29791 7.40592 9.31033V1.33117L7.41113 1.25174C7.43552 1.06888 7.5438 0.905467 7.70605 0.811634Z" fill="#007AFF"/>
</svg>
