<svg width="24" height="24" viewBox="0 0 24 24" fill="none" xmlns="http://www.w3.org/2000/svg">
<path d="M11.1084 18.0104C11.1084 18.5075 11.5117 18.9108 12.0088 18.9108C12.5056 18.9105 12.9092 18.5073 12.9092 18.0104V13.9675C14.5798 14.0757 16.1095 14.479 17.2988 15.1051C18.6593 15.8215 19.8005 16.9672 19.8008 18.4704C19.8008 19.9736 18.6593 21.1192 17.2988 21.8356C15.8967 22.5738 14.0215 23.0036 12 23.0036C9.97845 23.0036 8.10335 22.5738 6.70117 21.8356C5.34061 21.1192 4.19922 19.9737 4.19922 18.4704C4.19948 16.9672 5.34068 15.8215 6.70117 15.1051C7.89468 14.4768 9.43095 14.0721 11.1084 13.9655V18.0104ZM11.5586 1.21745C11.8366 1.05701 12.1798 1.05636 12.458 1.21647L13.3027 1.7028L13.7676 1.96355C16.1053 3.23718 18.6494 4.09412 21.2842 4.49382L21.3867 4.50944L21.5391 4.54362C22.2196 4.75495 22.4543 5.62099 21.9736 6.14714L21.8604 6.25358L20.9668 6.97722C18.6734 8.83313 15.841 9.87578 12.9092 9.96745V13.9675C12.6102 13.9481 12.3068 13.9372 12 13.9372C11.6992 13.9372 11.4016 13.9469 11.1084 13.9655V1.99675L11.1162 1.87761C11.1528 1.60332 11.3152 1.3582 11.5586 1.21745Z" fill="#3C3C43" fill-opacity="0.7"/>
</svg>
