<svg width="82" height="32" viewBox="0 0 82 32" fill="none" xmlns="http://www.w3.org/2000/svg">
<path d="M15.2438 0.130869C15.0282 0.210939 14.5403 0.474027 14.1659 0.702799C13.7914 0.94301 13.0199 1.61789 12.4639 2.18982C11.9079 2.77319 11.057 3.75691 10.5804 4.38603C10.1039 5.00371 9.23021 6.26196 8.62885 7.17705C8.03884 8.09214 7.05171 9.73929 6.439 10.8374C5.8263 11.9355 5.00936 13.5369 4.60089 14.3834C4.20377 15.2298 3.56838 16.6253 3.19395 17.4718C2.81952 18.3182 2.33162 19.485 2.11604 20.0455C1.90046 20.606 1.49199 21.7384 1.20833 22.562C0.936021 23.3741 0.606977 24.4608 0.493513 24.9641C0.368703 25.4674 0.266586 26.1194 0.266586 26.4282C0.266586 26.7256 0.334664 27.1031 0.425435 27.2861C0.516206 27.4577 0.709094 27.7093 0.856597 27.858C0.992753 27.9953 1.3218 28.144 1.57142 28.1783C1.82104 28.2241 2.12739 28.2012 2.2522 28.1326C2.43374 28.0411 2.51316 27.8123 2.62663 27.0688C2.7174 26.5426 2.91029 25.6161 3.06914 25.0213C3.22798 24.4265 3.59107 23.2597 3.89742 22.4476C4.19242 21.624 4.75974 20.1942 5.15686 19.2448C5.55399 18.3068 6.41631 16.4194 7.0744 15.0697C7.74383 13.7199 8.57212 12.1185 8.91251 11.5237C9.2529 10.9289 9.75214 10.071 10.0245 9.63635C10.2854 9.20168 10.762 8.44673 11.0797 7.97775C11.3974 7.50877 11.976 6.68519 12.3845 6.14757C12.793 5.60996 13.4397 4.8207 13.8141 4.38603C14.1999 3.9628 14.8013 3.37943 15.1644 3.10491C15.5161 2.83038 15.8792 2.60161 15.9586 2.60161C16.0607 2.60161 16.0721 2.81894 16.0153 3.53957C15.9699 4.06575 15.8111 5.10666 15.6522 5.86161C15.4934 6.61656 15.1076 8.11501 14.8013 9.1788C14.4949 10.2426 13.8595 12.4159 13.3943 13.983C12.9178 15.5615 12.4299 17.2545 12.2937 17.7578C12.1689 18.261 11.9533 19.1647 11.8285 19.7595C11.7151 20.3543 11.6129 21.1436 11.6129 21.5096C11.6129 21.8642 11.681 22.3332 11.7718 22.5391C11.8512 22.7335 12.0328 23.0081 12.1803 23.1339C12.3505 23.2826 12.6341 23.3741 13.0199 23.397C13.4284 23.4199 13.7007 23.3741 13.9389 23.2254C14.1318 23.0996 14.5176 22.6992 14.8013 22.3218C15.0849 21.9557 16.004 20.5716 16.8323 19.2448C17.6605 17.9179 18.6023 16.4309 18.9313 15.9276C19.0717 15.7129 19.2699 15.4045 19.4889 15.0638L19.4895 15.0628C19.7836 14.6051 20.1155 14.0887 20.395 13.6627C20.8716 12.9307 21.28 12.3359 21.3141 12.3587C21.3481 12.3702 21.246 12.9421 21.0871 13.6399C20.9396 14.3376 20.7127 15.5158 20.5879 16.2707C20.4631 17.0257 20.2816 18.3411 20.1794 19.1876C20.0887 20.034 19.9752 21.5096 19.9298 22.4476C19.8958 23.4199 19.9185 24.9984 19.9979 26.1079C20.0773 27.1832 20.2135 28.5444 20.3042 29.1392C20.395 29.734 20.5425 30.4889 20.6333 30.7978C20.7127 31.118 20.9283 31.5184 21.1098 31.69C21.3595 31.9416 21.5297 32.0103 21.9154 31.9988C22.2558 31.9988 22.4941 31.9187 22.7324 31.7128C22.9139 31.5527 23.1068 31.2896 23.1408 31.118C23.1749 30.935 23.1295 30.5118 23.0387 30.1686C22.9366 29.8255 22.8118 29.1506 22.7437 28.6816C22.687 28.2126 22.6076 27.492 22.5735 27.0802C22.5395 26.6684 22.4827 25.5932 22.4374 24.6781C22.4033 23.7287 22.426 22.276 22.5054 21.3037C22.5735 20.3658 22.7324 18.8673 22.8572 17.9865C22.982 17.1058 23.2883 15.4357 23.5266 14.269C23.6258 13.8055 23.7374 13.2807 23.846 12.7706C24.0108 11.9963 24.1684 11.2558 24.2641 10.8145C24.423 10.071 24.5478 9.15592 24.5478 8.77845C24.5478 8.40098 24.4684 7.94343 24.3776 7.74898C24.2868 7.55452 24.0372 7.30287 23.8443 7.17705C23.6401 7.05122 23.3337 6.94828 23.1635 6.94828C22.982 6.94828 22.6756 7.01691 22.4827 7.09698C22.2785 7.18849 21.9381 7.40582 21.7225 7.58884C21.507 7.77185 20.9964 8.38954 20.5766 8.95003C20.1567 9.51052 19.1015 11.0547 18.2279 12.3816C17.3542 13.7085 16.3103 15.3099 15.9132 15.9619C15.5161 16.6139 15.1757 17.1058 15.153 17.0486C15.1303 17.0028 15.5728 15.4128 16.1401 13.5255C16.6961 11.6381 17.3315 9.43045 17.5584 8.60687C17.774 7.78329 18.069 6.58224 18.2052 5.9188C18.3867 5.06091 18.4661 4.3174 18.4661 3.28792C18.4775 1.98392 18.4548 1.81234 18.1938 1.29761C18.035 0.977326 17.7173 0.565536 17.479 0.382518C17.1046 0.0851148 16.923 0.0279218 16.3444 0.00504456C15.9586 -0.0178326 15.4594 0.0393604 15.2438 0.130869Z" fill="#020203"/>
<path d="M63.1254 4.48898C62.7169 4.56905 62.0588 4.75206 61.6504 4.88933C61.2419 5.02659 60.459 5.38119 59.8917 5.66715C59.3244 5.96456 58.4961 6.50217 58.0536 6.85677C57.5997 7.2228 57.0324 7.79473 56.7828 8.11501C56.5445 8.44673 56.2382 8.93859 56.102 9.20168C55.9772 9.47621 55.8637 9.89943 55.8637 10.1511C55.8637 10.5057 55.9431 10.6887 56.2041 10.9518C56.3857 11.1462 56.658 11.3064 56.8055 11.3064C56.9416 11.3178 57.1572 11.3064 57.282 11.2949C57.4068 11.2835 57.6224 11.2034 57.7699 11.1119C57.9061 11.0204 58.099 10.7573 58.2011 10.5171C58.3032 10.2883 58.5642 9.86512 58.8024 9.59059C59.0294 9.31607 59.5172 8.86996 59.8917 8.59543C60.2661 8.33235 60.9582 7.93199 61.4234 7.70322C61.8886 7.47445 62.7056 7.18849 63.2389 7.05122C63.9877 6.85677 64.4075 6.82245 65.111 6.86821C65.6102 6.90252 66.3024 6.99403 66.6428 7.0741C67.108 7.17705 67.3916 7.33719 67.7547 7.68035C68.027 7.94343 68.2993 8.33235 68.3674 8.54968C68.4355 8.76701 68.4922 9.25887 68.4809 9.63635C68.4809 10.0138 68.3674 10.6544 68.2426 11.0662C68.1178 11.478 67.8682 12.1414 67.6866 12.5532C67.5051 12.965 67.108 13.6627 66.813 14.0974C66.5066 14.5321 65.996 15.2069 65.667 15.5844C65.3493 15.9619 64.7593 16.591 64.3621 16.9799C63.965 17.3688 63.4544 17.8264 63.2389 17.9751C63.0233 18.1352 62.8304 18.2611 62.8077 18.2382C62.7963 18.2267 63.0006 17.5519 63.2842 16.7283C63.5566 15.9047 64.0444 14.5321 64.3621 13.6627C64.6798 12.8048 65.1223 11.6495 65.3493 11.1005C65.5762 10.54 65.9052 9.79649 66.0868 9.43045C66.2683 9.07586 66.4158 8.65263 66.4158 8.49249C66.4158 8.33235 66.3591 8.10357 66.3024 7.97775C66.2267 7.82523 65.9922 7.70704 65.5989 7.62315C65.077 7.50877 64.9408 7.52021 64.555 7.70322C64.3054 7.82905 64.0444 8.0235 63.965 8.14933C63.8743 8.27515 63.5452 8.99578 63.2275 9.75073C62.9098 10.5057 62.3538 11.9241 61.9908 12.8963C61.6277 13.8686 60.9696 15.7217 60.5384 17.0142C60.1073 18.3068 59.4832 20.1827 59.1769 21.1893C58.8908 22.0957 58.5127 23.3546 58.2746 24.1474L58.2011 24.3921C57.9855 25.1471 57.7018 26.188 57.577 26.7027C57.4409 27.2289 57.3387 27.8352 57.3387 28.0525C57.3387 28.2698 57.3955 28.5787 57.4522 28.7388C57.5089 28.8989 57.7359 29.1277 57.9401 29.2535C58.133 29.3794 58.394 29.4823 58.5074 29.4823C58.6095 29.4823 58.8819 29.3908 59.1088 29.2764C59.4038 29.1392 59.5513 28.9676 59.6647 28.6244C59.7442 28.3728 60.0165 27.3662 60.2661 26.3939C60.5157 25.4216 60.9128 23.9918 61.1511 23.214C61.4007 22.4476 61.6277 21.8185 61.6844 21.8185C61.7298 21.8185 61.7979 21.9557 61.8319 22.1273C61.8773 22.3103 62.1269 22.9166 62.3765 23.4771C62.6375 24.0375 63.08 24.8382 63.3523 25.25C63.636 25.6618 64.1919 26.3481 64.6004 26.7828C65.0089 27.2175 65.6443 27.7894 66.0187 28.0639C66.3931 28.327 67.0853 28.7274 67.5505 28.9447C68.0157 29.162 68.7532 29.4251 69.1957 29.5395C69.6382 29.6425 70.4438 29.7797 71.0111 29.8369C71.5784 29.8941 72.3613 29.917 72.7698 29.8827C73.1783 29.8369 73.9158 29.734 74.415 29.6425C74.9143 29.5509 75.9354 29.2764 76.6843 29.0248C77.4331 28.7731 78.477 28.3499 78.9989 28.0754C79.5209 27.8123 80.179 27.3891 80.4626 27.1374C80.7463 26.8858 81.0413 26.5197 81.1207 26.3367C81.2228 26.0851 81.2342 25.8677 81.1661 25.5589C81.098 25.3187 80.9165 25.0327 80.7463 24.9069C80.5647 24.7696 80.2584 24.6667 80.0655 24.6781C79.8613 24.6781 79.5549 24.7467 79.3847 24.8382C79.2032 24.9183 78.9876 25.0785 78.8968 25.1928C78.8061 25.3072 78.3749 25.5703 77.9324 25.7991C77.4899 26.0164 76.8318 26.3138 76.4574 26.4511C76.0829 26.5998 75.2433 26.8629 74.5852 27.0345C73.6208 27.2861 73.1442 27.3433 72.089 27.3433C71.2267 27.3547 70.5119 27.2861 69.9899 27.1488C69.5474 27.0459 68.8213 26.7599 68.3561 26.5312C67.8455 26.2795 67.1987 25.8105 66.7222 25.3644C66.291 24.9526 65.701 24.2663 65.406 23.8202C65.1223 23.3741 64.6912 22.5391 64.4643 21.9557C64.226 21.3838 64.0331 20.8119 64.0444 20.6975C64.0444 20.5945 64.3962 20.2514 64.8387 19.9311C65.2812 19.6108 66.0527 18.9245 66.552 18.3869C67.0512 17.8493 67.8114 16.9456 68.2312 16.3851C68.6624 15.8246 69.2751 14.8638 69.5928 14.269C69.9105 13.6742 70.319 12.7476 70.5005 12.21C70.6821 11.6724 70.875 10.8488 70.943 10.3799C71.0225 9.80793 71.0225 9.24743 70.943 8.72126C70.8863 8.24084 70.6934 7.62315 70.4778 7.17705C70.2736 6.76526 69.8651 6.19333 69.5701 5.88449C69.2524 5.57564 68.6738 5.17529 68.2086 4.94652C67.7547 4.72919 67.0966 4.48898 66.7562 4.43178C66.4158 4.36315 65.6216 4.3174 64.9975 4.32884C64.3735 4.32884 63.5339 4.40891 63.1254 4.48898Z" fill="#020203"/>
<path fill-rule="evenodd" clip-rule="evenodd" d="M51.745 9.86512C52.0854 9.11017 52.4712 8.40098 52.6073 8.28659C52.7662 8.14933 52.9439 8.10357 53.1406 8.14933C53.2994 8.18364 53.6285 8.43529 53.8668 8.69838C54.2866 9.14449 54.3093 9.21312 54.2525 9.69354C54.2072 9.9795 54.037 10.5514 53.8554 10.9861C53.6852 11.4093 53.5831 11.7982 53.6285 11.844C53.6852 11.8898 54.5475 11.9355 55.5574 11.9584C56.8055 11.9698 57.543 12.0385 57.8493 12.1528C58.099 12.2329 58.5188 12.5418 58.7797 12.8277C59.0747 13.148 59.313 13.5483 59.3924 13.8343C59.4719 14.1317 59.4946 14.6922 59.4492 15.2413C59.4038 15.8475 59.2222 16.6139 58.9272 17.529C58.6776 18.2839 58.1897 19.4621 57.8607 20.1599C57.5203 20.8576 56.9416 21.8871 56.5785 22.4476C56.2041 23.0081 55.6595 23.6944 55.3418 23.9575C55.0354 24.232 54.5249 24.5294 54.2185 24.6324C53.7533 24.7811 53.5604 24.7925 53.1973 24.6895C52.9477 24.6209 52.6073 24.415 52.4371 24.2434C52.2669 24.0719 52.0513 23.7287 51.9492 23.4771C51.8244 23.1682 51.7563 22.6992 51.7677 22.0472C51.7677 21.3838 51.8585 20.7089 52.0627 19.9311C52.2215 19.302 52.5846 18.2496 52.8683 17.5862C53.1519 16.9227 53.6398 15.9619 53.9462 15.4357C54.2525 14.921 54.4908 14.4634 54.4795 14.4291C54.4568 14.3948 54.037 14.4062 53.5377 14.4406C53.0385 14.4749 52.5733 14.5435 52.4939 14.5893C52.4258 14.635 52.1081 15.3785 51.7904 16.2479C51.4727 17.1058 51.0075 18.5241 50.7692 19.382C50.5196 20.2514 50.2473 21.4982 50.1452 22.1616C50.043 22.8251 49.9636 23.6944 49.9636 24.1062C49.9636 24.518 50.009 25.0327 50.0771 25.25C50.1527 25.5169 50.1527 25.7724 50.0771 26.0164C50.009 26.2223 49.8275 26.4968 49.6573 26.6227C49.4757 26.7599 49.1694 26.8629 48.9425 26.8629C48.7155 26.8629 48.4092 26.7599 48.2276 26.6227C48.0574 26.4968 47.8418 26.2223 47.7397 26.0164C47.6036 25.7648 47.5355 25.2157 47.4901 24.2778C47.4561 23.4999 47.4901 22.4819 47.5695 21.9328C47.6376 21.3952 47.683 20.9491 47.6717 20.9377C47.649 20.9377 47.2065 21.2122 46.6732 21.5782C46.1399 21.9328 45.1528 22.4705 44.4606 22.7793C43.7685 23.0767 42.7814 23.4771 42.2481 23.6601C41.7148 23.8431 40.9773 24.0147 40.6029 24.0604C40.0015 24.1176 39.854 24.0833 39.3094 23.7973C38.969 23.6258 38.5946 23.3512 38.4698 23.1911C38.3563 23.0309 38.2315 22.642 38.1974 22.3332C38.1521 21.9214 38.2088 21.5554 38.3903 21.0178C38.5265 20.606 38.969 19.5765 39.3661 18.73C39.7746 17.8836 40.0923 17.1515 40.0696 17.1058C40.0469 17.06 39.6498 17.3002 39.1846 17.6548C38.7194 17.998 37.8798 18.7186 37.3238 19.2791C36.7678 19.8281 35.9509 20.7432 35.497 21.3037C35.0432 21.8642 34.4418 22.7107 34.1468 23.1568C33.7497 23.7973 33.5228 24.0375 33.2051 24.1748C32.9668 24.2663 32.6491 24.3235 32.4902 24.2892C32.3314 24.2549 32.0704 24.0833 31.9116 23.9117C31.7414 23.7287 31.5825 23.4656 31.5371 23.3055C31.5031 23.1453 31.5258 22.8479 31.5825 22.642C31.6506 22.4476 31.6733 22.276 31.6393 22.276C31.6052 22.276 31.14 22.6077 30.5954 23.0195C30.0394 23.4313 29.37 23.8888 29.0863 24.0375C28.8027 24.1977 28.2467 24.4036 27.8382 24.5065C27.3617 24.6324 26.9419 24.6667 26.6469 24.6209C26.3972 24.5752 26.0115 24.4493 25.7959 24.3349C25.5803 24.2206 25.2286 23.946 25.0357 23.7173C24.8314 23.4885 24.5932 23.0881 24.5251 22.8136C24.4457 22.5505 24.3776 21.8985 24.3776 21.3609C24.3776 20.8233 24.4003 20.2171 24.4343 19.9997C24.4911 19.6451 24.457 19.5994 24.1507 19.5079C23.9691 19.4621 23.6968 19.302 23.5607 19.1533C23.4131 19.016 23.277 18.7758 23.243 18.6156C23.2089 18.4555 23.2316 18.1581 23.2997 17.9522C23.3564 17.7578 23.5493 17.4832 23.7195 17.3574C23.9691 17.1744 24.2074 17.1172 25.5122 17.1286L26.0228 16.2593C26.3065 15.7789 26.9192 14.9095 27.3844 14.3376C27.8609 13.7657 28.5757 13.0222 28.9729 12.7019C29.3813 12.3702 30.0394 11.9241 30.4479 11.7296C31.0152 11.4322 31.3216 11.3521 31.8208 11.3521C32.3087 11.3521 32.5583 11.4093 32.7966 11.5923C32.9668 11.7182 33.2277 12.0041 33.3752 12.2215C33.5228 12.4388 33.6249 12.782 33.6249 13.0107C33.6249 13.2281 33.5001 13.8 33.3412 14.269C33.1824 14.738 32.8647 15.4014 32.6264 15.7446C32.3995 16.0877 31.9002 16.6482 31.5144 17.0028C31.1287 17.3574 30.516 17.8035 30.1529 17.998C29.9262 18.1265 29.642 18.2774 29.3997 18.406L29.3993 18.4062C29.2537 18.4835 29.1233 18.5527 29.0296 18.6042C28.78 18.73 28.2807 18.9702 27.929 19.1304C27.3957 19.3592 27.2369 19.4964 27.0894 19.8396C26.9872 20.0798 26.8738 20.6174 26.8397 21.0292C26.783 21.5668 26.8057 21.8413 26.9078 21.9786C27.0213 22.1273 27.1007 22.1387 27.4184 22.0358C27.6113 21.9557 28.1332 21.6583 28.5757 21.3724C29.0069 21.0864 30.0281 20.2056 30.8337 19.4163C31.6279 18.6271 32.8079 17.3803 33.4433 16.6253C34.0674 15.8818 35.0205 14.7036 35.5311 13.9945C36.053 13.2967 36.5863 12.6104 36.7224 12.4617C36.8586 12.3244 37.1536 12.1757 37.3692 12.1414C37.5961 12.1071 37.9024 12.1414 38.0953 12.2329C38.2882 12.313 38.5265 12.5303 38.64 12.7248C38.7534 12.9192 38.8442 13.1823 38.8442 13.3196C38.8442 13.4683 38.64 13.9716 38.3903 14.4406C38.1407 14.9095 37.9365 15.3213 37.9365 15.3556C37.9365 15.39 38.2655 15.2069 38.674 14.9553C39.0825 14.7036 39.6725 14.3948 39.9788 14.269C40.3192 14.1317 40.8071 14.0402 41.2042 14.0402C41.6467 14.0402 41.9644 14.1088 42.2254 14.269C42.4183 14.3948 42.702 14.7151 42.8268 14.9782C43.0196 15.3671 43.0537 15.5959 43.0083 16.0992C42.9743 16.4423 42.8608 16.9799 42.7587 17.3002C42.6566 17.609 42.2027 18.6156 41.7602 19.5079C41.0794 20.8805 40.966 21.1665 41.1135 21.258C41.2042 21.3152 41.3517 21.3609 41.4312 21.3609C41.4992 21.3609 41.9077 21.2236 42.3389 21.0635C42.7587 20.8919 43.655 20.4801 44.3472 20.137C45.0393 19.7938 45.947 19.2448 46.3782 18.9245C46.8093 18.5928 47.5015 17.9636 47.9099 17.5175C48.3184 17.0829 48.829 16.4652 49.0332 16.1449C49.2374 15.8361 49.3963 15.5501 49.3963 15.4929C49.3963 15.4472 48.8176 15.6187 48.1255 15.8818C47.422 16.1449 46.5597 16.4309 46.2193 16.5338C45.6747 16.694 45.5499 16.694 45.2095 16.5453C44.9939 16.4538 44.7216 16.2364 44.6081 16.042C44.4947 15.8475 44.4039 15.4929 44.4039 15.2413C44.4115 14.9362 44.506 14.6579 44.6876 14.4062C44.8464 14.2003 45.2208 13.9144 45.5385 13.7542C45.8449 13.5941 46.832 13.2624 47.7284 13.0107C48.6134 12.7591 49.6346 12.5074 49.9977 12.4388C50.6217 12.3244 50.6558 12.313 50.8827 11.7754C50.9842 11.5536 51.2246 11.02 51.4814 10.45L51.4926 10.4253C51.5766 10.2388 51.6621 10.0489 51.745 9.86512ZM30.3571 14.269C30.0962 14.4634 29.6196 14.9553 29.3019 15.39C28.9842 15.8132 28.7686 16.1678 28.8254 16.1907C28.8707 16.2135 29.0977 16.1563 29.3133 16.0648C29.5288 15.9733 30.0281 15.6645 30.4252 15.3671C30.811 15.0811 31.1854 14.7265 31.2535 14.5778C31.3216 14.4406 31.3556 14.2347 31.3102 14.1203C31.2762 14.0173 31.1514 13.9258 31.0379 13.9258C30.9244 13.9258 30.6181 14.0745 30.3571 14.269ZM56.0453 16.305C55.773 16.7283 55.2851 17.5862 54.9787 18.2153C54.661 18.8444 54.3206 19.6909 54.2185 20.1027C54.1164 20.5145 54.0597 20.9834 54.0937 21.1665C54.1277 21.338 54.2525 21.4982 54.366 21.5325C54.4795 21.5668 54.6724 21.4867 54.8199 21.338C54.9674 21.1893 55.3304 20.6403 55.6255 20.1027C55.9318 19.5651 56.363 18.6843 56.5899 18.1238C56.8168 17.5747 57.0551 16.8884 57.1232 16.591C57.1799 16.2822 57.2139 15.9276 57.1799 15.7903C57.1345 15.6073 57.0324 15.5272 56.8282 15.5272C56.6012 15.5272 56.4424 15.6874 56.0453 16.305Z" fill="#020203"/>
<path d="M78.2728 10.7116C77.8303 10.826 77.0928 11.089 76.6276 11.2835C76.1624 11.478 75.2433 11.9469 74.5852 12.3244C73.9271 12.7019 72.9627 13.3425 72.4294 13.7428C71.8961 14.1432 71.0905 14.8638 70.648 15.3442C70.1828 15.8361 69.6722 16.5109 69.4793 16.8999C69.207 17.4489 69.139 17.7349 69.139 18.3297C69.139 18.7529 69.207 19.2105 69.2978 19.382C69.3886 19.5651 69.6836 19.9196 69.9559 20.1713C70.2282 20.4344 70.7048 20.7775 71.0111 20.9377C71.3288 21.0978 71.8621 21.3266 72.2025 21.4524C72.5429 21.5897 72.9513 21.7956 73.1102 21.9214L73.3938 22.1616C72.8719 22.5848 72.6677 22.6306 71.9529 22.6192C71.4536 22.6192 70.8296 22.5391 70.5346 22.4361C70.2282 22.3332 69.5815 21.9786 69.0822 21.6469C68.7238 21.4005 68.2953 21.107 67.9771 20.8891L67.6639 20.6746C67.2441 20.3772 67.0853 20.32 66.7562 20.3772C66.5406 20.4229 66.2456 20.5259 66.1095 20.6174C65.962 20.7089 65.7918 20.9262 65.7237 21.1093C65.6556 21.2808 65.6443 21.6126 65.6897 21.8756C65.735 22.1387 65.9279 22.4933 66.1208 22.7221C66.3137 22.9394 66.7789 23.3284 67.1533 23.6029C67.5278 23.866 68.1859 24.2663 68.6284 24.4951C69.0709 24.7124 69.6836 24.9755 69.9899 25.0785C70.3076 25.17 70.909 25.2729 71.3515 25.3187C71.8621 25.353 72.4521 25.3187 72.9967 25.2157C73.4619 25.1242 74.0746 24.9412 74.3583 24.8039C74.6419 24.6781 75.0731 24.3807 75.3114 24.1405C75.561 23.9003 75.8787 23.4427 76.0262 23.1339C76.1624 22.8251 76.2872 22.4361 76.2872 22.276C76.2872 22.1159 76.2304 21.7841 76.1624 21.5325C76.0716 21.2351 75.8106 20.8576 75.3908 20.4344C74.8916 19.9311 74.5739 19.7366 73.9044 19.485C73.4392 19.3134 72.7811 19.0618 72.4407 18.9245C72.1117 18.7872 71.7827 18.6042 71.7373 18.5356C71.6805 18.4555 71.6692 18.2496 71.7032 18.078C71.7373 17.895 72.1344 17.3917 72.6336 16.8884C73.1215 16.408 73.9952 15.6988 74.5852 15.2985C75.1752 14.9095 76.117 14.3605 76.6843 14.0745C77.2516 13.7886 77.9891 13.4568 78.3295 13.331C78.6699 13.2166 78.9649 13.1251 78.9876 13.1251C78.9989 13.1251 78.9422 13.2738 78.8741 13.4454C78.7947 13.6284 77.9891 14.5778 77.0814 15.573C76.1737 16.5567 75.3454 17.529 75.2319 17.7349C75.1298 17.9408 75.0391 18.2496 75.0391 18.4441C75.0391 18.6385 75.1412 18.9588 75.266 19.1647C75.3908 19.3592 75.6518 19.6108 75.8333 19.7023C76.0148 19.7938 76.3099 19.8739 76.4914 19.8739C76.6616 19.8739 77.0247 19.7366 77.3083 19.5536C77.592 19.3706 78.0685 18.9474 78.3749 18.6042C78.6812 18.2611 79.362 17.3116 79.9067 16.4995C80.4399 15.6759 81.064 14.6465 81.2796 14.2118C81.5178 13.7314 81.688 13.1823 81.7221 12.8392C81.7448 12.5189 81.7334 12.13 81.688 11.9469C81.654 11.7754 81.4838 11.478 81.3136 11.2721C81.1321 11.0776 80.7917 10.8145 80.542 10.7116C80.2924 10.5972 79.8613 10.5057 79.5776 10.5057C79.2939 10.5057 78.7153 10.5972 78.2728 10.7116Z" fill="#020203"/>
</svg>
