<svg width="16" height="16" viewBox="0 0 16 16" fill="none" xmlns="http://www.w3.org/2000/svg">
<g clip-path="url(#clip0_569_9850)">
<path fill-rule="evenodd" clip-rule="evenodd" d="M8.00521 0.667969C12.0553 0.667969 15.3385 3.95121 15.3385 8.0013C15.3385 12.0514 12.0553 15.3346 8.00521 15.3346C3.95512 15.3346 0.671875 12.0514 0.671875 8.0013C0.671875 3.95121 3.95512 0.667969 8.00521 0.667969ZM7.99935 3.33919C7.63125 3.33927 7.33272 3.63775 7.33268 4.00586V8.00325L7.33594 8.07161C7.36624 8.37061 7.59448 8.61059 7.88737 8.66016C7.92565 8.66699 7.96496 8.67122 8.00521 8.67122H10.7454L10.8132 8.66797C11.1494 8.63392 11.4121 8.3498 11.4121 8.00456C11.4121 7.65934 11.1494 7.37518 10.8132 7.34115L10.7454 7.33789H8.66602V4.00586C8.66598 3.6377 8.36751 3.33919 7.99935 3.33919Z" fill="#3C3C43" fill-opacity="0.72"/>
</g>
<defs>
<clipPath id="clip0_569_9850">
<rect width="16" height="16" fill="white"/>
</clipPath>
</defs>
</svg>
