<svg width="16" height="16" viewBox="0 0 16 16" fill="none" xmlns="http://www.w3.org/2000/svg">
<path d="M7.40592 12.0062C7.40593 12.3376 7.67482 12.6065 8.00618 12.6065C8.3374 12.6063 8.60644 12.3375 8.60644 12.0062V9.31093C9.72018 9.38313 10.74 9.65195 11.5329 10.0694C12.4399 10.547 13.2007 11.3108 13.2008 12.3129C13.2008 13.315 12.4398 14.0788 11.5329 14.5564C10.5981 15.0485 9.34799 15.335 8.00033 15.335C6.65263 15.335 5.40256 15.0485 4.46777 14.5564C3.56073 14.0788 2.7998 13.3151 2.7998 12.3129C2.79998 11.3108 3.56078 10.547 4.46777 10.0694C5.26344 9.65052 6.28763 9.38069 7.40592 9.30963V12.0062ZM7.70605 0.810932C7.8914 0.703973 8.12016 0.703541 8.30566 0.810281L8.86881 1.1345L9.17871 1.30833C10.7372 2.15742 12.4333 2.72871 14.1898 2.99518L14.2581 3.00559L14.3597 3.02838C14.8134 3.16927 14.9699 3.74663 14.6494 4.09739L14.5739 4.16835L13.9782 4.65078C12.4493 5.88805 10.561 6.58315 8.60644 6.64427V9.31093C8.40715 9.29801 8.20488 9.29075 8.00033 9.29075C7.79979 9.29075 7.60142 9.29721 7.40592 9.30963V1.33046L7.41113 1.25104C7.43552 1.06818 7.5438 0.904765 7.70605 0.810932Z" fill="#3C3C43" fill-opacity="0.72"/>
</svg>
