<svg width="16" height="16" viewBox="0 0 16 16" fill="none" xmlns="http://www.w3.org/2000/svg">
<path d="M5.29723 9.32552C6.31073 9.32554 7.29589 9.64409 8.09996 10.2318C8.54285 10.5555 8.9173 10.9507 9.20803 11.3965C9.62203 12.0312 9.26329 12.827 8.5915 13.1777C6.5275 14.2551 4.06697 14.2551 2.00296 13.1777C1.33116 12.827 0.972406 12.0312 1.38642 11.3965C1.67717 10.9507 2.05157 10.5555 2.49449 10.2318C3.29858 9.64408 4.28369 9.32552 5.29723 9.32552Z" fill="#3C3C43" fill-opacity="0.72"/>
<path d="M11.5225 9.59505C12.3143 9.59505 13.0844 9.88134 13.7126 10.4089C14.1248 10.7551 14.4612 11.193 14.7015 11.6895C14.9289 12.1592 14.6926 12.697 14.2451 12.9655C12.9172 13.7621 11.3271 13.927 9.89033 13.4609C10.4364 12.8003 10.7011 11.8559 10.1787 10.9395L10.1019 10.8132C9.95888 10.5939 9.79907 10.3854 9.62535 10.1882C10.1929 9.80237 10.8497 9.59518 11.5225 9.59505Z" fill="#3C3C43" fill-opacity="0.72"/>
<path d="M11.5231 3.99609C12.8852 3.99609 13.9893 5.1002 13.9893 6.46224C13.9892 7.82422 12.8851 8.92838 11.5231 8.92838C10.1611 8.92838 9.05706 7.82422 9.05699 6.46224C9.05699 5.10021 10.1611 3.9961 11.5231 3.99609Z" fill="#3C3C43" fill-opacity="0.72"/>
<path d="M5.29723 1.70312C7.11701 1.70315 8.59215 3.17825 8.59215 4.99805C8.59209 6.81779 7.11698 8.29294 5.29723 8.29297C3.47745 8.29297 2.00236 6.81781 2.00231 4.99805C2.00231 3.17824 3.47742 1.70312 5.29723 1.70312Z" fill="#3C3C43" fill-opacity="0.72"/>
</svg>
